<?xml version="1.0" encoding="utf-8"?>
<!-- Generator: Adobe Illustrator 15.0.2, SVG Export Plug-In  -->
<!DOCTYPE svg PUBLIC "-//W3C//DTD SVG 1.1//EN" "http://www.w3.org/Graphics/SVG/1.1/DTD/svg11.dtd" [
	<!ENTITY ns_flows "http://ns.adobe.com/Flows/1.0/">
]>
<svg version="1.1"
	 xmlns="http://www.w3.org/2000/svg" xmlns:xlink="http://www.w3.org/1999/xlink" xmlns:a="http://ns.adobe.com/AdobeSVGViewerExtensions/3.0/"
	 x="0px" y="0px" width="524px" height="659px" viewBox="0 -0.5 524 659" enable-background="new 0 -0.5 524 659"
	 xml:space="preserve">
<defs>
</defs>
<linearGradient id="SVGID_3_" gradientUnits="userSpaceOnUse" x1="37.7886" y1="515.3037" x2="92.6829" y2="536.3757">
	<stop  offset="0" style="stop-color:#8B5E3C"/>
	<stop  offset="0.497" style="stop-color:#FDC060"/>
</linearGradient>
<path display="none" fill="url(#SVGID_3_)" stroke="#000000" stroke-width="3" stroke-miterlimit="10" d="M109.092,493.628l-72,70
	c0,0-13.53,0.171-11-15c2.529-15.171,23-55,23-55s1-8,21-9S109.092,493.628,109.092,493.628z"/>
<linearGradient id="SVGID_4_" gradientUnits="userSpaceOnUse" x1="430.9292" y1="536.376" x2="485.8235" y2="515.304">
	<stop  offset="0.503" style="stop-color:#FDC060"/>
	<stop  offset="1" style="stop-color:#8B5E3C"/>
</linearGradient>
<path display="none" fill="url(#SVGID_4_)" stroke="#000000" stroke-width="3" stroke-miterlimit="10" d="M414.52,493.628l72,70
	c0,0,13.529,0.171,11-15s-23-55-23-55s-1-8-21-9S414.52,493.628,414.52,493.628z"/>
<linearGradient id="SVGID_5_" gradientUnits="userSpaceOnUse" x1="1.5" y1="461.1279" x2="107.0923" y2="461.1279">
	<stop  offset="0" style="stop-color:#BCBEC0"/>
	<stop  offset="0.3333" style="stop-color:#E6E7E8"/>
</linearGradient>
<path display="none" fill="url(#SVGID_5_)" stroke="#000000" stroke-width="3" stroke-miterlimit="10" d="M2.092,456.628
	c0-18,7.316-28,35-28s51,8,51,8l19,57c0,0-71.883-16.141-90.941-9.07S2.092,456.628,2.092,456.628z"/>
<linearGradient id="SVGID_6_" gradientUnits="userSpaceOnUse" x1="416.52" y1="461.1279" x2="522.1118" y2="461.1279">
	<stop  offset="0.6316" style="stop-color:#E6E7E8"/>
	<stop  offset="0.6867" style="stop-color:#DBDCDD"/>
	<stop  offset="0.7932" style="stop-color:#CACBCD"/>
	<stop  offset="0.8984" style="stop-color:#BFC1C3"/>
	<stop  offset="1" style="stop-color:#BCBEC0"/>
</linearGradient>
<path display="none" fill="url(#SVGID_6_)" stroke="#000000" stroke-width="3" stroke-miterlimit="10" d="M521.52,456.628
	c0-18-7.316-28-35-28s-51,8-51,8l-19,57c0,0,71.883-16.141,90.941-9.07S521.52,456.628,521.52,456.628z"/>
<path display="none" fill="#FBB040" stroke="#000000" stroke-width="3" stroke-miterlimit="10" d="M2.092,456.628c0,0,8,6,23,6
	c9.731,10.067,11,32,11,58.345c-25-1.345-34-19.345-34-48.345S2.092,456.628,2.092,456.628z"/>
<path display="none" fill="#FBB040" stroke="#000000" stroke-width="3" stroke-miterlimit="10" d="M521.52,456.628c0,0-8,6-23,6
	c-9.731,10.067-11,32-11,58.345c25-1.345,34-19.345,34-48.345S521.52,456.628,521.52,456.628z"/>
<g>
	<defs>
		<path id="SVGID_2_" d="M261.113,3.5H10.092c0,0,0,138.937,0,258.714c0,161.081,140,299,251.714,341
			c118.286-39,251.714-175.92,251.714-337c0-119.778,0-262.714,0-262.714H261.113z"/>
	</defs>
	<use xlink:href="#SVGID_2_"  overflow="visible" fill="#BE1E2D"/>
	<clipPath id="SVGID_7_">
		<use xlink:href="#SVGID_2_"  overflow="visible"/>
	</clipPath>
	<g clip-path="url(#SVGID_7_)">
		<g>
			<g>
				<linearGradient id="SVGID_8_" gradientUnits="userSpaceOnUse" x1="119.9165" y1="292.5576" x2="403.6958" y2="292.5576">
					<stop  offset="0" style="stop-color:#E7A523"/>
					<stop  offset="0.1213" style="stop-color:#E7A625"/>
					<stop  offset="0.2187" style="stop-color:#E9A92D"/>
					<stop  offset="0.3078" style="stop-color:#EDAF3C"/>
					<stop  offset="0.3919" style="stop-color:#F2B751"/>
					<stop  offset="0.4719" style="stop-color:#F9C26B"/>
					<stop  offset="0.5" style="stop-color:#FEC775"/>
					<stop  offset="0.5281" style="stop-color:#F9C26B"/>
					<stop  offset="0.6081" style="stop-color:#F2B751"/>
					<stop  offset="0.6922" style="stop-color:#EDAF3C"/>
					<stop  offset="0.7813" style="stop-color:#E9A92D"/>
					<stop  offset="0.8787" style="stop-color:#E7A625"/>
					<stop  offset="1" style="stop-color:#E7A523"/>
				</linearGradient>
				<path fill="url(#SVGID_8_)" stroke="#000000" stroke-width="4.0925" stroke-miterlimit="10" d="M261.807,215.072H119.917
					v154.971c0,0,106.228,0,114.398,0c8.17,0,13.373-11.033,13.373-11.033s-1.242,0.067,14.12,0.067
					c15.359,0,14.117-0.067,14.117-0.067s5.201,11.033,13.373,11.033c8.17,0,114.398,0,114.398,0V215.072H261.807z"/>
				<g>
					<linearGradient id="SVGID_9_" gradientUnits="userSpaceOnUse" x1="128.0542" y1="287.0039" x2="262.2153" y2="287.0039">
						<stop  offset="0" style="stop-color:#E7A523"/>
						<stop  offset="0.1213" style="stop-color:#E7A625"/>
						<stop  offset="0.2187" style="stop-color:#E9A92D"/>
						<stop  offset="0.3078" style="stop-color:#EDAF3C"/>
						<stop  offset="0.3919" style="stop-color:#F2B751"/>
						<stop  offset="0.4719" style="stop-color:#F9C26B"/>
						<stop  offset="0.5" style="stop-color:#FEC775"/>
						<stop  offset="0.5281" style="stop-color:#F9C26B"/>
						<stop  offset="0.6081" style="stop-color:#F2B751"/>
						<stop  offset="0.6922" style="stop-color:#EDAF3C"/>
						<stop  offset="0.7813" style="stop-color:#E9A92D"/>
						<stop  offset="0.8787" style="stop-color:#E7A625"/>
						<stop  offset="1" style="stop-color:#E7A523"/>
					</linearGradient>
					<path fill="url(#SVGID_9_)" stroke="#000000" stroke-width="1.637" stroke-miterlimit="10" d="M244.941,365.832
						c-0.86-1.605-20.648-3.746-33.605-3.924c-12.958-0.179-31.56,0.892-83.281,0.24V224.206l25.057-16.03v135.717h109.104v21.938
						H244.941"/>
					<path fill="none" stroke="#000000" stroke-width="1.637" stroke-miterlimit="10" d="M253.811,356.492
						c-0.781-3.505-18.777-8.178-30.562-8.567c-11.784-0.39-28.703,1.946-75.741,0.524v-135.76"/>
					<path fill="none" stroke="#000000" stroke-width="1.637" stroke-miterlimit="10" d="M250.077,359.862
						c-0.803-2.976-19.273-6.944-31.368-7.275s-29.458,1.653-77.737,0.446V216.269"/>
					<path fill="none" stroke="#000000" stroke-width="1.637" stroke-miterlimit="10" d="M247.587,362.537
						c-0.825-2.165-19.823-5.052-32.263-5.292c-12.441-0.24-30.299,1.202-79.955,0.324V220.315"/>
				</g>
				<g>
					<linearGradient id="SVGID_10_" gradientUnits="userSpaceOnUse" x1="261.5864" y1="287.0039" x2="395.7485" y2="287.0039">
						<stop  offset="0" style="stop-color:#E7A523"/>
						<stop  offset="0.1213" style="stop-color:#E7A625"/>
						<stop  offset="0.2187" style="stop-color:#E9A92D"/>
						<stop  offset="0.3078" style="stop-color:#EDAF3C"/>
						<stop  offset="0.3919" style="stop-color:#F2B751"/>
						<stop  offset="0.4719" style="stop-color:#F9C26B"/>
						<stop  offset="0.5" style="stop-color:#FEC775"/>
						<stop  offset="0.5281" style="stop-color:#F9C26B"/>
						<stop  offset="0.6081" style="stop-color:#F2B751"/>
						<stop  offset="0.6922" style="stop-color:#EDAF3C"/>
						<stop  offset="0.7813" style="stop-color:#E9A92D"/>
						<stop  offset="0.8787" style="stop-color:#E7A625"/>
						<stop  offset="1" style="stop-color:#E7A523"/>
					</linearGradient>
					<path fill="url(#SVGID_10_)" stroke="#000000" stroke-width="1.637" stroke-miterlimit="10" d="M278.86,365.832
						c0.861-1.605,20.65-3.746,33.607-3.924c12.957-0.179,31.561,0.892,83.281,0.24V224.206l-25.057-16.03v135.717H261.586v21.938
						H278.86"/>
					<path fill="none" stroke="#000000" stroke-width="1.637" stroke-miterlimit="10" d="M269.991,356.492
						c0.781-3.505,18.779-8.178,30.563-8.567c11.785-0.39,28.703,1.946,75.74,0.524v-135.76"/>
					<path fill="none" stroke="#000000" stroke-width="1.637" stroke-miterlimit="10" d="M273.725,359.862
						c0.803-2.976,19.273-6.944,31.369-7.275s29.459,1.653,77.736,0.446V216.269"/>
					<path fill="none" stroke="#000000" stroke-width="1.637" stroke-miterlimit="10" d="M276.217,362.537
						c0.822-2.165,19.82-5.052,32.262-5.292c12.439-0.24,30.299,1.202,79.955,0.324V220.315"/>
				</g>
				<g>
					<radialGradient id="SVGID_11_" cx="261.8062" cy="280.4199" r="92.2867" gradientUnits="userSpaceOnUse">
						<stop  offset="0" style="stop-color:#FFFFFF"/>
						<stop  offset="0.5455" style="stop-color:#FCFBFA"/>
						<stop  offset="0.742" style="stop-color:#F3F1EF"/>
						<stop  offset="0.8815" style="stop-color:#E7E3E1"/>
						<stop  offset="0.9941" style="stop-color:#D8D1CE"/>
						<stop  offset="1" style="stop-color:#D7CFCD"/>
					</radialGradient>
					<path fill="url(#SVGID_11_)" stroke="#000000" stroke-width="1.637" stroke-miterlimit="10" d="M339.963,212.689
						c-16.029,0-25.367-3.735-39.531-3.735c-13.08,0-35.305,5.308-38.625,6.118c-3.322-0.811-25.548-6.118-38.628-6.118
						c-14.163,0-23.501,3.735-39.532,3.735s-30.536-4.513-30.536-4.513v135.717c48.278,1.706,65.642-1.096,77.736-0.629
						c10.823,0.417,30.747,9.691,30.96,9.393c0.211,0.298,20.135-8.975,30.957-9.393c12.096-0.467,29.459,2.334,77.736,0.629
						V208.176C370.5,208.176,355.995,212.689,339.963,212.689z"/>
					
						<line fill="none" stroke="#000000" stroke-width="1.637" stroke-miterlimit="10" x1="261.807" y1="215.072" x2="261.807" y2="352.657"/>
				</g>
			</g>
			
				<radialGradient id="SVGID_12_" cx="261.8052" cy="364.2744" r="14.6471" gradientTransform="matrix(-4.371139e-008 -1 3 -1.311342e-007 -831.0181 626.0797)" gradientUnits="userSpaceOnUse">
				<stop  offset="0" style="stop-color:#FEC775"/>
				<stop  offset="1" style="stop-color:#E7A523"/>
			</radialGradient>
			
				<ellipse fill="url(#SVGID_12_)" stroke="#000000" stroke-width="3.274" stroke-miterlimit="10" cx="261.805" cy="364.274" rx="17.321" ry="11.361"/>
		</g>
		<g>
			<path d="M200.754,229.073v1.046c-0.792,0.226-1.497,0.971-2.117,2.233c-0.449,0.942-1.118,3.156-2.005,6.643l-7.491,29.285
				h-0.529l-7.459-30.472c-0.898-3.675-1.5-5.833-1.805-6.473s-0.88-1.046-1.724-1.216v-1.046h10.426v1.046h-0.353
				c-0.941,0-1.583,0.208-1.925,0.622c-0.246,0.283-0.369,0.697-0.369,1.244c0,0.339,0.042,0.74,0.128,1.201
				c0.085,0.462,0.375,1.701,0.866,3.717l4.636,19.08l4.299-16.988c0.513-2.054,0.829-3.43,0.946-4.127
				c0.118-0.697,0.176-1.291,0.176-1.781c0-0.565-0.085-1.064-0.256-1.498c-0.171-0.434-0.423-0.763-0.754-0.99
				c-0.46-0.32-1.07-0.48-1.829-0.48v-1.046H200.754z"/>
			<path d="M213.122,266.357v1.046h-11.373v-1.046h0.722c0.631,0,1.139-0.198,1.524-0.594c0.278-0.264,0.492-0.716,0.642-1.356
				c0.118-0.453,0.177-1.64,0.177-3.562v-25.214c0-1.96-0.059-3.185-0.177-3.675c-0.118-0.49-0.355-0.918-0.714-1.286
				c-0.358-0.367-0.842-0.551-1.452-0.551h-0.722v-1.046h11.373v1.046H212.4c-0.631,0-1.139,0.198-1.524,0.594
				c-0.278,0.264-0.497,0.716-0.658,1.357c-0.118,0.452-0.176,1.639-0.176,3.562v25.214c0,1.96,0.062,3.185,0.185,3.675
				c0.123,0.49,0.363,0.919,0.722,1.286c0.358,0.368,0.842,0.551,1.452,0.551H213.122z"/>
			<path d="M227.542,256.492h-7.683l-0.915,3.731c-0.299,1.244-0.449,2.271-0.449,3.081c0,1.074,0.246,1.866,0.738,2.375
				c0.289,0.301,1,0.528,2.134,0.678v1.046h-7.234v-1.046c0.78-0.207,1.422-0.777,1.925-1.71c0.502-0.933,1.123-2.859,1.861-5.781
				l7.779-30.585h0.305l7.844,31.433c0.749,2.978,1.363,4.853,1.845,5.625c0.363,0.584,0.876,0.923,1.54,1.018v1.046h-10.523v-1.046
				h0.433c0.845,0,1.438-0.207,1.781-0.622c0.235-0.301,0.353-0.735,0.353-1.3c0-0.339-0.032-0.688-0.096-1.045
				c-0.021-0.17-0.182-0.876-0.481-2.12L227.542,256.492z M226.997,254.4l-3.24-13.201L220.42,254.4H226.997z"/>
			<path d="M188.892,281.443v1.046c-0.792,0.226-1.497,0.971-2.117,2.233c-0.449,0.942-1.118,3.156-2.005,6.643l-7.491,29.285
				h-0.529l-7.459-30.472c-0.898-3.675-1.5-5.833-1.805-6.473s-0.88-1.046-1.724-1.216v-1.046h10.426v1.046h-0.353
				c-0.941,0-1.583,0.208-1.925,0.622c-0.246,0.283-0.369,0.697-0.369,1.244c0,0.339,0.042,0.74,0.128,1.201
				c0.085,0.462,0.375,1.701,0.866,3.717l4.636,19.08l4.299-16.988c0.513-2.054,0.829-3.43,0.946-4.127
				c0.118-0.697,0.176-1.291,0.176-1.781c0-0.565-0.085-1.064-0.256-1.498c-0.171-0.434-0.423-0.763-0.754-0.99
				c-0.46-0.32-1.07-0.48-1.829-0.48v-1.046H188.892z"/>
			<path d="M198.18,283.648v15.603h0.433c1.379,0,2.379-0.763,3-2.29s1.016-3.778,1.187-6.756h0.61v20.07h-0.61
				c-0.128-2.186-0.398-3.976-0.81-5.371s-0.89-2.332-1.436-2.813c-0.545-0.48-1.337-0.721-2.374-0.721v10.798
				c0,2.111,0.051,3.402,0.152,3.873c0.102,0.472,0.292,0.858,0.569,1.159c0.278,0.302,0.727,0.452,1.348,0.452h1.299
				c2.032,0,3.66-0.829,4.884-2.487s2.104-4.184,2.639-7.576h0.594l-0.979,12.183h-18.8v-1.046h0.722
				c0.631,0,1.139-0.198,1.524-0.594c0.278-0.264,0.492-0.716,0.642-1.356c0.118-0.453,0.177-1.64,0.177-3.562v-25.214
				c0-1.733-0.027-2.798-0.081-3.194c-0.107-0.659-0.305-1.168-0.593-1.526c-0.407-0.527-0.962-0.792-1.668-0.792h-0.722v-1.046
				h18.206v11.335h-0.609c-0.311-2.77-0.746-4.758-1.308-5.964c-0.561-1.206-1.355-2.092-2.382-2.657
				c-0.599-0.339-1.722-0.509-3.369-0.509H198.18z"/>
			<path d="M219.867,302.305v10.741c0,2.073,0.072,3.378,0.217,3.915c0.144,0.537,0.398,0.966,0.762,1.286
				c0.363,0.321,1.042,0.48,2.037,0.48v1.046H211.75v-1.046c1.005,0,1.687-0.165,2.045-0.495c0.358-0.33,0.609-0.758,0.754-1.286
				c0.145-0.527,0.216-1.828,0.216-3.901v-24.875c0-2.073-0.072-3.378-0.216-3.915c-0.145-0.537-0.398-0.965-0.762-1.286
				c-0.363-0.32-1.042-0.48-2.037-0.48v-1.046h10.106c2.63,0,4.556,0.321,5.774,0.961c1.219,0.641,2.214,1.823,2.984,3.547
				c0.77,1.724,1.155,3.745,1.155,6.063c0,2.827-0.578,5.164-1.732,7.01c-0.738,1.169-1.77,2.045-3.096,2.629l5.229,12.975
				c0.684,1.677,1.171,2.723,1.46,3.138c0.438,0.584,0.946,0.904,1.524,0.961v1.046h-6.85l-7.01-17.469H219.867z M219.867,283.507
				v16.791h0.915c1.486,0,2.599-0.24,3.336-0.721s1.318-1.347,1.74-2.601c0.422-1.253,0.634-2.888,0.634-4.904
				c0-2.921-0.388-5.078-1.163-6.473c-0.775-1.394-2.024-2.092-3.746-2.092H219.867z"/>
			<path d="M246.896,318.728v1.046h-11.373v-1.046h0.722c0.631,0,1.139-0.198,1.524-0.594c0.278-0.264,0.492-0.716,0.642-1.356
				c0.118-0.453,0.177-1.64,0.177-3.562v-25.214c0-1.96-0.059-3.185-0.177-3.675c-0.118-0.49-0.355-0.918-0.714-1.286
				c-0.358-0.367-0.842-0.551-1.452-0.551h-0.722v-1.046h11.373v1.046h-0.722c-0.631,0-1.139,0.198-1.524,0.594
				c-0.278,0.264-0.497,0.716-0.658,1.357c-0.118,0.452-0.176,1.639-0.176,3.562v25.214c0,1.96,0.062,3.185,0.185,3.675
				c0.123,0.49,0.363,0.919,0.722,1.286c0.358,0.368,0.842,0.551,1.452,0.551H246.896z"/>
		</g>
		<g>
			<path d="M304.381,229.073v10.374h-0.68c-0.404-2.393-0.85-4.113-1.342-5.159s-1.166-1.88-2.021-2.501
				c-0.48-0.339-1.316-0.509-2.514-0.509h-1.908v29.567c0,1.96,0.072,3.185,0.217,3.675c0.145,0.49,0.428,0.919,0.85,1.286
				c0.422,0.368,0.998,0.551,1.73,0.551h0.85v1.046h-13.418v-1.046h0.852c0.742,0,1.342-0.198,1.795-0.594
				c0.326-0.264,0.586-0.716,0.775-1.356c0.137-0.453,0.207-1.64,0.207-3.562v-29.567h-1.852c-1.727,0-2.98,0.547-3.762,1.639
				c-1.096,1.527-1.789,3.703-2.078,6.53h-0.719v-10.374H304.381z"/>
			<path d="M319.008,256.492h-9.051l-1.078,3.731c-0.352,1.244-0.529,2.271-0.529,3.081c0,1.074,0.291,1.866,0.869,2.375
				c0.342,0.301,1.18,0.528,2.514,0.678v1.046h-8.521v-1.046c0.918-0.207,1.674-0.777,2.268-1.71
				c0.592-0.933,1.322-2.859,2.191-5.781l9.166-30.585h0.359l9.24,31.433c0.881,2.978,1.605,4.853,2.174,5.625
				c0.428,0.584,1.033,0.923,1.814,1.018v1.046h-12.398v-1.046h0.512c0.994,0,1.693-0.207,2.098-0.622
				c0.275-0.301,0.414-0.735,0.414-1.3c0-0.339-0.037-0.688-0.113-1.045c-0.025-0.17-0.213-0.876-0.566-2.12L319.008,256.492z
				 M318.368,254.4l-3.818-13.201l-3.932,13.201H318.368z"/>
			<path d="M349.038,228.197l0.209,12.776h-0.775c-0.365-3.203-1.264-5.78-2.693-7.731c-1.43-1.95-2.977-2.925-4.639-2.925
				c-1.285,0-2.303,0.513-3.053,1.541c-0.75,1.027-1.123,2.209-1.123,3.547c0,0.848,0.131,1.602,0.396,2.261
				c0.365,0.886,0.951,1.762,1.758,2.629c0.592,0.622,1.959,1.724,4.1,3.307c2.998,2.205,5.021,4.287,6.066,6.247
				c1.033,1.96,1.551,4.203,1.551,6.728c0,3.204-0.836,5.96-2.506,8.268c-1.668,2.309-3.789,3.462-6.357,3.462
				c-0.807,0-1.568-0.123-2.287-0.367c-0.719-0.245-1.619-0.707-2.703-1.385c-0.604-0.376-1.102-0.565-1.492-0.565
				c-0.328,0-0.674,0.189-1.039,0.565c-0.367,0.377-0.662,0.952-0.889,1.725h-0.699v-14.473h0.699
				c0.555,4.07,1.621,7.175,3.203,9.314c1.58,2.139,3.285,3.208,5.111,3.208c1.412,0,2.535-0.575,3.373-1.724
				s1.258-2.488,1.258-4.014c0-0.904-0.16-1.781-0.482-2.628c-0.32-0.848-0.811-1.654-1.465-2.417s-1.814-1.757-3.477-2.982
				c-2.332-1.714-4.006-3.175-5.027-4.381c-1.02-1.206-1.805-2.553-2.354-4.042c-0.547-1.488-0.82-3.128-0.82-4.918
				c0-3.053,0.748-5.653,2.248-7.802c1.5-2.148,3.389-3.222,5.67-3.222c0.83,0,1.637,0.151,2.418,0.452
				c0.592,0.226,1.314,0.646,2.164,1.258c0.85,0.613,1.445,0.919,1.785,0.919c0.328,0,0.586-0.151,0.775-0.453
				c0.189-0.301,0.365-1.027,0.529-2.176H349.038z"/>
			<path d="M297.842,281.443v1.046c-0.932,0.226-1.764,0.971-2.494,2.233c-0.529,0.942-1.316,3.156-2.361,6.643l-8.826,29.285
				h-0.623l-8.787-30.472c-1.059-3.675-1.768-5.833-2.127-6.473s-1.035-1.046-2.031-1.216v-1.046h12.283v1.046h-0.416
				c-1.107,0-1.863,0.208-2.268,0.622c-0.289,0.283-0.434,0.697-0.434,1.244c0,0.339,0.049,0.74,0.15,1.201
				c0.102,0.462,0.441,1.701,1.021,3.717l5.461,19.08l5.064-16.988c0.605-2.054,0.977-3.43,1.115-4.127
				c0.139-0.697,0.207-1.291,0.207-1.781c0-0.565-0.1-1.064-0.301-1.498c-0.203-0.434-0.498-0.763-0.889-0.99
				c-0.543-0.32-1.26-0.48-2.154-0.48v-1.046H297.842z"/>
			<path d="M312.415,318.728v1.046h-13.4v-1.046h0.852c0.742,0,1.342-0.198,1.795-0.594c0.328-0.264,0.58-0.716,0.756-1.356
				c0.139-0.453,0.209-1.64,0.209-3.562v-25.214c0-1.96-0.07-3.185-0.209-3.675c-0.139-0.49-0.418-0.918-0.84-1.286
				c-0.424-0.367-0.992-0.551-1.711-0.551h-0.852v-1.046h13.4v1.046h-0.852c-0.744,0-1.342,0.198-1.795,0.594
				c-0.328,0.264-0.586,0.716-0.775,1.357c-0.139,0.452-0.207,1.639-0.207,3.562v25.214c0,1.96,0.072,3.185,0.217,3.675
				c0.145,0.49,0.428,0.919,0.85,1.286c0.424,0.368,0.992,0.551,1.711,0.551H312.415z"/>
			<path d="M337.717,281.443v10.374h-0.68c-0.404-2.393-0.85-4.113-1.342-5.159s-1.166-1.88-2.021-2.501
				c-0.48-0.339-1.316-0.509-2.514-0.509h-1.908v29.567c0,1.96,0.072,3.185,0.217,3.675c0.145,0.49,0.428,0.919,0.85,1.286
				c0.422,0.368,0.998,0.551,1.73,0.551h0.85v1.046h-13.418v-1.046h0.852c0.742,0,1.342-0.198,1.795-0.594
				c0.326-0.264,0.586-0.716,0.775-1.356c0.137-0.453,0.207-1.64,0.207-3.562v-29.567h-1.852c-1.727,0-2.98,0.547-3.762,1.639
				c-1.096,1.527-1.789,3.703-2.078,6.53H314.7v-10.374H337.717z"/>
			<path d="M352.344,308.862h-9.051l-1.078,3.731c-0.352,1.244-0.529,2.271-0.529,3.081c0,1.074,0.291,1.866,0.869,2.375
				c0.342,0.301,1.18,0.528,2.514,0.678v1.046h-8.521v-1.046c0.918-0.207,1.674-0.777,2.268-1.71
				c0.592-0.933,1.322-2.859,2.191-5.781l9.166-30.585h0.359l9.24,31.433c0.881,2.978,1.605,4.853,2.174,5.625
				c0.428,0.584,1.033,0.923,1.814,1.018v1.046h-12.398v-1.046h0.512c0.994,0,1.693-0.207,2.098-0.622
				c0.275-0.301,0.414-0.735,0.414-1.3c0-0.339-0.037-0.688-0.113-1.045c-0.025-0.17-0.213-0.876-0.566-2.12L352.344,308.862z
				 M351.704,306.771l-3.818-13.201l-3.932,13.201H351.704z"/>
		</g>
	</g>
	<g clip-path="url(#SVGID_7_)">
		<linearGradient id="SVGID_13_" gradientUnits="userSpaceOnUse" x1="261.8062" y1="165.6279" x2="261.8062" y2="3.5">
			<stop  offset="0" style="stop-color:#262262"/>
			<stop  offset="0.2886" style="stop-color:#272364"/>
			<stop  offset="0.5203" style="stop-color:#29256B"/>
			<stop  offset="0.7322" style="stop-color:#2B2976"/>
			<stop  offset="0.9313" style="stop-color:#2D2E88"/>
			<stop  offset="1" style="stop-color:#2E3192"/>
		</linearGradient>
		
			<rect x="10.092" y="3.5" fill="url(#SVGID_13_)" stroke="#000000" stroke-width="2" stroke-miterlimit="10" width="503.428" height="162.128"/>
		<g>
			<radialGradient id="SVGID_14_" cx="93.4727" cy="84.7695" r="66.8972" gradientUnits="userSpaceOnUse">
				<stop  offset="0" style="stop-color:#E6E7E8"/>
				<stop  offset="0.211" style="stop-color:#E9EAEB"/>
				<stop  offset="0.3803" style="stop-color:#F1F2F2"/>
				<stop  offset="0.5" style="stop-color:#FFFFFF"/>
				<stop  offset="0.5682" style="stop-color:#E9E9EA"/>
				<stop  offset="0.6605" style="stop-color:#D5D6D8"/>
				<stop  offset="0.7588" style="stop-color:#C7C9CB"/>
				<stop  offset="0.8662" style="stop-color:#BFC0C3"/>
				<stop  offset="1" style="stop-color:#BCBEC0"/>
			</radialGradient>
			<polygon fill="url(#SVGID_14_)" stroke="#000000" stroke-width="2" stroke-miterlimit="10" points="144.444,77.367 
				144.444,61.435 129.625,61.435 129.625,77.367 100.888,77.367 100.888,48.628 116.82,48.628 116.82,33.81 100.888,33.81 
				100.888,17.878 86.07,17.878 86.07,33.81 70.138,33.81 70.138,48.628 86.07,48.628 86.07,77.354 57.32,77.354 57.32,61.423 
				42.502,61.423 42.502,77.354 26.57,77.354 26.57,92.172 42.502,92.172 42.502,108.104 57.32,108.104 57.32,92.172 86.058,92.172 
				86.058,120.911 70.126,120.911 70.126,135.729 86.058,135.729 86.058,151.661 100.875,151.661 100.875,135.729 116.808,135.729 
				116.808,120.911 100.875,120.911 100.875,92.185 129.625,92.185 129.625,108.116 144.444,108.116 144.444,92.185 160.375,92.185 
				160.375,77.367 			"/>
			<radialGradient id="SVGID_15_" cx="430.1392" cy="84.7695" r="66.897" gradientUnits="userSpaceOnUse">
				<stop  offset="0" style="stop-color:#E6E7E8"/>
				<stop  offset="0.211" style="stop-color:#E9EAEB"/>
				<stop  offset="0.3803" style="stop-color:#F1F2F2"/>
				<stop  offset="0.5" style="stop-color:#FFFFFF"/>
				<stop  offset="0.5682" style="stop-color:#E9E9EA"/>
				<stop  offset="0.6605" style="stop-color:#D5D6D8"/>
				<stop  offset="0.7588" style="stop-color:#C7C9CB"/>
				<stop  offset="0.8662" style="stop-color:#BFC0C3"/>
				<stop  offset="1" style="stop-color:#BCBEC0"/>
			</radialGradient>
			<polygon fill="url(#SVGID_15_)" stroke="#000000" stroke-width="2" stroke-miterlimit="10" points="481.109,77.367 
				481.109,61.435 466.292,61.435 466.292,77.367 437.554,77.367 437.554,48.628 453.486,48.628 453.486,33.81 437.554,33.81 
				437.554,17.878 422.736,17.878 422.736,33.81 406.804,33.81 406.804,48.628 422.736,48.628 422.736,77.354 393.986,77.354 
				393.986,61.423 379.167,61.423 379.167,77.354 363.236,77.354 363.236,92.172 379.167,92.172 379.167,108.104 393.986,108.104 
				393.986,92.172 422.724,92.172 422.724,120.911 406.792,120.911 406.792,135.729 422.724,135.729 422.724,151.661 
				437.542,151.661 437.542,135.729 453.474,135.729 453.474,120.911 437.542,120.911 437.542,92.185 466.292,92.185 
				466.292,108.116 481.109,108.116 481.109,92.185 497.042,92.185 497.042,77.367 			"/>
			<radialGradient id="SVGID_16_" cx="263.311" cy="84.7695" r="66.8972" gradientUnits="userSpaceOnUse">
				<stop  offset="0" style="stop-color:#E6E7E8"/>
				<stop  offset="0.211" style="stop-color:#E9EAEB"/>
				<stop  offset="0.3803" style="stop-color:#F1F2F2"/>
				<stop  offset="0.5" style="stop-color:#FFFFFF"/>
				<stop  offset="0.5682" style="stop-color:#E9E9EA"/>
				<stop  offset="0.6605" style="stop-color:#D5D6D8"/>
				<stop  offset="0.7588" style="stop-color:#C7C9CB"/>
				<stop  offset="0.8662" style="stop-color:#BFC0C3"/>
				<stop  offset="1" style="stop-color:#BCBEC0"/>
			</radialGradient>
			<polygon fill="url(#SVGID_16_)" stroke="#000000" stroke-width="2" stroke-miterlimit="10" points="314.281,77.367 
				314.281,61.434 299.463,61.434 299.463,77.367 270.726,77.367 270.726,48.627 286.658,48.627 286.658,33.81 270.726,33.81 
				270.726,17.877 255.908,17.877 255.908,33.81 239.976,33.81 239.976,48.627 255.908,48.627 255.908,77.354 227.158,77.354 
				227.158,61.422 212.339,61.422 212.339,77.354 196.408,77.354 196.408,92.171 212.339,92.171 212.339,108.104 227.158,108.104 
				227.158,92.171 255.896,92.171 255.896,120.912 239.964,120.912 239.964,135.728 255.896,135.728 255.896,151.662 
				270.713,151.662 270.713,135.728 286.646,135.728 286.646,120.912 270.713,120.912 270.713,92.184 299.463,92.184 
				299.463,108.116 314.281,108.116 314.281,92.184 330.213,92.184 330.213,77.367 			"/>
		</g>
	</g>
	<g clip-path="url(#SVGID_7_)">
		
			<radialGradient id="SVGID_17_" cx="261.8052" cy="477.0059" r="69.5495" gradientTransform="matrix(0.977 -0.2134 0.2134 0.977 -95.7547 66.989)" gradientUnits="userSpaceOnUse">
			<stop  offset="0" style="stop-color:#E7A523"/>
			<stop  offset="0.0107" style="stop-color:#E8A726"/>
			<stop  offset="0.1041" style="stop-color:#F0B449"/>
			<stop  offset="0.1897" style="stop-color:#F6BD62"/>
			<stop  offset="0.2639" style="stop-color:#FBC470"/>
			<stop  offset="0.3184" style="stop-color:#FEC775"/>
			<stop  offset="0.5884" style="stop-color:#F2B650"/>
			<stop  offset="0.8584" style="stop-color:#EAAA2E"/>
			<stop  offset="1" style="stop-color:#E7A523"/>
		</radialGradient>
		<path fill="url(#SVGID_17_)" d="M311.747,494.382c-11.781-4.741-8.905-8.357-15.156-14.29c-6.207-5.888-13.981-7.361-14.104-7.386
			c0.065-0.27,1.975-8.29,6.249-11.671c4.348-3.439,8.256-2.048,17.998-12.087s5.458-24.916,5.458-24.916
			s-0.43,10.717-10.434,18.536c-10.009,7.82-11.696,3.519-19.964,5.955c-8.268,2.439-13.465,8.512-13.465,8.512l-0.017,0.004
			l-0.008-0.013l-0.045,0.01l-0.029-0.033c0,0-0.684-7.963-5.984-14.762c-5.296-6.8-9.175-4.285-12.75-16.474
			c-3.575-12.184,2.32-21.145,2.32-21.145s-12.149,9.594-10.081,23.43c2.066,13.837,6.052,14.983,7.583,20.311
			c1.526,5.328-1.737,13.15-1.737,13.15l0,0l-0.014,0.043l-0.044,0.009l-0.006,0.015l-0.016,0.005c0,0-7.252-3.354-15.784-2.123
			c-8.531,1.232-8.271,5.845-20.626,2.91c-12.355-2.936-17.214-12.498-17.214-12.498s2.309,15.31,15.351,20.371
			c13.04,5.063,16.013,2.169,21.398,3.482c5.295,1.291,10.375,7.784,10.544,8.003c-0.102,0.073-6.554,4.654-9.738,12.594
			c-3.21,7.998,0.915,10.086-7.818,19.308c-8.733,9.219-19.444,8.634-19.444,8.634s14.407,5.672,25.322-3.078
			c10.917-8.746,9.901-12.77,13.736-16.771c3.659-3.815,11.454-5.004,12.167-5.107c0.029,0.343,0.798,8.082,5.978,14.731
			c5.301,6.798,9.178,4.285,12.753,16.471c3.576,12.187-2.32,21.146-2.32,21.146s12.149-9.595,10.08-23.431
			c-2.065-13.835-6.053-14.982-7.582-20.31c-1.487-5.183,1.554-12.705,1.72-13.109c0.422-0.129,8.202-2.423,13.217-0.44
			c5.153,2.038,5.91,6.118,19.478,9.517c13.571,3.401,24.297-7.761,24.297-7.761S323.528,499.12,311.747,494.382z"/>
		<g>
			<path fill="none" stroke="#F7941E" stroke-width="1.4186" stroke-miterlimit="10" d="M204.17,522.266
				c0,0,16.749,1.098,24.025-6.543c7.276-7.644,7.872-11.742,11.419-19.757c3.546-8.014,22.195-18.825,22.195-18.825"/>
			<path fill="none" stroke="#F7941E" stroke-width="1.4186" stroke-miterlimit="10" d="M251.816,404.623
				c0,0-9.378,13.921-6.435,24.053c2.946,10.132,6.186,12.712,11.329,19.81c5.14,7.096,5.104,28.655,5.104,28.655"/>
			<path fill="none" stroke="#F7941E" stroke-width="1.4186" stroke-miterlimit="10" d="M193.877,449.874
				c0,0,7.441,15.044,17.7,17.51c10.259,2.47,14.104,0.931,22.817-0.017c8.713-0.95,27.416,9.773,27.416,9.773"/>
			<path fill="none" stroke="#F7941E" stroke-width="1.4186" stroke-miterlimit="10" d="M333.015,494.122
				c0,0-14.764,7.982-24.562,4.069c-9.801-3.912-12.052-7.39-18.617-13.196c-6.563-5.804-28.026-7.854-28.026-7.854"/>
			<path fill="none" stroke="#F7941E" stroke-width="1.4186" stroke-miterlimit="10" d="M312.191,424.032
				c0,0-0.492,16.776-8.787,23.294c-8.298,6.522-12.435,6.728-20.748,9.5c-8.314,2.769-20.846,20.314-20.846,20.314"/>
			<path fill="none" stroke="#F7941E" stroke-width="1.4186" stroke-miterlimit="10" d="M271.806,549.656
				c0,0,9.378-13.92,6.435-24.053c-2.942-10.134-6.186-12.711-11.327-19.809c-5.142-7.097-5.104-28.654-5.104-28.654"/>
		</g>
		<path fill="none" stroke="#000000" stroke-width="2" stroke-miterlimit="10" d="M311.747,494.382
			c-11.781-4.741-8.905-8.357-15.156-14.29c-6.207-5.888-13.981-7.361-14.104-7.386c0.065-0.27,1.975-8.29,6.249-11.671
			c4.348-3.439,8.256-2.048,17.998-12.087s5.458-24.916,5.458-24.916s-0.43,10.717-10.434,18.536
			c-10.009,7.82-11.696,3.519-19.964,5.955c-8.268,2.439-13.465,8.512-13.465,8.512l-0.017,0.004l-0.008-0.013l-0.045,0.01
			l-0.029-0.033c0,0-0.684-7.963-5.984-14.762c-5.296-6.8-9.175-4.285-12.75-16.474c-3.575-12.184,2.32-21.145,2.32-21.145
			s-12.149,9.594-10.081,23.43c2.066,13.837,6.052,14.983,7.583,20.311c1.526,5.328-1.737,13.15-1.737,13.15l0,0l-0.014,0.043
			l-0.044,0.009l-0.006,0.015l-0.016,0.005c0,0-7.252-3.354-15.784-2.123c-8.531,1.232-8.271,5.845-20.626,2.91
			c-12.355-2.936-17.214-12.498-17.214-12.498s2.309,15.31,15.351,20.371c13.04,5.063,16.013,2.169,21.398,3.482
			c5.295,1.291,10.375,7.784,10.544,8.003c-0.102,0.073-6.554,4.654-9.738,12.594c-3.21,7.998,0.915,10.086-7.818,19.308
			c-8.733,9.219-19.444,8.634-19.444,8.634s14.407,5.672,25.322-3.078c10.917-8.746,9.901-12.77,13.736-16.771
			c3.659-3.815,11.454-5.004,12.167-5.107c0.029,0.343,0.798,8.082,5.978,14.731c5.301,6.798,9.178,4.285,12.753,16.471
			c3.576,12.187-2.32,21.146-2.32,21.146s12.149-9.595,10.08-23.431c-2.065-13.835-6.053-14.982-7.582-20.31
			c-1.487-5.183,1.554-12.705,1.72-13.109c0.422-0.129,8.202-2.423,13.217-0.44c5.153,2.038,5.91,6.118,19.478,9.517
			c13.571,3.401,24.297-7.761,24.297-7.761S323.528,499.12,311.747,494.382z"/>
	</g>
	<use xlink:href="#SVGID_2_"  overflow="visible" fill="none" stroke="#000000" stroke-width="7" stroke-miterlimit="10"/>
</g>
<radialGradient id="SVGID_18_" cx="261.8062" cy="575.5225" r="180.5935" gradientUnits="userSpaceOnUse">
	<stop  offset="0.6316" style="stop-color:#FFFFFF"/>
	<stop  offset="0.7049" style="stop-color:#F4F5F5"/>
	<stop  offset="0.8549" style="stop-color:#EAEBEB"/>
	<stop  offset="1" style="stop-color:#E6E7E8"/>
</radialGradient>
<path display="none" fill="url(#SVGID_18_)" stroke="#000000" stroke-width="3" stroke-miterlimit="10" d="M474.52,493.628
	c0,0-35,101-212.714,101s-212.714-101-212.714-101s-32,43-29,61S84.52,657.416,261.806,657.416S500.52,572.628,503.52,554.628
	S474.52,493.628,474.52,493.628z"/>
<g display="none">
	<path fill="none" d="M20.092,554.628c3,18,64.428,102.788,241.714,102.788S500.52,572.628,503.52,554.628"/>
	<path display="inline" d="M58.17,557.796l1.968-0.403l1.307,1.382l10.12-7.123c-0.281-0.464-0.494-0.771-0.636-0.922
		c-1.142-1.208-2.714-1.67-4.716-1.386c-2.002,0.285-3.851,1.229-5.546,2.831l-0.217,0.205l-3.55-0.805
		c6.417-5.409,12.402-5.177,17.956,0.697l0.579,0.612l-11.74,8.269l6.607,6.987l5.268-3.715c3.463-2.445,6.696-3.861,9.698-4.247
		c3.002-0.386,5.338,0.304,7.009,2.07c0.657,0.695,1.113,1.437,1.369,2.225l-3.231,1.21c0.174-1.638-0.038-2.773-0.638-3.408
		c-0.757-0.8-1.822-1.005-3.195-0.614c-1.374,0.391-3.327,1.461-5.86,3.213l-13.311,9.153c-2.855,1.971-4.686,3.337-5.492,4.099
		c-1.064,1.007-1.197,1.933-0.397,2.778c0.35,0.37,0.906,0.845,1.669,1.425l-1.116,0.776l-6.788-4.415l13.603-9.559l-6.606-6.987
		l-2.102,1.473c-3.333,2.336-6.61,3.646-9.833,3.935c-3.223,0.287-5.727-0.514-7.511-2.4c-1.321-1.397-1.842-3.128-1.563-5.193
		l3.732-0.525c-1.02,2.337-0.874,4.2,0.44,5.59c1.892,2,5.343,1.24,10.353-2.281l4.235-2.975L58.17,557.796z"/>
	<path display="inline" d="M79.308,597.266l4.582-4.81c-4.404,2.253-7.684,2.618-9.839,1.095c-1.502-1.061-2.191-2.624-2.069-4.688
		c0.123-2.064,1.034-4.299,2.733-6.703c1.059-1.499,3.043-3.763,5.954-6.793c2.911-3.029,5.764-5.803,8.561-8.32
		c-0.367-0.398-0.635-0.658-0.805-0.778c-1.4-0.989-3.049-1.131-4.947-0.426c-1.898,0.706-3.565,2.075-5.002,4.107l-3.639-0.089
		c5.208-6.579,11.071-7.565,17.588-2.961l0.917,0.647c-3.12,2.777-6.236,5.783-9.349,9.019c-3.113,3.234-5.281,5.718-6.504,7.448
		c-1.33,1.882-2.099,3.547-2.307,4.993c-0.208,1.447,0.176,2.516,1.152,3.205c1.026,0.726,2.467,0.838,4.323,0.337
		c1.855-0.501,3.911-1.564,6.168-3.192l15.008-15.81l3.197,1.605l-4.92,4.91l-10.637,11.191c-1.948,2.055-3.16,3.419-3.636,4.093
		c-0.887,1.255-0.766,2.281,0.363,3.078c0.399,0.282,0.949,0.584,1.651,0.905l-0.954,0.998L79.308,597.266z"/>
	<path display="inline" d="M89.419,600.879l3.374-1.85c-0.086,2.582,0.712,4.281,2.395,5.098c1.103,0.535,2.391,0.369,3.862-0.498
		c1.471-0.867,2.874-2.282,4.207-4.244l11.497-16.954c-0.427-0.333-0.734-0.545-0.921-0.636c-1.542-0.748-3.193-0.62-4.951,0.385
		c-1.758,1.006-3.18,2.628-4.266,4.868l-3.605,0.504c1.928-3.476,4.317-5.747,7.168-6.815c2.851-1.068,5.87-0.829,9.058,0.718
		l1.136,0.551c-1.468,7.431-3.493,14.82-6.075,22.168l19.061-15.87l3.234,0.976l-4.055,5.646l-9.894,14.576
		c-0.873,1.301-1.511,2.366-1.915,3.198c-0.546,1.126-0.319,1.932,0.681,2.417c0.496,0.24,1.193,0.492,2.094,0.755l-0.778,1.141
		l-7.84-1.479l15.756-23.235l-19.798,16.39l-1.593-0.394l0.27-0.557c2.427-5.005,4.548-11.651,6.363-19.941l-4.949,7.275
		c-6.089,8.983-11.49,12.332-16.202,10.047C91.087,604.32,89.982,602.906,89.419,600.879z"/>
	<path display="inline" d="M123.401,617.014l2.912-2.09c0.281,2.282,1.181,3.676,2.7,4.181c1.449,0.482,3.087,0.108,4.914-1.12
		c1.827-1.229,4.328-3.654,7.503-7.275l11.39-12.961c-1.017-0.533-1.909-0.928-2.678-1.184c-2.061-0.686-3.885-0.508-5.474,0.532
		c-1.588,1.039-2.819,2.87-3.69,5.491l-3.553,1.002c1.032-2.478,2.249-4.406,3.649-5.787c1.552-1.539,3.095-2.489,4.627-2.851
		c1.533-0.36,3.545-0.254,6.037,0.32c0.497,0.12,1.251,0.288,2.263,0.505l3.266,0.253l-2.052,6.812l-3.799,14.286
		c-0.885,3.321-1.32,5.558-1.304,6.711c0.016,1.153,0.492,1.886,1.429,2.197c0.167,0.056,0.758,0.207,1.771,0.453l-0.637,1.272
		l-7.3-0.719l2.713-10.184l-8.06-2.681c-2.788,3.181-5.123,5.278-7.004,6.294c-1.882,1.016-3.784,1.204-5.707,0.564
		C125.495,620.431,124.189,619.09,123.401,617.014z M141.165,612.892l7.321,2.436l4.116-15.536L141.165,612.892z"/>
	<path display="inline" d="M154.335,626.848l2.844-2.565c0.529,2.534,1.697,3.999,3.504,4.396c1.208,0.265,2.425-0.192,3.652-1.373
		c1.227-1.18,2.261-2.886,3.102-5.119l7.217-19.148c-0.494-0.224-0.847-0.36-1.06-0.406c-1.665-0.365-3.234,0.146-4.709,1.533
		s-2.479,3.298-3.012,5.729l-3.388,1.332c1.01-3.638,2.762-6.363,5.256-8.175c2.493-1.813,5.272-2.383,8.337-1.71l1.461,0.32
		c0.241,3.897,0.758,8.11,1.551,12.64l0.9,5.134c0.639,3.534,1.054,6.37,1.245,8.509l4.394-11.662
		c1.51-4.023,3.261-7.008,5.251-8.952s4.041-2.685,6.152-2.222c0.751,0.165,1.444,0.521,2.08,1.067l-1.713,2.573
		c-0.69-1.17-1.451-1.847-2.283-2.029c-2.192-0.481-4.237,1.809-6.134,6.868l-5.727,15.192l-2.069,6.013l-2.15,0.489
		c-0.021-1.649-0.443-4.815-1.267-9.496l-1.746-9.864c-0.464-2.636-0.813-4.977-1.044-7.022l-2.917,7.771
		c-1.854,4.909-3.944,8.535-6.272,10.879c-2.328,2.344-4.735,3.243-7.222,2.697C156.822,629.862,155.411,628.73,154.335,626.848z"/>
	<path display="inline" d="M186.746,635.598l2.777-2.779l1.033,0.154c1.171,0.174,2.115-0.221,2.832-1.186s1.524-2.955,2.425-5.971
		l5.078-16.848l-4.178-0.622l2.7-2.791l10.036,1.495l-2.809,2.774l-2.513-0.374l-4.399,14.618c-1.349,4.474-3.59,7.671-6.723,9.592
		l5.965,1.104l-2.685,2.793L186.746,635.598z"/>
	<path display="inline" d="M223.341,638.195l2.369-3.01c0.951,2.407,2.35,3.652,4.198,3.737c1.235,0.056,2.357-0.602,3.367-1.973
		c1.009-1.37,1.738-3.228,2.188-5.571l3.865-20.094c-0.524-0.138-0.895-0.212-1.113-0.222c-1.702-0.078-3.163,0.692-4.38,2.31
		c-1.218,1.618-1.883,3.67-1.997,6.157l-3.113,1.887c0.379-3.756,1.644-6.738,3.794-8.947c2.149-2.209,4.792-3.242,7.927-3.099
		l1.495,0.067c0.898,3.801,2.122,7.865,3.672,12.193l1.757,4.907c1.229,3.375,2.119,6.1,2.67,8.175l2.352-12.238
		c0.807-4.222,2.025-7.459,3.658-9.713c1.631-2.254,3.526-3.331,5.686-3.232c0.769,0.034,1.512,0.269,2.23,0.699l-1.252,2.827
		c-0.879-1.037-1.744-1.575-2.595-1.614c-2.242-0.102-3.869,2.501-4.881,7.809l-3.067,15.944l-1.02,6.276l-2.036,0.847
		c-0.3-1.622-1.253-4.671-2.859-9.144l-3.393-9.426c-0.905-2.519-1.645-4.767-2.22-6.744l-1.558,8.153
		c-0.994,5.152-2.44,9.08-4.336,11.785c-1.897,2.704-4.117,3.998-6.66,3.883C226.304,640.744,224.721,639.868,223.341,638.195z"/>
	<path display="inline" d="M256.704,641.48l2.307-3.18l1.045-0.011c1.185-0.011,2.055-0.549,2.61-1.614s1.043-3.158,1.46-6.277
		l2.373-17.436l-4.224,0.041l2.229-3.18l10.146-0.098l-2.338,3.181l-2.541,0.024l-2.052,15.128
		c-0.632,4.63-2.344,8.139-5.137,10.526l6.064,0.155l-2.214,3.18L256.704,641.48z"/>
	<path display="inline" d="M270.513,641.451l2.096-3.237l0.903-0.033c1.235-0.046,2.12-0.569,2.655-1.571s0.958-2.918,1.27-5.748
		l1.187-10.976c0.348-3.244,1.324-5.946,2.929-8.104c1.605-2.159,3.477-3.278,5.616-3.357c0.955-0.035,2.078,0.394,3.369,1.285
		l-0.583,5.338l-0.996,0.037c0.018-0.37,0.021-0.677,0.013-0.919c-0.098-2.644-1.144-3.929-3.137-3.855
		c-1.963,0.072-3.191,2.417-3.687,7.033l-1.071,9.861c-0.317,2.958-0.828,5.24-1.533,6.847s-1.84,3.05-3.404,4.332l8.714-0.129
		c2.503-0.093,4.675-0.97,6.516-2.633l-0.174,1.608c-1.39,1.816-2.44,2.983-3.154,3.501s-1.673,0.798-2.878,0.843L270.513,641.451z"
		/>
	<path display="inline" d="M314.041,637.124l1.666-3.174c1.274,1.914,2.704,2.757,4.287,2.527c1.512-0.219,2.809-1.286,3.892-3.204
		c1.082-1.917,2.23-5.206,3.446-9.866l4.372-16.691c-1.147-0.021-2.122,0.026-2.924,0.143c-2.149,0.311-3.701,1.287-4.655,2.929
		s-1.233,3.829-0.838,6.563l-2.727,2.488c-0.188-2.677,0.035-4.946,0.669-6.809c0.697-2.071,1.65-3.612,2.858-4.622
		c1.208-1.009,3.055-1.815,5.54-2.42c0.497-0.115,1.247-0.303,2.249-0.563l3.033-1.237l1.219,7.008l3.008,14.474
		c0.696,3.365,1.311,5.561,1.842,6.584c0.531,1.022,1.285,1.464,2.263,1.322c0.175-0.025,0.771-0.154,1.786-0.388l0.001,1.423
		l-6.848,2.63l-2.139-10.32l-8.407,1.217c-1.066,4.093-2.213,7.015-3.44,8.766c-1.227,1.752-2.843,2.772-4.848,3.063
		C317.443,639.24,315.675,638.626,314.041,637.124z M328.072,625.478l7.636-1.104l-3.284-15.733L328.072,625.478z"/>
	<path display="inline" d="M345.932,634.058l1.473-3.563l0.883-0.197c1.206-0.27,1.981-0.945,2.326-2.027
		c0.344-1.082,0.412-3.043,0.204-5.883l-0.827-11.009c-0.247-3.254,0.223-6.088,1.408-8.502c1.187-2.415,2.823-3.854,4.913-4.321
		c0.933-0.208,2.115,0.009,3.547,0.651l0.396,5.355l-0.974,0.218c-0.051-0.368-0.102-0.67-0.154-0.906
		c-0.576-2.582-1.838-3.656-3.785-3.222c-1.917,0.428-2.699,2.956-2.348,7.585l0.738,9.893c0.225,2.967,0.137,5.304-0.265,7.012
		c-0.401,1.707-1.255,3.333-2.561,4.878l8.545-1.71c2.444-0.545,4.421-1.803,5.93-3.771l0.12,1.612
		c-1.035,2.039-1.857,3.377-2.465,4.016c-0.608,0.639-1.501,1.089-2.677,1.352L345.932,634.058z"/>
	<path display="inline" d="M366.872,629.282l1.396-3.673l1.005-0.282c1.141-0.32,1.84-1.067,2.099-2.241
		c0.258-1.173,0.181-3.32-0.231-6.44l-2.266-17.449l-4.066,1.143l1.321-3.651l9.768-2.746l-1.426,3.682l-2.446,0.688l1.973,15.139
		c0.601,4.633-0.135,8.468-2.207,11.503l5.895-1.436l-1.306,3.647L366.872,629.282z"/>
	<path display="inline" d="M382.905,624.747l1.138-3.758l0.251-0.087c1.492-0.518,2.373-1.298,2.645-2.34
		c0.271-1.041,0.114-3.071-0.471-6.088l-3.708-19.342c-2.021,0.702-3.398,2.012-4.13,3.929c-0.731,1.918-0.683,4.073,0.147,6.465
		l0.153,0.443l-2.199,2.887c-1.167-4.157-1.043-7.573,0.372-10.247c1.415-2.675,4.174-4.724,8.277-6.146l8.658-3.004l0.669,6.159
		l-0.928,0.322c-0.104-0.552-0.228-1.035-0.372-1.452c-0.368-1.062-1.066-1.64-2.095-1.735c-1.028-0.095-2.716,0.265-5.062,1.079
		l-0.457,0.158l2.433,12.526l6.567-2.278l-0.782,2.597c-2.363,0.384-3.948,0.716-4.753,0.995l-0.736,0.255l0.445,2.281
		c0.504,2.562,0.652,4.679,0.446,6.351c-0.206,1.673-0.841,3.482-1.902,5.43l7.2-2.07l1.567-0.476c1.6-0.555,2.838-1.82,3.715-3.796
		l0.324,1.694c-0.903,3.009-2.121,4.778-3.652,5.31l-0.684,0.215L382.905,624.747z"/>
	<path display="inline" d="M402.796,615.879l0.683-3.769c1.968,1.682,3.788,2.127,5.46,1.336c1.117-0.528,1.802-1.635,2.051-3.318
		c0.25-1.684,0.025-3.666-0.675-5.948l-5.994-19.564c-0.528,0.124-0.891,0.232-1.088,0.325c-1.541,0.729-2.47,2.093-2.788,4.093
		c-0.319,2,0.054,4.125,1.118,6.375l-1.867,3.125c-1.424-3.496-1.703-6.724-0.838-9.683c0.865-2.958,2.716-5.108,5.553-6.45
		l1.353-0.64c2.573,2.938,5.559,5.956,8.955,9.055l3.851,3.513c2.667,2.405,4.729,4.396,6.188,5.973l-3.653-11.915
		c-1.264-4.107-1.703-7.539-1.316-10.295c0.387-2.755,1.557-4.595,3.51-5.519c0.695-0.329,1.462-0.471,2.299-0.427l0.217,3.084
		c-1.262-0.505-2.277-0.575-3.048-0.211c-2.028,0.96-2.247,4.021-0.655,9.186l4.756,15.524l2.038,6.022l-1.402,1.702
		c-1.025-1.293-3.295-3.54-6.809-6.741l-7.411-6.738c-1.979-1.803-3.686-3.442-5.12-4.92l2.441,7.933
		c1.534,5.019,2.097,9.167,1.688,12.444c-0.409,3.278-1.765,5.461-4.066,6.549C406.608,616.744,404.798,616.711,402.796,615.879z"/>
	<path display="inline" d="M453.062,591.197l-2.894-5.979c0.563,4.915-0.248,8.113-2.431,9.597c-1.521,1.033-3.227,1.13-5.117,0.29
		c-1.89-0.841-3.661-2.479-5.316-4.914c-1.031-1.519-2.454-4.172-4.268-7.961c-1.814-3.789-3.409-7.436-4.783-10.938
		c-0.503,0.204-0.84,0.364-1.012,0.481c-1.418,0.963-2.13,2.457-2.137,4.482c-0.006,2.024,0.69,4.066,2.089,6.126l-1.361,3.376
		c-4.33-7.188-3.195-13.023,3.406-17.508l0.928-0.631c1.504,3.896,3.224,7.87,5.159,11.921s3.499,6.953,4.689,8.706
		c1.295,1.906,2.583,3.211,3.865,3.914c1.281,0.703,2.416,0.719,3.404,0.047c1.04-0.706,1.651-2.016,1.835-3.929
		c0.183-1.912-0.092-4.211-0.822-6.896l-9.531-19.604l2.627-2.43l2.869,6.332l6.741,13.89c1.239,2.546,2.092,4.16,2.555,4.843
		c0.863,1.271,1.866,1.518,3.01,0.741c0.404-0.274,0.88-0.684,1.427-1.228l0.601,1.243L453.062,591.197z"/>
	<path display="inline" d="M460.378,583.184l-0.762-3.771c2.439,0.851,4.3,0.595,5.579-0.77c0.839-0.894,1.063-2.173,0.674-3.836
		c-0.391-1.662-1.324-3.422-2.801-5.278l-12.766-16.02c-0.446,0.309-0.74,0.539-0.882,0.69c-1.174,1.25-1.542,2.863-1.105,4.841
		c0.438,1.978,1.563,3.817,3.378,5.521l-0.591,3.592c-2.744-2.875-4.202-5.832-4.374-8.872c-0.172-3.039,0.955-5.851,3.38-8.435
		l0.863-0.92c6.658,3.611,13.11,7.743,19.357,12.395l-9.48-22.919l1.894-2.797l4.184,5.551l10.974,13.782
		c0.981,1.22,1.81,2.146,2.483,2.779c0.913,0.856,1.749,0.879,2.511,0.068c0.376-0.401,0.824-0.992,1.343-1.774l0.857,1.082
		l-3.744,7.046l-17.496-21.955l9.758,23.777l-0.85,1.404l-0.451-0.424c-4.056-3.806-9.771-7.809-17.146-12.008l5.474,6.89
		c6.766,8.486,8.356,14.639,4.772,18.457C464.161,582.615,462.483,583.249,460.378,583.184z"/>
</g>
</svg>
