<?xml version="1.0" encoding="utf-8"?>
<!-- Generator: Adobe Illustrator 15.0.0, SVG Export Plug-In  -->
<!DOCTYPE svg PUBLIC "-//W3C//DTD SVG 1.1//EN" "http://www.w3.org/Graphics/SVG/1.1/DTD/svg11.dtd" [
	<!ENTITY ns_flows "http://ns.adobe.com/Flows/1.0/">
]>
<svg version="1.1"
	 xmlns="http://www.w3.org/2000/svg" xmlns:xlink="http://www.w3.org/1999/xlink" xmlns:a="http://ns.adobe.com/AdobeSVGViewerExtensions/3.0/"
	 x="0px" y="0px" width="524px" height="659px" viewBox="132.396 -0.5 524 659" enable-background="new 132.396 -0.5 524 659"
	 xml:space="preserve">
<defs>
</defs>
<linearGradient id="SVGID_3_" gradientUnits="userSpaceOnUse" x1="170.1851" y1="515.3037" x2="225.0794" y2="536.3757">
	<stop  offset="0" style="stop-color:#8B5E3C"/>
	<stop  offset="0.497" style="stop-color:#FDC060"/>
</linearGradient>
<path fill="url(#SVGID_3_)" stroke="#000000" stroke-width="3" stroke-miterlimit="10" d="M241.489,493.628l-72,70
	c0,0-13.53,0.171-11-15c2.529-15.171,23-55,23-55s1-8,21-9S241.489,493.628,241.489,493.628z"/>
<linearGradient id="SVGID_4_" gradientUnits="userSpaceOnUse" x1="563.3257" y1="536.376" x2="618.22" y2="515.304">
	<stop  offset="0.503" style="stop-color:#FDC060"/>
	<stop  offset="1" style="stop-color:#8B5E3C"/>
</linearGradient>
<path fill="url(#SVGID_4_)" stroke="#000000" stroke-width="3" stroke-miterlimit="10" d="M546.917,493.628l72,70
	c0,0,13.529,0.171,11-15s-23-55-23-55s-1-8-21-9S546.917,493.628,546.917,493.628z"/>
<linearGradient id="SVGID_5_" gradientUnits="userSpaceOnUse" x1="133.8965" y1="461.1279" x2="239.4888" y2="461.1279">
	<stop  offset="0" style="stop-color:#BCBEC0"/>
	<stop  offset="0.3333" style="stop-color:#E6E7E8"/>
</linearGradient>
<path fill="url(#SVGID_5_)" stroke="#000000" stroke-width="3" stroke-miterlimit="10" d="M134.489,456.628c0-18,7.316-28,35-28
	s51,8,51,8l19,57c0,0-71.883-16.141-90.941-9.07S134.489,456.628,134.489,456.628z"/>
<linearGradient id="SVGID_6_" gradientUnits="userSpaceOnUse" x1="548.9165" y1="461.1279" x2="654.5083" y2="461.1279">
	<stop  offset="0.6316" style="stop-color:#E6E7E8"/>
	<stop  offset="0.6867" style="stop-color:#DBDCDD"/>
	<stop  offset="0.7932" style="stop-color:#CACBCD"/>
	<stop  offset="0.8984" style="stop-color:#BFC1C3"/>
	<stop  offset="1" style="stop-color:#BCBEC0"/>
</linearGradient>
<path fill="url(#SVGID_6_)" stroke="#000000" stroke-width="3" stroke-miterlimit="10" d="M653.917,456.628c0-18-7.316-28-35-28
	s-51,8-51,8l-19,57c0,0,71.883-16.141,90.941-9.07S653.917,456.628,653.917,456.628z"/>
<path fill="#FBB040" stroke="#000000" stroke-width="3" stroke-miterlimit="10" d="M134.489,456.628c0,0,8,6,23,6
	c9.731,10.067,11,32,11,58.345c-25-1.345-34-19.345-34-48.345S134.489,456.628,134.489,456.628z"/>
<path fill="#FBB040" stroke="#000000" stroke-width="3" stroke-miterlimit="10" d="M653.917,456.628c0,0-8,6-23,6
	c-9.731,10.067-11,32-11,58.345c25-1.345,34-19.345,34-48.345S653.917,456.628,653.917,456.628z"/>
<g>
	<defs>
		<path id="SVGID_2_" d="M393.759,3.5H142.739c0,0,0,138.937,0,258.714c0,161.081,140,299,251.714,341
			c118.286-39,251.714-175.92,251.714-337c0-119.778,0-262.714,0-262.714H393.759z"/>
	</defs>
	<linearGradient id="SVGID_7_" gradientUnits="userSpaceOnUse" x1="142.7388" y1="303.3569" x2="646.1665" y2="303.3569">
		<stop  offset="0" style="stop-color:#F9ED32"/>
		<stop  offset="1" style="stop-color:#FBB040"/>
	</linearGradient>
	<use xlink:href="#SVGID_2_"  overflow="visible" fill="url(#SVGID_7_)"/>
	<clipPath id="SVGID_8_">
		<use xlink:href="#SVGID_2_"  overflow="visible"/>
	</clipPath>
	<g clip-path="url(#SVGID_8_)">
		<radialGradient id="SVGID_9_" cx="431.9897" cy="51.3828" r="10.7892" gradientUnits="userSpaceOnUse">
			<stop  offset="0" style="stop-color:#262262"/>
			<stop  offset="1" style="stop-color:#2E3192"/>
		</radialGradient>
		<path fill="url(#SVGID_9_)" stroke="#FFF200" stroke-width="2" stroke-miterlimit="10" d="M418.411,57.061
			c1.842,2.105,8.081-5.205,11.3-4.52c3.219,0.685,15.202,1.096,16.093-0.479c0.891-1.575-1.438-7.19-5.479-6.711
			c-4.04,0.479-11.299,1.438-15.066,3.287C421.493,50.487,416.493,54.87,418.411,57.061z"/>
		<radialGradient id="SVGID_10_" cx="430.3794" cy="47.3984" r="3.1132" gradientUnits="userSpaceOnUse">
			<stop  offset="0" style="stop-color:#262262"/>
			<stop  offset="1" style="stop-color:#2E3192"/>
		</radialGradient>
		<path fill="url(#SVGID_10_)" stroke="#FFF200" stroke-width="2" stroke-miterlimit="10" d="M427.702,46.469
			c0,0,3.104,4.931,4.565,4.383c1.461-0.547,0.548-6.757,0-6.939C431.719,43.73,427.702,46.469,427.702,46.469z"/>
		<radialGradient id="SVGID_11_" cx="553.3179" cy="135.9512" r="35.8631" gradientUnits="userSpaceOnUse">
			<stop  offset="0" style="stop-color:#262262"/>
			<stop  offset="1" style="stop-color:#2E3192"/>
		</radialGradient>
		<path fill="url(#SVGID_11_)" stroke="#FFF200" stroke-width="2" stroke-miterlimit="10" d="M550.513,122.667
			c-0.28,8.224,6.71,16.025,6.163,17.532c-0.548,1.506-9.861,22.325-14.655,24.927c-4.794,2.603-9.313,2.466-11.231,5.341
			c-1.917,2.877-4.245,6.3-2.191,6.986c2.055,0.685,10.188,2.329,13.654,2.329s26.066-36.296,30.723-38.898s2.74-40.13,5.205-42.048
			s-2.604-6.848-5.342-6.711C570.099,92.261,551.471,94.452,550.513,122.667z"/>
		<radialGradient id="SVGID_12_" cx="447.8091" cy="130.6523" r="29.1256" gradientUnits="userSpaceOnUse">
			<stop  offset="0" style="stop-color:#262262"/>
			<stop  offset="1" style="stop-color:#2E3192"/>
		</radialGradient>
		<path fill="url(#SVGID_12_)" stroke="#FFF200" stroke-width="2" stroke-miterlimit="10" d="M451.625,106.642
			c-9.725,5.616-21.777,5.067-27.256,13.97c-5.479,8.902-0.411,13.422-4.245,19.038c-3.836,5.615-5.616,8.629-3.699,10.683
			c1.918,2.054,2.466,6.437,3.836,6.026c1.369-0.411,1.917-4.657,3.834-4.383c1.918,0.274,4.521-0.411,4.521-1.096
			s0.418-14.115,2.469-19.316c2.051-5.201-1.099-9.583,33.005-8.077c27.667-0.411,10.272-5.479,12.601-9.176
			C479.017,110.614,461.349,101.026,451.625,106.642z"/>
		<radialGradient id="SVGID_13_" cx="521.8042" cy="103.4189" r="95.1802" gradientUnits="userSpaceOnUse">
			<stop  offset="0" style="stop-color:#262262"/>
			<stop  offset="1" style="stop-color:#2E3192"/>
		</radialGradient>
		<path fill="url(#SVGID_13_)" stroke="#FFF200" stroke-width="2" stroke-miterlimit="10" d="M625.021,135.404
			c-3.286-5.752-6.643-8.766-9.655-16.162c-3.014-7.396-4.862-28.215-8.698-34.515c-0.564-0.928-1.07-1.825-1.576-2.7
			c10.051,0.129,25.666-12.076,15.41-31.952c-22.051-37.528-57.662-21.641-57.524-18.901c0.137,2.739,4.479,1.521,10.409,1.095
			c27.803-1.917,38.075,18.217,38.897,26.982c0.822,8.766-6.848,12.327-10.684,12.327c-3.834,0-12.041-2.017-12.041-2.017l0,0
			c-1.293-0.51-2.706-1.025-4.258-1.544c-16.367-5.479-88.205,5.684-97.86-2.876c-9.656-8.561-1.917-41.363-22.667-45.678
			c-20.751-4.314-21.789,4.913-29.459,7.652s-16.836,5.839-17.658,7.483c-0.82,1.644,1.918,2.739,1.645,4.109
			c-0.274,1.37-1.164,6.643,5.752,8.766c6.917,2.124,17.669-2.654,17.669,1.043c0,3.698-16.71,3.066-15.203,6.969
			s9.725-2.055,19.448,1.986c9.725,4.041,1.37,35.474,7.945,47.253c4.126,7.394,8.796,15.111,22.744,17.8
			c0.461,9.901,2.205,51.63-1.014,53.239c-3.652,1.826-14.929,6.438-12.92,11.962c4.519,2.098,9.496-0.686,11.733-0.822
			s12.601-4.611,12.646-8.629c0.047-4.018,1.781-10.409,3.379-12.464c1.391-1.787,6.097-31.113,4.381-42.526
			c5.281-0.355,11.311-1.127,18.219-2.398c44.65-8.218,48.484-26.023,59.99-22.736c3.219,6.3,1.301,15.545,15.888,27.05
			c14.587,11.505,18.97,8.012,20.683,11.847c1.711,3.835,0.753,25.133-0.891,26.366c-4.247,0.274-15.136,4.314-8.834,7.875
			c6.299,3.561,15.888,2.465,19.174,0C623.378,168.824,628.309,141.157,625.021,135.404z"/>
		<path fill="none" stroke="#FFF200" stroke-width="2" stroke-miterlimit="10" d="M494.631,119.517
			c4.429,5.798-1.553,44.24-3.15,46.294c-1.598,2.055-3.332,8.446-3.379,12.464c-0.045,4.018-10.408,8.492-12.646,8.629
			s-7.215,2.92-11.733,0.822c-2.009-5.524,9.268-10.136,12.92-11.962c3.652-1.826,0.914-55.333,0.914-55.333
			s-26.663-27.027,2.557-36.889"/>
		<path fill="none" stroke="#FFF200" stroke-width="2" stroke-miterlimit="10" d="M457.514,28.024
			c-1.232,0.958-1.781,12.601,2.602,13.286c0.822,2.602,0.138,4.645-0.547,6.089c-0.686,1.444-4.246,17.332,1.096,22.673
			c5.342,5.342,7.67,7.396,9.313,6.711c1.644-0.685,0-3.972,2.739-6.3s5.89-5.342,6.574-7.67c0.685-2.328,1.369-19.448,0-22.873
			s-2.896-12.875-4.402-14.107"/>
		<path fill="#FFF200" stroke="#FFF200" stroke-width="2" stroke-miterlimit="10" d="M437.153,31.312
			c-1.37-0.296,4.714-2.739,8.52-1.278c3.807,1.461,3.076,2.921,3.533,2.465c0.456-0.457-1.826,3.013-6.027,2.831
			c-4.199-0.182-5.844-1.187-6.025-1.461c-0.184-0.274,1.004-0.457,1.004-1.004S438.522,31.608,437.153,31.312z"/>
		<path d="M441.307,31.654c0,0.252,1.027,0.525,1.096,0.914c0.068,0.388-1.004,0.708-0.867,1.072
			c0.137,0.365,1.574,1.393,2.465,0.753s1.324-1.05,1.004-1.757c-0.318-0.708-1.393-1.644-2.305-1.484
			C441.786,31.312,441.307,31.266,441.307,31.654z"/>
		<path fill="#FFF200" stroke="#FFF200" stroke-width="2" stroke-miterlimit="10" d="M419.264,38.173c0,0,5.311-0.903,4.009-1.382
			c-1.302-0.48-3.702-0.118-4.009,0.342V38.173z"/>
	</g>
	<g clip-path="url(#SVGID_8_)">
		<radialGradient id="SVGID_14_" cx="178.9175" cy="51.3828" r="10.7889" gradientUnits="userSpaceOnUse">
			<stop  offset="0" style="stop-color:#262262"/>
			<stop  offset="1" style="stop-color:#2E3192"/>
		</radialGradient>
		<path fill="url(#SVGID_14_)" stroke="#FFF200" stroke-width="2" stroke-miterlimit="10" d="M165.338,57.061
			c1.842,2.105,8.081-5.205,11.3-4.52c3.219,0.685,15.202,1.096,16.093-0.479c0.891-1.575-1.438-7.19-5.479-6.711
			c-4.04,0.479-11.299,1.438-15.066,3.287C168.42,50.487,163.42,54.87,165.338,57.061z"/>
		<radialGradient id="SVGID_15_" cx="177.3066" cy="47.3984" r="3.1134" gradientUnits="userSpaceOnUse">
			<stop  offset="0" style="stop-color:#262262"/>
			<stop  offset="1" style="stop-color:#2E3192"/>
		</radialGradient>
		<path fill="url(#SVGID_15_)" stroke="#FFF200" stroke-width="2" stroke-miterlimit="10" d="M174.629,46.469
			c0,0,3.104,4.931,4.565,4.383c1.461-0.547,0.548-6.757,0-6.939C178.647,43.73,174.629,46.469,174.629,46.469z"/>
		<radialGradient id="SVGID_16_" cx="300.2456" cy="135.9512" r="35.8631" gradientUnits="userSpaceOnUse">
			<stop  offset="0" style="stop-color:#262262"/>
			<stop  offset="1" style="stop-color:#2E3192"/>
		</radialGradient>
		<path fill="url(#SVGID_16_)" stroke="#FFF200" stroke-width="2" stroke-miterlimit="10" d="M297.441,122.667
			c-0.28,8.224,6.71,16.025,6.163,17.532c-0.548,1.506-9.861,22.325-14.655,24.927c-4.794,2.603-9.313,2.466-11.231,5.341
			c-1.917,2.877-4.245,6.3-2.191,6.986c2.055,0.685,10.188,2.329,13.654,2.329s26.066-36.296,30.723-38.898s2.74-40.13,5.205-42.048
			s-2.604-6.848-5.342-6.711C317.027,92.261,298.399,94.452,297.441,122.667z"/>
		<radialGradient id="SVGID_17_" cx="194.7363" cy="130.6523" r="29.1256" gradientUnits="userSpaceOnUse">
			<stop  offset="0" style="stop-color:#262262"/>
			<stop  offset="1" style="stop-color:#2E3192"/>
		</radialGradient>
		<path fill="url(#SVGID_17_)" stroke="#FFF200" stroke-width="2" stroke-miterlimit="10" d="M198.552,106.642
			c-9.725,5.616-21.777,5.067-27.256,13.97c-5.479,8.902-0.411,13.422-4.245,19.038c-3.836,5.615-5.616,8.629-3.699,10.683
			c1.918,2.054,2.466,6.437,3.836,6.026c1.369-0.411,1.917-4.657,3.834-4.383c1.918,0.274,4.521-0.411,4.521-1.096
			s0.418-14.115,2.469-19.316c2.051-5.201-1.099-9.583,33.005-8.077c27.667-0.411,10.272-5.479,12.601-9.176
			C225.945,110.614,208.277,101.026,198.552,106.642z"/>
		<radialGradient id="SVGID_18_" cx="268.7319" cy="103.4189" r="95.18" gradientUnits="userSpaceOnUse">
			<stop  offset="0" style="stop-color:#262262"/>
			<stop  offset="1" style="stop-color:#2E3192"/>
		</radialGradient>
		<path fill="url(#SVGID_18_)" stroke="#FFF200" stroke-width="2" stroke-miterlimit="10" d="M371.949,135.404
			c-3.286-5.752-6.643-8.766-9.655-16.162c-3.014-7.396-4.862-28.215-8.698-34.515c-0.564-0.928-1.07-1.825-1.576-2.7
			c10.051,0.129,25.666-12.076,15.41-31.952c-22.051-37.528-57.662-21.641-57.524-18.901c0.137,2.739,4.479,1.521,10.409,1.095
			c27.803-1.917,38.075,18.217,38.897,26.982c0.822,8.766-6.848,12.327-10.684,12.327c-3.834,0-12.041-2.017-12.041-2.017l0,0
			c-1.293-0.51-2.706-1.025-4.258-1.544c-16.367-5.479-88.205,5.684-97.86-2.876c-9.656-8.561-1.917-41.363-22.667-45.678
			c-20.751-4.314-21.789,4.913-29.459,7.652s-16.836,5.839-17.658,7.483c-0.82,1.644,1.918,2.739,1.645,4.109
			c-0.274,1.37-1.164,6.643,5.752,8.766c6.917,2.124,17.669-2.654,17.669,1.043c0,3.698-16.71,3.066-15.203,6.969
			s9.725-2.055,19.448,1.986c9.725,4.041,1.37,35.474,7.945,47.253c4.126,7.394,8.796,15.111,22.744,17.8
			c0.461,9.901,2.205,51.63-1.014,53.239c-3.652,1.826-14.929,6.438-12.92,11.962c4.519,2.098,9.496-0.686,11.733-0.822
			s12.601-4.611,12.646-8.629c0.047-4.018,1.781-10.409,3.379-12.464c1.391-1.787,6.097-31.113,4.381-42.526
			c5.281-0.355,11.311-1.127,18.219-2.398c44.65-8.218,48.484-26.023,59.99-22.736c3.219,6.3,1.301,15.545,15.888,27.05
			c14.587,11.505,18.97,8.012,20.683,11.847c1.711,3.835,0.753,25.133-0.891,26.366c-4.247,0.274-15.136,4.314-8.834,7.875
			c6.299,3.561,15.888,2.465,19.174,0C370.306,168.824,375.237,141.157,371.949,135.404z"/>
		<path fill="none" stroke="#FFF200" stroke-width="2" stroke-miterlimit="10" d="M241.559,119.517
			c4.429,5.798-1.553,44.24-3.15,46.294c-1.598,2.055-3.332,8.446-3.379,12.464c-0.045,4.018-10.408,8.492-12.646,8.629
			s-7.215,2.92-11.733,0.822c-2.009-5.524,9.268-10.136,12.92-11.962c3.652-1.826,0.914-55.333,0.914-55.333
			s-26.663-27.027,2.557-36.889"/>
		<path fill="none" stroke="#FFF200" stroke-width="2" stroke-miterlimit="10" d="M204.442,28.024
			c-1.232,0.958-1.781,12.601,2.602,13.286c0.822,2.602,0.138,4.645-0.547,6.089c-0.686,1.444-4.246,17.332,1.096,22.673
			c5.342,5.342,7.67,7.396,9.313,6.711c1.644-0.685,0-3.972,2.739-6.3s5.89-5.342,6.574-7.67c0.685-2.328,1.369-19.448,0-22.873
			s-2.896-12.875-4.402-14.107"/>
		<path fill="#FFF200" stroke="#FFF200" stroke-width="2" stroke-miterlimit="10" d="M184.081,31.312
			c-1.37-0.296,4.714-2.739,8.52-1.278c3.807,1.461,3.076,2.921,3.533,2.465c0.456-0.457-1.826,3.013-6.027,2.831
			c-4.199-0.182-5.844-1.187-6.025-1.461c-0.184-0.274,1.004-0.457,1.004-1.004S185.45,31.608,184.081,31.312z"/>
		<path d="M188.235,31.654c0,0.252,1.027,0.525,1.096,0.914c0.068,0.388-1.004,0.708-0.867,1.072
			c0.137,0.365,1.574,1.393,2.465,0.753s1.324-1.05,1.004-1.757c-0.318-0.708-1.393-1.644-2.305-1.484
			C188.713,31.312,188.235,31.266,188.235,31.654z"/>
		<path fill="#FFF200" stroke="#FFF200" stroke-width="2" stroke-miterlimit="10" d="M166.192,38.173c0,0,5.311-0.903,4.009-1.382
			c-1.302-0.48-3.702-0.118-4.009,0.342V38.173z"/>
	</g>
	<radialGradient id="SVGID_19_" cx="394.4517" cy="400.5459" r="327.2119" gradientUnits="userSpaceOnUse">
		<stop  offset="0" style="stop-color:#262262"/>
		<stop  offset="1" style="stop-color:#2E3192"/>
	</radialGradient>
	<polygon clip-path="url(#SVGID_8_)" fill="url(#SVGID_19_)" stroke="#FFF200" stroke-width="2" stroke-miterlimit="10" points="
		787.543,544.544 394.454,156.387 1.361,544.544 85.908,644.706 394.454,340.035 702.999,644.706 	"/>
	<g clip-path="url(#SVGID_8_)">
		<path fill="#E8CE55" d="M329.999,233.455v6.965c6.975,0.089,11.371,1.46,12.852,9.425v81.935l12.105-17.315h-4.56v-5.334
			c5.654-0.011,10.438,0.01,16.093,0v5.334h-5.39l8.928,17.315l8.927-17.315h-5.38v-5.334h17.202v5.334h-5.418l8.845,17.315
			l8.845-17.315h-5.418v-5.334h16.914v5.334h-5.417l8.955,17.315l8.928-17.315h-5.39v-5.334c5.655,0.01,10.709-0.011,16.363,0v5.334
			h-4.533l12.078,17.315v-81.935c1.48-7.965,5.904-9.335,12.88-9.425v-6.965H329.999z M349.207,241.277h16.915v16.114h-16.915
			V241.277z M373.574,241.277h16.897v16.114h-16.897V241.277z M397.934,241.277h16.888v16.114h-16.888V241.277z M422.284,241.277
			h16.887v16.114h-16.887V241.277z M349.207,263.306h16.915v16.085h-16.915V263.306z M373.574,263.306h16.897v16.085h-16.897
			V263.306z M397.934,263.306h16.888v16.085h-16.888V263.306z M422.284,263.306h16.887v16.085h-16.887V263.306z M349.207,285.305
			h16.915v16.114h-16.915V285.305z M373.574,285.305h16.897v16.114h-16.897V285.305z M397.934,285.305h16.888v16.114h-16.888
			V285.305z M422.284,285.305h16.887v16.114h-16.887V285.305z"/>
		<path fill="none" stroke="#806829" stroke-width="0.7928" d="M329.999,233.455v6.965c6.975,0.089,11.371,1.46,12.852,9.425v81.935
			l12.105-17.315h-4.56v-5.334c5.654-0.011,10.438,0.01,16.093,0v5.334h-5.39l8.928,17.315l8.927-17.315h-5.38v-5.334h17.202v5.334
			h-5.418l8.845,17.315l8.845-17.315h-5.418v-5.334h16.914v5.334h-5.417l8.955,17.315l8.928-17.315h-5.39v-5.334
			c5.655,0.01,10.709-0.011,16.363,0v5.334h-4.533l12.078,17.315v-81.935c1.48-7.965,5.904-9.335,12.88-9.425v-6.965H329.999z
			 M349.207,241.277h16.915v16.114h-16.915V241.277z M373.574,241.277h16.897v16.114h-16.897V241.277z M397.934,241.277h16.888
			v16.114h-16.888V241.277z M422.284,241.277h16.887v16.114h-16.887V241.277z M349.207,263.306h16.915v16.085h-16.915V263.306z
			 M373.574,263.306h16.897v16.085h-16.897V263.306z M397.934,263.306h16.888v16.085h-16.888V263.306z M422.284,263.306h16.887
			v16.085h-16.887V263.306z M349.207,285.305h16.915v16.114h-16.915V285.305z M373.574,285.305h16.897v16.114h-16.897V285.305z
			 M397.934,285.305h16.888v16.114h-16.888V285.305z M422.284,285.305h16.887v16.114h-16.887V285.305z"/>
		<path fill="#FFF0A7" d="M332.078,235.528v2.985c2.767,0.164,5.352,0.552,7.518,1.907c2.707,1.694,4.503,4.714,5.307,9.038
			c0.021,0.128,0.03,0.258,0.027,0.387v75.371l6.053-8.679h-0.58c-1.086,0.001-2.074-0.987-2.073-2.074v-5.333
			c-0.001-1.086,0.987-2.074,2.073-2.073c5.662-0.011,10.431,0.01,16.078,0c1.086-0.001,2.074,0.987,2.073,2.073v5.333
			c0.001,1.086-0.987,2.075-2.073,2.074h-1.99l5.528,10.724l5.527-10.724h-1.99c-1.085,0.001-2.074-0.987-2.072-2.074v-5.333
			c-0.001-1.086,0.987-2.074,2.072-2.073h17.227c1.086-0.001,2.074,0.987,2.072,2.073v5.333c0.002,1.086-0.986,2.075-2.072,2.074
			h-2.018l5.444,10.696l5.445-10.696h-2.018c-1.087,0.001-2.074-0.987-2.073-2.074v-5.333c-0.001-1.086,0.986-2.074,2.073-2.073
			h16.825c1.086-0.001,2.523,0.496,2.074,2.073v5.333c0,1.086-0.988,2.075-2.074,2.074h-2.018L418,327.261l5.527-10.724h-1.991
			c-1.085,0.001-2.073-0.987-2.071-2.074v-5.333c-0.002-1.086,0.986-2.074,2.071-2.073c5.648,0.01,10.79-0.011,16.452,0
			c1.085-0.001,2.074,0.987,2.072,2.073v5.333c0.002,1.086-0.987,2.075-2.072,2.074h-0.581l6.054,8.651v-75.343
			c-0.004-0.129,0.006-0.259,0.027-0.387c0.804-4.325,2.621-7.345,5.334-9.038c2.171-1.354,4.749-1.744,7.518-1.907v-2.985H332.078
			L332.078,235.528z M349.075,239.204h0.139h16.915c1.085-0.001,2.074,0.987,2.072,2.073v16.114
			c0.001,1.085-0.987,2.074-2.072,2.072h-16.915c-1.086,0.002-2.074-0.986-2.073-2.072v-16.114
			C347.136,240.236,348.037,239.272,349.075,239.204z M373.452,239.204h0.139h16.888c1.085-0.001,2.073,0.987,2.072,2.073v16.114
			c0.001,1.085-0.987,2.074-2.072,2.072H373.59c-1.086,0.002-2.074-0.986-2.072-2.072v-16.114
			C371.514,240.236,372.414,239.272,373.452,239.204z M397.801,239.204h0.139h16.887c1.086-0.001,2.075,0.987,2.073,2.073v16.114
			c0.002,1.085-0.987,2.074-2.073,2.072H397.94c-1.086,0.002-2.074-0.986-2.072-2.072v-16.114
			C395.864,240.236,396.763,239.272,397.801,239.204z M422.152,239.204h0.138h16.888c1.086-0.001,2.073,0.987,2.072,2.073v16.114
			c0.001,1.085-0.986,2.074-2.072,2.072H422.29c-1.086,0.002-2.074-0.986-2.072-2.072v-16.114
			C420.213,240.236,421.112,239.272,422.152,239.204z M349.075,261.232h0.139h16.915c1.085-0.001,2.074,0.987,2.072,2.074v16.085
			c0.001,1.086-0.987,2.074-2.072,2.073h-16.915c-1.086,0.001-2.074-0.986-2.073-2.073v-16.085
			C347.136,262.264,348.037,261.3,349.075,261.232z M373.452,261.232h0.139h16.888c1.085-0.001,2.073,0.987,2.072,2.074v16.085
			c0.001,1.086-0.987,2.074-2.072,2.073H373.59c-1.086,0.001-2.074-0.986-2.072-2.073v-16.085
			C371.514,262.264,372.414,261.3,373.452,261.232z M397.801,261.232h0.139h16.887c1.086-0.001,2.075,0.987,2.073,2.074v16.085
			c0.002,1.086-0.987,2.074-2.073,2.073H397.94c-1.086,0.001-2.074-0.986-2.072-2.073v-16.085
			C395.864,262.264,396.763,261.3,397.801,261.232z M422.152,261.232h0.138h16.888c1.086-0.001,2.073,0.987,2.072,2.074v16.085
			c0.001,1.086-0.986,2.074-2.072,2.073H422.29c-1.086,0.001-2.074-0.986-2.072-2.073v-16.085
			C420.213,262.264,421.112,261.3,422.152,261.232z M349.075,283.232h0.139h16.915c1.085-0.001,2.074,0.987,2.072,2.073v16.113
			c0.001,1.086-0.987,2.075-2.072,2.074h-16.915c-1.086,0.001-2.074-0.987-2.073-2.074v-16.113
			C347.136,284.265,348.037,283.301,349.075,283.232z M373.452,283.232h0.139h16.888c1.085-0.001,2.073,0.987,2.072,2.073v16.113
			c0.001,1.086-0.987,2.075-2.072,2.074H373.59c-1.086,0.001-2.074-0.987-2.072-2.074v-16.113
			C371.514,284.265,372.414,283.301,373.452,283.232z M397.801,283.232h0.139h16.887c1.086-0.001,2.075,0.987,2.073,2.073v16.113
			c0.002,1.086-0.987,2.075-2.073,2.074H397.94c-1.086,0.001-2.074-0.987-2.072-2.074v-16.113
			C395.864,284.265,396.763,283.301,397.801,283.232z M422.152,283.232h0.138h16.888c1.086-0.001,2.073,0.987,2.072,2.073v16.113
			c0.001,1.086-0.986,2.075-2.072,2.074H422.29c-1.086,0.001-2.074-0.987-2.072-2.074v-16.113
			C420.213,284.265,421.112,283.301,422.152,283.232z"/>
		<ellipse fill="#FEE470" cx="418.496" cy="238.005" rx="2.652" ry="2.696"/>
		<path fill="#F2C716" d="M416.256,239.435l0.504,0.635l0.973,0.542l0.84,0.038l0.897-0.094l0.952-0.747l0.411-0.635l0.262-0.99
			v-1.028l-0.411-0.579l-0.598-0.691l-0.747-0.299c0,0,0.388,0.688,0.485,1.009c0.094,0.309,0.1,0.711,0.037,1.028
			c-0.06,0.306-0.216,0.69-0.41,0.934c-0.216,0.27-0.624,0.598-0.935,0.747c-0.348,0.167-0.792,0.213-1.177,0.225
			C417.014,239.538,416.257,239.435,416.256,239.435L416.256,239.435z"/>
		<path fill="#FFF0A7" d="M418.965,236.716c0,0.778-0.652,1.411-1.457,1.411c-0.806,0-1.458-0.632-1.458-1.411
			c0-0.4,0.322-0.387,0.599-0.644c0.263-0.243,0.711-0.692,1.103-0.692C418.555,235.38,418.965,235.938,418.965,236.716z"/>
		<ellipse fill="none" stroke="#806829" stroke-width="2.7732" cx="418.496" cy="238.005" rx="2.652" ry="2.696"/>
		<ellipse fill="#FEE470" cx="418.496" cy="260.29" rx="2.652" ry="2.695"/>
		<path fill="#F2C716" d="M416.256,261.719l0.504,0.636l0.973,0.542l0.84,0.037l0.897-0.094l0.952-0.747l0.411-0.635l0.262-0.99
			v-1.028l-0.411-0.58l-0.598-0.691l-0.747-0.299c0,0,0.388,0.687,0.485,1.009c0.094,0.309,0.1,0.71,0.037,1.027
			c-0.06,0.306-0.216,0.691-0.41,0.935c-0.216,0.269-0.624,0.597-0.935,0.747c-0.348,0.167-0.792,0.213-1.177,0.225
			C417.014,261.823,416.257,261.719,416.256,261.719L416.256,261.719z"/>
		<path fill="#FFF0A7" d="M418.965,259c0,0.779-0.652,1.411-1.457,1.411s-1.458-0.632-1.458-1.411c0-0.399,0.322-0.388,0.599-0.644
			c0.263-0.243,0.711-0.691,1.103-0.691C418.555,257.666,418.965,258.222,418.965,259z"/>
		<ellipse fill="none" stroke="#806829" stroke-width="2.7732" cx="418.496" cy="260.29" rx="2.652" ry="2.695"/>
		<ellipse fill="#FEE470" cx="418.496" cy="282.369" rx="2.652" ry="2.696"/>
		<path fill="#F2C716" d="M416.256,283.799l0.504,0.635l0.973,0.542l0.84,0.038l0.897-0.094l0.952-0.747l0.411-0.635l0.262-0.99
			v-1.028l-0.411-0.579l-0.598-0.692l-0.747-0.299c0,0,0.388,0.688,0.485,1.009c0.094,0.31,0.1,0.711,0.037,1.028
			c-0.06,0.306-0.216,0.691-0.41,0.934c-0.216,0.271-0.624,0.598-0.935,0.748c-0.348,0.167-0.792,0.212-1.177,0.224
			C417.014,283.901,416.257,283.799,416.256,283.799L416.256,283.799z"/>
		<path fill="#FFF0A7" d="M418.965,281.081c0,0.778-0.652,1.41-1.457,1.41s-1.458-0.631-1.458-1.41c0-0.4,0.322-0.387,0.599-0.645
			c0.263-0.243,0.711-0.691,1.103-0.691C418.555,279.745,418.965,280.301,418.965,281.081z"/>
		<ellipse fill="none" stroke="#806829" stroke-width="2.7732" cx="418.496" cy="282.369" rx="2.652" ry="2.696"/>
		<ellipse fill="#FEE470" cx="418.496" cy="304.514" rx="2.652" ry="2.695"/>
		<path fill="#F2C716" d="M416.256,305.943l0.504,0.636l0.973,0.542l0.84,0.037l0.897-0.093l0.952-0.747l0.411-0.636l0.262-0.99
			v-1.027l-0.411-0.579l-0.598-0.692l-0.747-0.298c0,0,0.388,0.687,0.485,1.008c0.094,0.309,0.1,0.711,0.037,1.028
			c-0.06,0.306-0.216,0.69-0.41,0.934c-0.216,0.27-0.624,0.598-0.935,0.747c-0.348,0.167-0.792,0.212-1.177,0.225
			C417.014,306.047,416.257,305.943,416.256,305.943L416.256,305.943z"/>
		<path fill="#FFF0A7" d="M418.965,303.225c0,0.779-0.652,1.411-1.457,1.411c-0.806,0-1.458-0.632-1.458-1.411
			c0-0.399,0.322-0.387,0.599-0.645c0.263-0.242,0.711-0.691,1.103-0.691C418.555,301.889,418.965,302.447,418.965,303.225z"/>
		<ellipse fill="none" stroke="#806829" stroke-width="2.7732" cx="418.496" cy="304.514" rx="2.652" ry="2.695"/>
		<ellipse fill="#FEE470" cx="441.575" cy="238.005" rx="2.652" ry="2.696"/>
		<path fill="#F2C716" d="M439.335,239.435l0.504,0.635l0.972,0.542l0.841,0.038l0.897-0.094l0.952-0.747l0.411-0.635l0.262-0.99
			v-1.028l-0.41-0.579l-0.599-0.691l-0.748-0.299c0,0,0.39,0.688,0.487,1.009c0.093,0.309,0.099,0.711,0.037,1.028
			c-0.061,0.306-0.217,0.69-0.412,0.934c-0.215,0.27-0.623,0.598-0.934,0.747c-0.347,0.167-0.792,0.213-1.177,0.225
			C440.093,239.538,439.335,239.435,439.335,239.435L439.335,239.435z"/>
		<path fill="#FFF0A7" d="M442.044,236.716c0,0.778-0.652,1.411-1.458,1.411c-0.804,0-1.456-0.632-1.456-1.411
			c0-0.4,0.321-0.387,0.598-0.644c0.263-0.243,0.711-0.692,1.103-0.692C441.635,235.38,442.044,235.938,442.044,236.716z"/>
		<ellipse fill="none" stroke="#806829" stroke-width="2.7732" cx="441.575" cy="238.005" rx="2.652" ry="2.696"/>
		<ellipse fill="#FEE470" cx="441.575" cy="260.29" rx="2.652" ry="2.695"/>
		<path fill="#F2C716" d="M439.335,261.719l0.504,0.636l0.972,0.542l0.841,0.037l0.897-0.094l0.952-0.747l0.411-0.635l0.262-0.99
			v-1.028l-0.41-0.58l-0.599-0.691l-0.748-0.299c0,0,0.39,0.687,0.487,1.009c0.093,0.309,0.099,0.71,0.037,1.027
			c-0.061,0.306-0.217,0.691-0.412,0.935c-0.215,0.269-0.623,0.597-0.934,0.747c-0.347,0.167-0.791,0.213-1.177,0.225
			C440.093,261.823,439.335,261.719,439.335,261.719z"/>
		<path fill="#FFF0A7" d="M442.045,259c0,0.779-0.653,1.411-1.459,1.411c-0.804,0-1.456-0.632-1.456-1.411
			c0-0.399,0.322-0.388,0.598-0.644c0.263-0.243,0.711-0.691,1.103-0.691C441.635,257.666,442.045,258.222,442.045,259z"/>
		<ellipse fill="none" stroke="#806829" stroke-width="2.7732" cx="441.575" cy="260.29" rx="2.652" ry="2.695"/>
		<ellipse fill="#FEE470" cx="441.575" cy="282.369" rx="2.652" ry="2.696"/>
		<path fill="#F2C716" d="M439.335,283.799l0.504,0.635l0.972,0.542l0.841,0.038l0.897-0.094l0.952-0.747l0.411-0.635l0.262-0.99
			v-1.028l-0.41-0.579l-0.599-0.692l-0.748-0.299c0,0,0.39,0.688,0.487,1.009c0.093,0.31,0.099,0.711,0.037,1.028
			c-0.061,0.306-0.217,0.691-0.412,0.934c-0.215,0.271-0.623,0.598-0.934,0.748c-0.347,0.167-0.791,0.212-1.177,0.224
			C440.093,283.901,439.335,283.799,439.335,283.799z"/>
		<path fill="#FFF0A7" d="M442.045,281.081c0,0.778-0.653,1.41-1.459,1.41c-0.804,0-1.456-0.631-1.456-1.41
			c0-0.4,0.322-0.387,0.598-0.645c0.263-0.243,0.711-0.691,1.103-0.691C441.635,279.745,442.045,280.301,442.045,281.081z"/>
		<ellipse fill="none" stroke="#806829" stroke-width="2.7732" cx="441.575" cy="282.369" rx="2.652" ry="2.696"/>
		<ellipse fill="#FEE470" cx="441.575" cy="304.514" rx="2.652" ry="2.695"/>
		<path fill="#F2C716" d="M439.335,305.943l0.504,0.636l0.972,0.542l0.841,0.037l0.897-0.093l0.952-0.747l0.411-0.636l0.262-0.99
			v-1.027l-0.41-0.579l-0.599-0.692l-0.748-0.298c0,0,0.39,0.687,0.487,1.008c0.093,0.309,0.099,0.711,0.037,1.028
			c-0.061,0.306-0.217,0.69-0.412,0.934c-0.215,0.27-0.623,0.598-0.934,0.747c-0.347,0.167-0.792,0.212-1.177,0.225
			C440.093,306.047,439.335,305.943,439.335,305.943z"/>
		<path fill="#FFF0A7" d="M442.044,303.225c0,0.779-0.652,1.411-1.458,1.411c-0.804,0-1.456-0.632-1.456-1.411
			c0-0.399,0.321-0.387,0.598-0.645c0.263-0.242,0.711-0.691,1.103-0.691C441.635,301.889,442.044,302.447,442.044,303.225z"/>
		<ellipse fill="none" stroke="#806829" stroke-width="2.7732" cx="441.575" cy="304.514" rx="2.652" ry="2.695"/>
		<ellipse fill="#FEE470" cx="346.831" cy="238.005" rx="2.652" ry="2.696"/>
		<path fill="#F2C716" d="M344.591,239.435l0.504,0.635l0.972,0.542l0.841,0.038l0.896-0.094l0.953-0.747l0.41-0.635l0.262-0.99
			v-1.028l-0.411-0.579l-0.598-0.691l-0.747-0.299c0,0,0.389,0.688,0.485,1.009c0.094,0.309,0.101,0.711,0.038,1.028
			c-0.061,0.306-0.217,0.69-0.411,0.934c-0.215,0.27-0.623,0.598-0.935,0.747c-0.347,0.167-0.792,0.213-1.177,0.225
			C345.348,239.538,344.591,239.435,344.591,239.435L344.591,239.435z"/>
		<path fill="#FFF0A7" d="M347.299,236.716c0,0.778-0.652,1.411-1.457,1.411c-0.804,0-1.457-0.632-1.457-1.411
			c0-0.4,0.321-0.387,0.598-0.644c0.263-0.243,0.711-0.692,1.103-0.692C346.889,235.38,347.299,235.938,347.299,236.716z"/>
		<ellipse fill="none" stroke="#806829" stroke-width="2.7732" cx="346.831" cy="238.005" rx="2.652" ry="2.696"/>
		<ellipse fill="#FEE470" cx="346.831" cy="260.29" rx="2.652" ry="2.695"/>
		<path fill="#F2C716" d="M344.591,261.719l0.504,0.636l0.972,0.542l0.841,0.037l0.896-0.094l0.953-0.747l0.411-0.635l0.261-0.99
			v-1.028l-0.411-0.58l-0.598-0.691l-0.747-0.299c0,0,0.389,0.687,0.485,1.009c0.094,0.309,0.101,0.71,0.038,1.027
			c-0.061,0.306-0.217,0.691-0.411,0.935c-0.215,0.269-0.623,0.597-0.935,0.747c-0.347,0.167-0.792,0.213-1.177,0.225
			C345.348,261.823,344.591,261.719,344.591,261.719z"/>
		<path fill="#FFF0A7" d="M347.299,259c0,0.779-0.652,1.411-1.457,1.411c-0.804,0-1.457-0.632-1.457-1.411
			c0-0.399,0.321-0.388,0.599-0.644c0.262-0.243,0.71-0.691,1.102-0.691C346.89,257.666,347.299,258.222,347.299,259z"/>
		<ellipse fill="none" stroke="#806829" stroke-width="2.7732" cx="346.831" cy="260.29" rx="2.652" ry="2.695"/>
		<ellipse fill="#FEE470" cx="346.831" cy="282.369" rx="2.652" ry="2.696"/>
		<path fill="#F2C716" d="M344.591,283.799l0.504,0.635l0.972,0.542l0.841,0.038l0.896-0.094l0.953-0.747l0.411-0.635l0.261-0.99
			v-1.028l-0.411-0.579l-0.598-0.692l-0.747-0.299c0,0,0.389,0.688,0.485,1.009c0.094,0.31,0.101,0.711,0.038,1.028
			c-0.061,0.306-0.217,0.691-0.411,0.934c-0.215,0.271-0.623,0.598-0.935,0.748c-0.347,0.167-0.792,0.212-1.177,0.224
			C345.348,283.901,344.591,283.799,344.591,283.799z"/>
		<path fill="#FFF0A7" d="M347.299,281.081c0,0.778-0.652,1.41-1.457,1.41c-0.804,0-1.457-0.631-1.457-1.41
			c0-0.4,0.321-0.387,0.599-0.645c0.262-0.243,0.71-0.691,1.102-0.691C346.89,279.745,347.299,280.301,347.299,281.081z"/>
		<ellipse fill="none" stroke="#806829" stroke-width="2.7732" cx="346.831" cy="282.369" rx="2.652" ry="2.696"/>
		<ellipse fill="#FEE470" cx="346.831" cy="304.514" rx="2.652" ry="2.695"/>
		<path fill="#F2C716" d="M344.591,305.943l0.504,0.636l0.972,0.542l0.841,0.037l0.896-0.093l0.953-0.747l0.41-0.636l0.262-0.99
			v-1.027l-0.411-0.579l-0.598-0.692l-0.747-0.298c0,0,0.389,0.687,0.485,1.008c0.094,0.309,0.101,0.711,0.038,1.028
			c-0.061,0.306-0.217,0.69-0.411,0.934c-0.215,0.27-0.623,0.598-0.935,0.747c-0.347,0.167-0.792,0.212-1.177,0.225
			C345.348,306.047,344.591,305.943,344.591,305.943z"/>
		<path fill="#FFF0A7" d="M347.299,303.225c0,0.779-0.652,1.411-1.457,1.411c-0.804,0-1.457-0.632-1.457-1.411
			c0-0.399,0.321-0.387,0.598-0.645c0.263-0.242,0.711-0.691,1.103-0.691C346.889,301.889,347.299,302.447,347.299,303.225z"/>
		<ellipse fill="none" stroke="#806829" stroke-width="2.7732" cx="346.831" cy="304.514" rx="2.652" ry="2.695"/>
		<ellipse fill="#FEE470" cx="369.91" cy="238.005" rx="2.652" ry="2.696"/>
		<path fill="#F2C716" d="M367.67,239.435l0.504,0.635l0.972,0.542l0.841,0.038l0.896-0.094l0.953-0.747l0.411-0.635l0.262-0.99
			v-1.028l-0.411-0.579l-0.598-0.691l-0.748-0.299c0,0,0.389,0.688,0.486,1.009c0.094,0.309,0.1,0.711,0.037,1.028
			c-0.061,0.306-0.217,0.69-0.411,0.934c-0.215,0.27-0.623,0.598-0.934,0.747c-0.348,0.167-0.792,0.213-1.177,0.225
			C368.427,239.538,367.67,239.435,367.67,239.435L367.67,239.435z"/>
		<path fill="#FFF0A7" d="M370.379,236.716c0,0.778-0.653,1.411-1.457,1.411c-0.805,0-1.458-0.632-1.458-1.411
			c0-0.4,0.322-0.387,0.599-0.644c0.262-0.243,0.711-0.692,1.102-0.692C369.969,235.38,370.379,235.938,370.379,236.716z"/>
		<ellipse fill="none" stroke="#806829" stroke-width="2.7732" cx="369.91" cy="238.005" rx="2.652" ry="2.696"/>
		<ellipse fill="#FEE470" cx="369.91" cy="260.29" rx="2.652" ry="2.695"/>
		<path fill="#F2C716" d="M367.67,261.719l0.504,0.636l0.972,0.542l0.841,0.037l0.896-0.094l0.953-0.747l0.411-0.635l0.262-0.99
			v-1.028l-0.411-0.58l-0.598-0.691l-0.748-0.299c0,0,0.389,0.687,0.486,1.009c0.094,0.309,0.1,0.71,0.037,1.027
			c-0.061,0.306-0.217,0.691-0.411,0.935c-0.215,0.269-0.623,0.597-0.934,0.747c-0.348,0.167-0.792,0.213-1.177,0.225
			C368.427,261.823,367.67,261.719,367.67,261.719z"/>
		<path fill="#FFF0A7" d="M370.379,259c0,0.779-0.653,1.411-1.457,1.411c-0.805,0-1.458-0.632-1.458-1.411
			c0-0.399,0.322-0.388,0.599-0.644c0.262-0.243,0.711-0.691,1.102-0.691C369.969,257.666,370.379,258.222,370.379,259z"/>
		<ellipse fill="none" stroke="#806829" stroke-width="2.7732" cx="369.91" cy="260.29" rx="2.652" ry="2.695"/>
		<ellipse fill="#FEE470" cx="369.91" cy="282.369" rx="2.652" ry="2.696"/>
		<path fill="#F2C716" d="M367.67,283.799l0.504,0.635l0.972,0.542l0.841,0.038l0.896-0.094l0.953-0.747l0.411-0.635l0.262-0.99
			v-1.028l-0.411-0.579l-0.598-0.692l-0.748-0.299c0,0,0.389,0.688,0.486,1.009c0.094,0.31,0.1,0.711,0.037,1.028
			c-0.061,0.306-0.217,0.691-0.411,0.934c-0.215,0.271-0.623,0.598-0.934,0.748c-0.348,0.167-0.792,0.212-1.177,0.224
			C368.427,283.901,367.67,283.799,367.67,283.799z"/>
		<path fill="#FFF0A7" d="M370.379,281.081c0,0.778-0.653,1.41-1.457,1.41c-0.805,0-1.458-0.631-1.458-1.41
			c0-0.4,0.322-0.387,0.599-0.645c0.262-0.243,0.711-0.691,1.102-0.691C369.969,279.745,370.379,280.301,370.379,281.081z"/>
		<ellipse fill="none" stroke="#806829" stroke-width="2.7732" cx="369.91" cy="282.369" rx="2.652" ry="2.696"/>
		<ellipse fill="#FEE470" cx="369.91" cy="304.514" rx="2.652" ry="2.695"/>
		<path fill="#F2C716" d="M367.67,305.943l0.504,0.636l0.972,0.542l0.841,0.037l0.896-0.093l0.953-0.747l0.411-0.636l0.262-0.99
			v-1.027l-0.411-0.579l-0.598-0.692l-0.748-0.298c0,0,0.389,0.687,0.486,1.008c0.094,0.309,0.1,0.711,0.037,1.028
			c-0.061,0.306-0.217,0.69-0.411,0.934c-0.215,0.27-0.623,0.598-0.934,0.747c-0.348,0.167-0.792,0.212-1.177,0.225
			C368.427,306.047,367.67,305.943,367.67,305.943z"/>
		<path fill="#FFF0A7" d="M370.379,303.225c0,0.779-0.653,1.411-1.457,1.411c-0.805,0-1.458-0.632-1.458-1.411
			c0-0.399,0.322-0.387,0.599-0.645c0.262-0.242,0.711-0.691,1.102-0.691C369.969,301.889,370.379,302.447,370.379,303.225z"/>
		<ellipse fill="none" stroke="#806829" stroke-width="2.7732" cx="369.91" cy="304.514" rx="2.652" ry="2.695"/>
		<ellipse fill="#FEE470" cx="394.263" cy="238.005" rx="2.652" ry="2.696"/>
		<path fill="#F2C716" d="M392.023,239.435l0.505,0.635l0.971,0.542l0.842,0.038l0.896-0.094l0.954-0.747l0.41-0.635l0.262-0.99
			v-1.028l-0.41-0.579l-0.599-0.691l-0.747-0.299c0,0,0.388,0.688,0.485,1.009c0.094,0.309,0.1,0.711,0.037,1.028
			c-0.06,0.306-0.217,0.69-0.41,0.934c-0.216,0.27-0.623,0.598-0.935,0.747c-0.348,0.167-0.792,0.213-1.178,0.225
			C392.781,239.538,392.023,239.435,392.023,239.435L392.023,239.435z"/>
		<path fill="#FFF0A7" d="M394.732,236.716c0,0.778-0.652,1.411-1.457,1.411s-1.458-0.632-1.458-1.411c0-0.4,0.322-0.387,0.6-0.644
			c0.261-0.243,0.71-0.692,1.102-0.692C394.322,235.38,394.732,235.938,394.732,236.716z"/>
		<ellipse fill="none" stroke="#806829" stroke-width="2.7732" cx="394.263" cy="238.005" rx="2.652" ry="2.696"/>
		<ellipse fill="#FEE470" cx="394.263" cy="260.29" rx="2.652" ry="2.695"/>
		<path fill="#F2C716" d="M392.023,261.719l0.505,0.636l0.971,0.542l0.842,0.037l0.896-0.094l0.954-0.747l0.41-0.635l0.262-0.99
			v-1.028l-0.41-0.58l-0.599-0.691l-0.747-0.299c0,0,0.388,0.687,0.485,1.009c0.094,0.309,0.101,0.71,0.038,1.027
			c-0.061,0.306-0.218,0.691-0.411,0.935c-0.216,0.269-0.623,0.597-0.935,0.747c-0.348,0.167-0.792,0.213-1.178,0.225
			C392.781,261.823,392.023,261.719,392.023,261.719z"/>
		<path fill="#FFF0A7" d="M394.732,259c0,0.779-0.652,1.411-1.457,1.411s-1.458-0.632-1.458-1.411c0-0.399,0.322-0.388,0.6-0.644
			c0.261-0.243,0.71-0.691,1.102-0.691C394.322,257.666,394.732,258.222,394.732,259z"/>
		<ellipse fill="none" stroke="#806829" stroke-width="2.7732" cx="394.263" cy="260.29" rx="2.652" ry="2.695"/>
		<ellipse fill="#FEE470" cx="394.263" cy="282.369" rx="2.652" ry="2.696"/>
		<path fill="#F2C716" d="M392.023,283.799l0.505,0.635l0.971,0.542l0.842,0.038l0.896-0.094l0.954-0.747l0.41-0.635l0.262-0.99
			v-1.028l-0.41-0.579l-0.599-0.692l-0.747-0.299c0,0,0.388,0.688,0.485,1.009c0.094,0.31,0.101,0.711,0.038,1.028
			c-0.061,0.306-0.218,0.691-0.411,0.934c-0.216,0.271-0.623,0.598-0.935,0.748c-0.348,0.167-0.792,0.212-1.178,0.224
			C392.781,283.901,392.023,283.799,392.023,283.799z"/>
		<path fill="#FFF0A7" d="M394.732,281.081c0,0.778-0.652,1.41-1.457,1.41s-1.458-0.631-1.458-1.41c0-0.4,0.322-0.387,0.6-0.645
			c0.261-0.243,0.71-0.691,1.102-0.691C394.322,279.745,394.732,280.301,394.732,281.081z"/>
		<ellipse fill="none" stroke="#806829" stroke-width="2.7732" cx="394.263" cy="282.369" rx="2.652" ry="2.696"/>
		<ellipse fill="#FEE470" cx="394.263" cy="304.514" rx="2.652" ry="2.695"/>
		<path fill="#F2C716" d="M392.023,305.943l0.505,0.636l0.971,0.542l0.842,0.037l0.896-0.093l0.954-0.747l0.41-0.636l0.262-0.99
			v-1.027l-0.41-0.579l-0.599-0.692l-0.747-0.298c0,0,0.388,0.687,0.485,1.008c0.094,0.309,0.1,0.711,0.037,1.028
			c-0.06,0.306-0.217,0.69-0.41,0.934c-0.216,0.27-0.623,0.598-0.935,0.747c-0.348,0.167-0.792,0.212-1.178,0.225
			C392.781,306.047,392.023,305.943,392.023,305.943z"/>
		<path fill="#FFF0A7" d="M394.732,303.225c0,0.779-0.652,1.411-1.457,1.411s-1.458-0.632-1.458-1.411
			c0-0.399,0.322-0.387,0.6-0.645c0.261-0.242,0.71-0.691,1.102-0.691C394.322,301.889,394.732,302.447,394.732,303.225z"/>
		<ellipse fill="none" stroke="#806829" stroke-width="2.7732" cx="394.263" cy="304.514" rx="2.652" ry="2.695"/>
		<path fill="#E8CE55" d="M462.294,255.813c-1.891,0-3.399,1.537-3.399,3.427v8.458c0,1.89,1.509,3.426,3.399,3.426h2.708
			c1.892,0,3.429-1.537,3.429-3.426v-8.458c0-1.89-1.537-3.427-3.429-3.427H462.294z M462.516,259.489h2.267
			c0.441,0,0.663,0.222,0.663,0.608v6.744c0,0.386-0.222,0.608-0.663,0.608h-2.267c-0.444,0-0.663-0.213-0.663-0.608v-6.744
			C461.853,259.702,462.072,259.489,462.516,259.489z"/>
		<path fill="none" stroke="#806829" stroke-width="0.7928" d="M462.294,255.813c-1.891,0-3.399,1.537-3.399,3.427v8.458
			c0,1.89,1.509,3.426,3.399,3.426h2.708c1.892,0,3.429-1.537,3.429-3.426v-8.458c0-1.89-1.537-3.427-3.429-3.427H462.294z
			 M462.516,259.489h2.267c0.441,0,0.663,0.222,0.663,0.608v6.744c0,0.386-0.222,0.608-0.663,0.608h-2.267
			c-0.444,0-0.663-0.213-0.663-0.608v-6.744C461.853,259.702,462.072,259.489,462.516,259.489z"/>
		<path fill="#FFF0A7" d="M462.636,256.792c-1.656,0-3.004,1.458-3.004,3.245v6.866c0,1.786,1.348,3.245,3.004,3.245h2.038
			c1.657,0,3.004-1.457,3.004-3.245v-6.866c0-1.789-1.347-3.245-3.004-3.245H462.636z M462.636,258.051h2.038
			c1.039,0,1.851,0.874,1.851,1.985v6.866c0,1.111-0.812,1.985-1.851,1.985h-2.038c-1.038,0-1.851-0.87-1.851-1.985v-6.866
			C460.786,258.921,461.598,258.051,462.636,258.051z"/>
		<path fill="#E8CE55" d="M462.096,316.656c-5.293,0-9.555,4.283-9.555,9.559c0,5.275,4.262,9.55,9.555,9.55
			c5.294,0,9.555-4.275,9.554-9.55C471.65,320.938,467.389,316.656,462.096,316.656z M462.096,320.775
			c3.111,0,5.441,2.445,5.441,5.439c0,2.994-2.325,5.43-5.441,5.43c-3.115,0-5.434-2.436-5.434-5.43
			C456.663,323.22,458.984,320.775,462.096,320.775z"/>
		<path fill="none" stroke="#806829" stroke-width="2.8072" d="M462.096,316.656c-5.293,0-9.555,4.283-9.555,9.559
			c0,5.275,4.262,9.55,9.555,9.55c5.294,0,9.555-4.275,9.554-9.55C471.65,320.938,467.389,316.656,462.096,316.656z
			 M462.096,320.775c3.111,0,5.441,2.445,5.441,5.439c0,2.994-2.325,5.43-5.441,5.43c-3.115,0-5.434-2.436-5.434-5.43
			C456.663,323.22,458.984,320.775,462.096,320.775z"/>
		<path fill="#FFF0A7" d="M462.101,317.834c-4.576,0-8.243,3.749-8.243,8.375c0,4.627,3.666,8.376,8.243,8.376
			s8.235-3.749,8.235-8.376C470.336,321.583,466.677,317.834,462.101,317.834z M462.101,319.529c3.757,0,6.635,3.006,6.635,6.681
			c0,3.677-2.874,6.683-6.635,6.683c-3.762,0-6.644-3.006-6.644-6.683C455.458,322.534,458.342,319.529,462.101,319.529z"/>
		<path fill="#E8CE55" d="M452.187,243.205c-1.533,1.106-1.857,3.235-0.751,4.769l4.948,6.858c1.107,1.533,3.229,1.896,4.763,0.79
			l2.196-1.585c1.533-1.107,1.881-3.251,0.774-4.785l-4.95-6.858c-1.106-1.534-3.251-1.88-4.784-0.773L452.187,243.205z
			 M454.518,246.056l1.837-1.326c0.358-0.258,0.668-0.208,0.894,0.105l3.946,5.469c0.227,0.313,0.177,0.623-0.182,0.881
			l-1.838,1.326c-0.36,0.261-0.662,0.215-0.894-0.104l-3.946-5.469C454.104,246.617,454.157,246.316,454.518,246.056z"/>
		<path fill="none" stroke="#806829" stroke-width="0.7928" d="M452.187,243.205c-1.533,1.106-1.857,3.235-0.751,4.769l4.948,6.858
			c1.107,1.533,3.229,1.896,4.763,0.79l2.196-1.585c1.533-1.107,1.881-3.251,0.774-4.785l-4.95-6.858
			c-1.106-1.534-3.251-1.88-4.784-0.773L452.187,243.205z M454.518,246.056l1.837-1.326c0.358-0.258,0.668-0.208,0.894,0.105
			l3.946,5.469c0.227,0.313,0.177,0.623-0.182,0.881l-1.838,1.326c-0.36,0.261-0.662,0.215-0.894-0.104l-3.946-5.469
			C454.104,246.617,454.157,246.316,454.518,246.056z"/>
		<path fill="#FFF0A7" d="M453.037,243.798c-1.343,0.969-1.582,2.94-0.537,4.389l4.017,5.567c1.046,1.449,2.993,1.843,4.336,0.874
			l1.652-1.193c1.343-0.969,1.584-2.939,0.536-4.389l-4.018-5.567c-1.047-1.451-2.991-1.843-4.334-0.874L453.037,243.798z
			 M453.774,244.82l1.652-1.192c0.843-0.608,2.012-0.375,2.662,0.526l4.018,5.567c0.65,0.902,0.503,2.084-0.339,2.692l-1.653,1.193
			c-0.843,0.607-2.009,0.377-2.661-0.527l-4.019-5.566C452.783,246.608,452.931,245.428,453.774,244.82z"/>
		<path fill="#E8CE55" d="M461.56,271.539c-1.577-1.042-3.683-0.591-4.725,0.987l-4.661,7.058c-1.041,1.577-0.629,3.691,0.948,4.733
			l2.261,1.493c1.577,1.042,3.706,0.606,4.748-0.972l4.661-7.058c1.042-1.578,0.606-3.707-0.972-4.749L461.56,271.539z
			 M459.719,274.728l1.892,1.249c0.368,0.244,0.432,0.551,0.218,0.873l-3.716,5.628c-0.213,0.322-0.52,0.386-0.889,0.142
			l-1.891-1.249c-0.371-0.245-0.437-0.544-0.219-0.873l3.716-5.628C459.048,274.541,459.348,274.483,459.719,274.728z"/>
		<path fill="none" stroke="#806829" stroke-width="0.7928" d="M461.56,271.539c-1.577-1.042-3.683-0.591-4.725,0.987l-4.661,7.058
			c-1.041,1.577-0.629,3.691,0.948,4.733l2.261,1.493c1.577,1.042,3.706,0.606,4.748-0.972l4.661-7.058
			c1.042-1.578,0.606-3.707-0.972-4.749L461.56,271.539z M459.719,274.728l1.892,1.249c0.368,0.244,0.432,0.551,0.218,0.873
			l-3.716,5.628c-0.213,0.322-0.52,0.386-0.889,0.142l-1.891-1.249c-0.371-0.245-0.437-0.544-0.219-0.873l3.716-5.628
			C459.048,274.541,459.348,274.483,459.719,274.728z"/>
		<path fill="#FFF0A7" d="M461.306,272.543c-1.382-0.912-3.311-0.438-4.294,1.052l-3.783,5.729
			c-0.985,1.491-0.664,3.451,0.718,4.364l1.701,1.123c1.382,0.912,3.31,0.439,4.295-1.053l3.782-5.729
			c0.986-1.492,0.664-3.45-0.718-4.363L461.306,272.543z M460.612,273.595l1.7,1.123c0.868,0.572,1.063,1.748,0.451,2.676
			l-3.782,5.729c-0.613,0.928-1.771,1.208-2.639,0.637l-1.701-1.124c-0.866-0.572-1.064-1.746-0.45-2.675l3.783-5.729
			C458.588,273.301,459.745,273.022,460.612,273.595z"/>
		<path fill="#E8CE55" d="M452.939,285.935c-1.873-0.264-3.581,1.048-3.844,2.92l-1.178,8.375c-0.264,1.872,1.017,3.604,2.89,3.867
			l2.682,0.377c1.872,0.263,3.607-1.044,3.871-2.916l1.178-8.375c0.264-1.872-1.045-3.608-2.916-3.871L452.939,285.935z
			 M452.646,289.604l2.244,0.316c0.438,0.062,0.626,0.313,0.572,0.695l-0.939,6.678c-0.054,0.383-0.304,0.571-0.741,0.51
			l-2.244-0.316c-0.44-0.062-0.628-0.303-0.572-0.694l0.939-6.678C451.959,289.724,452.206,289.543,452.646,289.604z"/>
		<path fill="none" stroke="#806829" stroke-width="0.7928" d="M452.939,285.935c-1.873-0.264-3.581,1.048-3.844,2.92l-1.178,8.375
			c-0.264,1.872,1.017,3.604,2.89,3.867l2.682,0.377c1.872,0.263,3.607-1.044,3.871-2.916l1.178-8.375
			c0.264-1.872-1.045-3.608-2.916-3.871L452.939,285.935z M452.646,289.604l2.244,0.316c0.438,0.062,0.626,0.313,0.572,0.695
			l-0.939,6.678c-0.054,0.383-0.304,0.571-0.741,0.51l-2.244-0.316c-0.44-0.062-0.628-0.303-0.572-0.694l0.939-6.678
			C451.959,289.724,452.206,289.543,452.646,289.604z"/>
		<path fill="#FFF0A7" d="M453.141,286.95c-1.641-0.229-3.178,1.027-3.427,2.795l-0.956,6.798c-0.248,1.769,0.883,3.401,2.522,3.632
			l2.018,0.283c1.641,0.231,3.178-1.024,3.428-2.795l0.956-6.798c0.249-1.771-0.883-3.401-2.523-3.631L453.141,286.95z
			 M452.965,288.198l2.018,0.284c1.029,0.145,1.711,1.122,1.557,2.223l-0.956,6.798c-0.154,1.101-1.08,1.853-2.109,1.708
			l-2.018-0.283c-1.029-0.145-1.711-1.119-1.557-2.223l0.956-6.799C451.012,288.802,451.936,288.054,452.965,288.198z"/>
		<path fill="#E8CE55" d="M450.446,302.948c-1.707,0.813-2.407,2.85-1.594,4.556l3.641,7.634c0.814,1.707,2.837,2.444,4.544,1.63
			l2.445-1.165c1.706-0.815,2.432-2.863,1.618-4.569l-3.642-7.634c-0.813-1.707-2.861-2.433-4.568-1.618L450.446,302.948z
			 M452.228,306.171l2.045-0.976c0.398-0.189,0.694-0.085,0.86,0.263l2.903,6.087c0.166,0.349,0.062,0.645-0.337,0.835l-2.046,0.975
			c-0.401,0.191-0.69,0.093-0.861-0.264l-2.901-6.086C451.72,306.648,451.826,306.362,452.228,306.171z"/>
		<path fill="none" stroke="#806829" stroke-width="0.7928" d="M450.446,302.948c-1.707,0.813-2.407,2.85-1.594,4.556l3.641,7.634
			c0.814,1.707,2.837,2.444,4.544,1.63l2.445-1.165c1.706-0.815,2.432-2.863,1.618-4.569l-3.642-7.634
			c-0.813-1.707-2.861-2.433-4.568-1.618L450.446,302.948z M452.228,306.171l2.045-0.976c0.398-0.189,0.694-0.085,0.86,0.263
			l2.903,6.087c0.166,0.349,0.062,0.645-0.337,0.835l-2.046,0.975c-0.401,0.191-0.69,0.093-0.861-0.264l-2.901-6.086
			C451.72,306.648,451.826,306.362,452.228,306.171z"/>
		<path fill="#FFF0A7" d="M451.174,303.684c-1.494,0.713-2.083,2.609-1.314,4.222l2.955,6.196c0.771,1.613,2.614,2.349,4.108,1.636
			l1.84-0.877c1.495-0.713,2.084-2.608,1.314-4.222l-2.956-6.196c-0.77-1.615-2.612-2.349-4.107-1.636L451.174,303.684z
			 M451.716,304.821l1.84-0.877c0.938-0.448,2.047-0.009,2.525,0.994l2.954,6.196c0.479,1.004,0.122,2.141-0.815,2.588l-1.839,0.877
			c-0.938,0.448-2.044,0.012-2.524-0.994l-2.956-6.197C450.421,306.403,450.779,305.269,451.716,304.821z"/>
		<path fill="#E8CE55" d="M448.454,235.328l0.111-0.077c0.734-0.512,1.745-0.33,2.257,0.405l6.522,9.373
			c0.512,0.735,0.329,1.746-0.405,2.257l-0.11,0.078c-0.735,0.511-1.746,0.33-2.258-0.405l-6.522-9.374
			C447.537,236.85,447.718,235.839,448.454,235.328z"/>
		<path fill="none" stroke="#806829" stroke-width="2.0464" d="M448.454,235.328l0.111-0.077c0.734-0.512,1.745-0.33,2.257,0.405
			l6.522,9.373c0.512,0.735,0.329,1.746-0.405,2.257l-0.11,0.078c-0.735,0.511-1.746,0.33-2.258-0.405l-6.522-9.374
			C447.537,236.85,447.718,235.839,448.454,235.328z"/>
		<path fill="#FFF0A7" d="M448.915,235.986c-0.387,0.269-0.478,0.758-0.212,1.14l6.525,9.378c0.266,0.381,0.755,0.466,1.142,0.197
			l0.106-0.073c0.386-0.269,0.477-0.757,0.211-1.139l-6.524-9.378c-0.266-0.381-0.756-0.466-1.143-0.197L448.915,235.986z"/>
		<path fill="#E8CE55" d="M459.197,248.68l0.126-0.049c0.836-0.324,1.774,0.091,2.098,0.926l4.123,10.65
			c0.324,0.835-0.092,1.774-0.927,2.098l-0.126,0.049c-0.836,0.323-1.774-0.092-2.098-0.928l-4.123-10.648
			C457.947,249.942,458.362,249.002,459.197,248.68z"/>
		<path fill="none" stroke="#806829" stroke-width="2.0464" d="M459.197,248.68l0.126-0.049c0.836-0.324,1.774,0.091,2.098,0.926
			l4.123,10.65c0.324,0.835-0.092,1.774-0.927,2.098l-0.126,0.049c-0.836,0.323-1.774-0.092-2.098-0.928l-4.123-10.648
			C457.947,249.942,458.362,249.002,459.197,248.68z"/>
		<path fill="#FFF0A7" d="M459.49,249.428c-0.439,0.17-0.643,0.624-0.475,1.056l4.124,10.655c0.168,0.433,0.623,0.631,1.063,0.462
			l0.12-0.047c0.438-0.169,0.642-0.624,0.475-1.057l-4.125-10.654c-0.167-0.433-0.623-0.631-1.063-0.461L459.49,249.428z"/>
		<path fill="#E8CE55" d="M464.03,264.463l0.128,0.042c0.851,0.282,1.312,1.198,1.03,2.049l-3.586,10.841
			c-0.281,0.851-1.199,1.311-2.049,1.03l-0.128-0.042c-0.851-0.281-1.313-1.199-1.03-2.048l3.585-10.841
			C462.262,264.643,463.179,264.181,464.03,264.463z"/>
		<path fill="none" stroke="#806829" stroke-width="2.0464" d="M464.03,264.463l0.128,0.042c0.851,0.282,1.312,1.198,1.03,2.049
			l-3.586,10.841c-0.281,0.851-1.199,1.311-2.049,1.03l-0.128-0.042c-0.851-0.281-1.313-1.199-1.03-2.048l3.585-10.841
			C462.262,264.643,463.179,264.181,464.03,264.463z"/>
		<path fill="#FFF0A7" d="M463.779,265.226c-0.446-0.148-0.892,0.073-1.038,0.514l-3.588,10.847
			c-0.146,0.441,0.08,0.884,0.527,1.032l0.122,0.041c0.446,0.148,0.893-0.073,1.038-0.515l3.588-10.846
			c0.146-0.441-0.08-0.884-0.527-1.032L463.779,265.226z"/>
		<path fill="#E8CE55" d="M457.325,278.599l0.129,0.042c0.85,0.281,1.311,1.198,1.03,2.049l-3.587,10.841
			c-0.281,0.851-1.198,1.312-2.049,1.031l-0.127-0.043c-0.852-0.281-1.313-1.199-1.03-2.048l3.585-10.842
			C455.557,278.778,456.474,278.317,457.325,278.599z"/>
		<path fill="none" stroke="#806829" stroke-width="2.0464" d="M457.325,278.599l0.129,0.042c0.85,0.281,1.311,1.198,1.03,2.049
			l-3.587,10.841c-0.281,0.851-1.198,1.312-2.049,1.031l-0.127-0.043c-0.852-0.281-1.313-1.199-1.03-2.048l3.585-10.842
			C455.557,278.778,456.474,278.317,457.325,278.599z"/>
		<path fill="#FFF0A7" d="M457.075,279.362c-0.447-0.147-0.893,0.073-1.038,0.515l-3.589,10.846
			c-0.146,0.441,0.081,0.884,0.527,1.032l0.122,0.041c0.447,0.148,0.894-0.073,1.039-0.514l3.588-10.847
			c0.145-0.441-0.08-0.884-0.527-1.032L457.075,279.362z"/>
		<path fill="#E8CE55" d="M452.179,294.594l0.135-0.014c0.891-0.093,1.688,0.553,1.78,1.445l1.184,11.357
			c0.093,0.89-0.555,1.688-1.445,1.781l-0.135,0.014c-0.891,0.093-1.688-0.554-1.781-1.444l-1.183-11.358
			C450.641,295.484,451.289,294.687,452.179,294.594z"/>
		<path fill="none" stroke="#806829" stroke-width="2.0464" d="M452.179,294.594l0.135-0.014c0.891-0.093,1.688,0.553,1.78,1.445
			l1.184,11.357c0.093,0.89-0.555,1.688-1.445,1.781l-0.135,0.014c-0.891,0.093-1.688-0.554-1.781-1.444l-1.183-11.358
			C450.641,295.484,451.289,294.687,452.179,294.594z"/>
		<path fill="#FFF0A7" d="M452.265,295.394c-0.469,0.048-0.784,0.433-0.735,0.895l1.183,11.363c0.048,0.462,0.437,0.773,0.905,0.724
			l0.127-0.013c0.469-0.049,0.784-0.433,0.735-0.896l-1.183-11.364c-0.049-0.461-0.437-0.772-0.905-0.724L452.265,295.394z"/>
		<path fill="#E8CE55" d="M455.501,310.536l0.125-0.054c0.823-0.351,1.775,0.032,2.127,0.856l4.479,10.505
			c0.351,0.824-0.032,1.776-0.855,2.127l-0.125,0.053c-0.824,0.351-1.776-0.032-2.128-0.855l-4.478-10.505
			C454.294,311.84,454.678,310.888,455.501,310.536z"/>
		<path fill="none" stroke="#806829" stroke-width="2.0464" d="M455.501,310.536l0.125-0.054c0.823-0.351,1.775,0.032,2.127,0.856
			l4.479,10.505c0.351,0.824-0.032,1.776-0.855,2.127l-0.125,0.053c-0.824,0.351-1.776-0.032-2.128-0.855l-4.478-10.505
			C454.294,311.84,454.678,310.888,455.501,310.536z"/>
		<path fill="#FFF0A7" d="M455.819,311.275c-0.433,0.184-0.621,0.645-0.438,1.071l4.48,10.511c0.182,0.427,0.645,0.609,1.077,0.426
			l0.118-0.051c0.433-0.186,0.621-0.645,0.439-1.072l-4.481-10.51c-0.182-0.427-0.645-0.61-1.077-0.425L455.819,311.275z"/>
		<path fill="#E8CE55" d="M326.111,255.813c1.891,0,3.399,1.537,3.399,3.427v8.458c0,1.89-1.509,3.426-3.399,3.426h-2.709
			c-1.891,0-3.427-1.537-3.427-3.426v-8.458c0-1.89,1.536-3.427,3.427-3.427H326.111z M325.889,259.489h-2.267
			c-0.441,0-0.663,0.222-0.663,0.608v6.744c0,0.386,0.222,0.608,0.663,0.608h2.267c0.444,0,0.664-0.213,0.664-0.608v-6.744
			C326.553,259.702,326.333,259.489,325.889,259.489z"/>
		<path fill="none" stroke="#806829" stroke-width="0.7928" d="M326.111,255.813c1.891,0,3.399,1.537,3.399,3.427v8.458
			c0,1.89-1.509,3.426-3.399,3.426h-2.709c-1.891,0-3.427-1.537-3.427-3.426v-8.458c0-1.89,1.536-3.427,3.427-3.427H326.111z
			 M325.889,259.489h-2.267c-0.441,0-0.663,0.222-0.663,0.608v6.744c0,0.386,0.222,0.608,0.663,0.608h2.267
			c0.444,0,0.664-0.213,0.664-0.608v-6.744C326.553,259.702,326.333,259.489,325.889,259.489z"/>
		<path fill="#FFF0A7" d="M325.769,256.792c1.656,0,3.004,1.458,3.004,3.245v6.866c0,1.786-1.348,3.245-3.004,3.245h-2.038
			c-1.656,0-3.004-1.457-3.004-3.245v-6.866c0-1.789,1.348-3.245,3.004-3.245H325.769z M325.769,258.051h-2.038
			c-1.039,0-1.851,0.874-1.851,1.985v6.866c0,1.111,0.812,1.985,1.851,1.985h2.038c1.039,0,1.851-0.87,1.851-1.985v-6.866
			C327.62,258.921,326.808,258.051,325.769,258.051z"/>
		<path fill="#E8CE55" d="M326.309,316.656c5.293,0,9.555,4.283,9.555,9.559c0,5.275-4.261,9.55-9.555,9.55s-9.555-4.275-9.555-9.55
			C316.754,320.938,321.016,316.656,326.309,316.656z M326.309,320.775c-3.111,0-5.44,2.445-5.44,5.439
			c0,2.994,2.324,5.43,5.44,5.43s5.433-2.436,5.433-5.43C331.742,323.22,329.421,320.775,326.309,320.775z"/>
		<path fill="none" stroke="#806829" stroke-width="2.8072" d="M326.309,316.656c5.293,0,9.555,4.283,9.555,9.559
			c0,5.275-4.261,9.55-9.555,9.55s-9.555-4.275-9.555-9.55C316.754,320.938,321.016,316.656,326.309,316.656z M326.309,320.775
			c-3.111,0-5.44,2.445-5.44,5.439c0,2.994,2.324,5.43,5.44,5.43s5.433-2.436,5.433-5.43
			C331.742,323.22,329.421,320.775,326.309,320.775z"/>
		<path fill="#FFF0A7" d="M326.304,317.834c4.576,0,8.243,3.749,8.243,8.375c0,4.627-3.666,8.376-8.243,8.376
			c-4.576,0-8.235-3.749-8.235-8.376C318.069,321.583,321.728,317.834,326.304,317.834z M326.304,319.529
			c-3.757,0-6.635,3.006-6.635,6.681c0,3.677,2.874,6.683,6.635,6.683c3.762,0,6.644-3.006,6.644-6.683
			C332.948,322.534,330.062,319.529,326.304,319.529z"/>
		<path fill="#E8CE55" d="M336.218,243.205c1.533,1.106,1.857,3.235,0.751,4.769l-4.949,6.858c-1.106,1.533-3.229,1.896-4.762,0.79
			l-2.196-1.585c-1.533-1.107-1.881-3.251-0.773-4.785l4.949-6.858c1.106-1.534,3.251-1.88,4.784-0.773L336.218,243.205z
			 M333.888,246.056l-1.838-1.326c-0.358-0.258-0.668-0.208-0.894,0.105l-3.946,5.469c-0.227,0.313-0.177,0.623,0.182,0.881
			l1.838,1.326c0.36,0.261,0.663,0.215,0.894-0.104l3.946-5.469C334.301,246.617,334.249,246.316,333.888,246.056z"/>
		<path fill="none" stroke="#806829" stroke-width="0.7928" d="M336.218,243.205c1.533,1.106,1.857,3.235,0.751,4.769l-4.949,6.858
			c-1.106,1.533-3.229,1.896-4.762,0.79l-2.196-1.585c-1.533-1.107-1.881-3.251-0.773-4.785l4.949-6.858
			c1.106-1.534,3.251-1.88,4.784-0.773L336.218,243.205z M333.888,246.056l-1.838-1.326c-0.358-0.258-0.668-0.208-0.894,0.105
			l-3.946,5.469c-0.227,0.313-0.177,0.623,0.182,0.881l1.838,1.326c0.36,0.261,0.663,0.215,0.894-0.104l3.946-5.469
			C334.301,246.617,334.249,246.316,333.888,246.056z"/>
		<path fill="#FFF0A7" d="M335.37,243.798c1.343,0.969,1.582,2.94,0.536,4.389l-4.018,5.567c-1.045,1.449-2.991,1.843-4.334,0.874
			l-1.653-1.193c-1.343-0.969-1.583-2.939-0.536-4.389l4.018-5.567c1.046-1.451,2.991-1.843,4.334-0.874L335.37,243.798z
			 M334.631,244.82l-1.652-1.192c-0.843-0.608-2.012-0.375-2.662,0.526l-4.018,5.567c-0.65,0.902-0.503,2.084,0.339,2.692
			l1.653,1.193c0.843,0.607,2.01,0.377,2.662-0.527l4.018-5.566C335.624,246.608,335.474,245.428,334.631,244.82z"/>
		<path fill="#E8CE55" d="M326.845,271.539c1.578-1.042,3.683-0.591,4.726,0.987l4.66,7.058c1.042,1.577,0.629,3.691-0.949,4.733
			l-2.26,1.493c-1.578,1.042-3.707,0.606-4.748-0.972l-4.661-7.058c-1.042-1.578-0.605-3.707,0.972-4.749L326.845,271.539z
			 M328.686,274.728l-1.892,1.249c-0.368,0.244-0.431,0.551-0.218,0.873l3.716,5.628c0.213,0.322,0.52,0.386,0.889,0.142
			l1.891-1.249c0.371-0.245,0.437-0.544,0.219-0.873l-3.716-5.628C329.357,274.541,329.057,274.483,328.686,274.728z"/>
		<path fill="none" stroke="#806829" stroke-width="0.7928" d="M326.845,271.539c1.578-1.042,3.683-0.591,4.726,0.987l4.66,7.058
			c1.042,1.577,0.629,3.691-0.949,4.733l-2.26,1.493c-1.578,1.042-3.707,0.606-4.748-0.972l-4.661-7.058
			c-1.042-1.578-0.605-3.707,0.972-4.749L326.845,271.539z M328.686,274.728l-1.892,1.249c-0.368,0.244-0.431,0.551-0.218,0.873
			l3.716,5.628c0.213,0.322,0.52,0.386,0.889,0.142l1.891-1.249c0.371-0.245,0.437-0.544,0.219-0.873l-3.716-5.628
			C329.357,274.541,329.057,274.483,328.686,274.728z"/>
		<path fill="#FFF0A7" d="M327.099,272.543c1.382-0.912,3.31-0.438,4.295,1.052l3.782,5.729c0.984,1.491,0.664,3.451-0.718,4.364
			l-1.701,1.123c-1.382,0.912-3.309,0.439-4.295-1.053l-3.782-5.729c-0.986-1.492-0.664-3.45,0.718-4.363L327.099,272.543z
			 M327.793,273.595l-1.7,1.123c-0.867,0.572-1.063,1.748-0.451,2.676l3.783,5.729c0.612,0.928,1.771,1.208,2.638,0.637l1.7-1.124
			c0.867-0.572,1.065-1.746,0.451-2.675l-3.783-5.729C329.817,273.301,328.661,273.022,327.793,273.595z"/>
		<path fill="#E8CE55" d="M335.466,285.935c1.873-0.264,3.581,1.048,3.844,2.92l1.178,8.375c0.264,1.872-1.017,3.604-2.889,3.867
			l-2.683,0.377c-1.872,0.263-3.607-1.044-3.871-2.916l-1.178-8.375c-0.263-1.872,1.044-3.608,2.916-3.871L335.466,285.935z
			 M335.759,289.604l-2.244,0.316c-0.438,0.062-0.626,0.313-0.572,0.695l0.939,6.678c0.054,0.383,0.304,0.571,0.741,0.51
			l2.244-0.316c0.44-0.062,0.628-0.303,0.572-0.694l-0.939-6.678C336.446,289.724,336.2,289.543,335.759,289.604z"/>
		<path fill="none" stroke="#806829" stroke-width="0.7928" d="M335.466,285.935c1.873-0.264,3.581,1.048,3.844,2.92l1.178,8.375
			c0.264,1.872-1.017,3.604-2.889,3.867l-2.683,0.377c-1.872,0.263-3.607-1.044-3.871-2.916l-1.178-8.375
			c-0.263-1.872,1.044-3.608,2.916-3.871L335.466,285.935z M335.759,289.604l-2.244,0.316c-0.438,0.062-0.626,0.313-0.572,0.695
			l0.939,6.678c0.054,0.383,0.304,0.571,0.741,0.51l2.244-0.316c0.44-0.062,0.628-0.303,0.572-0.694l-0.939-6.678
			C336.446,289.724,336.2,289.543,335.759,289.604z"/>
		<path fill="#FFF0A7" d="M335.265,286.95c1.64-0.229,3.177,1.027,3.426,2.795l0.956,6.798c0.249,1.769-0.883,3.401-2.522,3.632
			l-2.019,0.283c-1.64,0.231-3.177-1.024-3.426-2.795l-0.956-6.798c-0.249-1.771,0.882-3.401,2.522-3.631L335.265,286.95z
			 M335.44,288.198l-2.019,0.284c-1.028,0.145-1.71,1.122-1.556,2.223l0.956,6.798c0.155,1.101,1.08,1.853,2.108,1.708l2.019-0.283
			c1.029-0.145,1.712-1.119,1.556-2.223l-0.955-6.799C337.394,288.802,336.469,288.054,335.44,288.198z"/>
		<path fill="#E8CE55" d="M337.96,302.948c1.706,0.813,2.407,2.85,1.593,4.556l-3.641,7.634c-0.813,1.707-2.837,2.444-4.544,1.63
			l-2.445-1.165c-1.706-0.815-2.432-2.863-1.617-4.569l3.641-7.634c0.813-1.707,2.861-2.433,4.568-1.618L337.96,302.948z
			 M336.178,306.171l-2.046-0.976c-0.398-0.189-0.694-0.085-0.86,0.263l-2.902,6.087c-0.167,0.349-0.063,0.645,0.337,0.835
			l2.045,0.975c0.401,0.191,0.69,0.093,0.86-0.264l2.903-6.086C336.685,306.648,336.58,306.362,336.178,306.171z"/>
		<path fill="none" stroke="#806829" stroke-width="0.7928" d="M337.96,302.948c1.706,0.813,2.407,2.85,1.593,4.556l-3.641,7.634
			c-0.813,1.707-2.837,2.444-4.544,1.63l-2.445-1.165c-1.706-0.815-2.432-2.863-1.617-4.569l3.641-7.634
			c0.813-1.707,2.861-2.433,4.568-1.618L337.96,302.948z M336.178,306.171l-2.046-0.976c-0.398-0.189-0.694-0.085-0.86,0.263
			l-2.902,6.087c-0.167,0.349-0.063,0.645,0.337,0.835l2.045,0.975c0.401,0.191,0.69,0.093,0.86-0.264l2.903-6.086
			C336.685,306.648,336.58,306.362,336.178,306.171z"/>
		<path fill="#FFF0A7" d="M337.231,303.684c1.494,0.713,2.083,2.609,1.314,4.222l-2.956,6.196c-0.769,1.613-2.612,2.349-4.107,1.636
			l-1.84-0.877c-1.495-0.713-2.084-2.608-1.314-4.222l2.956-6.196c0.77-1.615,2.612-2.349,4.107-1.636L337.231,303.684z
			 M336.688,304.821l-1.839-0.877c-0.938-0.448-2.046-0.009-2.524,0.994l-2.956,6.196c-0.479,1.004-0.122,2.141,0.816,2.588
			l1.84,0.877c0.938,0.448,2.044,0.012,2.524-0.994l2.955-6.197C337.984,306.403,337.625,305.269,336.688,304.821z"/>
		<path fill="#E8CE55" d="M339.952,235.328l-0.111-0.077c-0.734-0.512-1.745-0.33-2.257,0.405l-6.522,9.373
			c-0.511,0.735-0.33,1.746,0.405,2.257l0.111,0.078c0.735,0.511,1.745,0.33,2.257-0.405l6.522-9.374
			C340.869,236.85,340.687,235.839,339.952,235.328z"/>
		<path fill="none" stroke="#806829" stroke-width="2.0464" d="M339.952,235.328l-0.111-0.077c-0.734-0.512-1.745-0.33-2.257,0.405
			l-6.522,9.373c-0.511,0.735-0.33,1.746,0.405,2.257l0.111,0.078c0.735,0.511,1.745,0.33,2.257-0.405l6.522-9.374
			C340.869,236.85,340.687,235.839,339.952,235.328z"/>
		<path fill="#FFF0A7" d="M339.491,235.986c0.387,0.269,0.478,0.758,0.212,1.14l-6.525,9.378c-0.266,0.381-0.755,0.466-1.142,0.197
			l-0.105-0.073c-0.387-0.269-0.478-0.757-0.212-1.139l6.525-9.378c0.266-0.381,0.755-0.466,1.142-0.197L339.491,235.986z"/>
		<path fill="#E8CE55" d="M329.208,248.68l-0.126-0.049c-0.835-0.324-1.774,0.091-2.098,0.926l-4.123,10.65
			c-0.323,0.835,0.092,1.774,0.927,2.098l0.126,0.049c0.836,0.323,1.774-0.092,2.099-0.928l4.122-10.648
			C330.458,249.942,330.043,249.002,329.208,248.68z"/>
		<path fill="none" stroke="#806829" stroke-width="2.0464" d="M329.208,248.68l-0.126-0.049c-0.835-0.324-1.774,0.091-2.098,0.926
			l-4.123,10.65c-0.323,0.835,0.092,1.774,0.927,2.098l0.126,0.049c0.836,0.323,1.774-0.092,2.099-0.928l4.122-10.648
			C330.458,249.942,330.043,249.002,329.208,248.68z"/>
		<path fill="#FFF0A7" d="M328.917,249.428c0.438,0.17,0.643,0.624,0.475,1.056l-4.125,10.655c-0.168,0.433-0.623,0.631-1.063,0.462
			l-0.12-0.047c-0.438-0.169-0.643-0.624-0.475-1.057l4.125-10.654c0.167-0.433,0.623-0.631,1.063-0.461L328.917,249.428z"/>
		<path fill="#E8CE55" d="M324.376,264.463l-0.129,0.042c-0.85,0.282-1.312,1.198-1.03,2.049l3.586,10.841
			c0.281,0.851,1.199,1.311,2.049,1.03l0.128-0.042c0.851-0.281,1.313-1.199,1.031-2.048l-3.586-10.841
			C326.144,264.643,325.227,264.181,324.376,264.463z"/>
		<path fill="none" stroke="#806829" stroke-width="2.0464" d="M324.376,264.463l-0.129,0.042c-0.85,0.282-1.312,1.198-1.03,2.049
			l3.586,10.841c0.281,0.851,1.199,1.311,2.049,1.03l0.128-0.042c0.851-0.281,1.313-1.199,1.031-2.048l-3.586-10.841
			C326.144,264.643,325.227,264.181,324.376,264.463z"/>
		<path fill="#FFF0A7" d="M324.626,265.226c0.447-0.148,0.893,0.073,1.038,0.514l3.588,10.847c0.146,0.441-0.08,0.884-0.527,1.032
			l-0.121,0.041c-0.447,0.148-0.894-0.073-1.039-0.515l-3.588-10.846c-0.146-0.441,0.08-0.884,0.527-1.032L324.626,265.226z"/>
		<path fill="#E8CE55" d="M331.081,278.599l-0.128,0.042c-0.851,0.281-1.312,1.198-1.03,2.049l3.586,10.841
			c0.281,0.851,1.198,1.312,2.049,1.031l0.128-0.043c0.851-0.281,1.312-1.199,1.03-2.048l-3.586-10.842
			C332.848,278.778,331.931,278.317,331.081,278.599z"/>
		<path fill="none" stroke="#806829" stroke-width="2.0464" d="M331.081,278.599l-0.128,0.042c-0.851,0.281-1.312,1.198-1.03,2.049
			l3.586,10.841c0.281,0.851,1.198,1.312,2.049,1.031l0.128-0.043c0.851-0.281,1.312-1.199,1.03-2.048l-3.586-10.842
			C332.848,278.778,331.931,278.317,331.081,278.599z"/>
		<path fill="#FFF0A7" d="M331.332,279.362c0.446-0.147,0.892,0.073,1.038,0.515l3.588,10.846c0.146,0.441-0.08,0.884-0.527,1.032
			l-0.122,0.041c-0.447,0.148-0.893-0.073-1.038-0.514l-3.588-10.847c-0.146-0.441,0.08-0.884,0.527-1.032L331.332,279.362z"/>
		<path fill="#E8CE55" d="M336.226,294.594l-0.134-0.014c-0.891-0.093-1.688,0.553-1.781,1.445l-1.183,11.357
			c-0.093,0.89,0.554,1.688,1.444,1.781l0.135,0.014c0.891,0.093,1.688-0.554,1.78-1.444l1.184-11.358
			C337.764,295.484,337.117,294.687,336.226,294.594z"/>
		<path fill="none" stroke="#806829" stroke-width="2.0464" d="M336.226,294.594l-0.134-0.014c-0.891-0.093-1.688,0.553-1.781,1.445
			l-1.183,11.357c-0.093,0.89,0.554,1.688,1.444,1.781l0.135,0.014c0.891,0.093,1.688-0.554,1.78-1.444l1.184-11.358
			C337.764,295.484,337.117,294.687,336.226,294.594z"/>
		<path fill="#FFF0A7" d="M336.141,295.394c0.468,0.048,0.783,0.433,0.735,0.895l-1.184,11.363
			c-0.048,0.462-0.437,0.773-0.904,0.724l-0.128-0.013c-0.469-0.049-0.784-0.433-0.736-0.896l1.185-11.364
			c0.048-0.461,0.436-0.772,0.904-0.724L336.141,295.394z"/>
		<path fill="#E8CE55" d="M332.904,310.536l-0.125-0.054c-0.823-0.351-1.775,0.032-2.127,0.856l-4.479,10.505
			c-0.351,0.824,0.032,1.776,0.855,2.127l0.125,0.053c0.823,0.351,1.776-0.032,2.128-0.855l4.478-10.505
			C334.111,311.84,333.728,310.888,332.904,310.536z"/>
		<path fill="none" stroke="#806829" stroke-width="2.0464" d="M332.904,310.536l-0.125-0.054c-0.823-0.351-1.775,0.032-2.127,0.856
			l-4.479,10.505c-0.351,0.824,0.032,1.776,0.855,2.127l0.125,0.053c0.823,0.351,1.776-0.032,2.128-0.855l4.478-10.505
			C334.111,311.84,333.728,310.888,332.904,310.536z"/>
		<path fill="#FFF0A7" d="M332.586,311.275c0.433,0.184,0.621,0.645,0.439,1.071l-4.48,10.511c-0.183,0.427-0.645,0.609-1.078,0.426
			l-0.118-0.051c-0.433-0.186-0.621-0.645-0.439-1.072l4.48-10.51c0.183-0.427,0.645-0.61,1.078-0.425L332.586,311.275z"/>
	</g>
	<g clip-path="url(#SVGID_8_)">
		<radialGradient id="SVGID_20_" cx="394.2026" cy="419.8838" r="19.3379" gradientUnits="userSpaceOnUse">
			<stop  offset="0" style="stop-color:#262262"/>
			<stop  offset="1" style="stop-color:#2E3192"/>
		</radialGradient>
		<path fill="url(#SVGID_20_)" stroke="#FFF200" stroke-width="2" stroke-miterlimit="10" d="M394.205,400.547
			c-10.682,0-19.34,8.657-19.34,19.338c0,10.68,8.658,19.337,19.34,19.337c10.678,0,19.336-8.657,19.336-19.337
			C413.541,409.204,404.882,400.547,394.205,400.547z M394.205,429.718c-5.432,0-9.833-4.402-9.833-9.833
			c0-5.432,4.401-9.833,9.833-9.833c5.431,0,9.833,4.401,9.833,9.833C404.038,425.315,399.635,429.718,394.205,429.718z"/>
		<radialGradient id="SVGID_21_" cx="394.2017" cy="470.3193" r="50.412" gradientUnits="userSpaceOnUse">
			<stop  offset="0" style="stop-color:#262262"/>
			<stop  offset="1" style="stop-color:#2E3192"/>
		</radialGradient>
		<path fill="url(#SVGID_21_)" stroke="#FFF200" stroke-width="2" stroke-miterlimit="10" d="M450.004,514.69
			c0,0-14.258-60.719-19.912-66.373c-5.653-5.653-11.799-22.37-31.711-22.37c-1.625,0-6.737,0-8.358,0
			c-19.912,0-26.058,16.717-31.711,22.37c-5.654,5.654-19.912,66.373-19.912,66.373H450.004z"/>
		<radialGradient id="SVGID_22_" cx="394.2017" cy="523.54" r="48.4005" gradientUnits="userSpaceOnUse">
			<stop  offset="0" style="stop-color:#262262"/>
			<stop  offset="1" style="stop-color:#2E3192"/>
		</radialGradient>
		<path fill="url(#SVGID_22_)" stroke="#FFF200" stroke-width="2" stroke-miterlimit="10" d="M394.736,504.124v-0.004
			c-0.181,0-0.354,0.002-0.534,0.002c-0.18,0-0.356-0.002-0.537-0.002v0.004c-42.693,0.079-65.098,4.886-65.098,38.837h62.689h5.892
			h62.689C459.837,509.01,437.433,504.203,394.736,504.124z"/>
		<radialGradient id="SVGID_23_" cx="394.2017" cy="542.96" r="47.569" gradientUnits="userSpaceOnUse">
			<stop  offset="0" style="stop-color:#262262"/>
			<stop  offset="1" style="stop-color:#2E3192"/>
		</radialGradient>
		<path fill="url(#SVGID_23_)" stroke="#FFF200" stroke-width="2" stroke-miterlimit="10" d="M459.837,542.961
			c0,8.146-29.388,14.749-65.636,14.749c-35.708,0-64.755-6.406-65.615-14.387c-0.014-0.121-0.02-0.242-0.02-0.362
			c0-8.147,29.386-14.75,65.635-14.75C430.45,528.211,459.837,534.813,459.837,542.961z"/>
		<radialGradient id="SVGID_24_" cx="394.2017" cy="557.875" r="8.1649" gradientUnits="userSpaceOnUse">
			<stop  offset="0" style="stop-color:#262262"/>
			<stop  offset="1" style="stop-color:#2E3192"/>
		</radialGradient>
		
			<ellipse fill="url(#SVGID_24_)" stroke="#FFF200" stroke-width="2" stroke-miterlimit="10" cx="394.202" cy="557.875" rx="6.556" ry="9.505"/>
	</g>
	<use xlink:href="#SVGID_2_"  overflow="visible" fill="none" stroke="#000000" stroke-width="7" stroke-miterlimit="10"/>
</g>
<radialGradient id="SVGID_25_" cx="394.2026" cy="575.5225" r="180.5935" gradientUnits="userSpaceOnUse">
	<stop  offset="0.6316" style="stop-color:#FFFFFF"/>
	<stop  offset="0.7049" style="stop-color:#F4F5F5"/>
	<stop  offset="0.8549" style="stop-color:#EAEBEB"/>
	<stop  offset="1" style="stop-color:#E6E7E8"/>
</radialGradient>
<path fill="url(#SVGID_25_)" stroke="#000000" stroke-width="3" stroke-miterlimit="10" d="M606.917,493.628c0,0-35,101-212.714,101
	s-212.714-101-212.714-101s-32,43-29,61s64.428,102.788,241.714,102.788s238.714-84.788,241.714-102.788
	S606.917,493.628,606.917,493.628z"/>
<g>
	<path fill="none" d="M152.489,554.628c3,18,64.428,102.788,241.714,102.788s238.714-84.788,241.714-102.788"/>
	<path d="M177.895,565.369l3.693-0.48c-0.247,2.844,0.327,5.014,1.723,6.512c0.971,1.041,2.167,1.517,3.59,1.427
		c1.422-0.091,2.769-0.728,4.039-1.91c1.249-1.164,2.046-3.072,2.394-5.726l0.453-3.426c0.324-2.532,0.645-4.212,0.962-5.04
		c0.317-0.828,0.964-1.698,1.943-2.609c1.946-1.813,4.184-2.777,6.713-2.891c2.529-0.113,4.57,0.663,6.121,2.327
		c0.984,1.057,1.707,2.698,2.168,4.925l-4.45,3.081l-0.669-0.718c0.337-0.285,0.568-0.486,0.693-0.603
		c0.988-0.922,1.515-1.952,1.581-3.093c0.065-1.14-0.345-2.186-1.23-3.136c-0.914-0.98-2.081-1.435-3.5-1.361
		s-2.717,0.658-3.893,1.754c-0.791,0.737-1.357,1.58-1.697,2.529s-0.635,2.542-0.885,4.777l-0.338,2.829
		c-0.363,3.137-1.31,5.418-2.839,6.844c-2.009,1.871-4.386,2.773-7.133,2.705c-2.747-0.067-5.027-1.074-6.84-3.021
		C179.103,569.576,178.237,567.678,177.895,565.369z"/>
	<path d="M196.889,586.37c-1.996-1.598-2.896-3.711-2.7-6.342c0.195-2.632,1.458-5.401,3.787-8.312
		c3.493-4.365,7.657-7.319,12.491-8.861c4.834-1.543,8.704-1.151,11.608,1.173c1.979,1.584,2.878,3.675,2.697,6.271
		c-0.182,2.598-1.419,5.328-3.712,8.193c-3.645,4.555-7.837,7.603-12.579,9.146C203.738,589.182,199.875,588.759,196.889,586.37z
		 M198.271,585.617c2.109,1.688,5.14,1.608,9.092-0.24c3.952-1.848,7.64-4.908,11.064-9.183c4.335-5.422,5.129-9.232,2.381-11.431
		c-2.11-1.688-5.131-1.629-9.064,0.18c-3.934,1.808-7.59,4.821-10.97,9.039C196.341,579.527,195.506,583.405,198.271,585.617z"/>
	<path d="M227.148,606.414l4.138-5.196c-4.188,2.634-7.421,3.288-9.703,1.962c-1.59-0.924-2.416-2.419-2.476-4.486
		s0.649-4.374,2.128-6.92c0.922-1.587,2.698-4.018,5.329-7.293c2.63-3.275,5.227-6.291,7.79-9.047
		c-0.401-0.364-0.691-0.599-0.871-0.703c-1.482-0.861-3.138-0.857-4.965,0.014c-1.829,0.871-3.368,2.383-4.619,4.535l-3.633,0.233
		c4.605-7.015,10.358-8.518,17.257-4.508l0.97,0.564c-2.862,3.042-5.7,6.313-8.514,9.811s-4.753,6.163-5.818,7.995
		c-1.158,1.993-1.776,3.719-1.855,5.179c-0.079,1.459,0.398,2.489,1.431,3.09c1.087,0.632,2.532,0.616,4.335-0.047
		c1.803-0.663,3.757-1.905,5.861-3.727l13.548-17.077l3.327,1.316l-4.466,5.326l-9.604,12.09c-1.759,2.22-2.845,3.686-3.26,4.398
		c-0.772,1.329-0.561,2.34,0.634,3.034c0.422,0.246,0.997,0.497,1.725,0.756l-0.862,1.079L227.148,606.414z"/>
	<path d="M249.694,616.693l2.252-5.095c4.288-10.156,6.59-17.491,6.906-22.006c0.328-4.757-0.542-7.571-2.61-8.444
		c-1.867-0.788-4.207,0.146-7.021,2.803l-0.508-0.84c4.034-3.624,7.31-4.904,9.828-3.842c6.011,2.539,5.03,13.25-2.943,32.134
		l8.758-7.906c5.306-4.785,8.275-7.925,8.906-9.419c0.21-0.497-0.116-0.929-0.978-1.293l-1.15-0.485l0.679-1.126l6.181,2.609
		l-0.693,1.12l-1.193-0.504l-24.699,22.438L249.694,616.693z"/>
	<path d="M264.509,621.893l3.16-2.331l0.253,0.08c1.505,0.478,2.678,0.38,3.519-0.294c0.84-0.673,1.928-2.393,3.264-5.16
		l8.597-17.719c-2.041-0.647-3.927-0.421-5.66,0.679c-1.733,1.099-2.983,2.855-3.748,5.269l-0.142,0.448l-3.489,0.997
		c1.551-4.03,3.693-6.693,6.426-7.99s6.17-1.289,10.31,0.024l8.735,2.771l-3.148,5.336l-0.936-0.297
		c0.247-0.504,0.437-0.966,0.571-1.386c0.339-1.071,0.125-1.952-0.642-2.644c-0.768-0.691-2.334-1.412-4.702-2.163l-0.46-0.146
		l-5.543,11.494l6.626,2.102l-2.179,1.613c-2.124-1.105-3.592-1.788-4.404-2.045l-0.743-0.236l-1.007,2.095
		c-1.128,2.354-2.275,4.14-3.441,5.356c-1.166,1.218-2.756,2.288-4.771,3.213l7.008,2.648l1.541,0.556
		c1.614,0.512,3.364,0.238,5.248-0.82l-0.754,1.552c-2.523,1.871-4.557,2.562-6.102,2.071l-0.677-0.237L264.509,621.893z"/>
	<path d="M285.737,626.583l2.852-2.557c0.521,2.535,1.685,4.004,3.491,4.405c1.207,0.269,2.425-0.185,3.656-1.361
		s2.27-2.88,3.117-5.11l7.273-19.127c-0.493-0.226-0.845-0.362-1.058-0.41c-1.664-0.37-3.235,0.137-4.713,1.52
		c-1.479,1.384-2.488,3.291-3.029,5.721l-3.392,1.322c1.021-3.635,2.782-6.354,5.28-8.16c2.499-1.805,5.279-2.366,8.343-1.685
		l1.46,0.325c0.229,3.897,0.734,8.112,1.514,12.644l0.885,5.137c0.629,3.536,1.036,6.373,1.22,8.513l4.428-11.649
		c1.522-4.019,3.281-6.998,5.277-8.937s4.049-2.673,6.159-2.203c0.75,0.166,1.442,0.524,2.076,1.073l-1.721,2.568
		c-0.687-1.173-1.446-1.852-2.277-2.037c-2.191-0.487-4.242,1.797-6.154,6.851l-5.771,15.176l-2.087,6.007l-2.151,0.482
		c-0.016-1.65-0.429-4.816-1.239-9.5l-1.716-9.869c-0.457-2.638-0.798-4.979-1.023-7.026l-2.94,7.762
		c-1.868,4.904-3.97,8.524-6.304,10.861c-2.335,2.337-4.745,3.229-7.229,2.676C288.215,629.604,286.808,628.469,285.737,626.583z"/>
	<path d="M323.167,636.224l2.73-2.801l0.219,0.117c0.119,0.046,0.416,0.103,0.889,0.17c1.142,0.163,2.067-0.272,2.776-1.307
		c0.709-1.033,1.531-3.136,2.467-6.308l4.871-16.592l-3.904-0.557c-3.96-0.565-6.246,1.293-6.857,5.574
		c-0.072,0.507-0.115,1.14-0.129,1.899l-3.502,1.591c1.023-4.078,2.803-7.173,5.339-9.282s5.466-2.927,8.789-2.453l6.542,0.934
		c2.952,0.422,4.945,0.433,5.978,0.034c1.033-0.398,1.851-1.496,2.453-3.293l2.499-0.958c-1.094,2.517-2.785,4.438-5.073,5.764
		c-2.289,1.326-4.739,1.803-7.352,1.43l-1.543-0.22l-4.246,14.417c-0.758,2.594-1.62,4.601-2.583,6.022
		c-0.964,1.422-2.343,2.716-4.136,3.882l5.932,1.02l-2.591,2.819L323.167,636.224z"/>
	<path d="M362.369,638.767l2.316-3.072c0.983,2.39,2.409,3.61,4.279,3.663c1.225,0.034,2.331-0.646,3.316-2.042
		c0.985-1.396,1.682-3.262,2.09-5.599l3.512-20.18c-0.526-0.129-0.894-0.196-1.101-0.202c-1.714-0.048-3.166,0.748-4.355,2.387
		s-1.819,3.702-1.888,6.19l-3.08,1.941c0.33-3.961,1.574-7.014,3.734-9.159c2.16-2.146,5.01-3.169,8.552-3.069l1.262,0.035
		c1.716,7.377,2.907,14.946,3.574,22.706l10.854-22.302l3.349-0.439l-1.376,6.813l-3.027,17.354
		c-0.262,1.544-0.405,2.778-0.432,3.702c-0.035,1.252,0.503,1.893,1.615,1.924c0.55,0.016,1.289-0.042,2.219-0.173l-0.241,1.359
		l-7.755,1.875l4.813-27.658l-11.312,23.079l-1.614,0.296l0.018-0.618c0.156-5.56-0.643-12.491-2.396-20.794l-1.521,8.666
		c-1.859,10.692-5.405,15.965-10.64,15.818C365.304,641.219,363.716,640.385,362.369,638.767z"/>
	<path d="M400.513,641.447l2.217-3.241l0.265-0.008c1.578-0.045,2.653-0.522,3.226-1.435s1.033-2.895,1.384-5.948l2.285-19.561
		c-2.14,0.061-3.847,0.896-5.122,2.504c-1.274,1.608-1.876,3.679-1.805,6.209l0.014,0.47l-2.966,2.09
		c0.138-4.315,1.284-7.535,3.438-9.66c2.154-2.124,5.402-3.248,9.744-3.37l9.161-0.259l-1.217,6.075l-0.981,0.027
		c0.067-0.557,0.095-1.056,0.083-1.496c-0.032-1.123-0.524-1.885-1.476-2.285c-0.952-0.4-2.67-0.565-5.152-0.495l-0.482,0.014
		l-1.451,12.678l6.949-0.196l-1.527,2.241c-2.369-0.345-3.98-0.506-4.832-0.481l-0.778,0.021l-0.263,2.31
		c-0.29,2.594-0.786,4.658-1.485,6.19c-0.7,1.533-1.85,3.068-3.448,4.605l7.489,0.193l1.638,0.018
		c1.693-0.048,3.255-0.882,4.686-2.502l-0.201,1.714c-1.767,2.597-3.46,3.918-5.08,3.964l-0.718-0.001L400.513,641.447z"/>
	<path d="M443.598,637.845l1.788-3.268c2.152,1.875,4.244,2.69,6.276,2.444c1.413-0.17,2.503-0.856,3.268-2.06
		c0.766-1.203,1.044-2.666,0.836-4.389c-0.204-1.695-1.276-3.464-3.215-5.308l-2.502-2.385c-1.854-1.753-3.023-3.002-3.506-3.746
		c-0.481-0.744-0.803-1.78-0.964-3.107c-0.318-2.641,0.222-5.017,1.62-7.127c1.399-2.11,3.229-3.303,5.487-3.575
		c1.434-0.173,3.187,0.21,5.257,1.149l-0.132,5.41l-0.975,0.118c-0.032-0.44-0.059-0.745-0.079-0.915
		c-0.162-1.341-0.685-2.374-1.567-3.099s-1.969-1.009-3.259-0.854c-1.33,0.161-2.385,0.836-3.162,2.026
		c-0.777,1.189-1.069,2.583-0.877,4.179c0.13,1.073,0.478,2.027,1.044,2.861s1.68,2.011,3.339,3.53l2.087,1.94
		c2.319,2.142,3.605,4.25,3.856,6.326c0.329,2.726-0.344,5.178-2.017,7.357c-1.673,2.179-3.83,3.428-6.471,3.747
		C447.709,639.348,445.666,638.928,443.598,637.845z"/>
	<path d="M471.558,635.945c-2.518,0.44-4.698-0.283-6.542-2.17s-3.087-4.666-3.729-8.338c-0.964-5.507-0.425-10.583,1.616-15.229
		c2.04-4.646,4.893-7.289,8.558-7.93c2.497-0.437,4.659,0.271,6.486,2.125c1.828,1.854,3.058,4.589,3.689,8.204
		c1.005,5.745,0.519,10.906-1.461,15.483C478.198,632.669,475.325,635.286,471.558,635.945z M471.907,634.411
		c2.661-0.465,4.606-2.791,5.834-6.978c1.229-4.186,1.373-8.977,0.433-14.372c-1.199-6.837-3.532-9.953-6.999-9.347
		c-2.661,0.465-4.615,2.771-5.86,6.917c-1.246,4.146-1.405,8.882-0.477,14.207C466.063,631.83,468.419,635.021,471.907,634.411z"/>
	<path d="M506.697,628.094l-0.713-6.604c-1.124,4.817-2.964,7.557-5.519,8.218c-1.78,0.462-3.419-0.021-4.916-1.448
		c-1.496-1.428-2.614-3.566-3.353-6.417c-0.46-1.776-0.907-4.754-1.34-8.933s-0.708-8.148-0.823-11.91
		c-0.541,0.023-0.913,0.061-1.114,0.112c-1.659,0.431-2.833,1.598-3.521,3.502c-0.687,1.905-0.719,4.063-0.094,6.472l-2.419,2.721
		c-1.658-8.226,1.375-13.339,9.1-15.34l1.086-0.281c0.105,4.176,0.388,8.496,0.847,12.962s0.954,7.725,1.485,9.776
		c0.578,2.231,1.353,3.894,2.322,4.986c0.97,1.094,2.033,1.49,3.19,1.19c1.217-0.315,2.233-1.343,3.05-3.082
		c0.815-1.739,1.331-3.996,1.547-6.771l-2.377-21.669l3.291-1.403l0.57,6.928l1.674,15.349c0.311,2.814,0.569,4.621,0.776,5.42
		c0.385,1.487,1.246,2.058,2.584,1.711c0.473-0.122,1.059-0.348,1.758-0.676l0.146,1.373L506.697,628.094z"/>
	<path d="M530.037,620.115l-1.836-5.259c-3.807-10.347-7.137-17.276-9.99-20.789c-3.01-3.697-5.568-5.158-7.675-4.384
		c-1.901,0.7-2.972,2.981-3.212,6.844l-0.944-0.267c0.47-5.402,1.987-8.575,4.552-9.519c6.124-2.254,12.726,6.239,19.804,25.477
		l0.994-11.757c0.606-7.119,0.629-11.44,0.069-12.962c-0.187-0.508-0.72-0.6-1.598-0.276l-1.172,0.431l-0.273-1.286l6.297-2.316
		l0.259,1.291l-1.216,0.447l-2.707,33.26L530.037,620.115z"/>
	<path d="M541.857,614.885l0.79-3.849l0.947-0.439c1.074-0.499,1.645-1.349,1.712-2.549c0.067-1.199-0.353-3.306-1.26-6.319
		l-5.03-16.862l-3.83,1.779l0.719-3.816l9.203-4.273l-0.818,3.862l-2.305,1.069l4.37,14.628c1.335,4.478,1.223,8.38-0.336,11.708
		l5.589-2.36l-0.706,3.81L541.857,614.885z"/>
	<path d="M557.025,607.803l0.451-3.901l0.23-0.13c1.376-0.774,2.104-1.698,2.187-2.772c0.081-1.073-0.435-3.042-1.546-5.907
		l-7.088-18.374c-1.866,1.051-2.987,2.584-3.366,4.601c-0.379,2.018,0.053,4.13,1.295,6.336l0.23,0.409l-1.651,3.23
		c-1.888-3.883-2.374-7.267-1.457-10.149s3.268-5.39,7.053-7.521l7.985-4.496l1.754,5.943l-0.855,0.481
		c-0.2-0.524-0.408-0.979-0.624-1.363c-0.552-0.979-1.342-1.424-2.37-1.335c-1.029,0.09-2.625,0.744-4.789,1.962l-0.421,0.237
		l4.621,11.895l6.058-3.41l-0.309,2.694c-2.257,0.798-3.757,1.406-4.499,1.824l-0.68,0.382l0.844,2.166
		c0.951,2.431,1.474,4.487,1.568,6.17s-0.207,3.576-0.906,5.681l6.718-3.317l1.457-0.747c1.476-0.83,2.47-2.296,2.98-4.396
		l0.62,1.61c-0.354,3.121-1.236,5.079-2.648,5.874l-0.636,0.333L557.025,607.803z"/>
	<path d="M575.12,595.563l-0.144-3.827c2.283,1.219,4.156,1.263,5.619,0.13c0.978-0.756,1.407-1.983,1.289-3.682
		s-0.765-3.586-1.938-5.663l-10.063-17.818c-0.488,0.234-0.819,0.418-0.991,0.552c-1.349,1.043-1.963,2.575-1.844,4.597
		s0.94,4.017,2.464,5.985l-1.151,3.453c-2.143-3.108-3.109-6.2-2.9-9.275c0.208-3.075,1.554-5.573,4.035-7.493l1.184-0.916
		c3.145,2.315,6.709,4.621,10.692,6.917l4.517,2.603c3.121,1.775,5.563,3.276,7.326,4.502l-6.13-10.852
		c-2.118-3.738-3.284-6.995-3.5-9.77c-0.215-2.774,0.532-4.822,2.241-6.146c0.608-0.47,1.326-0.773,2.153-0.91l0.875,2.965
		c-1.341-0.222-2.349-0.071-3.021,0.45c-1.775,1.373-1.33,4.41,1.335,9.111l7.983,14.138l3.285,5.443l-1.003,1.964
		c-1.279-1.042-3.979-2.749-8.099-5.119l-8.688-4.987c-2.32-1.334-4.34-2.568-6.058-3.703l4.09,7.223
		c2.578,4.57,4.02,8.501,4.324,11.79s-0.549,5.713-2.563,7.271C579.028,595.589,577.253,595.945,575.12,595.563z"/>
	<path d="M602.175,574.508l-0.818-3.634c2.854-0.015,4.964-0.786,6.326-2.313c0.948-1.062,1.313-2.297,1.092-3.706
		c-0.221-1.408-0.979-2.69-2.273-3.846c-1.273-1.137-3.247-1.756-5.921-1.858l-3.453-0.137c-2.551-0.09-4.253-0.255-5.106-0.495
		c-0.854-0.239-1.779-0.805-2.777-1.695c-1.984-1.771-3.149-3.91-3.494-6.419s0.24-4.611,1.756-6.31
		c0.962-1.077,2.53-1.947,4.705-2.611l3.477,4.148l-0.654,0.732c-0.314-0.309-0.536-0.521-0.663-0.635
		c-1.009-0.899-2.083-1.329-3.225-1.29c-1.142,0.04-2.145,0.544-3.01,1.514c-0.893,1-1.237,2.203-1.034,3.61
		c0.203,1.406,0.904,2.645,2.104,3.715c0.807,0.721,1.698,1.206,2.675,1.458c0.976,0.252,2.589,0.399,4.838,0.443l2.849,0.077
		c3.156,0.074,5.515,0.807,7.075,2.199c2.048,1.828,3.164,4.113,3.349,6.854s-0.608,5.104-2.38,7.089
		C606.253,572.918,604.442,573.955,602.175,574.508z"/>
</g>
</svg>
