<?xml version="1.0" encoding="utf-8"?>
<!DOCTYPE svg PUBLIC "-//W3C//DTD SVG 1.1//EN" "http://www.w3.org/Graphics/SVG/1.1/DTD/svg11.dtd" [
	<!ENTITY ns_flows "http://ns.adobe.com/Flows/1.0/">
]>
<svg xmlns="http://www.w3.org/2000/svg" width="524" height="659" xmlns:xlink="http://www.w3.org/1999/xlink" viewBox="0 0 524 659">
  <defs>
    <path id="b" d="M261.1 3.5h-251v258.7c0 161.1 140 299 251.7 341 118.3-39 251.72-175.9 251.72-337V3.5h-252.4z"/>
  </defs>
  <radialGradient id="a" cx="261.81" cy="303.36" r="276.83" gradientUnits="userSpaceOnUse">
    <stop offset="0" stop-color="#FFF"/>
    <stop offset=".55" stop-color="#FCFCFC"/>
    <stop offset=".79" stop-color="#F4F4F5"/>
    <stop offset=".96" stop-color="#EAEAEB"/>
    <stop offset="1" stop-color="#E6E7E8"/>
  </radialGradient>
  <use fill="url(#a)" xlink:href="#b" overflow="visible"/>
  <clipPath id="d">
    <use xlink:href="#b" overflow="visible"/>
  </clipPath>
  <linearGradient id="c" x1="261.81" x2="261.81" y1="3.5" y2="123.44" gradientUnits="userSpaceOnUse">
    <stop offset="0" stop-color="#262262"/>
    <stop offset=".07" stop-color="#282568"/>
    <stop offset=".27" stop-color="#2C2A79"/>
    <stop offset=".48" stop-color="#2D2D85"/>
    <stop offset=".71" stop-color="#2E2F8E"/>
    <stop offset="1" stop-color="#2E3192"/>
  </linearGradient>
  <path fill="url(#c)" d="M10.1 3.5h503.4v119.94H10.1z" clip-path="url(#d)"/>
  <path fill="#ED1C24" d="M477.44 405.96c-16.7 0-30.22-13.53-30.22-30.22 0-5.06 1.25-9.82 3.45-14l-.87-.9c-4.1 2.1-8.74 3.28-13.66 3.28-16.7 0-30.22-13.53-30.22-30.23 0-5 1.2-9.6 3.27-13.7l-.4-.4c-4 1.9-8.4 3-13.1 3-16.7 0-30.3-13.5-30.3-30.2 0-4.7 1.1-9.2 3-13.2l-.8-.8c-4.4 2.4-9.3 3.8-14.7 3.8-16.7 0-30.2-13.56-30.2-30.2 0-5.37 1.4-10.3 3.8-14.68l-.76-.73c-4.9 3.4-10.8 5.37-17.2 5.37-16.7 0-30.23-13.54-30.23-30.2 0-6.4 1.98-12.3 5.34-17.16h-.1c-9.33 0-17.24-6.14-19.9-14.6v-6.1c-.02 1.46-.2 2.88-.5 4.25-.3-1.37-.44-2.8-.46-4.2v6.03c-2.68 8.5-10.6 14.6-19.94 14.6h-.1c3.37 4.87 5.34 10.77 5.34 17.13 0 16.7-13.5 30.2-30.2 30.2-6.4 0-12.32-1.95-17.2-5.34l-.72.73c2.4 4.3 3.8 9.3 3.8 14.6 0 16.7-13.52 30.23-30.2 30.23-5.34 0-10.3-1.4-14.66-3.8l-.8.8c1.9 3.96 3 8.4 3 13.1 0 16.7-13.53 30.2-30.22 30.2-4.7 0-9.13-1.1-13.1-3l-.35.37c2.06 4.1 3.25 8.75 3.25 13.66 0 16.7-13.54 30.2-30.24 30.2-4.9 0-9.55-1.18-13.65-3.27l-.83.85c2.2 4.2 3.46 8.94 3.46 14 0 16.7-13.5 30.22-30.2 30.22-.8 0-1.53-.06-2.3-.1 12.8 24.9 28.4 48.25 45.8 69.8 4-1.95 8.46-3 13.16-3 5.7 0 11.04 1.6 15.6 4.35-2.9-4.6-4.6-10.1-4.6-16 0-16.7 13.5-30.2 30.2-30.2 5 0 9.7 1.2 13.87 3.4-2.35-4.3-3.66-9.2-3.66-14.4 0-16.7 13.58-30.24 30.27-30.24 6.05 0 11.7 1.8 16.4 4.87-2.53-4.4-4-9.5-4-15 0-16.7 13.54-30.2 30.2-30.2 6.27 0 12.08 1.9 16.9 5.2-1.75-4.47-2.8-9.64-2.8-15.16 0-15.9 8.4-28.9 19-30.1 10.6 1.2 18.98 14.2 18.98 30.1 0 5.54-1 10.7-2.78 15.17 4.8-3.27 10.62-5.17 16.9-5.17 16.67 0 30.2 13.55 30.2 30.24 0 5.46-1.45 10.6-4 15 4.7-3.07 10.33-4.86 16.4-4.86 16.7 0 30.2 13.56 30.2 30.25 0 5.2-1.3 10.1-3.63 14.34 4.15-2.2 8.86-3.4 13.85-3.4 16.7 0 30.2 13.53 30.2 30.2 0 5.9-1.66 11.4-4.56 16 4.56-2.76 9.9-4.35 15.65-4.35 5.24 0 10.2 1.37 14.5 3.74 17.2-21.7 32.34-45.34 44.64-70.53-.83.07-1.67.12-2.5.12z" clip-path="url(#d)"/>
  <g fill="#FFF200" stroke="#000" stroke-width="4" stroke-miterlimit="10" clip-path="url(#d)">
    <path d="M313.02 53.83H273.9l-12.1-37.2-12.1 37.2h-39.1l31.64 23-12.1 37.2 31.66-23 31.66 23-12.1-37.2 31.66-23zm-51.2 28.4c-6.04 0-10.92-4.88-10.92-10.9 0-6.02 4.88-10.9 10.9-10.9s10.9 4.88 10.9 10.9c0 6.02-4.87 10.9-10.9 10.9zm-102.8-28.4H119.9l-12.1-37.2-12.08 37.2H56.6l31.65 23-12.1 37.2 31.66-23 31.7 23-12.1-37.2 31.7-23zm-51.2 28.4c-6 0-10.9-4.88-10.9-10.9 0-6.02 4.9-10.9 10.9-10.9s10.9 4.88 10.9 10.9c0 6.02-4.9 10.9-10.9 10.9zM466 53.83h-39.1l-12.1-37.2-12.1 37.2h-39.1l31.65 23-12.1 37.2 31.67-23 31.65 23-12.1-37.2 31.67-23zm-51.22 28.4c-6.02 0-10.9-4.88-10.9-10.9 0-6.02 4.88-10.9 10.9-10.9s10.9 4.88 10.9 10.9c0 6.02-4.88 10.9-10.9 10.9z"/>
  </g>
  <use fill="none" stroke="#000" stroke-width="7" stroke-miterlimit="10" xlink:href="#b" overflow="visible"/>
</svg>
