<?xml version="1.0" encoding="utf-8"?>
<!DOCTYPE svg PUBLIC "-//W3C//DTD SVG 1.1//EN" "http://www.w3.org/Graphics/SVG/1.1/DTD/svg11.dtd" [
	<!ENTITY ns_flows "http://ns.adobe.com/Flows/1.0/">
]>
<svg xmlns="http://www.w3.org/2000/svg" width="524" height="659" xmlns:xlink="http://www.w3.org/1999/xlink" viewBox="0 0 524 659">
  <defs>
    <path id="b" d="M261.113 3.5H10.093v258.714c0 161.08 140 299 251.713 341 118.286-39 251.714-175.92 251.714-337V3.5H261.113z"/>
  </defs>
  <linearGradient id="a" x1="10.092" x2="513.52" y1="303.357" y2="303.357" gradientUnits="userSpaceOnUse">
    <stop offset="0" stop-color="#ED1C24"/>
    <stop offset=".5" stop-color="#BE1E2D"/>
    <stop offset=".58" stop-color="#C71E2B"/>
    <stop offset=".835" stop-color="#E01D26"/>
    <stop offset="1" stop-color="#ED1C24"/>
  </linearGradient>
  <use fill="url(#a)" xlink:href="#b" overflow="visible"/>
  <clipPath id="c">
    <use xlink:href="#b" overflow="visible"/>
  </clipPath>
  <g clip-path="url(#c)">
    <defs>
      <path id="d" d="M10.092 3.5h251.714v599.714H10.092z"/>
    </defs>
    <clipPath id="e">
      <use xlink:href="#d" overflow="visible"/>
    </clipPath>
    <g clip-path="url(#e)">
      <path fill="#447939" d="M61.724 371.823c15.484-10.935 32.553-8.473 48.037-12.67 5.62-13.724 10.98-27.45 24.82-41.174 13.05 13.9 20.4 27.8 27.98 41.7 14.78 2.34 29.57 2.3 44.35 8.44-7.32 12.84-10.7 25.69-28.5 38.53 2.06 16.01 6.32 32.02 3.17 48.04-20.03-1.36-32.09-9.1-45.39-15.84-15.01 5.98-17.28 11.96-45.39 17.94-7.07-16.36 2.09-32.73 3.17-49.09-11.06-10.47-26.29-16.43-32.21-35.9z"/>
      <path fill="none" stroke="#315126" stroke-width="1.5" d="M61.724 371.823c15.484-10.935 32.553-8.473 48.037-12.67 5.62-13.724 10.98-27.45 24.82-41.174 13.05 13.9 20.4 27.8 27.98 41.7 14.78 2.34 29.57 2.3 44.35 8.44-7.32 12.84-10.7 25.69-28.5 38.53 2.06 16.01 6.32 32.02 3.17 48.04-20.03-1.36-32.09-9.1-45.39-15.84-15.01 5.98-17.28 11.96-45.39 17.94-7.07-16.36 2.09-32.73 3.17-49.09-11.06-10.47-26.29-16.43-32.21-35.9z"/>
      <path fill="#508E40" d="M66.014 373.87c5.84 16.08 26.144 22.494 35.455 33.582-2.92 13.063-12.44 29.394-9.26 46.69 16.83-3.575 31.37-16.61 44.14-23.007 12.16 5.88 28.13 17.807 42.25 20.875 1.19-13.29-4.44-25.432-11.01-44.124 9.77-10.805 29.16-23.7 35.07-37.188-15.54-9.313-34.52-.23-47.85-2.09-8.04-12.167-3.07-25.292-20.82-44.215-13.68 8.48-12.07 33.59-19.7 46.273-13.59 2.06-33.88-8.178-48.3 3.204z"/>
      <path fill="#226432" d="M133.346 324.628c-3.12 17.122-.846 42.562.227 63.103-1.973 1.75-5.323-2.88-7.843-2.14-15.023-5.36-33.884-6.69-59.086-12.11 14.856 9.16 38.36 11.17 57.917 17.65.75 1-.36 6.04.02 7.57-9.17 12.77-18.19 30.65-29.98 52.57 12.58-11.41 22.15-33.41 33.61-50.15 1.44-.26 2.53 6.83 7.75 3.81 11.75 17.04 34.32 36.6 42.37 46.94-12.21-22.62-33.65-38.52-42.99-51.43-.18-2.61 2.62-5.32 3.41-7.26 19.42-4.82 47.27-13.82 62-21.46-25.37 3.52-46.95 16.71-62.3 20.94-.89-16.61-2.96-43.37-5.07-67.99z"/>
      <path fill="#FFF" d="M164.922 439.706c2.455 2.745 3.57 6.307 1.227 11.444-1.89 4.134-7.83 6.403-10.96 6.986-7.33 1.368-13.85-4.533-20.89-4.533s-13.57 5.9-20.89 4.533c-3.13-.583-9.07-2.853-10.96-6.986-2.35-5.138-1.13-8.61 1.22-11.444 2.39-2.888 5.9-5.177 8.17-7.767 2.29-2.62.31-7.67.09-7.04.3-.07-5.11-.57-6.98 2.36-1.86 2.9-3.08 6.9-5.19 10.01-2.07 3.05-5.07 5.18-10.66 4.36-4.5-.67-8.33-5.74-9.76-8.58-3.35-6.66.5-14.57-1.45-21.33-1.96-6.76-9.44-11.39-10.16-18.81-.31-3.16.22-9.5 3.66-12.47 4.28-3.68 7.95-3.48 11.33-2.01 3.44 1.5 6.61 4.23 9.73 5.69 3.14 1.47 7.45-1.84 6.5-1.69.53-.24-.95-5.07-4.55-5.54-3.29-.43-7.23-.75-10.69-1.75-3.41-.98-6.25-3.1-7.18-8.5-.75-4.35 2.73-9.42 4.89-11.6 5.06-5.11 13.43-3.96 19.01-7.81 5.57-3.86 7.55-12.16 14.1-15.08 2.79-1.25 8.73-2.68 12.46-.4 4.64 2.83 5.56 6.28 5.23 9.84-.34 3.63-1.88 7.38-2.27 10.7-.4 3.35 3.91 6.31 3.98 5.89 2.28-.49 4.56-2.88 4.55-5.9 0-3.32-1.94-7.08-2.27-10.7-.33-3.56.58-7.01 5.23-9.84 3.73-2.28 9.67-.84 12.46.4 6.55 2.92 8.53 11.22 14.1 15.08 5.58 3.85 13.95 2.7 19.02 7.81 2.16 2.18 5.64 7.25 4.893 11.6-.924 5.4-3.77 7.52-7.17 8.5-3.467 1-7.427 1.18-10.69 1.74-3.645.63-5.045 5.65-4.55 5.54-.946-.15 3.36 3.16 6.506 1.69 3.12-1.47 6.29-4.2 9.73-5.7 3.375-1.48 7.05-1.68 11.332 2 3.45 2.96 3.98 9.3 3.67 12.46-.72 7.41-8.2 12.04-10.16 18.8-1.95 6.76 1.9 14.67-1.45 21.32-1.43 2.84-5.26 7.92-9.75 8.58-5.59.82-8.58-1.31-10.65-4.36-2.105-3.11-3.33-7.11-5.187-10.01-1.87-2.93-7.19-2.75-6.98-2.36-1.36 2.44-1.6 4.84.09 7.04 2.31 2.99 5.66 4.95 8.17 7.76z"/>
      <path fill="none" stroke="#E6E7E8" stroke-width=".578" d="M164.922 439.706c2.455 2.745 3.57 6.307 1.227 11.444-1.89 4.134-7.83 6.403-10.96 6.986-7.33 1.368-13.85-4.533-20.89-4.533s-13.57 5.9-20.89 4.533c-3.13-.583-9.07-2.853-10.96-6.986-2.35-5.138-1.13-8.61 1.22-11.444 2.39-2.888 5.9-5.177 8.17-7.767 2.29-2.62.31-7.67.09-7.04.3-.07-5.11-.57-6.98 2.36-1.86 2.9-3.08 6.9-5.19 10.01-2.07 3.05-5.07 5.18-10.66 4.36-4.5-.67-8.33-5.74-9.76-8.58-3.35-6.66.5-14.57-1.45-21.33-1.96-6.76-9.44-11.39-10.16-18.81-.31-3.16.22-9.5 3.66-12.47 4.28-3.68 7.95-3.48 11.33-2.01 3.44 1.5 6.61 4.23 9.73 5.69 3.14 1.47 7.45-1.84 6.5-1.69.53-.24-.95-5.07-4.55-5.54-3.29-.43-7.23-.75-10.69-1.75-3.41-.98-6.25-3.1-7.18-8.5-.75-4.35 2.73-9.42 4.89-11.6 5.06-5.11 13.43-3.96 19.01-7.81 5.57-3.86 7.55-12.16 14.1-15.08 2.79-1.25 8.73-2.68 12.46-.4 4.64 2.83 5.56 6.28 5.23 9.84-.34 3.63-1.88 7.38-2.27 10.7-.4 3.35 3.91 6.31 3.98 5.89 2.28-.49 4.56-2.88 4.55-5.9 0-3.32-1.94-7.08-2.27-10.7-.33-3.56.58-7.01 5.23-9.84 3.73-2.28 9.67-.84 12.46.4 6.55 2.92 8.53 11.22 14.1 15.08 5.58 3.85 13.95 2.7 19.02 7.81 2.16 2.18 5.64 7.25 4.893 11.6-.924 5.4-3.77 7.52-7.17 8.5-3.467 1-7.427 1.18-10.69 1.74-3.645.63-5.045 5.65-4.55 5.54-.946-.15 3.36 3.16 6.506 1.69 3.12-1.47 6.29-4.2 9.73-5.7 3.375-1.48 7.05-1.68 11.332 2 3.45 2.96 3.98 9.3 3.67 12.46-.72 7.41-8.2 12.04-10.16 18.8-1.95 6.76 1.9 14.67-1.45 21.32-1.43 2.84-5.26 7.92-9.75 8.58-5.59.82-8.58-1.31-10.65-4.36-2.105-3.11-3.33-7.11-5.187-10.01-1.87-2.93-7.19-2.75-6.98-2.36-1.36 2.44-1.6 4.84.09 7.04 2.31 2.99 5.66 4.95 8.17 7.76z"/>
      <path fill="#E6E7E8" d="M158.71 358.42l-4.13-5.695-2.95-10.658-4.196-4.18-6.058-.772s4.39 14.54.81 22.208c-1.663 3.564-8.59 8.14-8.59 8.14s-6.4-4.112-7.895-8.197c-2.61-7.133.77-21.53.77-21.53l-3.78-1.04-5.13 2.983-4.92 16.72-3.12 2.48-3.66 1.97-6.18.94-9.11-.53-6.69 2.3-2.37 5.62s15.19-.32 21.61 5.19c2.99 2.56 5.53 10.46 5.53 10.46s-4.81 6.34-9.14 6.68c-7.57.59-21.4-7.82-21.4-7.82l-2.02 3.36 1.49 5.75 11.8 9.24 3.19 4.53.9 3.01v6.67l-3.92 8.24-.39 7.06 4.32 4.32s5.43-14.19 12.96-18.06c3.5-1.8 11.77-1.18 11.77-1.18s4.07 6.84 2.75 10.99c-2.3 7.24-15.31 16.88-15.31 16.88l2.36 3.14 5.89.78 14.1-10.19 5.76-.35 5.76.43 14.13 10.2 5.89-.78 3.3-2.57s-13.95-10.2-16.25-17.44c-1.32-4.15 2.75-10.99 2.75-10.99s8.27-.62 11.77 1.18c7.52 3.87 12.95 18.05 12.95 18.05s3.59-.72 4.32-2.62c.84-2.2 1.32-6.29.74-8.57-.76-2.95-3.23-5.7-3.65-8.72-.26-1.86-.47-5.26-.47-5.26l.708-4.04 1.96-3.49s10.074-5.84 12.925-10.38c1.05-1.68.83-5.75.83-5.75l-2.02-3.37s-13.84 8.42-21.41 7.82c-4.34-.34-9.15-6.68-9.15-6.68s2.54-7.9 5.53-10.46c6.42-5.51 21.6-5.19 21.6-5.19l-2.38-5.62-6.7-2.3-9.11.53-6.18-.95-2.87-2.52z"/>
      <path fill="#A7A9AC" d="M110.84 450.196c-1.1.035-2.843-.144-3.877-.638-1.646-.787-2.28-2.292-2.78-3.707-.494-1.4.114-3.18.114-3.18 1.507.25 1.202 1.9 4.054 3.71 1.29.82 3.17 1.05 4.87.52 2.72-.84 5.13-1.6 7.36-3.48 2.23-1.87 4.48-3.92 7.42-5.27 2.05-.94 4.59-1.16 6.32-1.16s4.21.22 6.26 1.16c2.94 1.35 5.24 3.4 7.47 5.27 2.23 1.87 4.53 2.64 7.24 3.48 1.71.53 5.21.31 6.2-.86l2.84-3.36s.44 1.78-.06 3.19c-.5 1.42-.9 2.92-2.55 3.71-2.07.99-5.17.67-7.12.06-3.12-.97-5.5-2.85-7.76-4.75-2.26-1.89-4.39-4.3-7.01-5.5-1.61-.74-3.98-.98-5.5-.98s-3.94.25-5.56.99c-2.62 1.2-4.75 3.61-7.01 5.5s-4.64 3.78-7.76 4.75c-.97.3-2.02.54-3.12.58zM74.618 390.57c-.34-.976-.653-2.58-.466-3.632.3-1.675 1.567-2.63 2.788-3.442 1.21-.806 3.09-.724 3.09-.724.185 1.41-1.484 1.564-2.437 4.583-.43 1.364-.127 3.098.854 4.482 1.566 2.212 2.97 4.165 5.387 5.673 2.416 1.51 5.012 2.984 7.123 5.262 1.472 1.59 2.388 3.802 2.867 5.342.48 1.54.96 3.815.627 5.89-.47 2.975-1.81 5.563-2.98 8.04-1.17 2.477-1.27 4.72-1.33 7.368-.03 1.66 1.15 4.73 2.56 5.31l4.03 1.67s-1.59.85-3.07.77c-1.49-.08-3.05-.052-4.27-1.32-1.52-1.59-2.07-4.448-2.03-6.348.06-3.036 1.21-5.653 2.4-8.163 1.19-2.51 2.91-5.03 3.34-7.68.27-1.63-.16-3.81-.58-5.17-.42-1.36-1.33-3.46-2.49-4.71-1.88-2.02-4.78-3.31-7.23-4.84-2.45-1.53-4.92-3.17-6.72-5.7-.56-.79-1.08-1.67-1.42-2.64zm44.712-53.94c.815-.63 2.237-1.436 3.296-1.59 1.682-.248 2.99.653 4.147 1.554 1.147.893 1.664 2.704 1.664 2.704-1.28.62-1.954-.914-5.12-.863-1.43.023-2.978.86-3.98 2.23-1.603 2.184-3.01 4.133-3.678 6.903-.67 2.77-1.25 5.7-2.74 8.422-1.04 1.9-2.85 3.47-4.16 4.41-1.31.943-3.32 2.118-5.39 2.46-2.98.488-5.85.043-8.57-.29-2.73-.332-4.89.286-7.41 1.073-1.59.493-4.12 2.59-4.23 4.102l-.31 4.346s-1.31-1.24-1.71-2.67c-.4-1.44-.92-2.91-.1-4.46 1.02-1.95 3.56-3.37 5.38-3.94 2.9-.9 5.74-.64 8.5-.3s5.7 1.17 8.34.73c1.63-.26 3.56-1.35 4.72-2.19 1.15-.83 2.86-2.35 3.68-3.85 1.33-2.42 1.62-5.58 2.3-8.39.67-2.8 1.44-5.67 3.28-8.18.57-.78 1.24-1.55 2.05-2.19zm74.516 53.94c.34-.976.654-2.58.466-3.632-.298-1.675-1.566-2.63-2.787-3.442-1.21-.806-3.09-.724-3.09-.724-.186 1.41 1.484 1.564 2.437 4.583.43 1.364.127 3.098-.854 4.482-1.565 2.212-2.97 4.165-5.386 5.673-2.417 1.51-5.013 2.984-7.123 5.262-1.48 1.59-2.39 3.802-2.87 5.342-.48 1.54-.96 3.815-.63 5.89.47 2.975 1.81 5.563 2.98 8.04 1.17 2.477 1.27 4.72 1.33 7.368.03 1.66-1.16 4.73-2.56 5.31l-4.03 1.67s1.59.85 3.07.77c1.5-.08 3.05-.052 4.27-1.32 1.52-1.59 2.07-4.448 2.03-6.348-.06-3.036-1.21-5.653-2.4-8.163-1.2-2.51-2.91-5.03-3.34-7.68-.26-1.63.16-3.81.58-5.17.42-1.36 1.33-3.46 2.49-4.71 1.88-2.02 4.78-3.31 7.23-4.84s4.92-3.17 6.72-5.7c.56-.79 1.08-1.67 1.42-2.64zm-44.71-53.94c-.817-.63-2.24-1.436-3.297-1.59-1.69-.248-3 .653-4.15 1.554-1.15.893-1.67 2.704-1.67 2.704 1.28.62 1.95-.914 5.12-.863 1.43.023 2.97.86 3.98 2.23 1.6 2.184 3.01 4.133 3.67 6.903.66 2.77 1.24 5.7 2.73 8.422 1.04 1.9 2.85 3.47 4.16 4.41s3.31 2.118 5.38 2.46c2.97.488 5.85.043 8.57-.29 2.72-.332 4.88.286 7.41 1.073 1.58.493 4.12 2.59 4.23 4.102l.31 4.346s1.31-1.24 1.7-2.67c.39-1.44.91-2.91.1-4.46-1.03-1.95-3.57-3.37-5.38-3.94-2.9-.9-5.75-.64-8.51-.3s-5.7 1.17-8.35.73c-1.64-.26-3.56-1.35-4.72-2.19s-2.86-2.35-3.69-3.85c-1.33-2.42-1.63-5.58-2.31-8.39s-1.45-5.67-3.29-8.18c-.57-.78-1.24-1.55-2.06-2.19z"/>
      <path fill="#D1D3D4" d="M153.117 456.624c-3.363-.02-5.653-1.39-8.753-2.722-3.1-1.332-6.99-2.612-9.838-2.664-3.158-.06-7.156 1.17-10.476 2.55-3.32 1.376-5.98 2.895-9.68 2.604-3.072-.24-5.555-1.513-7.934-3.302-1.625-1.223-2.78-3.358-2.78-3.358 2.174.225 3.6 4.407 10.83 4.807 3.14.17 6.31-1.01 9.614-2.38 3.305-1.37 6.73-2.28 10.425-2.21 3.36.06 6.576.87 9.672 2.2 3.097 1.33 6.105 2.18 8.92 2.6 3.68.55 7.66-1.91 11.64-4.35 0 0-.52.67-1.216 1.44s-1.52 1.67-2.31 2.2c-2.67 1.8-4.84 2.57-8.11 2.55zm-72.11-25.89c-.935-3.23-.268-5.815.132-9.165.39-3.35.52-7.45-.24-10.19-.84-3.05-3.15-6.53-5.41-9.33-2.27-2.8-4.48-4.92-5.24-8.55-.64-3.02-.13-5.76.91-8.55.71-1.91 2.43-3.62 2.43-3.62.4 2.14-3.21 4.7-1.54 11.74.72 3.06 2.75 5.77 5 8.54 2.25 2.78 4.08 5.81 5.07 9.37.89 3.24 1.02 6.55.62 9.9-.4 3.34-.37 6.47.02 9.29.51 3.69 4 6.81 7.46 9.93 0 0-.79-.31-1.74-.76s-2.03-.99-2.77-1.6c-2.49-2.05-3.84-3.91-4.75-7.05zm-.82-70.192c1.928-1.772 4.093-2.062 6.46-2.54 5.02-1.016 9.586 1.03 13.95.48 1.77-.225 4.44-.696 6.013-1.752 1.403-.943 2.87-3.15 3.568-4.484 1.053-1.996 1.147-3.757 1.577-6.25.43-2.493.713-4.794 1.953-7.165 1.34-2.55 4.104-6.19 9.564-6.13l2.992 1.25s-.932-.16-2.064-.26c-1.133-.1-2.485-.06-2.965.11-2.47.91-4.51 3.43-6.018 5.98-1.14 1.93-1.593 4.32-2.02 6.8s-.974 4.7-2.215 7.06c-.937 1.78-2.284 3.14-3.756 4.13-1.714 1.15-3.73 1.86-5.854 2.13-5.04.64-9.77-1.21-14.043-.34-2.28.46-4.36 1.08-6.04 2.45-.91.74-1.91 2.29-2.32 3.46-.04.11-.06.67-.04 1.14.02.47.05.87.05.87-1.49-2.25-.21-5.61 1.2-6.91zm107.958.582c-1.927-1.772-4.093-2.062-6.46-2.54-5.02-1.016-9.586 1.03-13.95.48-1.77-.225-4.44-.696-6.012-1.752-1.404-.943-2.87-3.15-3.568-4.484-1.053-1.995-1.148-3.757-1.578-6.25-.43-2.492-.713-4.794-1.953-7.164-1.34-2.558-4.104-6.193-9.563-6.135l-2.99 1.24s.94-.16 2.07-.26 2.49-.07 2.97.1c2.47.9 4.51 3.43 6.02 5.97 1.15 1.92 1.6 4.31 2.02 6.79.43 2.48.98 4.7 2.22 7.05.94 1.77 2.29 3.14 3.76 4.13 1.71 1.15 3.73 1.85 5.85 2.12 5.04.63 9.77-1.21 14.05-.35 2.28.46 4.36 1.08 6.04 2.45.91.74 1.91 2.29 2.32 3.46.04.11.06.67.04 1.14-.02.47-.04.87-.04.87 1.49-2.26.2-5.61-1.21-6.91zm9.44 28.916c-.42 2.583-1.944 4.148-3.51 5.986-3.32 3.9-8.177 5.11-11.27 8.238-1.255 1.27-3.062 3.288-3.647 5.09-.52 1.608-.312 4.25-.037 5.73.41 2.22 1.42 3.664 2.62 5.89 1.2 2.226 2.4 4.212 2.89 6.842.53 2.84.6 7.404-3.73 10.73l-3.12.87s.83-.446 1.78-1.07c.96-.618 2-1.482 2.27-1.915 1.39-2.23 1.43-5.48 1.05-8.41-.29-2.22-1.41-4.38-2.61-6.59-1.19-2.21-2.13-4.29-2.61-6.91-.36-1.97-.14-3.88.41-5.56.64-1.96 1.79-3.76 3.29-5.28 3.57-3.61 8.43-5.08 11.26-8.4 1.51-1.77 2.76-3.54 3.24-5.65.26-1.14.09-2.98-.31-4.15-.04-.11-.37-.56-.67-.92-.3-.35-.57-.65-.57-.65 2.57.86 3.63 4.29 3.32 6.18z"/>
      <path fill="#447939" d="M95.734 406.077c8.23 5.812 17.3 4.503 25.53 6.732 2.982 7.29 5.833 14.58 13.184 21.88 6.936-7.39 10.843-14.78 14.87-22.17 7.854-1.25 15.71-1.23 23.563-4.49-3.89-6.83-5.68-13.65-15.14-20.48 1.09-8.51 3.36-17.02 1.69-25.53-10.64.72-17.05 4.83-24.12 8.41-7.98-3.18-9.18-6.36-24.12-9.54-3.76 8.69 1.11 17.39 1.69 26.09-5.87 5.56-13.97 8.72-17.11 19.07z"/>
      <path fill="none" stroke="#315126" stroke-width=".578" d="M95.734 406.077c8.23 5.812 17.3 4.503 25.53 6.732 2.982 7.29 5.833 14.58 13.184 21.88 6.936-7.39 10.843-14.78 14.87-22.17 7.854-1.25 15.71-1.23 23.563-4.49-3.89-6.83-5.68-13.65-15.14-20.48 1.09-8.51 3.36-17.02 1.69-25.53-10.64.72-17.05 4.83-24.12 8.41-7.98-3.18-9.18-6.36-24.12-9.54-3.76 8.69 1.11 17.39 1.69 26.09-5.87 5.56-13.97 8.72-17.11 19.07z"/>
      <path fill="#FFF" d="M146.234 374.178c1.207-1.376 3.07-2.593 4.344-4.127 1.252-1.5 1.898-3.35.652-6.08-1.003-2.19-4.162-3.4-5.82-3.71-3.894-.72-7.36 2.41-11.102 2.41s-7.208-3.14-11.102-2.41c-1.66.31-4.817 1.52-5.82 3.71-1.246 2.73-.6 4.58.65 6.09 1.275 1.54 3.14 2.75 4.346 4.13 1.218 1.39.165 4.08.047 3.74.16.04-2.72.3-3.71-1.25-.99-1.54-1.64-3.67-2.76-5.32-1.1-1.62-2.69-2.75-5.66-2.31-2.39.35-4.43 3.05-5.19 4.56-1.78 3.54.27 7.74-.77 11.33s-5.02 6.06-5.4 10c-.17 1.68.11 5.05 1.95 6.63 2.27 1.96 4.23 1.85 6.02 1.07 1.82-.8 3.51-2.25 5.17-3.02 4.29-.32 3.72 1.63 1.04 3.85-1.71.44-3.84.39-5.68.93-1.81.52-3.32 1.65-3.82 4.52-.4 2.31 1.45 5.01 2.6 6.17 2.69 2.71 7.14 2.1 10.1 4.15 2.96 2.05 4.01 6.46 7.49 8.01 1.48.66 4.64 1.42 6.62.21 2.47-1.51 2.95-3.34 2.78-5.23-.18-1.93-1-3.92-1.21-5.69-.21-1.78 2.08-3.35 2.12-3.13 1.35.27 1.92 1.64 2.42 3.14-.21 1.77-1.03 3.76-1.21 5.69-.18 1.89.31 3.73 2.78 5.23 1.98 1.21 5.14.45 6.62-.21 3.48-1.55 4.53-5.96 7.49-8.01s7.41-1.44 10.1-4.15c1.14-1.16 3-3.86 2.6-6.17-.5-2.87-2.01-3.99-3.82-4.51-1.84-.53-3.98-.49-5.68-.93-3.14-2.33-2.86-3.84 1.04-3.84 1.66.775 3.35 2.23 5.17 3.025 1.79.785 3.74.895 6.02-1.062 1.83-1.58 2.11-4.94 1.95-6.62-.39-3.95-4.36-6.4-5.4-10-1.04-3.59 1.01-7.79-.77-11.33-.76-1.51-2.8-4.21-5.19-4.56-2.97-.44-4.56.698-5.66 2.32-1.12 1.65-1.77 3.774-2.76 5.32-1 1.55-3.82 1.46-3.71 1.25-.9-1.36-.36-2.365.05-3.74z"/>
      <path fill="none" stroke="#989898" stroke-width="1.088" d="M146.234 374.178c1.207-1.376 3.07-2.593 4.344-4.127 1.252-1.5 1.898-3.35.652-6.08-1.003-2.19-4.162-3.4-5.82-3.71-3.894-.72-7.36 2.41-11.102 2.41s-7.208-3.14-11.102-2.41c-1.66.31-4.817 1.52-5.82 3.71-1.246 2.73-.6 4.58.65 6.09 1.275 1.54 3.14 2.75 4.346 4.13 1.218 1.39.165 4.08.047 3.74.16.04-2.72.3-3.71-1.25-.99-1.54-1.64-3.67-2.76-5.32-1.1-1.62-2.69-2.75-5.66-2.31-2.39.35-4.43 3.05-5.19 4.56-1.78 3.54.27 7.74-.77 11.33s-5.02 6.06-5.4 10c-.17 1.68.11 5.05 1.95 6.63 2.27 1.96 4.23 1.85 6.02 1.07 1.82-.8 3.51-2.25 5.17-3.02 4.29-.32 3.72 1.63 1.04 3.85-1.71.44-3.84.39-5.68.93-1.81.52-3.32 1.65-3.82 4.52-.4 2.31 1.45 5.01 2.6 6.17 2.69 2.71 7.14 2.1 10.1 4.15 2.96 2.05 4.01 6.46 7.49 8.01 1.48.66 4.64 1.42 6.62.21 2.47-1.51 2.95-3.34 2.78-5.23-.18-1.93-1-3.92-1.21-5.69-.21-1.78 2.08-3.35 2.12-3.13 1.35.27 1.92 1.64 2.42 3.14-.21 1.77-1.03 3.76-1.21 5.69-.18 1.89.31 3.73 2.78 5.23 1.98 1.21 5.14.45 6.62-.21 3.48-1.55 4.53-5.96 7.49-8.01s7.41-1.44 10.1-4.15c1.14-1.16 3-3.86 2.6-6.17-.5-2.87-2.01-3.99-3.82-4.51-1.84-.53-3.98-.49-5.68-.93-3.14-2.33-2.86-3.84 1.04-3.84 1.66.775 3.35 2.23 5.17 3.025 1.79.785 3.74.895 6.02-1.062 1.83-1.58 2.11-4.94 1.95-6.62-.39-3.95-4.36-6.4-5.4-10-1.04-3.59 1.01-7.79-.77-11.33-.76-1.51-2.8-4.21-5.19-4.56-2.97-.44-4.56.698-5.66 2.32-1.12 1.65-1.77 3.774-2.76 5.32-1 1.55-3.82 1.46-3.71 1.25-.9-1.36-.36-2.365.05-3.74z"/>
      <path fill="#989898" d="M121.837 364.476c-.586-.02-1.512.076-2.062.338-.874.418-1.212 1.218-1.478 1.97-.263.746.06 1.693.06 1.693.802-.13.64-1.006 2.155-1.973.685-.437 1.682-.557 2.586-.276 1.445.448 2.724.854 3.908 1.85 1.186.993 2.38 2.084 3.94 2.8 1.09.5 2.438.615 3.354.615s2.235-.116 3.324-.615c1.562-.716 2.785-1.807 3.97-2.8 1.187-.995 2.403-1.4 3.848-1.85.905-.28 2.766-.163 3.29.46l1.512 1.79s.23-.948-.032-1.694c-.265-.75-.48-1.55-1.354-1.97-1.1-.526-2.747-.353-3.784-.03-1.657.513-2.923 1.516-4.124 2.523-1.2 1.008-2.333 2.286-3.724 2.923-.86.394-2.114.523-2.925.523-.81 0-2.09-.13-2.95-.523-1.39-.637-2.52-1.915-3.72-2.923-1.2-1.007-2.46-2.01-4.12-2.524-.51-.16-1.07-.288-1.66-.307zm-19.25 31.688c-.18.52-.35 1.37-.25 1.93.16.89.834 1.397 1.48 1.83.646.428 1.646.383 1.646.383.097-.75-.79-.83-1.297-2.436-.23-.72-.067-1.64.454-2.38.832-1.17 1.578-2.21 2.862-3.01 1.284-.8 2.664-1.58 3.786-2.79.782-.84 1.27-2.02 1.523-2.84.26-.82.51-2.02.34-3.13-.25-1.58-.96-2.95-1.58-4.27s-.68-2.51-.7-3.92c-.01-.88.62-2.51 1.36-2.82l2.14-.88s-.84-.45-1.63-.41c-.79.05-1.62.03-2.27.71-.81.85-1.1 2.37-1.08 3.38.03 1.62.65 3.01 1.28 4.34.64 1.33 1.55 2.68 1.78 4.08.14.87-.08 2.03-.31 2.75s-.71 1.84-1.32 2.51c-1 1.08-2.54 1.76-3.84 2.57-1.3.82-2.62 1.69-3.57 3.04-.3.42-.57.89-.75 1.41zm23.76 28.666c.434.335 1.19.763 1.752.845.89.13 1.59-.348 2.2-.826.61-.48.88-1.44.88-1.44-.68-.33-1.04.48-2.72.46-.76-.02-1.58-.46-2.12-1.19-.85-1.16-1.6-2.2-1.96-3.67s-.66-3.03-1.46-4.48c-.56-1.01-1.52-1.85-2.21-2.35-.7-.5-1.77-1.13-2.87-1.31-1.58-.26-3.11-.03-4.56.15s-2.6-.15-3.94-.57c-.84-.26-2.19-1.38-2.25-2.18l-.17-2.31s-.7.66-.91 1.42c-.22.76-.49 1.55-.06 2.37.54 1.04 1.89 1.79 2.85 2.09 1.54.48 3.05.34 4.52.16s3.03-.62 4.43-.39c.87.14 1.89.72 2.51 1.16.61.44 1.52 1.25 1.96 2.05.7 1.29.86 2.96 1.22 4.46.36 1.49.77 3.01 1.74 4.34.3.42.66.83 1.09 1.17zm39.603-28.666c.18.52.347 1.37.247 1.93-.16.89-.833 1.397-1.48 1.83-.645.428-1.644.383-1.644.383-.1-.75.79-.83 1.296-2.436.22-.72.06-1.64-.46-2.38-.83-1.17-1.58-2.21-2.86-3.01-1.29-.8-2.67-1.58-3.79-2.79-.78-.84-1.27-2.02-1.53-2.84-.26-.82-.51-2.02-.34-3.13.25-1.58.96-2.95 1.58-4.27.62-1.31.68-2.51.7-3.92.02-.88-.62-2.51-1.36-2.82l-2.14-.88s.84-.45 1.63-.41c.8.05 1.62.03 2.27.71.81.85 1.1 2.37 1.08 3.38-.03 1.62-.64 3.01-1.28 4.34s-1.55 2.68-1.77 4.08c-.14.87.08 2.03.31 2.75.22.73.7 1.84 1.32 2.51 1 1.08 2.54 1.76 3.84 2.57s2.61 1.69 3.57 3.04c.29.42.57.89.75 1.41zm-23.762 28.666c-.435.335-1.19.763-1.752.845-.895.13-1.59-.348-2.204-.826-.61-.48-.885-1.44-.885-1.44.68-.33 1.038.48 2.72.46.76-.02 1.584-.46 2.117-1.19.852-1.16 1.6-2.2 1.954-3.67.354-1.47.66-3.03 1.454-4.48.554-1.01 1.515-1.85 2.21-2.35.696-.5 1.762-1.13 2.864-1.31 1.58-.26 3.108-.03 4.555.15 1.45.18 2.6-.15 3.94-.57.84-.26 2.19-1.38 2.25-2.18l.17-2.31s.7.66.91 1.42c.21.76.49 1.55.06 2.37-.54 1.04-1.89 1.79-2.86 2.09-1.54.48-3.05.34-4.52.16-1.46-.18-3.03-.62-4.43-.39-.87.14-1.89.72-2.51 1.16-.61.44-1.52 1.25-1.95 2.05-.7 1.29-.86 2.96-1.22 4.46-.36 1.49-.77 3.01-1.75 4.34-.3.42-.65.83-1.09 1.17z"/>
      <path fill="#CDCCCC" d="M144.303 361.06c-1.787.01-3.004.74-4.65 1.447-1.648.708-3.715 1.387-5.23 1.415-1.68.032-3.803-.622-5.566-1.354-1.764-.732-3.177-1.54-5.145-1.384-1.633.128-2.952.804-4.216 1.754-.864.65-1.478 1.786-1.478 1.786 1.154-.12 1.912-2.343 5.755-2.555 1.668-.1 3.354.53 5.11 1.26 1.756.73 3.576 1.21 5.54 1.17 1.785-.04 3.494-.47 5.14-1.17 1.646-.71 3.245-1.16 4.74-1.39 1.956-.3 4.07 1.01 6.186 2.31 0 0-.28-.36-.65-.77-.37-.42-.81-.89-1.23-1.17-1.42-.96-2.57-1.37-4.31-1.36zm-38.32 13.758c-.498 1.717-.144 3.09.07 4.872s.277 3.955-.125 5.415c-.444 1.618-1.674 3.47-2.876 4.954-1.202 1.48-2.376 2.61-2.784 4.54-.34 1.6-.066 3.06.487 4.54.38 1.01 1.294 1.92 1.294 1.92.21-1.14-1.71-2.5-.82-6.25.38-1.63 1.46-3.07 2.65-4.54 1.19-1.48 2.17-3.09 2.69-4.99.47-1.72.54-3.48.33-5.26-.21-1.78-.2-3.44.01-4.94.27-1.96 2.12-3.62 3.96-5.28 0 0-.42.16-.93.4s-1.08.52-1.47.85c-1.32 1.09-2.04 2.07-2.52 3.74zm-.437 37.304c1.023.94 2.175 1.096 3.433 1.35 2.66.54 5.09-.547 7.41-.255.94.118 2.36.37 3.19.93.74.502 1.52 1.676 1.89 2.385.56 1.06.61 1.996.84 3.32.23 1.325.38 2.55 1.03 3.808.71 1.36 2.18 3.29 5.08 3.26l1.59-.66s-.5.087-1.1.14c-.6.053-1.32.034-1.58-.06-1.31-.48-2.4-1.82-3.2-3.176-.61-1.023-.85-2.294-1.08-3.61-.23-1.317-.52-2.498-1.18-3.75-.5-.942-1.22-1.668-2-2.193-.91-.61-1.99-.98-3.11-1.13-2.68-.33-5.19.65-7.47.19-1.21-.24-2.32-.57-3.21-1.3-.48-.39-1.02-1.22-1.23-1.84-.02-.06-.03-.35-.02-.6l.02-.46c-.8 1.2-.11 2.98.64 3.67zm57.372-.31c-1.023.94-2.174 1.097-3.432 1.35-2.67.54-5.095-.547-7.414-.254-.94.12-2.36.37-3.195.93-.746.502-1.525 1.676-1.896 2.385-.56 1.06-.61 1.996-.83 3.32-.23 1.325-.38 2.55-1.04 3.808-.71 1.36-2.18 3.3-5.08 3.27l-1.59-.66s.5.09 1.1.14c.6.06 1.32.04 1.58-.05 1.32-.48 2.4-1.82 3.2-3.17.61-1.02.85-2.29 1.07-3.61.23-1.32.52-2.5 1.18-3.75.5-.94 1.22-1.67 2-2.19.91-.61 1.98-.99 3.11-1.13 2.68-.34 5.19.64 7.47.18 1.21-.24 2.32-.57 3.21-1.3.49-.39 1.02-1.22 1.23-1.84.02-.06.03-.35.02-.6l-.02-.46c.79 1.2.11 2.98-.64 3.67zm5.018-15.367c-.223-1.373-1.033-2.205-1.865-3.182-1.76-2.07-4.34-2.715-5.98-4.378-.66-.675-1.63-1.748-1.94-2.705-.27-.854-.16-2.26-.02-3.046.22-1.18.76-1.947 1.4-3.13s1.28-2.238 1.54-3.636c.28-1.508.32-3.935-1.98-5.703l-1.66-.462s.44.238.95.57c.51.33 1.06.788 1.21 1.018.74 1.19.76 2.92.56 4.48-.15 1.18-.75 2.33-1.38 3.51-.63 1.18-1.13 2.29-1.39 3.68-.19 1.05-.07 2.07.22 2.96.34 1.04.95 2 1.75 2.81 1.9 1.92 4.48 2.7 5.98 4.47.8.94 1.47 1.89 1.72 3.01.14.61.05 1.59-.17 2.21-.02.06-.19.3-.35.49-.16.19-.3.35-.3.35 1.37-.45 1.93-2.27 1.76-3.28z"/>
      <circle cx="133.894" cy="393.979" r="13.899" fill="#E6E7E8"/>
      <circle cx="133.894" cy="393.979" r="13.899" fill="none" stroke="#A7A9AC" stroke-width=".535"/>
      <path fill="#F1F2F2" d="M133.915 403.586c-5.586 0-9.82-4.36-9.82-9.58s4.256-9.645 9.82-9.645c5.563 0 9.82 4.43 9.82 9.65s-4.235 9.58-9.82 9.58z"/>
    </g>
    <linearGradient id="f" x1="10.092" x2="261.806" y1="261.687" y2="261.687" gradientUnits="userSpaceOnUse">
      <stop offset="0" stop-color="#FFF"/>
      <stop offset=".297" stop-color="#FBFBFB"/>
      <stop offset=".505" stop-color="#F2F2F3"/>
      <stop offset=".686" stop-color="#E5E6E7"/>
      <stop offset=".85" stop-color="#D3D4D6"/>
      <stop offset="1" stop-color="#BCBEC0"/>
    </linearGradient>
    <path fill="url(#f)" d="M10.092 422.2l126.29-200.618 125.424 199.246v-120.41L136.38 101.172 10.093 301.79" clip-path="url(#e)"/>
    <g clip-path="url(#e)">
      <path fill="#447939" d="M20.228 45.958c10.345-7.306 21.75-5.66 32.095-8.464 3.75-9.17 7.335-18.34 16.576-27.51 8.71 9.288 13.63 18.575 18.69 27.863 9.87 1.566 19.75 1.54 29.62 5.643-4.9 8.583-7.15 17.164-19.05 25.746 1.37 10.698 4.22 21.397 2.11 32.095-13.39-.91-21.45-6.07-30.33-10.58-10.03 4-11.55 8-30.33 11.99-4.73-10.93 1.39-21.86 2.11-32.8-7.39-6.99-17.56-10.97-21.51-23.98z"/>
      <path fill="none" stroke="#315126" stroke-width="1.5" d="M20.228 45.958c10.345-7.306 21.75-5.66 32.095-8.464 3.75-9.17 7.335-18.34 16.576-27.51 8.71 9.288 13.63 18.575 18.69 27.863 9.87 1.566 19.75 1.54 29.62 5.643-4.9 8.583-7.15 17.164-19.05 25.746 1.37 10.698 4.22 21.397 2.11 32.095-13.39-.91-21.45-6.07-30.33-10.58-10.03 4-11.55 8-30.33 11.99-4.73-10.93 1.39-21.86 2.11-32.8-7.39-6.99-17.56-10.97-21.51-23.98z"/>
      <path fill="#508E40" d="M23.094 47.326c3.9 10.744 17.467 15.03 23.688 22.437-1.946 8.728-8.308 19.64-6.185 31.195 11.245-2.39 20.958-11.1 29.494-15.372 8.13 3.928 18.8 11.897 28.23 13.947.8-8.88-2.96-16.992-7.35-29.48 6.53-7.22 19.48-15.835 23.44-24.846-10.38-6.222-23.06-.155-31.97-1.396-5.37-8.13-2.05-16.89-13.91-29.54-9.14 5.67-8.06 22.45-13.16 30.92-9.08 1.38-22.63-5.46-32.27 2.14z"/>
      <path fill="#226432" d="M68.08 14.426c-2.085 11.44-.564 28.436.152 42.16-1.32 1.167-3.558-1.93-5.24-1.43-10.038-3.587-22.64-4.475-39.477-8.095 9.926 6.12 25.63 7.47 38.695 11.8.497.67-.243 4.04.008 5.06-6.13 8.53-12.156 20.48-20.03 35.12 8.403-7.63 14.797-22.32 22.45-33.51.962-.17 1.69 4.57 5.18 2.55 7.85 11.39 22.925 24.45 28.303 31.36-8.16-15.12-22.48-25.73-28.72-34.36-.12-1.75 1.75-3.56 2.27-4.85 12.98-3.23 31.58-9.24 41.43-14.34-16.96 2.33-31.38 11.14-41.63 13.97-.6-11.1-1.97-28.98-3.39-45.43z"/>
      <path fill="#FFF" d="M89.177 91.312c1.64 1.834 2.385 4.213.818 7.646-1.26 2.762-5.23 4.278-7.318 4.667-4.894.915-9.253-3.028-13.955-3.028-4.7 0-9.062 3.943-13.955 3.028-2.088-.39-6.06-1.906-7.318-4.667-1.57-3.433-.76-5.752.81-7.646 1.6-1.93 3.94-3.46 5.46-5.19 1.53-1.745.2-5.123.06-4.703.2-.05-3.42-.38-4.67 1.57-1.24 1.94-2.06 4.61-3.47 6.69-1.38 2.03-3.39 3.46-7.12 2.91-3.01-.44-5.57-3.84-6.52-5.73-2.24-4.45.34-9.73-.97-14.25-1.3-4.52-6.3-7.61-6.78-12.56-.21-2.12.14-6.35 2.44-8.33 2.86-2.46 5.32-2.33 7.57-1.34 2.3 1 4.42 2.82 6.5 3.8 2.1.98 4.98-1.23 4.34-1.13.35-.16-.64-3.39-3.04-3.7-2.19-.29-4.83-.5-7.14-1.17-2.28-.66-4.18-2.07-4.8-5.68-.5-2.91 1.83-6.3 3.27-7.75 3.38-3.42 8.97-2.65 12.7-5.22 3.73-2.58 5.05-8.13 9.42-10.07 1.87-.84 5.83-1.8 8.33-.27 3.1 1.89 3.71 4.2 3.49 6.58-.23 2.42-1.25 4.93-1.52 7.15-.27 2.23 2.61 4.22 2.66 3.94 1.52-.33 3.04-1.93 3.04-3.94-.01-2.22-1.3-4.73-1.52-7.15-.22-2.38.39-4.69 3.49-6.58 2.49-1.53 6.46-.56 8.33.27 4.37 1.94 5.69 7.49 9.42 10.07 3.72 2.57 9.32 1.8 12.7 5.21 1.44 1.46 3.77 4.85 3.27 7.75-.62 3.61-2.52 5.02-4.79 5.68-2.32.67-4.96.79-7.14 1.17-2.43.42-3.37 3.78-3.03 3.7-.64-.1 2.24 2.11 4.34 1.13 2.08-.98 4.2-2.8 6.5-3.81 2.25-.99 4.71-1.12 7.57 1.34 2.3 1.97 2.66 6.21 2.45 8.32-.48 4.95-5.48 8.05-6.79 12.56-1.31 4.51 1.27 9.8-.97 14.25-.96 1.89-3.52 5.29-6.52 5.73-3.74.55-5.74-.88-7.12-2.91-1.41-2.08-2.23-4.75-3.47-6.69-1.25-1.96-4.81-1.84-4.66-1.58-.91 1.63-1.07 3.23.06 4.7 1.54 2 3.78 3.31 5.46 5.19z"/>
      <path fill="none" stroke="#E6E7E8" stroke-width=".578" d="M89.177 91.312c1.64 1.834 2.385 4.213.818 7.646-1.26 2.762-5.23 4.278-7.318 4.667-4.894.915-9.253-3.028-13.955-3.028-4.7 0-9.062 3.943-13.955 3.028-2.088-.39-6.06-1.906-7.318-4.667-1.57-3.433-.76-5.752.81-7.646 1.6-1.93 3.94-3.46 5.46-5.19 1.53-1.745.2-5.123.06-4.703.2-.05-3.42-.38-4.67 1.57-1.24 1.94-2.06 4.61-3.47 6.69-1.38 2.03-3.39 3.46-7.12 2.91-3.01-.44-5.57-3.84-6.52-5.73-2.24-4.45.34-9.73-.97-14.25-1.3-4.52-6.3-7.61-6.78-12.56-.21-2.12.14-6.35 2.44-8.33 2.86-2.46 5.32-2.33 7.57-1.34 2.3 1 4.42 2.82 6.5 3.8 2.1.98 4.98-1.23 4.34-1.13.35-.16-.64-3.39-3.04-3.7-2.19-.29-4.83-.5-7.14-1.17-2.28-.66-4.18-2.07-4.8-5.68-.5-2.91 1.83-6.3 3.27-7.75 3.38-3.42 8.97-2.65 12.7-5.22 3.73-2.58 5.05-8.13 9.42-10.07 1.87-.84 5.83-1.8 8.33-.27 3.1 1.89 3.71 4.2 3.49 6.58-.23 2.42-1.25 4.93-1.52 7.15-.27 2.23 2.61 4.22 2.66 3.94 1.52-.33 3.04-1.93 3.04-3.94-.01-2.22-1.3-4.73-1.52-7.15-.22-2.38.39-4.69 3.49-6.58 2.49-1.53 6.46-.56 8.33.27 4.37 1.94 5.69 7.49 9.42 10.07 3.72 2.57 9.32 1.8 12.7 5.21 1.44 1.46 3.77 4.85 3.27 7.75-.62 3.61-2.52 5.02-4.79 5.68-2.32.67-4.96.79-7.14 1.17-2.43.42-3.37 3.78-3.03 3.7-.64-.1 2.24 2.11 4.34 1.13 2.08-.98 4.2-2.8 6.5-3.81 2.25-.99 4.71-1.12 7.57 1.34 2.3 1.97 2.66 6.21 2.45 8.32-.48 4.95-5.48 8.05-6.79 12.56-1.31 4.51 1.27 9.8-.97 14.25-.96 1.89-3.52 5.29-6.52 5.73-3.74.55-5.74-.88-7.12-2.91-1.41-2.08-2.23-4.75-3.47-6.69-1.25-1.96-4.81-1.84-4.66-1.58-.91 1.63-1.07 3.23.06 4.7 1.54 2 3.78 3.31 5.46 5.19z"/>
      <path fill="#E6E7E8" d="M85.027 37.003l-2.76-3.805-1.97-7.12-2.806-2.795-4.04-.515s2.94 9.715.54 14.837c-1.11 2.38-5.74 5.438-5.74 5.438s-4.27-2.748-5.27-5.477c-1.74-4.766.52-14.384.52-14.384l-2.53-.696-3.43 1.994-3.29 11.17-2.08 1.66-2.44 1.315-4.13.63-6.09-.353-4.47 1.536-1.58 3.76s10.15-.21 14.44 3.47c1.99 1.71 3.69 6.99 3.69 6.99s-3.21 4.24-6.11 4.468c-5.06.397-14.3-5.225-14.3-5.225l-1.35 2.25 1 3.84 7.88 6.18 2.13 3.03.6 2.01v4.46l-2.63 5.5-.26 4.72 2.89 2.89s3.63-9.47 8.66-12.06c2.34-1.2 7.87-.78 7.87-.78s2.72 4.58 1.84 7.35c-1.55 4.83-10.24 11.27-10.24 11.27l1.58 2.1 3.93.53 9.44-6.82 3.84-.23 3.85.29 9.44 6.82 3.94-.52 2.2-1.72s-9.32-6.82-10.86-11.66c-.88-2.77 1.83-7.34 1.83-7.34s5.53-.41 7.87.79c5.03 2.59 8.66 12.06 8.66 12.06s2.4-.48 2.88-1.75c.56-1.47.88-4.2.49-5.73-.5-1.97-2.15-3.81-2.43-5.82-.17-1.24-.31-3.51-.31-3.51l.47-2.7L97.66 67s6.73-3.9 8.638-6.93c.706-1.12.558-3.842.558-3.842l-1.35-2.245s-9.24 5.623-14.3 5.225c-2.894-.227-6.11-4.468-6.11-4.468s1.7-5.28 3.695-6.99c4.29-3.68 14.44-3.47 14.44-3.47l-1.59-3.76-4.47-1.536-6.09.356-4.13-.63-1.91-1.682z"/>
      <path fill="#A7A9AC" d="M53.043 98.32c-.734.024-1.9-.095-2.59-.425-1.1-.526-1.524-1.53-1.858-2.477-.33-.937.076-2.127.076-2.127 1.01.17.81 1.27 2.71 2.48.86.55 2.12.7 3.25.35 1.82-.56 3.43-1.07 4.92-2.32 1.49-1.25 2.99-2.62 4.96-3.52 1.37-.63 3.07-.77 4.22-.77s2.81.15 4.18.78c1.97.9 3.5 2.27 4.99 3.52 1.49 1.25 3.02 1.76 4.84 2.33 1.14.36 3.48.21 4.14-.58l1.9-2.25s.29 1.19-.04 2.13c-.33.95-.6 1.95-1.7 2.48-1.38.66-3.45.45-4.76.04-2.08-.64-3.67-1.91-5.18-3.17-1.51-1.26-2.93-2.87-4.68-3.67-1.08-.49-2.66-.65-3.67-.65-1.02 0-2.63.17-3.71.66-1.75.8-3.17 2.41-4.68 3.68-1.51 1.27-3.1 2.53-5.19 3.18-.64.2-1.35.36-2.08.39zm-24.2-39.838c-.23-.65-.438-1.722-.313-2.426.2-1.12 1.048-1.758 1.863-2.3.808-.538 2.064-.483 2.064-.483.123.942-.992 1.045-1.63 3.063-.287.91-.084 2.07.572 2.994 1.04 1.48 1.98 2.783 3.59 3.79 1.61 1.01 3.35 1.995 4.76 3.516.98 1.063 1.59 2.54 1.91 3.57.32 1.028.64 2.548.42 3.934-.32 1.987-1.21 3.717-2 5.372-.79 1.654-.86 3.154-.89 4.923-.02 1.108.77 3.16 1.7 3.548l2.68 1.115s-1.06.568-2.06.516c-1-.054-2.04-.035-2.85-.882-1.02-1.064-1.39-2.973-1.36-4.242.04-2.028.81-3.777 1.6-5.454.79-1.677 1.94-3.365 2.22-5.135.18-1.09-.1-2.54-.39-3.45-.28-.91-.89-2.31-1.66-3.15-1.26-1.35-3.2-2.21-4.83-3.23-1.64-1.02-3.29-2.12-4.49-3.81-.37-.53-.72-1.11-.95-1.76zm29.872-36.037c.545-.42 1.495-.96 2.2-1.063 1.126-.165 2 .438 2.772 1.04.768.596 1.112 1.805 1.112 1.805-.86.415-1.31-.61-3.43-.577-.96.016-1.99.575-2.66 1.49-1.07 1.46-2.01 2.76-2.46 4.612-.45 1.85-.83 3.808-1.83 5.627-.7 1.26-1.91 2.31-2.78 2.94-.88.63-2.22 1.41-3.6 1.64-1.99.32-3.91.03-5.73-.2-1.82-.22-3.26.19-4.95.71-1.06.33-2.76 1.73-2.83 2.74l-.21 2.9s-.88-.83-1.14-1.79c-.27-.97-.62-1.95-.07-2.99.68-1.3 2.38-2.26 3.59-2.63 1.94-.6 3.84-.43 5.68-.2 1.84.22 3.8.78 5.57.49 1.09-.18 2.38-.91 3.15-1.47s1.91-1.58 2.46-2.58c.89-1.62 1.09-3.73 1.54-5.61.45-1.87.97-3.79 2.19-5.46.39-.53.83-1.05 1.38-1.47zM108.5 58.482c.23-.65.438-1.722.312-2.426-.2-1.12-1.047-1.758-1.862-2.3-.81-.538-2.064-.483-2.064-.483-.124.942.992 1.045 1.63 3.063.287.91.084 2.07-.57 2.994-1.048 1.48-1.985 2.783-3.6 3.79-1.614 1.01-3.35 1.995-4.76 3.516-.983 1.063-1.596 2.54-1.915 3.57-.32 1.028-.64 2.548-.41 3.934.32 1.987 1.21 3.717 2 5.372.79 1.654.85 3.154.89 4.923.03 1.108-.77 3.16-1.7 3.548l-2.69 1.115s1.07.568 2.06.516c1-.054 2.04-.035 2.85-.882 1.02-1.064 1.39-2.973 1.36-4.242-.04-2.028-.81-3.777-1.6-5.454-.79-1.677-1.94-3.365-2.23-5.135-.17-1.09.11-2.54.4-3.45s.89-2.31 1.67-3.15c1.25-1.35 3.19-2.21 4.83-3.23 1.64-1.02 3.29-2.12 4.49-3.81.37-.53.72-1.11.95-1.76zM78.63 22.445c-.547-.42-1.498-.96-2.203-1.063-1.124-.165-2 .438-2.772 1.04-.766.596-1.11 1.805-1.11 1.805.853.415 1.305-.61 3.42-.577.955.016 1.99.575 2.66 1.49 1.07 1.46 2.01 2.76 2.456 4.612.45 1.85.84 3.808 1.83 5.627.7 1.26 1.91 2.31 2.78 2.94.88.63 2.22 1.41 3.6 1.64 1.99.32 3.91.03 5.73-.2 1.82-.22 3.27.19 4.95.71 1.06.33 2.76 1.73 2.83 2.74l.21 2.9s.88-.83 1.14-1.79c.27-.97.62-1.95.07-2.99-.68-1.3-2.38-2.26-3.59-2.63-1.93-.6-3.83-.43-5.68-.2-1.84.22-3.8.78-5.57.49-1.09-.18-2.38-.91-3.15-1.47-.77-.56-1.91-1.58-2.46-2.58-.89-1.62-1.09-3.73-1.54-5.61-.45-1.87-.96-3.79-2.19-5.46-.38-.53-.83-1.05-1.37-1.47z"/>
      <path fill="#D1D3D4" d="M81.29 102.615c-2.248-.012-3.777-.93-5.85-1.818-2.07-.89-4.67-1.746-6.57-1.78-2.11-.04-4.782.783-7 1.703s-3.995 1.935-6.467 1.74c-2.054-.16-3.712-1.01-5.302-2.205-1.08-.817-1.85-2.244-1.85-2.244 1.45.16 2.41 2.95 7.24 3.22 2.1.12 4.22-.67 6.43-1.58s4.5-1.52 6.97-1.47c2.25.04 4.4.59 6.46 1.48 2.07.89 4.08 1.46 5.96 1.74 2.46.37 5.12-1.27 7.78-2.9 0 0-.35.45-.81.97-.47.52-1.02 1.12-1.55 1.47-1.79 1.21-3.23 1.72-5.42 1.71zM33.11 85.318c-.623-2.158-.177-3.886.09-6.124s.35-4.972-.155-6.808c-.56-2.035-2.104-4.364-3.615-6.23-1.512-1.866-2.988-3.282-3.502-5.708-.427-2.015-.082-3.846.613-5.71.48-1.27 1.63-2.416 1.63-2.416.27 1.436-2.14 3.14-1.03 7.85.49 2.043 1.84 3.853 3.34 5.71 1.51 1.858 2.73 3.883 3.39 6.263.6 2.165.69 4.38.42 6.615-.26 2.236-.24 4.326.02 6.208.35 2.463 2.68 4.548 4.99 6.637 0 0-.52-.205-1.15-.504-.63-.29-1.36-.66-1.85-1.06-1.66-1.37-2.56-2.61-3.17-4.71zm-.545-46.898c1.286-1.184 2.733-1.377 4.313-1.697 3.355-.678 6.406.69 9.32.32 1.185-.148 2.967-.463 4.018-1.168.938-.63 1.918-2.105 2.385-2.997.71-1.333.77-2.51 1.06-4.175.29-1.666.48-3.203 1.31-4.787.9-1.71 2.74-4.138 6.39-4.1l2 .83s-.62-.106-1.38-.17c-.75-.07-1.66-.046-1.98.07-1.65.606-3.01 2.292-4.02 3.994-.76 1.287-1.06 2.885-1.35 4.54-.28 1.657-.65 3.14-1.48 4.713-.62 1.187-1.52 2.098-2.51 2.76-1.14.768-2.49 1.24-3.91 1.42-3.36.425-6.52-.808-9.38-.23-1.52.308-2.91.723-4.03 1.636-.6.49-1.27 1.53-1.54 2.31-.02.07-.04.45-.02.76l.03.58c-.99-1.51-.14-3.75.81-4.62zm72.127.39c-1.287-1.184-2.734-1.377-4.314-1.697-3.355-.678-6.406.69-9.32.32-1.185-.148-2.968-.463-4.02-1.17-.937-.63-1.916-2.104-2.383-2.996-.703-1.333-.767-2.51-1.054-4.175-.28-1.666-.47-3.204-1.3-4.787-.89-1.71-2.74-4.138-6.39-4.1l-2 .83s.62-.107 1.38-.17c.76-.07 1.66-.046 1.98.07 1.65.605 3.02 2.292 4.02 3.994.77 1.28 1.07 2.88 1.35 4.54.29 1.65.65 3.14 1.48 4.71.63 1.18 1.53 2.1 2.51 2.76 1.15.77 2.49 1.24 3.91 1.42 3.37.42 6.53-.81 9.39-.23 1.52.3 2.91.72 4.04 1.63.61.49 1.28 1.53 1.55 2.31.03.07.04.44.03.76-.01.31-.03.58-.03.58 1-1.51.14-3.75-.8-4.61zM111 58.128c-.282 1.727-1.3 2.772-2.347 4-2.22 2.605-5.463 3.413-7.528 5.504-.84.848-2.047 2.197-2.437 3.4-.35 1.075-.21 2.84-.025 3.83.27 1.482.946 2.448 1.75 3.935s1.603 2.813 1.93 4.57c.35 1.898.398 4.948-2.495 7.17l-2.085.582s.557-.3 1.19-.72c.638-.42 1.335-.99 1.515-1.28.924-1.5.954-3.67.696-5.62-.195-1.49-.944-2.93-1.742-4.41-.8-1.48-1.428-2.87-1.746-4.62-.242-1.32-.097-2.59.27-3.72.425-1.31 1.193-2.52 2.2-3.53 2.384-2.42 5.63-3.4 7.52-5.62 1.007-1.18 1.845-2.37 2.163-3.78.17-.77.05-2-.22-2.78-.03-.08-.25-.38-.45-.62l-.38-.44c1.71.57 2.42 2.86 2.21 4.12z"/>
      <path fill="#447939" d="M42.95 68.844c5.5 3.883 11.56 3.01 17.057 4.498 1.994 4.873 3.898 9.747 8.81 14.62 4.634-4.937 7.244-9.87 9.935-14.807 5.248-.832 10.495-.82 15.744-3-2.6-4.56-3.8-9.122-10.122-13.682.73-5.686 2.243-11.372 1.124-17.057-7.11.483-11.396 3.228-16.118 5.623-5.33-2.13-6.136-4.25-16.12-6.38-2.512 5.81.74 11.62 1.124 17.43-3.927 3.72-9.335 5.83-11.433 12.74z"/>
      <path fill="none" stroke="#315126" stroke-width=".578" d="M42.95 68.844c5.5 3.883 11.56 3.01 17.057 4.498 1.994 4.873 3.898 9.747 8.81 14.62 4.634-4.937 7.244-9.87 9.935-14.807 5.248-.832 10.495-.82 15.744-3-2.6-4.56-3.8-9.122-10.122-13.682.73-5.686 2.243-11.372 1.124-17.057-7.11.483-11.396 3.228-16.118 5.623-5.33-2.13-6.136-4.25-16.12-6.38-2.512 5.81.74 11.62 1.124 17.43-3.927 3.72-9.335 5.83-11.433 12.74z"/>
      <path fill="#FFF" d="M76.69 47.532c.807-.92 2.052-1.733 2.902-2.758.837-1.006 1.27-2.24.436-4.064-.67-1.467-2.78-2.273-3.89-2.48-2.6-.486-4.917 1.61-7.416 1.61s-4.815-2.097-7.417-1.61c-1.107.207-3.22 1.013-3.89 2.48-.83 1.825-.4 3.058.437 4.064.852 1.025 2.096 1.838 2.902 2.758.813.927.11 2.722.03 2.5.11.023-1.812.2-2.477-.84-.66-1.03-1.094-2.45-1.842-3.554-.734-1.083-1.798-1.84-3.782-1.548-1.597.236-2.957 2.04-3.464 3.047-1.19 2.363.17 5.17-.52 7.572-.7 2.4-3.35 4.04-3.61 6.67-.11 1.12.08 3.37 1.3 4.42 1.52 1.31 2.83 1.23 4.02.71 1.22-.54 2.35-1.51 3.45-2.03 2.86-.21 2.48 1.09.69 2.57-1.14.29-2.56.26-3.79.62-1.21.35-2.22 1.1-2.55 3.02-.27 1.54.97 3.34 1.74 4.12 1.8 1.81 4.77 1.4 6.75 2.77 1.98 1.37 2.68 4.32 5 5.35.99.44 3.1.95 4.43.14 1.65-1.01 1.97-2.23 1.85-3.5-.12-1.29-.67-2.62-.81-3.8-.15-1.19 1.39-2.25 1.41-2.1.9.17 1.28 1.09 1.61 2.09-.14 1.18-.69 2.51-.81 3.8-.12 1.26.21 2.49 1.85 3.49 1.32.81 3.43.3 4.42-.15 2.32-1.04 3.02-3.98 5-5.35 1.98-1.37 4.95-.96 6.75-2.77.77-.77 2-2.58 1.74-4.12-.33-1.92-1.34-2.67-2.55-3.02-1.23-.36-2.65-.33-3.79-.62-2.1-1.56-1.91-2.57.69-2.57 1.11.52 2.23 1.49 3.45 2.02 1.2.52 2.5.59 4.03-.71 1.22-1.05 1.41-3.3 1.3-4.43-.26-2.64-2.91-4.28-3.61-6.68s.67-5.21-.52-7.57c-.5-1.01-1.86-2.81-3.46-3.05-1.98-.29-3.05.46-3.78 1.55-.75 1.1-1.18 2.52-1.84 3.55-.66 1.04-2.55.97-2.48.84-.6-.91-.24-1.59.03-2.5z"/>
      <path fill="none" stroke="#989898" stroke-width="1.088" d="M76.69 47.532c.807-.92 2.052-1.733 2.902-2.758.837-1.006 1.27-2.24.436-4.064-.67-1.467-2.78-2.273-3.89-2.48-2.6-.486-4.917 1.61-7.416 1.61s-4.815-2.097-7.417-1.61c-1.107.207-3.22 1.013-3.89 2.48-.83 1.825-.4 3.058.437 4.064.852 1.025 2.096 1.838 2.902 2.758.813.927.11 2.722.03 2.5.11.023-1.812.2-2.477-.84-.66-1.03-1.094-2.45-1.842-3.554-.734-1.083-1.798-1.84-3.782-1.548-1.597.236-2.957 2.04-3.464 3.047-1.19 2.363.17 5.17-.52 7.572-.7 2.4-3.35 4.04-3.61 6.67-.11 1.12.08 3.37 1.3 4.42 1.52 1.31 2.83 1.23 4.02.71 1.22-.54 2.35-1.51 3.45-2.03 2.86-.21 2.48 1.09.69 2.57-1.14.29-2.56.26-3.79.62-1.21.35-2.22 1.1-2.55 3.02-.27 1.54.97 3.34 1.74 4.12 1.8 1.81 4.77 1.4 6.75 2.77 1.98 1.37 2.68 4.32 5 5.35.99.44 3.1.95 4.43.14 1.65-1.01 1.97-2.23 1.85-3.5-.12-1.29-.67-2.62-.81-3.8-.15-1.19 1.39-2.25 1.41-2.1.9.17 1.28 1.09 1.61 2.09-.14 1.18-.69 2.51-.81 3.8-.12 1.26.21 2.49 1.85 3.49 1.32.81 3.43.3 4.42-.15 2.32-1.04 3.02-3.98 5-5.35 1.98-1.37 4.95-.96 6.75-2.77.77-.77 2-2.58 1.74-4.12-.33-1.92-1.34-2.67-2.55-3.02-1.23-.36-2.65-.33-3.79-.62-2.1-1.56-1.91-2.57.69-2.57 1.11.52 2.23 1.49 3.45 2.02 1.2.52 2.5.59 4.03-.71 1.22-1.05 1.41-3.3 1.3-4.43-.26-2.64-2.91-4.28-3.61-6.68s.67-5.21-.52-7.57c-.5-1.01-1.86-2.81-3.46-3.05-1.98-.29-3.05.46-3.78 1.55-.75 1.1-1.18 2.52-1.84 3.55-.66 1.04-2.55.97-2.48.84-.6-.91-.24-1.59.03-2.5z"/>
      <path fill="#989898" d="M60.39 41.05c-.392-.014-1.01.05-1.376.225-.585.28-.81.814-.988 1.316-.175.5.04 1.14.04 1.14.536-.08.428-.67 1.44-1.31.457-.29 1.123-.37 1.728-.18.965.3 1.82.57 2.61 1.24.793.67 1.59 1.4 2.633 1.87.728.34 1.63.41 2.24.41s1.495-.07 2.222-.41c1.04-.47 1.86-1.2 2.65-1.87s1.6-.93 2.57-1.23c.6-.18 1.85-.11 2.2.31l1.01 1.2s.15-.63-.02-1.13c-.18-.5-.33-1.03-.91-1.31-.74-.35-1.84-.23-2.53-.02-1.11.34-1.95 1.02-2.76 1.69-.81.68-1.56 1.53-2.49 1.96-.58.27-1.41.35-1.96.35-.54 0-1.4-.08-1.98-.35-.93-.42-1.69-1.28-2.49-1.95-.81-.67-1.65-1.34-2.76-1.68-.35-.1-.72-.19-1.11-.2zM47.53 62.22c-.122.347-.233.916-.166 1.29.105.595.556.934.988 1.223.43.287 1.1.256 1.1.256.063-.5-.53-.56-.867-1.63-.153-.49-.045-1.1.303-1.59.557-.79 1.055-1.48 1.913-2.02.86-.54 1.78-1.06 2.53-1.87.53-.57.85-1.35 1.02-1.9s.34-1.36.23-2.09c-.17-1.06-.64-1.98-1.06-2.86-.42-.88-.45-1.68-.47-2.62-.01-.59.41-1.68.91-1.89l1.43-.6s-.56-.3-1.09-.27c-.53.03-1.08.02-1.51.47-.54.56-.73 1.58-.72 2.25.02 1.08.43 2 .86 2.9s1.03 1.79 1.18 2.73c.1.58-.05 1.35-.21 1.83-.15.48-.47 1.23-.88 1.67-.67.72-1.7 1.17-2.56 1.72-.87.54-1.75 1.12-2.38 2.02-.2.28-.38.59-.5.94zm15.874 19.152c.29.225.795.51 1.17.565.598.087 1.063-.232 1.474-.552.407-.318.59-.96.59-.96-.454-.22-.692.324-1.818.306-.507 0-1.056-.3-1.412-.79-.57-.77-1.07-1.46-1.306-2.45-.237-.98-.44-2.02-.972-2.99-.37-.67-1.012-1.23-1.477-1.56s-1.178-.75-1.914-.87c-1.06-.17-2.08-.01-3.05.11-.97.12-1.74-.1-2.63-.38-.57-.17-1.47-.92-1.51-1.46l-.11-1.54s-.47.44-.61.95c-.15.52-.33 1.04-.04 1.59.36.7 1.26 1.2 1.91 1.4 1.03.32 2.04.23 3.02.11s2.02-.41 2.96-.26c.58.1 1.26.48 1.67.78.41.3 1.02.84 1.31 1.37.47.86.58 1.99.82 2.98.24 1 .51 2.02 1.16 2.91.2.28.44.56.73.78zM89.862 62.22c.12.347.232.916.166 1.29-.105.595-.557.934-.99 1.223-.43.287-1.097.256-1.097.256-.06-.5.53-.56.87-1.63.16-.49.05-1.1-.3-1.59-.55-.79-1.05-1.48-1.91-2.02-.85-.54-1.78-1.06-2.52-1.87-.52-.57-.85-1.35-1.02-1.9-.17-.55-.34-1.36-.22-2.09.17-1.06.65-1.98 1.06-2.86.42-.88.46-1.68.48-2.62.01-.59-.41-1.68-.9-1.89l-1.43-.6s.57-.3 1.1-.27c.54.03 1.09.02 1.52.47.54.56.74 1.58.73 2.25-.02 1.08-.43 2-.85 2.9-.42.89-1.03 1.78-1.18 2.72-.1.58.05 1.35.2 1.83s.47 1.23.89 1.67c.67.72 1.7 1.17 2.57 1.72.87.54 1.75 1.12 2.39 2.02.2.28.39.59.51.94zM73.987 81.372c-.29.225-.795.51-1.17.565-.598.087-1.063-.232-1.473-.552-.407-.318-.592-.96-.592-.96.455-.22.694.324 1.818.306.508 0 1.058-.3 1.415-.79.567-.77 1.067-1.46 1.305-2.45.235-.98.44-2.02.972-2.99.37-.67 1.01-1.23 1.477-1.56.46-.33 1.17-.75 1.91-.87 1.05-.17 2.07-.01 3.04.11.96.12 1.73-.1 2.63-.38.56-.17 1.46-.92 1.5-1.46l.11-1.54s.46.44.6.95c.14.52.32 1.04.03 1.59-.37.7-1.27 1.2-1.91 1.4-1.03.32-2.04.23-3.02.11-.98-.12-2.02-.41-2.96-.26-.58.1-1.27.48-1.68.78-.41.3-1.02.84-1.31 1.37-.47.86-.58 1.99-.82 2.98-.24 1-.52 2.02-1.17 2.91-.2.28-.44.56-.73.78z"/>
      <path fill="#CDCCCC" d="M75.4 38.767c-1.193.007-2.007.494-3.107.967s-2.48.927-3.493.946c-1.12.02-2.54-.416-3.72-.905-1.178-.49-2.12-1.03-3.437-.925-1.09.085-1.972.537-2.816 1.172-.577.434-.987 1.193-.987 1.193.77-.08 1.277-1.565 3.846-1.707 1.114-.06 2.24.356 3.414.843 1.173.49 2.39.81 3.7.79 1.193-.02 2.335-.31 3.435-.78 1.1-.47 2.168-.77 3.167-.92 1.307-.19 2.72.68 4.133 1.54 0 0-.184-.23-.432-.51-.247-.27-.542-.59-.822-.78-.95-.64-1.71-.91-2.88-.9zM49.797 47.96c-.332 1.146-.095 2.064.047 3.254.14 1.19.186 2.643-.082 3.618-.298 1.08-1.12 2.32-1.923 3.31-.81.992-1.59 1.745-1.86 3.035-.23 1.07-.05 2.044.32 3.034.25.68.86 1.29.86 1.29.14-.76-1.14-1.67-.55-4.17.25-1.08.97-2.05 1.77-3.03.8-.99 1.45-2.06 1.8-3.33.31-1.15.36-2.32.22-3.51-.14-1.19-.13-2.3.01-3.3.18-1.31 1.42-2.41 2.64-3.52 0 0-.28.11-.62.27-.34.16-.73.35-.99.57-.88.73-1.36 1.39-1.68 2.51zm-.29 24.922c.683.63 1.452.732 2.292.902 1.78.36 3.4-.366 4.95-.17.63.078 1.57.247 2.13.62.5.336 1.02 1.12 1.26 1.594.37.708.41 1.333.56 2.218.15.885.25 1.703.69 2.544.47.908 1.45 2.2 3.39 2.178l1.06-.44s-.33.057-.74.09c-.4.037-.88.025-1.06-.037-.88-.32-1.6-1.21-2.14-2.12-.4-.68-.56-1.53-.71-2.41-.15-.88-.35-1.67-.79-2.5-.34-.63-.82-1.11-1.34-1.46-.61-.41-1.33-.66-2.08-.75-1.79-.22-3.47.43-4.99.13-.81-.16-1.55-.38-2.15-.87-.33-.26-.68-.81-.82-1.23-.01-.04-.02-.23-.01-.4l.01-.31c-.53.8-.08 1.99.42 2.45zm38.33-.206c-.683.63-1.452.732-2.292.9-1.784.362-3.404-.365-4.953-.17-.63.08-1.577.248-2.136.623-.498.33-1.02 1.11-1.268 1.59-.373.71-.407 1.33-.56 2.22-.153.88-.253 1.7-.693 2.54-.476.91-1.457 2.2-3.396 2.18l-1.07-.44s.33.05.73.09c.4.03.88.02 1.05-.04.87-.32 1.6-1.22 2.14-2.12.4-.69.56-1.54.71-2.42.15-.88.34-1.67.78-2.51.33-.63.81-1.12 1.33-1.47.61-.41 1.32-.66 2.08-.76 1.79-.23 3.47.43 4.98.12.8-.17 1.54-.39 2.14-.87.32-.27.68-.82.82-1.23.01-.04.02-.24.01-.41l-.02-.31c.53.8.07 1.99-.43 2.45zM91.19 62.41c-.148-.918-.69-1.474-1.246-2.127-1.18-1.384-2.902-1.814-4-2.925-.447-.45-1.09-1.168-1.296-1.808-.186-.57-.11-1.51-.013-2.035.143-.788.502-1.3.93-2.09.426-.79.852-1.496 1.024-2.43.18-1.008.21-2.63-1.33-3.81l-1.11-.31s.29.16.63.38.7.526.8.68c.49.795.51 1.946.37 2.99-.11.787-.5 1.554-.93 2.34-.43.785-.76 1.525-.93 2.454-.13.7-.05 1.37.14 1.97.22.69.63 1.33 1.17 1.87 1.26 1.28 2.99 1.8 3.99 2.98.53.62.98 1.26 1.15 2.01.09.4.03 1.06-.11 1.47-.02.04-.13.2-.24.32-.11.13-.21.23-.21.23.91-.3 1.29-1.52 1.18-2.19z"/>
      <circle cx="68.446" cy="60.761" r="9.287" fill="#E6E7E8"/>
      <circle cx="68.446" cy="60.761" r="9.287" fill="none" stroke="#A7A9AC" stroke-width=".535"/>
      <path fill="#F1F2F2" d="M68.46 67.18c-3.732 0-6.563-2.914-6.563-6.4 0-3.49 2.845-6.445 6.562-6.445s6.56 2.956 6.56 6.444c0 3.48-2.83 6.4-6.56 6.4z"/>
    </g>
    <g clip-path="url(#e)">
      <path fill="#447939" d="M155.574 44.417c10.346-7.306 21.75-5.66 32.095-8.464 3.75-9.17 7.33-18.34 16.57-27.51 8.72 9.288 13.63 18.575 18.69 27.863 9.87 1.566 19.75 1.54 29.62 5.643-4.89 8.58-7.15 17.16-19.05 25.74 1.37 10.7 4.22 21.39 2.11 32.09-13.39-.91-21.45-6.08-30.33-10.59-10.03 3.99-11.55 7.99-30.33 11.99-4.73-10.94 1.39-21.87 2.11-32.8-7.39-7-17.56-10.97-21.52-23.99z"/>
      <path fill="none" stroke="#315126" stroke-width="1.5" d="M155.574 44.417c10.346-7.306 21.75-5.66 32.095-8.464 3.75-9.17 7.33-18.34 16.57-27.51 8.72 9.288 13.63 18.575 18.69 27.863 9.87 1.566 19.75 1.54 29.62 5.643-4.89 8.58-7.15 17.16-19.05 25.74 1.37 10.7 4.22 21.39 2.11 32.09-13.39-.91-21.45-6.08-30.33-10.59-10.03 3.99-11.55 7.99-30.33 11.99-4.73-10.94 1.39-21.87 2.11-32.8-7.39-7-17.56-10.97-21.52-23.99z"/>
      <path fill="#508E40" d="M158.44 45.785c3.9 10.744 17.468 15.03 23.688 22.437-1.945 8.728-8.308 19.64-6.185 31.195 11.245-2.39 20.958-11.1 29.495-15.372 8.123 3.928 18.797 11.897 28.227 13.947.8-8.88-2.96-16.992-7.354-29.48 6.53-7.22 19.49-15.835 23.44-24.846-10.38-6.222-23.06-.155-31.97-1.396-5.37-8.13-2.05-16.9-13.91-29.542-9.14 5.665-8.06 22.443-13.16 30.916-9.08 1.376-22.63-5.464-32.26 2.14z"/>
      <path fill="#226432" d="M203.426 12.885c-2.085 11.44-.565 28.436.15 42.16-1.317 1.167-3.556-1.93-5.24-1.43C188.3 50.027 175.7 49.14 158.86 45.52c9.926 6.116 25.63 7.464 38.695 11.792.498.668-.243 4.033.008 5.055-6.13 8.532-12.156 20.473-20.03 35.12 8.403-7.628 14.798-22.324 22.45-33.51.962-.176 1.69 4.563 5.18 2.543 7.85 11.386 22.925 24.45 28.303 31.36-8.16-15.118-22.484-25.735-28.727-34.362-.13-1.75 1.74-3.558 2.27-4.852 12.97-3.226 31.58-9.236 41.42-14.338-16.96 2.348-31.38 11.16-41.63 13.986-.6-11.1-1.98-28.98-3.39-45.43z"/>
      <path fill="#FFF" d="M224.523 89.77c1.64 1.835 2.385 4.214.818 7.647-1.26 2.762-5.23 4.278-7.31 4.667-4.89.915-9.25-3.028-13.95-3.028-4.7 0-9.06 3.943-13.95 3.028-2.09-.39-6.06-1.906-7.32-4.667-1.56-3.433-.75-5.752.82-7.646 1.6-1.92 3.94-3.45 5.46-5.18 1.53-1.74.21-5.12.06-4.7.2-.04-3.41-.37-4.66 1.58-1.24 1.94-2.06 4.62-3.46 6.69-1.38 2.04-3.38 3.46-7.12 2.91-3-.44-5.56-3.83-6.51-5.73-2.24-4.44.34-9.73-.97-14.25-1.31-4.51-6.3-7.6-6.79-12.56-.21-2.11.15-6.34 2.45-8.32 2.86-2.46 5.32-2.32 7.57-1.34 2.3 1.01 4.42 2.83 6.5 3.81 2.11.99 4.98-1.22 4.35-1.12.36-.16-.63-3.38-3.03-3.7-2.19-.28-4.83-.5-7.14-1.16-2.27-.66-4.18-2.07-4.79-5.68-.5-2.9 1.83-6.29 3.27-7.75 3.39-3.41 8.98-2.64 12.71-5.22 3.73-2.57 5.05-8.12 9.42-10.07 1.87-.83 5.84-1.79 8.33-.27 3.1 1.9 3.72 4.2 3.5 6.58-.22 2.43-1.25 4.94-1.52 7.15-.26 2.24 2.62 4.22 2.67 3.94 1.53-.33 3.05-1.92 3.05-3.94 0-2.21-1.3-4.72-1.52-7.15-.22-2.38.39-4.68 3.49-6.57 2.5-1.52 6.47-.56 8.33.27 4.38 1.95 5.7 7.5 9.42 10.07 3.73 2.58 9.32 1.81 12.71 5.22 1.44 1.46 3.77 4.85 3.27 7.75-.62 3.61-2.52 5.02-4.79 5.68-2.31.67-4.96.79-7.14 1.17-2.43.43-3.37 3.78-3.04 3.7-.63-.09 2.25 2.12 4.35 1.13 2.09-.98 4.21-2.8 6.5-3.8 2.26-.98 4.71-1.12 7.58 1.34 2.31 1.98 2.66 6.21 2.45 8.32-.48 4.96-5.48 8.05-6.79 12.57-1.31 4.52 1.27 9.8-.97 14.25-.95 1.9-3.51 5.29-6.52 5.73-3.73.55-5.73-.87-7.11-2.91-1.4-2.08-2.22-4.75-3.46-6.69-1.25-1.95-4.8-1.83-4.66-1.58-.91 1.64-1.07 3.24.06 4.71 1.55 2 3.79 3.31 5.47 5.19z"/>
      <path fill="none" stroke="#E6E7E8" stroke-width=".578" d="M224.523 89.77c1.64 1.835 2.385 4.214.818 7.647-1.26 2.762-5.23 4.278-7.31 4.667-4.89.915-9.25-3.028-13.95-3.028-4.7 0-9.06 3.943-13.95 3.028-2.09-.39-6.06-1.906-7.32-4.667-1.56-3.433-.75-5.752.82-7.646 1.6-1.92 3.94-3.45 5.46-5.18 1.53-1.74.21-5.12.06-4.7.2-.04-3.41-.37-4.66 1.58-1.24 1.94-2.06 4.62-3.46 6.69-1.38 2.04-3.38 3.46-7.12 2.91-3-.44-5.56-3.83-6.51-5.73-2.24-4.44.34-9.73-.97-14.25-1.31-4.51-6.3-7.6-6.79-12.56-.21-2.11.15-6.34 2.45-8.32 2.86-2.46 5.32-2.32 7.57-1.34 2.3 1.01 4.42 2.83 6.5 3.81 2.11.99 4.98-1.22 4.35-1.12.36-.16-.63-3.38-3.03-3.7-2.19-.28-4.83-.5-7.14-1.16-2.27-.66-4.18-2.07-4.79-5.68-.5-2.9 1.83-6.29 3.27-7.75 3.39-3.41 8.98-2.64 12.71-5.22 3.73-2.57 5.05-8.12 9.42-10.07 1.87-.83 5.84-1.79 8.33-.27 3.1 1.9 3.72 4.2 3.5 6.58-.22 2.43-1.25 4.94-1.52 7.15-.26 2.24 2.62 4.22 2.67 3.94 1.53-.33 3.05-1.92 3.05-3.94 0-2.21-1.3-4.72-1.52-7.15-.22-2.38.39-4.68 3.49-6.57 2.5-1.52 6.47-.56 8.33.27 4.38 1.95 5.7 7.5 9.42 10.07 3.73 2.58 9.32 1.81 12.71 5.22 1.44 1.46 3.77 4.85 3.27 7.75-.62 3.61-2.52 5.02-4.79 5.68-2.31.67-4.96.79-7.14 1.17-2.43.43-3.37 3.78-3.04 3.7-.63-.09 2.25 2.12 4.35 1.13 2.09-.98 4.21-2.8 6.5-3.8 2.26-.98 4.71-1.12 7.58 1.34 2.31 1.98 2.66 6.21 2.45 8.32-.48 4.96-5.48 8.05-6.79 12.57-1.31 4.52 1.27 9.8-.97 14.25-.95 1.9-3.51 5.29-6.52 5.73-3.73.55-5.73-.87-7.11-2.91-1.4-2.08-2.22-4.75-3.46-6.69-1.25-1.95-4.8-1.83-4.66-1.58-.91 1.64-1.07 3.24.06 4.71 1.55 2 3.79 3.31 5.47 5.19z"/>
      <path fill="#E6E7E8" d="M220.373 35.462l-2.76-3.805-1.97-7.12-2.806-2.795-4.047-.515s2.933 9.715.54 14.837c-1.11 2.38-5.737 5.438-5.737 5.438s-4.275-2.748-5.275-5.477c-1.744-4.766.513-14.384.513-14.384l-2.52-.69-3.43 2-3.29 11.17-2.08 1.66-2.44 1.32-4.13.63-6.09-.35-4.47 1.54-1.58 3.76s10.15-.21 14.44 3.47c1.99 1.71 3.69 6.99 3.69 6.99s-3.21 4.24-6.11 4.47c-5.06.4-14.3-5.22-14.3-5.22l-1.35 2.25 1 3.84 7.88 6.18 2.13 3.03.6 2.01v4.46l-2.62 5.51-.26 4.72 2.89 2.89s3.63-9.48 8.66-12.06c2.34-1.2 7.87-.78 7.87-.78s2.72 4.57 1.84 7.34c-1.56 4.82-10.25 11.26-10.25 11.26l1.58 2.1 3.93.52 9.44-6.81 3.85-.23 3.85.29 9.44 6.82 3.93-.53 2.21-1.72s-9.32-6.82-10.86-11.65c-.88-2.77 1.84-7.34 1.84-7.34s5.53-.41 7.87.79c5.02 2.59 8.65 12.07 8.65 12.07s2.4-.48 2.89-1.75c.57-1.47.89-4.2.5-5.73-.5-1.97-2.15-3.8-2.43-5.82-.17-1.24-.31-3.51-.31-3.51l.47-2.7 1.32-2.33s6.73-3.9 8.63-6.93c.71-1.12.56-3.84.56-3.84l-1.35-2.25s-9.24 5.63-14.3 5.23c-2.892-.22-6.11-4.47-6.11-4.47s1.7-5.28 3.697-6.99c4.29-3.68 14.44-3.47 14.44-3.47l-1.6-3.77-4.47-1.53-6.09.35-4.13-.63-1.92-1.68z"/>
      <path fill="#A7A9AC" d="M188.39 96.78c-.734.023-1.9-.096-2.59-.426-1.1-.526-1.525-1.53-1.86-2.477-.33-.937.077-2.127.077-2.127 1.008.163.804 1.265 2.71 2.48.86.548 2.112.7 3.25.347 1.817-.563 3.424-1.074 4.913-2.324 1.49-1.25 2.99-2.622 4.953-3.52 1.37-.628 3.066-.775 4.22-.775 1.15 0 2.808.146 4.177.774 1.965.9 3.502 2.27 4.992 3.52 1.49 1.25 3.02 1.762 4.836 2.325 1.14.353 3.477.204 4.138-.578l1.9-2.25s.29 1.19-.04 2.12c-.334.94-.605 1.95-1.704 2.47-1.382.66-3.454.44-4.757.04-2.084-.65-3.676-1.91-5.186-3.18-1.51-1.27-2.94-2.88-4.69-3.68-1.08-.5-2.66-.66-3.68-.66s-2.64.16-3.72.66c-1.75.8-3.18 2.41-4.69 3.67-1.51 1.26-3.1 2.52-5.19 3.17-.65.2-1.36.36-2.09.38zm-24.2-39.84c-.23-.65-.44-1.72-.314-2.425.2-1.12 1.048-1.758 1.863-2.3.8-.538 2.06-.483 2.06-.483.12.942-.99 1.045-1.63 3.063-.29.91-.09 2.07.57 2.994 1.04 1.47 1.98 2.78 3.6 3.79 1.61 1 3.35 1.99 4.76 3.51.98 1.06 1.59 2.54 1.91 3.57.32 1.03.64 2.55.42 3.93-.32 1.98-1.21 3.71-2 5.37-.79 1.65-.86 3.15-.89 4.92-.03 1.11.77 3.16 1.7 3.55l2.69 1.11s-1.07.57-2.06.51c-1-.06-2.04-.04-2.86-.88-1.02-1.07-1.39-2.98-1.36-4.24.04-2.03.81-3.78 1.6-5.46s1.94-3.37 2.22-5.14c.18-1.1-.11-2.55-.39-3.46s-.89-2.32-1.66-3.15c-1.26-1.36-3.2-2.21-4.83-3.24-1.64-1.02-3.29-2.12-4.49-3.82-.37-.53-.73-1.12-.95-1.77zm29.87-36.036c.547-.42 1.496-.96 2.203-1.063 1.124-.16 1.998.44 2.77 1.04.768.6 1.112 1.81 1.112 1.81-.855.42-1.305-.61-3.42-.57-.955.02-1.99.58-2.66 1.49-1.07 1.46-2.012 2.76-2.457 4.61-.445 1.86-.83 3.81-1.828 5.63-.695 1.27-1.904 2.32-2.78 2.95-.874.63-2.214 1.42-3.6 1.65-1.985.33-3.907.03-5.726-.19-1.82-.22-3.262.19-4.95.72-1.06.33-2.755 1.73-2.827 2.74l-.207 2.91s-.875-.83-1.14-1.78c-.265-.96-.612-1.95-.065-2.98.687-1.3 2.38-2.25 3.594-2.63 1.93-.6 3.83-.43 5.68-.2s3.8.78 5.57.49c1.09-.18 2.38-.91 3.15-1.47s1.91-1.57 2.46-2.57c.89-1.62 1.08-3.73 1.54-5.61.45-1.87.96-3.79 2.19-5.46.38-.52.83-1.04 1.37-1.46zm49.787 36.036c.228-.65.438-1.72.31-2.425-.198-1.12-1.046-1.758-1.86-2.3-.81-.538-2.065-.483-2.065-.483-.124.942.992 1.045 1.63 3.063.287.91.084 2.07-.57 2.994-1.047 1.47-1.984 2.78-3.6 3.79-1.614 1-3.35 1.99-4.76 3.51-.983 1.06-1.596 2.54-1.915 3.57-.32 1.03-.64 2.55-.42 3.93.32 1.98 1.21 3.71 1.997 5.37.785 1.65.85 3.15.887 4.92.03 1.11-.77 3.16-1.7 3.55l-2.69 1.11s1.07.57 2.06.51c1-.06 2.04-.04 2.85-.88 1.02-1.07 1.39-2.98 1.36-4.24-.04-2.03-.81-3.78-1.6-5.46s-1.94-3.37-2.23-5.14c-.17-1.1.11-2.55.4-3.46.28-.91.89-2.32 1.67-3.15 1.26-1.36 3.2-2.21 4.83-3.24 1.64-1.02 3.29-2.12 4.49-3.82.37-.53.72-1.12.95-1.77zm-29.87-36.036c-.548-.42-1.5-.96-2.204-1.063-1.124-.16-2 .44-2.77 1.04-.768.6-1.112 1.81-1.112 1.81.86.42 1.31-.61 3.43-.57.96.02 1.99.58 2.66 1.49 1.07 1.46 2.01 2.76 2.46 4.61.45 1.86.83 3.81 1.83 5.63.7 1.27 1.9 2.32 2.78 2.95.88.63 2.22 1.42 3.6 1.65 1.99.33 3.91.03 5.73-.19s3.27.19 4.95.72c1.06.33 2.76 1.73 2.83 2.74l.21 2.91s.88-.83 1.14-1.78c.27-.96.62-1.95.07-2.98-.68-1.3-2.38-2.25-3.59-2.63-1.94-.6-3.84-.43-5.68-.2-1.84.22-3.8.78-5.57.49-1.09-.18-2.38-.91-3.15-1.47s-1.91-1.57-2.46-2.57c-.89-1.62-1.09-3.73-1.54-5.61-.45-1.87-.97-3.79-2.2-5.46-.38-.52-.83-1.04-1.37-1.46z"/>
      <path fill="#D1D3D4" d="M216.634 101.074c-2.246-.012-3.776-.93-5.848-1.818-2.07-.89-4.67-1.746-6.572-1.78-2.11-.04-4.78.783-7 1.703-2.217.92-3.994 1.93-6.465 1.74-2.06-.16-3.72-1.01-5.31-2.21-1.09-.82-1.86-2.25-1.86-2.25 1.45.15 2.4 2.94 7.23 3.21 2.09.11 4.21-.67 6.42-1.59 2.2-.92 4.49-1.52 6.96-1.48 2.24.04 4.39.58 6.46 1.47 2.07.89 4.08 1.46 5.96 1.74 2.46.37 5.12-1.28 7.77-2.9 0 0-.35.45-.81.97-.47.52-1.02 1.11-1.55 1.47-1.79 1.2-3.23 1.71-5.42 1.7zm-48.177-17.297c-.624-2.158-.178-3.886.09-6.124s.35-4.972-.156-6.808c-.55-2.035-2.1-4.364-3.61-6.23-1.51-1.866-2.99-3.282-3.5-5.708-.42-2.015-.08-3.846.62-5.71.48-1.27 1.63-2.416 1.63-2.416.27 1.44-2.14 3.14-1.03 7.85.49 2.05 1.84 3.86 3.34 5.71 1.51 1.86 2.73 3.89 3.39 6.27.6 2.17.69 4.38.42 6.62-.26 2.24-.24 4.33.02 6.21.35 2.47 2.68 4.55 4.99 6.64 0 0-.53-.2-1.15-.5-.63-.3-1.36-.66-1.85-1.06-1.66-1.37-2.56-2.61-3.17-4.71zm-.547-46.897c1.287-1.185 2.734-1.378 4.314-1.698 3.355-.678 6.406.69 9.32.32 1.185-.148 2.967-.463 4.018-1.168.938-.63 1.918-2.105 2.385-2.997.704-1.333.767-2.51 1.054-4.175.29-1.666.48-3.203 1.31-4.787.9-1.71 2.74-4.138 6.39-4.1l2 .83s-.62-.106-1.38-.17c-.76-.07-1.66-.046-1.98.07-1.65.606-3.01 2.292-4.02 3.994-.76 1.28-1.06 2.88-1.35 4.54-.28 1.65-.65 3.14-1.48 4.71-.62 1.18-1.52 2.1-2.51 2.76-1.14.77-2.49 1.24-3.91 1.42-3.36.42-6.52-.81-9.38-.23-1.52.31-2.91.72-4.03 1.63-.61.49-1.27 1.53-1.55 2.31-.02.07-.03.45-.02.76l.03.58c-.99-1.51-.13-3.75.81-4.62zm72.13.39c-1.29-1.185-2.736-1.378-4.316-1.698-3.354-.678-6.406.69-9.32.32-1.185-.148-2.968-.463-4.02-1.17-.937-.63-1.916-2.104-2.382-2.996-.703-1.333-.768-2.51-1.055-4.175-.287-1.66-.477-3.2-1.305-4.78-.895-1.71-2.742-4.14-6.39-4.1l-2 .83s.622-.1 1.38-.17c.757-.07 1.66-.04 1.98.07 1.65.61 3.014 2.29 4.02 4 .764 1.29 1.066 2.89 1.352 4.54.285 1.66.648 3.14 1.48 4.71.625 1.19 1.525 2.1 2.51 2.76 1.144.77 2.49 1.24 3.91 1.42 3.366.43 6.525-.81 9.382-.23 1.52.31 2.912.73 4.035 1.64.61.5 1.28 1.54 1.55 2.32.03.08.04.45.03.76-.01.32-.03.59-.03.59 1-1.5.14-3.74-.8-4.61zm6.306 19.317c-.282 1.727-1.3 2.772-2.347 4-2.22 2.605-5.47 3.413-7.53 5.504-.84.85-2.05 2.2-2.44 3.41-.35 1.08-.21 2.84-.03 3.83.27 1.49.94 2.45 1.75 3.94.8 1.49 1.6 2.82 1.93 4.57.35 1.9.4 4.95-2.5 7.17l-2.09.58s.55-.3 1.19-.71c.63-.41 1.33-.99 1.51-1.28.92-1.49.95-3.66.69-5.62-.2-1.48-.95-2.92-1.74-4.4-.8-1.48-1.43-2.87-1.75-4.62-.24-1.32-.1-2.59.27-3.72.42-1.31 1.19-2.51 2.2-3.53 2.38-2.41 5.63-3.39 7.52-5.61 1-1.18 1.84-2.37 2.16-3.78.17-.76.05-1.99-.22-2.77-.02-.07-.24-.38-.45-.61-.2-.24-.38-.44-.38-.44 1.71.57 2.42 2.86 2.22 4.13z"/>
      <path fill="#447939" d="M178.296 67.303c5.498 3.883 11.56 3.01 17.057 4.498 1.994 4.88 3.897 9.75 8.81 14.62 4.633-4.93 7.243-9.87 9.935-14.8 5.248-.83 10.494-.82 15.743-3-2.59-4.56-3.8-9.12-10.12-13.68.73-5.68 2.25-11.37 1.13-17.05-7.11.49-11.39 3.23-16.12 5.63-5.33-2.12-6.13-4.25-16.12-6.37-2.51 5.81.74 11.62 1.13 17.43-3.93 3.72-9.33 5.83-11.43 12.75z"/>
      <path fill="none" stroke="#315126" stroke-width=".578" d="M178.296 67.303c5.498 3.883 11.56 3.01 17.057 4.498 1.994 4.88 3.897 9.75 8.81 14.62 4.633-4.93 7.243-9.87 9.935-14.8 5.248-.83 10.494-.82 15.743-3-2.59-4.56-3.8-9.12-10.12-13.68.73-5.68 2.25-11.37 1.13-17.05-7.11.49-11.39 3.23-16.12 5.63-5.33-2.12-6.13-4.25-16.12-6.37-2.51 5.81.74 11.62 1.13 17.43-3.93 3.72-9.33 5.83-11.43 12.75z"/>
      <path fill="#FFF" d="M212.037 45.99c.807-.92 2.05-1.732 2.902-2.757.83-1.006 1.26-2.24.43-4.064-.67-1.47-2.78-2.28-3.89-2.48-2.6-.49-4.92 1.6-7.42 1.6s-4.82-2.1-7.42-1.61c-1.11.21-3.22 1.01-3.89 2.48-.83 1.82-.4 3.06.43 4.06.85 1.02 2.09 1.84 2.9 2.76.81.92.11 2.72.03 2.5.1.02-1.82.2-2.48-.84-.66-1.03-1.1-2.45-1.84-3.56-.74-1.09-1.8-1.84-3.79-1.55-1.6.23-2.96 2.03-3.47 3.04-1.19 2.36.18 5.17-.52 7.57s-3.35 4.04-3.61 6.68c-.11 1.12.08 3.37 1.3 4.42 1.52 1.31 2.83 1.23 4.03.71 1.22-.53 2.35-1.5 3.45-2.02 2.86-.22 2.48 1.09.69 2.56-1.14.3-2.57.27-3.8.62-1.21.35-2.22 1.1-2.55 3.02-.27 1.54.97 3.34 1.74 4.12 1.8 1.81 4.77 1.4 6.75 2.77 1.98 1.37 2.68 4.32 5 5.35.99.44 3.1.95 4.43.14 1.64-1.01 1.97-2.23 1.85-3.5-.12-1.29-.67-2.62-.81-3.8-.15-1.19 1.38-2.24 1.41-2.1.9.18 1.28 1.09 1.61 2.09-.14 1.18-.69 2.51-.81 3.8-.12 1.26.2 2.49 1.85 3.5 1.32.81 3.43.3 4.42-.15 2.32-1.04 3.02-3.99 5-5.36s4.95-.96 6.75-2.77c.765-.78 2-2.58 1.74-4.12-.33-1.92-1.34-2.67-2.55-3.02-1.23-.35-2.66-.32-3.795-.62-2.1-1.56-1.91-2.57.696-2.57 1.105.52 2.23 1.49 3.45 2.02 1.2.52 2.51.6 4.03-.71 1.22-1.05 1.41-3.3 1.3-4.43-.254-2.64-2.91-4.28-3.605-6.68-.695-2.4.67-5.21-.52-7.57-.505-1.01-1.87-2.81-3.46-3.05-1.99-.29-3.05.46-3.78 1.55-.75 1.1-1.19 2.52-1.85 3.55-.67 1.04-2.555.97-2.48.84-.594-.91-.24-1.59.04-2.5z"/>
      <path fill="none" stroke="#989898" stroke-width="1.088" d="M212.037 45.99c.807-.92 2.05-1.732 2.902-2.757.83-1.006 1.26-2.24.43-4.064-.67-1.47-2.78-2.28-3.89-2.48-2.6-.49-4.92 1.6-7.42 1.6s-4.82-2.1-7.42-1.61c-1.11.21-3.22 1.01-3.89 2.48-.83 1.82-.4 3.06.43 4.06.85 1.02 2.09 1.84 2.9 2.76.81.92.11 2.72.03 2.5.1.02-1.82.2-2.48-.84-.66-1.03-1.1-2.45-1.84-3.56-.74-1.09-1.8-1.84-3.79-1.55-1.6.23-2.96 2.03-3.47 3.04-1.19 2.36.18 5.17-.52 7.57s-3.35 4.04-3.61 6.68c-.11 1.12.08 3.37 1.3 4.42 1.52 1.31 2.83 1.23 4.03.71 1.22-.53 2.35-1.5 3.45-2.02 2.86-.22 2.48 1.09.69 2.56-1.14.3-2.57.27-3.8.62-1.21.35-2.22 1.1-2.55 3.02-.27 1.54.97 3.34 1.74 4.12 1.8 1.81 4.77 1.4 6.75 2.77 1.98 1.37 2.68 4.32 5 5.35.99.44 3.1.95 4.43.14 1.64-1.01 1.97-2.23 1.85-3.5-.12-1.29-.67-2.62-.81-3.8-.15-1.19 1.38-2.24 1.41-2.1.9.18 1.28 1.09 1.61 2.09-.14 1.18-.69 2.51-.81 3.8-.12 1.26.2 2.49 1.85 3.5 1.32.81 3.43.3 4.42-.15 2.32-1.04 3.02-3.99 5-5.36s4.95-.96 6.75-2.77c.765-.78 2-2.58 1.74-4.12-.33-1.92-1.34-2.67-2.55-3.02-1.23-.35-2.66-.32-3.795-.62-2.1-1.56-1.91-2.57.696-2.57 1.105.52 2.23 1.49 3.45 2.02 1.2.52 2.51.6 4.03-.71 1.22-1.05 1.41-3.3 1.3-4.43-.254-2.64-2.91-4.28-3.605-6.68-.695-2.4.67-5.21-.52-7.57-.505-1.01-1.87-2.81-3.46-3.05-1.99-.29-3.05.46-3.78 1.55-.75 1.1-1.19 2.52-1.85 3.55-.67 1.04-2.555.97-2.48.84-.594-.91-.24-1.59.04-2.5z"/>
      <path fill="#989898" d="M195.736 39.508c-.39-.013-1.01.05-1.376.226-.585.28-.81.814-.988 1.316-.175.5.04 1.13.04 1.13.536-.085.428-.67 1.44-1.316.458-.292 1.123-.372 1.728-.185.965.3 1.82.57 2.61 1.23.793.66 1.59 1.39 2.634 1.87.727.33 1.63.41 2.24.41.613 0 1.494-.08 2.22-.41 1.046-.48 1.862-1.21 2.655-1.87.79-.67 1.6-.94 2.56-1.24.6-.19 1.85-.11 2.2.3l1.01 1.19s.15-.63-.02-1.13c-.18-.51-.32-1.04-.91-1.32-.74-.35-1.84-.24-2.53-.02-1.11.34-1.95 1.01-2.76 1.68-.8.67-1.56 1.52-2.49 1.95-.58.26-1.42.35-1.96.35s-1.4-.09-1.98-.35c-.93-.43-1.69-1.28-2.49-1.96-.81-.68-1.65-1.35-2.76-1.69-.35-.11-.72-.19-1.11-.21zm-12.86 21.172c-.12.346-.233.915-.166 1.29.106.594.556.933.99 1.222.43.287 1.097.256 1.097.256.064-.5-.527-.554-.865-1.627-.154-.48-.046-1.1.303-1.59.556-.78 1.055-1.48 1.912-2.01s1.78-1.06 2.53-1.87c.522-.56.848-1.35 1.018-1.89s.34-1.35.223-2.09c-.17-1.05-.644-1.97-1.06-2.85-.42-.88-.454-1.67-.473-2.62-.012-.59.408-1.68.906-1.88l1.43-.59s-.56-.3-1.09-.27c-.53.03-1.08.02-1.51.47-.54.57-.73 1.58-.72 2.26.02 1.08.43 2.01.86 2.9s1.04 1.79 1.19 2.73c.1.58-.05 1.36-.21 1.84-.15.49-.47 1.23-.88 1.68-.66.72-1.69 1.18-2.56 1.72-.87.54-1.75 1.12-2.38 2.03-.19.28-.38.6-.5.94zm15.874 19.15c.29.226.795.512 1.17.566.598.087 1.063-.232 1.474-.552.407-.318.59-.96.59-.96-.454-.22-.692.324-1.817.306-.508-.008-1.057-.305-1.413-.79-.57-.777-1.07-1.468-1.306-2.453-.237-.984-.44-2.024-.972-2.99-.37-.676-1.01-1.232-1.477-1.567-.47-.334-1.18-.75-1.92-.873-1.06-.174-2.08-.016-3.05.102-.97.11-1.74-.11-2.63-.39-.57-.18-1.47-.92-1.5-1.46l-.11-1.54s-.47.44-.61.95c-.15.51-.33 1.03-.04 1.58.36.69 1.26 1.2 1.91 1.4 1.03.32 2.04.23 3.02.11.98-.12 2.02-.42 2.96-.26.58.09 1.26.48 1.67.78.41.29 1.01.83 1.31 1.37.47.86.57 1.98.81 2.98.24.99.51 2.01 1.16 2.9.2.28.44.55.73.78zm26.458-19.15c.12.346.232.915.165 1.29-.105.594-.557.933-.99 1.222-.43.287-1.097.256-1.097.256-.066-.5.527-.554.865-1.627.16-.48.05-1.1-.3-1.59-.55-.78-1.05-1.48-1.91-2.01-.85-.53-1.78-1.06-2.53-1.87-.52-.56-.85-1.35-1.01-1.89-.17-.54-.34-1.35-.22-2.09.17-1.05.64-1.97 1.06-2.85.42-.88.45-1.67.47-2.62.01-.59-.41-1.68-.9-1.88l-1.43-.59s.57-.3 1.09-.27c.53.03 1.09.02 1.52.47.54.57.74 1.58.73 2.26-.02 1.08-.43 2.01-.85 2.9-.42.89-1.03 1.79-1.18 2.73-.09.58.06 1.36.21 1.84.15.49.47 1.23.89 1.68.67.72 1.7 1.18 2.57 1.72.87.54 1.75 1.12 2.39 2.03.2.28.39.6.51.94zm-15.875 19.15c-.29.226-.795.512-1.17.566-.598.087-1.063-.232-1.474-.552-.41-.318-.6-.96-.6-.96.45-.22.69.324 1.81.306.51-.008 1.06-.305 1.41-.79.56-.777 1.06-1.468 1.3-2.453.23-.984.44-2.024.97-2.99.37-.676 1.01-1.232 1.47-1.567.46-.334 1.17-.75 1.91-.873 1.05-.174 2.07-.016 3.04.102.96.11 1.73-.11 2.63-.39.56-.18 1.46-.92 1.5-1.46l.11-1.55s.46.44.6.95c.14.51.32 1.03.03 1.58-.36.69-1.26 1.2-1.91 1.4-1.03.32-2.04.23-3.02.11-.98-.12-2.02-.42-2.96-.26-.58.09-1.26.48-1.68.77-.41.29-1.02.83-1.31 1.37-.47.86-.58 1.98-.82 2.98-.24.99-.52 2.01-1.17 2.9-.21.28-.44.55-.73.78z"/>
      <path fill="#CDCCCC" d="M210.748 37.226c-1.195.007-2.008.494-3.11.967-1.1.473-2.48.927-3.492.946-1.12.02-2.54-.42-3.72-.91s-2.12-1.03-3.436-.93c-1.092.08-1.973.53-2.816 1.17-.578.43-.988 1.19-.988 1.19.77-.08 1.277-1.57 3.846-1.71 1.115-.06 2.24.35 3.414.84 1.173.49 2.39.81 3.7.78 1.194-.02 2.335-.31 3.435-.78 1.11-.48 2.17-.78 3.17-.93 1.31-.2 2.72.68 4.14 1.54 0 0-.18-.24-.43-.52-.24-.27-.54-.59-.82-.78-.95-.64-1.72-.91-2.88-.9zm-25.605 9.192c-.332 1.147-.095 2.065.048 3.255.15 1.19.19 2.643-.08 3.618-.3 1.09-1.12 2.32-1.92 3.31-.8 1-1.58 1.75-1.86 3.04-.22 1.07-.04 2.05.33 3.04.25.68.87 1.29.87 1.29.15-.76-1.14-1.67-.54-4.17.26-1.08.98-2.05 1.78-3.03s1.45-2.06 1.8-3.33c.32-1.15.37-2.32.22-3.51-.14-1.19-.13-2.3.02-3.3.18-1.31 1.42-2.42 2.65-3.53 0 0-.28.11-.61.27-.33.16-.72.35-.98.57-.88.73-1.36 1.39-1.68 2.51zm-.29 24.922c.684.63 1.453.733 2.293.903 1.782.36 3.403-.366 4.953-.17.62.078 1.57.247 2.13.62.5.336 1.02 1.12 1.26 1.594.37.708.41 1.333.56 2.218.15.885.25 1.703.69 2.544.47.9 1.46 2.19 3.39 2.17l1.06-.44s-.33.05-.74.09c-.4.03-.89.02-1.06-.04-.88-.33-1.6-1.22-2.14-2.13-.41-.69-.57-1.54-.72-2.42-.15-.88-.35-1.67-.79-2.51-.34-.63-.81-1.12-1.34-1.47-.61-.41-1.33-.66-2.08-.76-1.79-.23-3.47.43-4.99.12-.81-.17-1.55-.39-2.15-.87-.32-.27-.68-.82-.82-1.23-.01-.04-.02-.24-.01-.41l.02-.31c-.53.8-.08 1.99.43 2.45zm38.33-.205c-.683.63-1.452.732-2.292.9-1.78.362-3.4-.365-4.95-.17-.63.08-1.57.248-2.13.623-.5.334-1.02 1.12-1.27 1.593-.37.71-.4 1.34-.56 2.22-.15.89-.25 1.71-.69 2.55-.47.91-1.46 2.2-3.39 2.18l-1.06-.44s.33.06.74.09c.4.04.88.03 1.05-.04.88-.32 1.6-1.21 2.14-2.12.41-.68.57-1.53.72-2.41.15-.88.35-1.67.79-2.5.33-.63.81-1.11 1.34-1.46.61-.41 1.33-.66 2.08-.75 1.79-.22 3.47.43 4.99.12.81-.16 1.55-.38 2.15-.87.32-.26.68-.81.82-1.23.02-.04.02-.23.02-.4l-.02-.31c.53.8.08 1.99-.42 2.46zm3.354-10.267c-.15-.917-.69-1.473-1.247-2.126-1.18-1.384-2.902-1.814-4-2.925-.446-.45-1.09-1.168-1.296-1.808-.186-.58-.11-1.51-.013-2.04.15-.79.51-1.3.93-2.09.43-.79.86-1.5 1.03-2.43.19-1.01.22-2.63-1.32-3.81l-1.1-.31s.3.16.64.38.71.52.81.68c.49.79.51 1.94.37 2.99-.1.78-.5 1.55-.92 2.34-.42.78-.76 1.52-.93 2.45-.12.7-.05 1.38.15 1.98.23.69.64 1.33 1.17 1.87 1.27 1.28 2.99 1.8 4 2.98.54.63.98 1.26 1.15 2.01.09.4.03 1.06-.11 1.47-.01.04-.13.2-.24.32l-.2.23c.91-.3 1.29-1.52 1.18-2.19z"/>
      <circle cx="203.792" cy="59.22" r="9.287" fill="#E6E7E8"/>
      <circle cx="203.792" cy="59.22" r="9.287" fill="none" stroke="#A7A9AC" stroke-width=".535"/>
      <path fill="#F1F2F2" d="M203.805 65.64c-3.73 0-6.562-2.915-6.562-6.402 0-3.488 2.845-6.444 6.562-6.444 3.718 0 6.562 2.956 6.562 6.444 0 3.487-2.83 6.4-6.562 6.4z"/>
    </g>
    <path fill="none" stroke="#000" stroke-width="3" stroke-miterlimit="10" d="M10.092 3.5h251.714v599.714H10.092z" clip-path="url(#e)"/>
  </g>
  <g clip-path="url(#c)">
    <defs>
      <path id="g" d="M261.806 3.5H513.52v599.714H261.806z"/>
    </defs>
    <clipPath id="h">
      <use xlink:href="#g" overflow="visible"/>
    </clipPath>
    <g clip-path="url(#h)">
      <linearGradient id="i" x1="261.806" x2="513.52" y1="303.357" y2="303.357" gradientUnits="userSpaceOnUse">
        <stop offset="0" stop-color="#FECC94"/>
        <stop offset=".097" stop-color="#FDC581"/>
        <stop offset=".234" stop-color="#FDBD6C"/>
        <stop offset=".383" stop-color="#FCB75A"/>
        <stop offset=".546" stop-color="#FCB34B"/>
        <stop offset=".733" stop-color="#FBB143"/>
        <stop offset="1" stop-color="#FBB040"/>
      </linearGradient>
      <path fill="url(#i)" d="M288.275 3.5h-26.47v107.174l246.17 492.54h5.545v-149.04"/>
      <path fill="none" d="M288.275 3.5h-26.47v107.174l246.17 492.54h5.545v-149.04"/>
    </g>
    <path fill="none" stroke="#000" stroke-width="3" stroke-miterlimit="10" d="M261.806 3.5H513.52v599.714H261.806z" clip-path="url(#h)"/>
    <g clip-path="url(#h)">
      <linearGradient id="j" x1="-45.295" x2="-44.295" y1="-45.45" y2="-45.45" gradientUnits="userSpaceOnUse" gradientTransform="rotate(-90 -1177.144 31.595) scale(33.9)">
        <stop offset="0" stop-color="#A7A9AC"/>
        <stop offset="1" stop-color="#FFF"/>
      </linearGradient>
      <path fill="url(#j)" d="M332.01 389.97s-28.956-12.024-36.963-23.113c-2.188-3.03-3.082-10.787-3.082-10.787l40.044 2.31 40.04-2.31s-.9 7.756-3.08 10.787c-8.01 11.088-36.96 23.114-36.96 23.114z"/>
      <path fill="none" stroke="#7F1416" stroke-width=".177" d="M332.01 389.97s-28.956-12.024-36.963-23.113c-2.188-3.03-3.082-10.787-3.082-10.787l40.044 2.31 40.04-2.31s-.9 7.756-3.08 10.787c-8.01 11.088-36.96 23.114-36.96 23.114z"/>
      <linearGradient id="k" x1="-47.162" x2="-46.162" y1="-43.957" y2="-43.957" gradientUnits="userSpaceOnUse" gradientTransform="rotate(-90 -5038.835 -121.803) scale(119.415)">
        <stop offset="0" stop-color="#A7A9AC"/>
        <stop offset="1" stop-color="#FFF"/>
      </linearGradient>
      <path fill="url(#k)" d="M317.403 460.803c-7.59.817-15.612 5.5-21.075-12.83-9.86 3.286-17.876 1.65-21.076-12.827 0 0 21.692-51.27 38.526-73.054 5.033-6.514 10-10.255 18.23-10.255s13.2 3.74 18.232 10.255c16.834 21.783 38.525 73.054 38.525 73.054-3.2 14.477-11.215 16.113-21.074 12.828-5.46 18.33-13.48 13.646-21.07 12.83-11.93 16.717-19.06 10.84-29.21 0z"/>
      <path fill="none" stroke="#6D6E71" d="M317.403 460.803c-7.59.817-15.612 5.5-21.075-12.83-9.86 3.286-17.876 1.65-21.076-12.827 0 0 21.692-51.27 38.526-73.054 5.033-6.514 10-10.255 18.23-10.255s13.2 3.74 18.232 10.255c16.834 21.783 38.525 73.054 38.525 73.054-3.2 14.477-11.215 16.113-21.074 12.828-5.46 18.33-13.48 13.646-21.07 12.83-11.93 16.717-19.06 10.84-29.21 0z"/>
      <linearGradient id="l" x1="-46.84" x2="-45.84" y1="-44.222" y2="-44.222" gradientUnits="userSpaceOnUse" gradientTransform="rotate(-90 -3399.05 -38.353) scale(82.835)">
        <stop offset="0" stop-color="#FFF"/>
        <stop offset="1" stop-color="#A7A9AC"/>
      </linearGradient>
      <path fill="url(#l)" d="M281.902 435.078c2.277 7.962 5.337 9.612 11.935 4.938l29.217-80.244c-13.718 14.342-27.435 47.688-41.152 75.306z"/>
      <linearGradient id="m" x1="-47.097" x2="-46.097" y1="-44.015" y2="-44.015" gradientUnits="userSpaceOnUse" gradientTransform="rotate(-90 -4584.72 -102.493) scale(109.384)">
        <stop offset="0" stop-color="#FFF"/>
        <stop offset="1" stop-color="#A7A9AC"/>
      </linearGradient>
      <path fill="url(#m)" d="M323.032 458.037c5.354 7.704 14.213 8.952 18.3.447L332.38 354.97l-9.348 103.067z"/>
      <linearGradient id="n" x1="-46.998" x2="-45.998" y1="-44.085" y2="-44.085" gradientUnits="userSpaceOnUse" gradientTransform="rotate(-90 -4080.476 -72.853) scale(98.053)">
        <stop offset="0" stop-color="#FFF"/>
        <stop offset="1" stop-color="#A7A9AC"/>
      </linearGradient>
      <path fill="url(#n)" d="M301.743 447.337c3.85 7.333 7.5 10.547 13.006 4.628l13.54-94.978-26.56 90.35z"/>
      <linearGradient id="o" x1="-46.83" x2="-45.83" y1="-44.216" y2="-44.216" gradientUnits="userSpaceOnUse" gradientTransform="rotate(-90 -3368.774 -67.926) scale(82.836)">
        <stop offset="0" stop-color="#FFF"/>
        <stop offset="1" stop-color="#A7A9AC"/>
      </linearGradient>
      <path fill="url(#o)" d="M382.365 435.118c-2.276 7.962-5.337 9.612-11.933 4.938l-29.22-80.244c13.72 14.34 27.436 47.688 41.153 75.306z"/>
      <linearGradient id="p" x1="-46.999" x2="-45.999" y1="-44.085" y2="-44.085" gradientUnits="userSpaceOnUse" gradientTransform="rotate(-90 -4063.316 -90.013) scale(98.053)">
        <stop offset="0" stop-color="#FFF"/>
        <stop offset="1" stop-color="#A7A9AC"/>
      </linearGradient>
      <path fill="url(#p)" d="M362.524 447.378c-3.85 7.332-7.498 10.545-13.006 4.627l-13.547-94.978 26.56 90.35z"/>
      <linearGradient id="q" x1="-36.23" x2="-35.23" y1="-48.305" y2="-48.305" gradientUnits="userSpaceOnUse" gradientTransform="rotate(-90 -1177.144 31.595) scale(33.9)">
        <stop offset="0" stop-color="#A7A9AC"/>
        <stop offset="1" stop-color="#FFF"/>
      </linearGradient>
      <path fill="url(#q)" d="M428.81 82.664S399.857 70.64 391.85 59.55c-2.19-3.03-3.083-10.787-3.083-10.787l40.044 2.31 40.05-2.31s-.89 7.756-3.08 10.787c-8 11.09-36.96 23.114-36.96 23.114z"/>
      <path fill="none" stroke="#7F1416" stroke-width=".177" d="M428.81 82.664S399.857 70.64 391.85 59.55c-2.19-3.03-3.083-10.787-3.083-10.787l40.044 2.31 40.05-2.31s-.89 7.756-3.08 10.787c-8 11.09-36.96 23.114-36.96 23.114z"/>
      <linearGradient id="r" x1="-44.588" x2="-43.588" y1="-44.768" y2="-44.768" gradientUnits="userSpaceOnUse" gradientTransform="rotate(-90 -5038.835 -121.803) scale(119.415)">
        <stop offset="0" stop-color="#A7A9AC"/>
        <stop offset="1" stop-color="#FFF"/>
      </linearGradient>
      <path fill="url(#r)" d="M414.205 153.496c-7.59.817-15.612 5.5-21.075-12.83-9.86 3.286-17.876 1.65-21.076-12.827 0 0 21.692-51.28 38.526-73.06 5.033-6.52 10-10.26 18.23-10.26s13.2 3.74 18.232 10.25c16.834 21.78 38.525 73.05 38.525 73.05-3.2 14.47-11.215 16.11-21.074 12.82-5.465 18.33-13.484 13.64-21.076 12.83-11.934 16.71-19.058 10.84-29.212 0z"/>
      <path fill="none" stroke="#6D6E71" d="M414.205 153.496c-7.59.817-15.612 5.5-21.075-12.83-9.86 3.286-17.876 1.65-21.076-12.827 0 0 21.692-51.28 38.526-73.06 5.033-6.52 10-10.26 18.23-10.26s13.2 3.74 18.232 10.25c16.834 21.78 38.525 73.05 38.525 73.05-3.2 14.47-11.215 16.11-21.074 12.82-5.465 18.33-13.484 13.64-21.076 12.83-11.934 16.71-19.058 10.84-29.212 0z"/>
      <linearGradient id="s" x1="-43.13" x2="-42.13" y1="-45.391" y2="-45.391" gradientUnits="userSpaceOnUse" gradientTransform="rotate(-90 -3399.05 -38.353) scale(82.835)">
        <stop offset="0" stop-color="#FFF"/>
        <stop offset="1" stop-color="#A7A9AC"/>
      </linearGradient>
      <path fill="url(#s)" d="M378.704 127.77c2.277 7.963 5.337 9.613 11.935 4.94l29.21-80.245c-13.72 14.343-27.44 47.688-41.15 75.306z"/>
      <linearGradient id="t" x1="-44.288" x2="-43.288" y1="-44.9" y2="-44.9" gradientUnits="userSpaceOnUse" gradientTransform="rotate(-90 -4584.72 -102.493) scale(109.384)">
        <stop offset="0" stop-color="#FFF"/>
        <stop offset="1" stop-color="#A7A9AC"/>
      </linearGradient>
      <path fill="url(#t)" d="M419.833 150.73c5.354 7.704 14.213 8.952 18.3.447L429.18 47.664l-9.346 103.066z"/>
      <linearGradient id="u" x1="-43.865" x2="-42.864" y1="-45.072" y2="-45.072" gradientUnits="userSpaceOnUse" gradientTransform="rotate(-90 -4080.476 -72.853) scale(98.053)">
        <stop offset="0" stop-color="#FFF"/>
        <stop offset="1" stop-color="#A7A9AC"/>
      </linearGradient>
      <path fill="url(#u)" d="M398.544 140.03c3.85 7.333 7.5 10.547 13.006 4.628L425.1 49.68l-26.556 90.35z"/>
      <linearGradient id="v" x1="-43.121" x2="-42.121" y1="-45.384" y2="-45.384" gradientUnits="userSpaceOnUse" gradientTransform="rotate(-90 -3368.774 -67.926) scale(82.836)">
        <stop offset="0" stop-color="#FFF"/>
        <stop offset="1" stop-color="#A7A9AC"/>
      </linearGradient>
      <path fill="url(#v)" d="M479.167 127.812c-2.276 7.962-5.337 9.612-11.933 4.938l-29.22-80.244c13.72 14.34 27.436 47.687 41.153 75.306z"/>
      <linearGradient id="w" x1="-43.865" x2="-42.865" y1="-45.072" y2="-45.072" gradientUnits="userSpaceOnUse" gradientTransform="rotate(-90 -4063.316 -90.013) scale(98.053)">
        <stop offset="0" stop-color="#FFF"/>
        <stop offset="1" stop-color="#A7A9AC"/>
      </linearGradient>
      <path fill="url(#w)" d="M459.326 140.07c-3.85 7.333-7.498 10.546-13.006 4.628L432.773 49.72l26.553 90.35z"/>
    </g>
  </g>
  <use fill="none" stroke="#000" stroke-width="7" stroke-miterlimit="10" xlink:href="#b" overflow="visible"/>
</svg>
