<svg xmlns="http://www.w3.org/2000/svg" width="251.183" height="398.116" viewBox="0 0 306.556 485.88"><path fill="#26588d" d="M150.221 481.864c-1.489-1.489-2.437-3.58-2.437-5.373 0-2.487-.668-3.26-4.364-5.048-2.824-1.368-4.794-3.15-5.582-5.054-1.257-3.035-2.393-3.675-3.46-1.948-1.018 1.647-6.035 1.117-7.79-.823-3.51-3.878-1.41-9.682 3.86-10.67l3.494-.656-.278-11.478-.28-11.478-4.964-1.2c-13.08-3.16-33.114-12.255-43.122-19.576-7.243-5.298-20.377-18.059-28.904-28.082-17.19-20.208-38.02-60.885-44.71-87.31-3.87-15.288-5.279-22.757-8.427-44.707C.985 232.62.767 228.724 1.34 214.202c.664-16.818.797-18.187 4.386-45.023 4.193-31.363 11.1-52.85 26.86-83.571 9.676-18.862 14.471-26.242 25.462-39.186 10.826-12.75 22.764-23.174 33.475-29.232 15.489-8.76 42.731-15.492 62.694-15.492 16.08 0 45.51 7.891 59.692 16.005 16.6 9.498 33.976 26.365 48.803 47.376 18.279 25.9 33.9 65.749 38.608 98.48 2.917 20.28 3.24 24.042 3.889 45.182.533 17.372.336 24.591-.958 35.252-.896 7.373-2.07 17.204-2.609 21.846-.539 4.642-1.386 9.781-1.881 11.42-.496 1.638-1.194 4.99-1.552 7.447-.917 6.289-4.704 20.467-8.83 33.06-7.316 22.326-27.705 55.913-44.43 73.192-6.133 6.335-19.78 17.943-25.086 21.337-7.253 4.64-18.157 9.534-29.876 13.41-5.462 1.806-10.21 3.711-10.55 4.234-.342.523-.565 6.153-.497 12.513l.123 11.562 3.441.497c4.834.697 7.157 4.76 4.969 8.689-1.849 3.319-6.24 4.15-8.955 1.693-1.776-1.607-1.93-1.504-3.465 2.332-1.496 3.74-5.927 7.146-9.297 7.146-.6 0-1.091 1.052-1.091 2.337 0 6.648-9.545 10.055-14.444 5.156zm9.919-2.749c2.068-2.953 1.947-4.97-.463-7.75-3.104-3.579-2.283-4.562 2.753-3.298 3.663.92 7.056-.474 11.798-4.845 3.616-3.333 4.656-3.853 5.388-2.697.498.788.913 1.992.922 2.675.028 2.284 3.653 1.273 4.85-1.353 1.559-3.42-.011-5.35-4.353-5.35-2.45 0-4.467 1.097-8.216 4.468-6.504 5.847-9.997 6.062-13.098.806l-2.16-3.662-2.479 3.166c-4.08 5.214-6.734 4.509-18.383-4.89-1.81-1.46-3.401-1.943-5.043-1.531-2.493.626-4.74 4.203-3.996 6.36.605 1.752 5.228 1.584 5.228-.19 0-2.941 2.103-2.517 7.417 1.494 4.3 3.246 6.48 4.2 10.197 4.458 5.124.356 5.557 1.347 2.172 4.976-2.346 2.516-2.44 5.155-.268 7.554 2.234 2.469 5.86 2.286 7.734-.391zm-9.73-20.154c1.04-2.707-1.57-7.169-4.54-7.762-3.05-.61-7.023.14-7.023 1.326 0 1.328 7.884 7.944 9.467 7.944.835 0 1.778-.679 2.096-1.508zm20.675-1.574c4.714-4.14 4.578-5.855-.462-5.855-3.801 0-7.944 2.547-7.944 4.884 0 4.796 3.578 5.21 8.406.97zm-13.371-3.373c0-.819-.447-1.49-.993-1.49s-.993.671-.993 1.49c0 .82.447 1.49.993 1.49s.993-.67.993-1.49zm3.73-4.22c.286-.872-.948-1.241-4.144-1.241-4.285 0-5.475.731-3.842 2.364 1.138 1.138 7.538.238 7.985-1.123zm13.354-4.026c.653-.653.986-1.198.74-1.21-11.249-.589-36.745-.23-36.936.52-.353 1.388 6.496 1.994 21.847 1.931 8.82-.036 13.553-.445 14.349-1.241zm.79-5.656c0-1.228-1.96-1.512-11.172-1.619-6.144-.071-14.416-.242-18.383-.38-3.967-.139-7.457.143-7.755.625-1.48 2.394 1.634 2.864 18.998 2.864 15.615 0 18.312-.22 18.312-1.49zm-.247-5.71c-.305-.915-4.947-1.313-17.674-1.514-17.574-.277-20.418-.019-19.321 1.755.976 1.58 37.52 1.341 36.995-.24zm-1.433-10.173c8.33-1.452 26.662-7.434 33.492-10.928 4.971-2.543 18.44-12.572 24.79-18.46l5.461-5.064-5.958.608c-20.132 2.054-43.481 1.498-66.532-1.583-20.387-2.725-37.968-10.077-56.992-23.834l-12.307-8.899-4.43 4.287c-8.544 8.27-22.266 23.812-21.606 24.472.367.367 2.044-.897 3.726-2.808 14.218-16.15 17.63-19.461 17.63-17.116 0 .417-4.456 5.444-9.902 11.171-5.446 5.728-9.914 10.75-9.93 11.16-.072 1.884 2.668.417 4.648-2.49 3.101-4.552 12.029-13.161 12.824-12.366.366.366-2.529 4.026-6.432 8.135-3.903 4.11-7.096 8.2-7.096 9.091 0 1.116.67.728 2.15-1.244 3.895-5.187 9.152-10.312 10.578-10.312.77 0-1.33 2.92-4.67 6.49-3.34 3.57-6.058 7.257-6.04 8.193.023 1.281.647.966 2.527-1.277a1990.59 1990.59 0 0 1 4.595-5.462c1.347-1.593 2.248-2.043 2.516-1.255.229.675-1.246 3.255-3.278 5.735-3.847 4.695-4.02 7.164-.272 3.872 2.289-2.01 2.288-2.014.257 2.992-.826 2.036 9.243 9.692 19.64 14.934 21.735 10.957 49.444 15.65 70.611 11.958zm-21.16-9.631c-3.866-2.62-5.033-6.628-2.532-8.703 2.145-1.78 4.883.4 3.574 2.847-1.271 2.376-.047 3.83 3.427 4.068 4.918.338 5.467.109 6.547-2.731.8-2.104.672-3.49-.56-6.075-1.414-2.964-1.934-3.28-4.537-2.76-3.512.702-4.124-1.585-.953-3.565 1.092-.682 1.986-1.58 1.986-1.995 0-1.217-5.451-.864-6.753.438-.913.913-1.464.919-2.36.024-.895-.896-.768-1.61.546-3.062 1.403-1.55 2.37-1.746 5.324-1.08 2.142.483 4.35.417 5.433-.162 2.925-1.566 4.099-.047 2.2 2.85-1.586 2.422-1.576 2.626.195 3.898 4.809 3.455 5.345 4.315 5.345 8.57 0 5.53-3.063 8.659-9.124 9.323-3.375.37-5.018-.029-7.757-1.885zm-21.548.087c-1.749-.506-3.443-1.346-3.765-1.867-1.265-2.048 2.616-6.914 7.678-9.627 4.452-2.386 5.223-3.223 5.223-5.67 0-4.017-2.716-5.572-5.434-3.112-1.975 1.787-2.158 1.794-3.782.142-1.616-1.642-1.576-1.843.752-3.75 3.234-2.65 8.605-1.883 11.691 1.668 4.404 5.069 2.361 9.646-6.168 13.818-3.025 1.48-5.5 3.07-5.5 3.532 0 1.334 5.455 2.177 9.35 1.446 4.109-.77 4.734.604 1.353 2.973-2.429 1.7-6.51 1.86-11.398.447zm-23.733-9.229c-3.077-3.077-3.909-5.38-3.445-9.533.092-.82 1.51-2.734 3.153-4.256 2.007-1.86 2.797-3.36 2.41-4.578-.328-1.036.22-2.793 1.28-4.102 4.845-5.984 16.618.685 14.7 8.328-.344 1.37-1.498 2.767-2.564 3.105-1.615.513-1.78 1.033-.991 3.11 2.538 6.676-.366 11.302-7.095 11.302-3.306 0-4.706-.634-7.448-3.376zm9.312-2.142c2.74-1.918 2.826-4.786.221-7.39-3.618-3.62-8.937-1.542-8.937 3.49 0 2.243 3.212 5.446 5.462 5.446.576 0 2.04-.695 3.254-1.546zm4.393-12.894c.989-2.17.844-2.831-1.028-4.704-1.724-1.724-2.538-1.953-3.902-1.097-2.435 1.526-2.79 5.453-.636 7.028 2.654 1.94 4.287 1.58 5.566-1.227zm-29.312 5.217c-3.695-2.112-4.715-5.447-1.501-4.91 2.168.363 8.27-9.311 8.27-13.111 0-2.579.45-3.058 3.476-3.713 1.912-.413 4.07-.543 4.798-.289 1.424.498.712 1.926-7.035 14.107-2.168 3.408-3.688 6.857-3.378 7.664.927 2.416-.688 2.504-4.63.252zm121.462-12.185c0-.787-.447-1.431-.993-1.431s-.993-.67-.993-1.49c0-1.69-1.555-1.996-2.487-.489-.34.55.08 1.268.935 1.596.854.327 1.552 1.468 1.552 2.534 0 1.066.447 1.662.993 1.325.546-.338.993-1.258.993-2.045zm4.416.47a1.11 1.11 0 0 0-1.522-.36 1.11 1.11 0 0 0-.359 1.523 1.11 1.11 0 0 0 1.522.36 1.11 1.11 0 0 0 .36-1.523zm5.514.582c0-.82-.447-1.49-.993-1.49s-.993.67-.993 1.49c0 .819.447 1.49.993 1.49s.993-.671.993-1.49zm-14.125-.67c-.473-1.42-5.735-2.267-5.735-.923 0 .822 1.298 1.3 5.296 1.954.455.074.653-.39.44-1.03zm18.541-.905a1.11 1.11 0 0 0-1.521-.36 1.11 1.11 0 0 0-.36 1.523 1.11 1.11 0 0 0 1.522.36 1.11 1.11 0 0 0 .36-1.523zm4.67.582c0-.52-.48-1.104-1.067-1.3-.587-.195-1.068.39-1.068 1.3s.48 1.494 1.068 1.299c.587-.196 1.067-.78 1.067-1.3zm-57.6-4.469c.353-2.458.977-5.525 1.387-6.816.635-1.995.464-2.263-1.137-1.785-1.035.31-3.223.866-4.862 1.236-5.173 1.169-20.815 6.47-21.727 7.363-.902.884.097 1.134 13.783 3.453 11.45 1.94 11.798 1.844 12.557-3.451zm15.196 2.894a1.11 1.11 0 0 0-1.522-.36 1.11 1.11 0 0 0-.36 1.523 1.11 1.11 0 0 0 1.523.36 1.11 1.11 0 0 0 .36-1.523zm3.135-.64c-1.01-1.008-1.842.511-1.014 1.851.626 1.013.86 1.013 1.196 0 .23-.69.148-1.524-.182-1.854zm4.746.973c.338-.955.874-2.296 1.192-2.979.318-.682.147-1.241-.381-1.241s-1.236.782-1.573 1.738c-.337.956-.874 2.296-1.192 2.979-.318.682-.146 1.241.382 1.241.527 0 1.235-.782 1.572-1.738zm3.591.745a.996.996 0 0 0-.993-.993.996.996 0 0 0-.993.993c0 .546.447.993.993.993a.996.996 0 0 0 .993-.993zm35.748 0c0-.546-.42-.993-.934-.993s-1.21.447-1.548.993c-.338.546.083.993.934.993.852 0 1.548-.447 1.548-.993zm5.242-2.123c1.24-.81-.095-3.071-1.354-2.293-.518.32-.703.966-.412 1.437.29.47.067 1.14-.496 1.49-.564.348-.713 1.139-.331 1.757.48.777.837.68 1.158-.317.255-.792.9-1.726 1.435-2.074zm-55.184-2.23c-.44-1.32-5.666-1.917-5.666-.646 0 .565.67 1.027 1.49 1.027.873 0 1.502.924 1.52 2.234.031 2.188.063 2.194 1.503.289.81-1.07 1.328-2.377 1.153-2.904zm-107.816-10.13c6.755-7.42 12.415-13.848 12.576-14.286.24-.65-7.877-12.216-10.689-15.234-.414-.444-5.617 3.038-11.563 7.738-5.946 4.7-12.693 9.979-14.994 11.73-2.3 1.752-4.2 3.568-4.22 4.035-.07 1.587 14.454 19.507 15.81 19.507.438 0 6.325-6.07 13.08-13.49zm-8.69-7.812c-.77-2.007.375-3.523 2.66-3.523 2.21 0 2.323.385.9 3.044-1.219 2.277-2.789 2.488-3.56.479zm145.056 20.378c.315-.509.118-1.205-.438-1.549-.555-.343-1.009.073-1.009.925 0 1.744.596 2 1.447.624zm4.66-.566c0-.518-.48-1.103-1.067-1.299-.587-.195-1.068.39-1.068 1.3s.48 1.494 1.068 1.299c.587-.196 1.067-.78 1.067-1.3zm4.816 0c0-.819-.42-1.489-.934-1.489-1.252 0-2.149 1.55-1.356 2.344 1.119 1.118 2.29.681 2.29-.855zm-21.846-.496a.996.996 0 0 0-.993-.993.996.996 0 0 0-.993.993c0 .546.447.993.993.993a.996.996 0 0 0 .993-.993zm26.315 0c-.338-.546-1.034-.993-1.548-.993s-.935.447-.935.993.697.993 1.548.993c.852 0 1.272-.447.935-.993zm8.937 0c.338-.546-.083-.993-.934-.993-.852 0-1.549.447-1.549.993s.42.993.935.993c.514 0 1.21-.447 1.548-.993zm-42.203-4.162c0-.442-.67-.803-1.49-.803-.97 0-1.478.951-1.457 2.73.03 2.616.093 2.65 1.49.804.801-1.06 1.457-2.29 1.457-2.73zm50.644 2.63c0-.295-.897-1.5-1.992-2.675-1.573-1.689-2.247-1.882-3.21-.919-.963.963-.753 1.34.998 1.799 1.22.319 2.218.974 2.218 1.457 0 .482.446.877.993.877.546 0 .993-.242.993-.538zm-37.735-1.944c0-.819-.42-1.49-.934-1.49-1.252 0-2.15 1.552-1.356 2.345 1.118 1.118 2.29.681 2.29-.855zm3.972 0c0-.819-.447-1.49-.993-1.49s-.993.671-.993 1.49c0 .82.447 1.49.993 1.49s.993-.67.993-1.49zm4.121 0c0-.518-.48-1.103-1.067-1.299-.587-.196-1.068.39-1.068 1.3s.48 1.494 1.068 1.299c.587-.196 1.067-.78 1.067-1.3zm5.593-.343c.285-.854-.193-1.212-1.325-.993-.973.189-1.97.945-2.215 1.68-.284.854.193 1.212 1.325.993.974-.19 1.97-.945 2.215-1.68zm4.188.343c0-.819-.446-1.49-.993-1.49-.546 0-.993.671-.993 1.49 0 .82.447 1.49.993 1.49.547 0 .993-.67.993-1.49zm3.972 0c0-.819-.446-1.49-.993-1.49-.546 0-.993.671-.993 1.49 0 .82.447 1.49.993 1.49.547 0 .993-.67.993-1.49zm4.623-.042c.323-.843.32-1.8-.007-2.128-.859-.858-3.705 1.73-3.056 2.78.847 1.37 2.415 1.037 3.063-.652zm-84.12-1.992c1.003-.373.406-1.154-1.985-2.598-9.754-5.888-32.938-27.802-43.952-41.542C92.514 313.855 79.51 290.37 73.05 271.3c-9.072-26.774-14.54-54.185-17.036-85.4-1.094-13.681-1.28-14.571-2.289-10.922-2.255 8.157-3.535 19.333-4 34.933-.597 20.046 1.19 34.104 7.234 56.925 6.168 23.288 11.208 36.72 20.376 54.297 10.098 19.365 19.782 29.833 41.252 44.594 14.216 9.774 17.78 11.2 25.427 10.172 3.44-.463 6.898-1.081 7.687-1.375zm40.77 1.538c0-.546-.42-.993-.934-.993s-1.211.447-1.548.993c-.338.546.082.993.934.993.851 0 1.548-.447 1.548-.993zm7.944 0a.996.996 0 0 0-.993-.993.996.996 0 0 0-.993.993c0 .546.447.993.993.993a.996.996 0 0 0 .993-.993zm4.965.555c0-.24-.447-.714-.993-1.051-.546-.338-.993-.141-.993.437 0 .579.447 1.052.993 1.052s.993-.197.993-.438zm34.756-.555a.996.996 0 0 0-.994-.993.996.996 0 0 0-.993.993c0 .546.447.993.993.993a.996.996 0 0 0 .994-.993zm11.916-2.55a294.245 294.245 0 0 1 5.312-7.173c2.728-3.549 16.534-26.397 16.534-27.362 0-.26 1.523-3.752 3.385-7.76 9.64-20.755 13.312-33.13 18.81-63.393 3.718-20.476 4.08-24.788 3.99-47.665-.132-33.338-2.295-52.523-8.902-78.944-8.892-35.556-30.071-74.684-52.497-96.984-20.175-20.062-30.3-25.87-57.136-32.778-11.492-2.958-13.629-3.197-28.797-3.222-16.763-.027-22.781.768-34.756 4.592-8.72 2.785-29.485 12.858-33.687 16.342-1.87 1.55-6.115 5.074-9.433 7.83C58.483 50.612 39.48 79.12 27.91 107.455c-10.775 26.389-17.614 56.7-20.141 89.267-1.745 22.487-1.052 39.504 2.592 63.656 2.685 17.795 10.369 47.168 12.338 47.168.459 0 .77.842.693 1.871-.245 3.258 12.232 29.979 19.463 41.68 5.304 8.583 5.523 8.838 6.425 7.5.38-.564 5.648-4.796 11.706-9.405 10.856-8.26 18.279-14.412 18.279-15.152 0-.207-2.291-4.578-5.091-9.712-23.48-43.046-34.098-95.663-27.688-137.193 1.893-12.262 6.08-30.284 7.613-32.764.412-.667.829-14.024.926-29.683.098-15.659.48-28.958.848-29.555.42-.68 4.873-1.084 11.962-1.084H79.13l5.62-7.975c7.88-11.181 20.555-21.883 33.838-28.572 14.394-7.248 29.614-9.995 45.324-8.18 17.102 1.976 25.077 5.062 39.978 15.472 10.063 7.03 17.722 14.513 22.223 21.71l3.044 4.869 10.658.097 10.657.097.843 3.475c.463 1.912 1.081 17.775 1.373 35.252.394 23.537.906 33.064 1.975 36.741 7.448 25.61 8.46 66.708 2.385 96.905-2.516 12.508-5.608 23.905-8.464 31.194-1.284 3.277-3.071 8.192-3.972 10.923-2.34 7.098-12.627 27.743-17.317 34.755-2.192 3.277-3.998 6.37-4.014 6.873-.015.503-.798 1.765-1.738 2.805-1.65 1.822-1.614 1.866.993 1.212 2.15-.54 2.703-.332 2.703 1.012 0 .93.917 1.93 2.037 2.222 1.683.44 1.933 1.07 1.443 3.631-.55 2.866-.484 2.96.876 1.261.809-1.01 1.947-1.543 2.53-1.183 1.339.828 1.39 3.517.065 3.517-.546 0-.993.496-.993 1.103 0 .72 1.186.881 3.403.466 3.013-.566 3.439-.38 3.724 1.627.231 1.633 1.084 2.353 3.052 2.58 2.16.248 2.73.828 2.73 2.774 0 1.792.472 2.38 1.738 2.168 1.16-.195 1.844.451 2.055 1.943.432 3.038 1.24 2.784 4.152-1.31zm-1.216-9.92c-.305-.305-.082-1.806.496-3.337.77-2.038.694-4.478-.283-9.127-1.119-5.327-1.982-6.944-5.378-10.07-2.629-2.42-5.001-3.723-6.776-3.723-3.49 0-3.434-.712.46-5.778 3.628-4.72 4.753-5.155 4.753-1.838 0 3.738 3.62 4.956 13.226 4.452 5.759-.302 9.25-.993 11.083-2.194 1.47-.964 2.915-1.511 3.21-1.217.54.542-4.135 10.243-5.778 11.987-.557.591-1.332.499-2.08-.249-.655-.655-3.336-1.191-5.958-1.191h-4.766v3.41c0 4.576 1.594 8.506 3.45 8.506 2.136 0 1.895 1.48-1.062 6.526-2.487 4.243-3.419 5.022-4.597 3.843zM46.512 340.56c-1.922-.964-4.483-3.503-5.76-5.708-2.991-5.172-2.458-13.449 1.246-19.316 3.054-4.838 5.126-6.006 10.655-6.006 6.107 0 10.787 2.776 13.456 7.98 5.886 11.48-.91 24.786-12.661 24.786-1.912 0-5.033-.78-6.936-1.736zm11.051-8.276c4.899-2.482 8.406-9.415 6.68-13.203-1.208-2.652-2.088-2.966-7.306-2.605-9.79.675-18.141 12.023-12.788 17.376 1.959 1.959 7.802 1.275 13.414-1.568zm212.626-6.89c-2.152-.866-2.24-3.948-.114-3.948 1.253 0 5.807-4.615 5.807-5.884 0-1.67-16.997-9.197-19.404-8.593-1.181.297-2.415.271-2.743-.057-.818-.818 2.883-10.32 4.746-12.183 1.355-1.355 1.513-1.237 1.513 1.134 0 2.218 1.018 3.216 6.285 6.162 3.458 1.933 7.681 3.794 9.386 4.135 2.748.55 3.175.322 3.757-1.995.361-1.439.445-3.722.187-5.074-.63-3.292 1.318-4.846 3.799-3.032 1.854 1.356 1.822 1.623-1.264 10.696-4.103 12.061-7.498 19.67-8.745 19.592-.546-.034-1.99-.463-3.21-.954zM31.983 312.886c-.859-2.056-1.802-5.217-2.095-7.022-.461-2.845-.253-3.284 1.558-3.284 1.31 0 2.656-1.093 3.605-2.93 2.133-4.124 1.983-4.529-2.302-6.212-3.454-1.357-3.918-1.348-4.872.097-.892 1.35-1.3 1.027-2.637-2.095-2.666-6.219-1.718-10 1.523-6.077 1.269 1.536 11.745 6.732 12.275 6.088 1.112-1.354 3.246-6.344 5.008-11.71 2.377-7.243 4.41-8.304 5.704-2.98a549.302 549.302 0 0 0 1.682 6.703c.73 2.813.591 3.228-1.072 3.228-2.418 0-5.769 6.436-4.179 8.026.58.58 2.994 1.2 5.362 1.376 3.939.294 4.474.668 6.27 4.376 2.296 4.74 1.536 6.3-1.639 3.367-2.514-2.323-9.014-5.23-11.694-5.23-1.957 0-8.907 11.604-8.907 14.872 0 3.507-2.015 3.175-3.59-.593zM281.84 287.59c0-.598.852-2.285 1.894-3.748 1.041-1.462 2.047-4.62 2.234-7.015.321-4.106.17-4.403-2.639-5.185-4.23-1.177-5.172-.526-5.955 4.112-.52 3.08-1.1 4.014-2.333 3.768-1.144-.227-1.516-1.072-1.226-2.785 1.118-6.616.8-7.404-3.113-7.729-3.31-.275-3.769-.019-4.454 2.483-.42 1.533-.712 5.134-.649 8.002.082 3.761-.258 5.213-1.221 5.213-3.5 0-3.507-3.974-.033-19.677.884-3.995 1.607-7.458 1.607-7.696 0-1.344 1.82-.094 2.712 1.863.89 1.951 2.283 2.484 9.317 3.56 8.096 1.24 8.309 1.22 10.062-.945 2.651-3.274 3.215-1.685 1.912 5.389-.64 3.473-1.164 7.873-1.164 9.776 0 4.004-1.82 9.88-3.39 10.942-1.61 1.089-3.561.909-3.561-.328zM21.767 274.528c-1.306-3.442-2.897-12.398-3.62-20.38-.7-7.735.169-10.155 3.646-10.155 1.994 0 2.51 1.47.871 2.482-1.075.665-1.374 11.256-.39 13.821.626 1.632 4.943 2.118 7.03.792 1.915-1.219.464-8.88-1.794-9.47-3.186-.833-2.059-2.376 2.238-3.063 4.655-.744 5.648-.287 3.913 1.803-.661.797-1.06 2.93-.886 4.741.308 3.212.421 3.287 4.652 3.093 2.386-.11 5.133-.92 6.105-1.8 1.667-1.509 1.806-1.327 2.425 3.179.914 6.646.947 6.562-2.677 6.933-1.788.184-6.6 1.388-10.692 2.675-6.583 2.072-7.477 2.644-7.755 4.962-.385 3.209-1.921 3.402-3.066.387zm267.024-20.655c-2.21-2.909-17.206-4.834-19.747-2.535-.97.878-2.063 1.297-2.428.932-1.038-1.038-.75-11.58.363-13.242.867-1.296 1.178-1.253 2.392.335.999 1.306 3.594 2.097 9.13 2.785 8.575 1.064 12.276.567 12.276-1.65 0-.809.644-1.47 1.432-1.47 1.163 0 1.334 1.35.91 7.199-.759 10.478-1.365 11.548-4.328 7.646zM26.14 235.336c-3.183-.774-8.308-5.088-10.053-8.462-2.072-4.006-1.216-13.557 1.626-18.156 5.339-8.638 17.517-7.793 22.349 1.55 3.978 7.693-.253 21.289-7.532 24.2-2.171.87-4.05 1.529-4.176 1.465-.125-.063-1.122-.332-2.214-.597zm9.526-11.788c5.643-5.407 2.006-12.005-7.178-13.024-3.628-.403-4.816-.065-7.29 2.072-3.968 3.427-4.22 9.733-.508 12.739 3.61 2.922 10.978 2.043 14.976-1.787zm234.567 5.899c-1.013-1.546-1.863-5.128-2.063-8.689-.395-7.045 1.623-11.252 6.958-14.505 6.25-3.811 11.777-1.626 15.793 6.245 1.683 3.3 1.942 5.014 1.374 9.092-.386 2.763-.69 5.806-.675 6.76.034 2.24-3.628 4.317-5.07 2.876-.716-.716-.57-1.742.478-3.34.832-1.27 1.83-4.193 2.22-6.497.64-3.793.425-4.471-2.28-7.177-3.34-3.34-5.83-3.704-10.126-1.482-5.245 2.712-7.3 9.372-4.436 14.381 2.848 4.981.918 7.054-2.173 2.336zm4.16-29.858c-3.686-.554-6.108-2.664-8.547-7.442-3.604-7.062-1.91-14.818 4.46-20.411 8.737-7.671 20.471-.732 20.471 12.106 0 10.192-7.216 17.127-16.385 15.747zm10.35-9.804c2.496-2.1 3.055-3.315 3.055-6.639 0-5.778-2.92-8.664-8.767-8.664-3.907 0-4.915.49-8.268 4.014-4.188 4.403-4.877 7.934-2.272 11.653 1.298 1.854 2.477 2.207 7.371 2.207 4.819 0 6.354-.444 8.88-2.57zm-268.584 5.469c-.816-1.322.32-14.886 1.69-20.184 1.223-4.725 5.785-9.525 9.054-9.525 2.916 0 5.691 2.838 5.691 5.819 0 1.203.606 2.42 1.346 2.704 1.794.688 8.585-3.382 8.585-5.146 0-.765.67-1.391 1.489-1.391 1.87 0 1.913 3.022.104 7.353-1.08 2.583-2.339 3.62-5.693 4.685-3.192 1.014-4.553 2.075-5.262 4.103-1.284 3.678.388 5.209 5.69 5.209 4.143 0 4.166.02 3.89 3.423-.154 1.882-.445 3.589-.648 3.792-.203.203-2.953-.109-6.11-.693-7.239-1.338-17.293-1.377-17.293-.068 0 1.323-1.698 1.269-2.533-.082zm14.45-13.495c0-6.551-1.797-9.263-6.137-9.263-3.385 0-4.787 2.763-4.787 9.432 0 4.663.346 4.887 8.193 5.314 2.675.146 2.73.035 2.73-5.483zm231.888-18.586c-1.304-1.304-2.657-4.097-3.005-6.206-.349-2.11-1.125-4.841-1.725-6.071-.88-1.805-.642-3.193 1.235-7.2 1.278-2.729 2.966-4.962 3.75-4.962.832 0 1.198.594.878 1.427-3.458 9.014-3.067 17.83.872 19.624 4.218 1.922 5.367-.199 5.131-9.47-.18-7.079.086-8.515 2.096-11.333 3.205-4.494 7.2-4.464 9.876.072 2.593 4.396 4.562 15.433 3.073 17.227-.603.726-1.663 1.32-2.358 1.32-.982 0-1.034-.897-.237-4.038.75-2.959.693-5.149-.215-8.193-1.433-4.798-2.678-5.89-5.188-4.547-1.99 1.065-2.42 6.06-.871 10.13 1.319 3.47-.652 10.264-3.665 12.634-3.326 2.617-6.764 2.47-9.647-.414zm-217.684-.835c-.824-1.809-2.611-2.619-8.86-4.015-9.149-2.045-11.473-2.14-13.074-.54-.646.646-1.507.843-1.912.437-1.09-1.09 3.305-17.151 5.796-21.181 2.526-4.087 7.263-7.234 10.898-7.239 4.053-.006 9.1 4 11.733 9.311 2.398 4.837 2.4 4.853.74 11.915-.913 3.89-1.77 8.377-1.904 9.974-.305 3.636-2.057 4.322-3.417 1.338zm3.007-11.118c.795-2.072-1.169-8.36-3.266-10.457-2.326-2.326-11.024-3.593-13.943-2.03-2.129 1.138-5.57 7.674-4.568 8.676.766.765 16.637 5.033 19.106 5.137 1.17.05 2.373-.547 2.671-1.326zm172.722-77.737c-1.27-1.938-1.82-5.316-2.1-12.877-.21-5.638-.744-10.25-1.188-10.25-1.872 0-6.996 7.516-6.601 9.682.557 3.053-2.262 2.958-5.206-.175-2.284-2.432-2.099-4.878.3-3.957 1.255.481 9.113-7.873 11.301-12.015.58-1.099.82-3.221.535-4.717-.738-3.86 1.951-3.585 4.97.507 2.177 2.95 2.4 4.289 2.602 15.597.121 6.804.444 12.732.717 13.174.817 1.32 2.323-.148 5.926-5.78 2.53-3.955 3.252-5.986 2.788-7.835-.791-3.154.552-3.175 3.913-.06 3.115 2.887 3.363 4.516.686 4.516-1.258 0-4.036 2.751-7.893 7.818-3.273 4.3-6.644 8.084-7.49 8.409-.985.378-2.158-.355-3.26-2.037zm-144.08-7.338c-5.575-5.675-7.333-6.92-9.012-6.388-3.504 1.113-2.482-1.923 2.134-6.337 4.86-4.649 5.71-4.917 5.71-1.805 0 2.613 6.848 11.314 10.984 13.954 4.328 2.764 8.035 1.876 10.14-2.429 2.15-4.397 1.478-6.615-4.53-14.94-3.434-4.758-4.581-5.701-6.416-5.276-3.093.718-2.991-2.434.175-5.408 2.752-2.586 4.542-2.026 4.542 1.42 0 1.301.457 2.648 1.015 2.993.558.345 2.866 3.132 5.128 6.194 5.713 7.733 6.296 13.347 1.906 18.346-1.703 1.94-4.613 4.246-6.467 5.126-5.994 2.844-7.79 2.205-15.31-5.45zM110.4 53.086c.053-5.016-4.995-21.534-6.645-21.745a53.09 53.09 0 0 0-3.052-.248c-3.086-.164-2.925-2.349.296-4.015 3.274-1.693 7.7-2.056 8.223-.674.39 1.03 18.147 10.05 19.785 10.05 1.16 0 .77-3.678-1.183-11.172-.722-2.772-1.489-3.724-3-3.724-3.486 0-1.49-2.205 3.411-3.769 5.283-1.686 6.773-1.107 4.27 1.659-1.496 1.652-1.566 2.677-.594 8.695.606 3.751 1.786 9.227 2.622 12.167 1.13 3.975 1.225 5.527.371 6.055-.631.39-6.026-1.68-11.987-4.6-5.962-2.922-11.296-5.311-11.854-5.311-1.346 0-1.262.486 1.28 7.447 1.438 3.94 2.931 6.29 4.409 6.938 3.007 1.32 2.82 2.168-.993 4.493-4.655 2.838-5.41 2.522-5.359-2.246zm75.646-3.414c-3.884-1.07-8.393-5.497-10.07-9.887-1.595-4.178-1.598-4.787-.049-9.702 1.873-5.94 3.894-8.168 8.647-9.532 7.302-2.094 17.923 4.66 19.358 12.31.887 4.727-1.83 11.952-5.505 14.634-2.64 1.927-9.138 3.07-12.38 2.177zm7.002-4.923c5.283-3.462 7.22-14.448 3.206-18.187-2.579-2.402-7.434-2.637-10.476-.506-4.524 3.169-5.617 14.067-1.795 17.89 2.843 2.843 5.58 3.086 9.065.803zm-45.264-1.286c0-.514.446-1.21.993-1.548.557-.344.993-5.067.993-10.761 0-8.989-.232-10.346-2.029-11.884-3.054-2.615-1.504-3.67 5.397-3.67 7.23 0 8.281.583 5.341 2.964-1.903 1.54-2.135 2.748-2.192 11.376-.054 8.29.196 9.842 1.774 10.996 1.01.739 1.543 1.82 1.183 2.403-.807 1.305-11.46 1.42-11.46.124zm41.055 325.92c8.002-5.284 19.997-14.762 22.994-18.168l1.986-2.257-4.469.692c-9.905 1.534-22.188 9.81-27.051 18.226-4.557 7.885-3.489 8.132 6.54 1.508zm8.744 3.204c0-.518-.48-1.103-1.067-1.299-.588-.196-1.068.39-1.068 1.3s.48 1.494 1.068 1.299c.587-.196 1.067-.78 1.067-1.3zm4.816-.496c0-1.092.447-1.986.993-1.986s.993-.703.993-1.563c0-2.015-3.466-1.435-3.502.586-.014.81-.337 1.97-.717 2.576-.38.607-.406 1.389-.057 1.738 1.234 1.234 2.29.61 2.29-1.351zm3.972.496c0-.819-.447-1.49-.993-1.49s-.993.671-.993 1.49c0 .82.447 1.49.993 1.49s.993-.67.993-1.49zm4.047.224c-.123-1.187-1.485-.958-1.912.323-.218.655.14 1.012.795.794.655-.218 1.158-.721 1.117-1.117zm4.89-.224c0-.819-.447-1.49-.993-1.49s-.993.671-.993 1.49c0 .82.447 1.49.993 1.49s.993-.67.993-1.49zm4.965-1.051c0-1.639-1.57-1.916-2.482-.438-.81 1.31.377 3.17 1.558 2.44.508-.314.924-1.215.924-2.002zm4.568-1.034c-.48-1.253-.959-1.424-1.753-.63-.6.6-.795 1.867-.431 2.815.48 1.252.958 1.424 1.753.63.6-.601.795-1.868.431-2.815zm4.37 1.034c0-.787-.447-1.431-.994-1.431-.546 0-.993.92-.993 2.045 0 1.124.447 1.768.993 1.43.547-.337.993-1.257.993-2.044zm-61.712-2.764c3.471-1.725 10.255-6.127 15.077-9.784 12.882-9.77 21.564-13.675 30.458-13.698 3.265-.01 4.744-.608 6.757-2.741 2.664-2.824 11.405-15.46 11.405-16.489 0-.32 1.068-2.941 2.372-5.824 5.643-12.477 6.537-14.548 8.076-18.718 6.945-18.81 10.58-33.378 13.863-55.541 1.32-8.91 1.593-15.898 1.246-31.777-.245-11.195-.733-21.695-1.085-23.333-.352-1.639-.902-4.53-1.222-6.426-.938-5.552-2.079-1.667-2.76 9.405-.726 11.778-2.191 24.823-3.63 32.323-.57 2.976-1.273 6.975-1.561 8.887-2.24 14.87-14.945 49.741-24.929 68.424l-7.609 14.235c-3.824 7.15-14.779 20.731-23.918 29.654-9.751 9.521-16.417 14.482-27.512 20.474-11.389 6.152-7.137 6.946 4.972.929zm66.18 2.491c0-1.796-1.944-1.468-2.33.393-.214 1.036.159 1.49.994 1.211.735-.245 1.336-.966 1.336-1.604zm4.468-.72c0-.787-.399-1.431-.886-1.431-1.096 0-2.164 2.576-1.39 3.351.87.87 2.276-.317 2.276-1.92zm4.121 1.051c0-.518-.48-1.103-1.067-1.299-.587-.196-1.067.39-1.067 1.3s.48 1.494 1.067 1.299c.587-.196 1.067-.78 1.067-1.3zm-33.91-2.979c0-.819-.421-1.49-.935-1.49-1.252 0-2.15 1.551-1.356 2.345 1.118 1.118 2.29.681 2.29-.855zm3.971 0c0-.819-.447-1.49-.993-1.49s-.993.671-.993 1.49c0 .82.447 1.49.993 1.49s.993-.67.993-1.49zm3.58-1.22c-1.01-1.01-1.843.51-1.015 1.85.626 1.012.86 1.013 1.196 0 .23-.69.148-1.524-.182-1.854zm6.123-.083c.216-.648-.315-1.179-1.18-1.179-.864 0-1.572.708-1.572 1.572 0 1.754 2.138 1.449 2.752-.393zm13.881-.765c-.946-.946-2.843.586-2.138 1.727.419.679.974.661 1.688-.051.584-.585.787-1.339.45-1.676zm-8.689.58c0-.547-.67-.994-1.49-.994-.818 0-1.489.447-1.489.993s.67.993 1.49.993 1.49-.447 1.49-.993zm3.423-1.079a1.11 1.11 0 0 0-1.521-.359 1.11 1.11 0 0 0-.36 1.522 1.11 1.11 0 0 0 1.522.36 1.11 1.11 0 0 0 .36-1.523zm-72.912-1.156c2.697-1.229 4.912-2.57 4.924-2.98.01-.409-4.002-.744-8.917-.744-4.916 0-8.937.283-8.937.63 0 1.07 5.387 5.326 6.743 5.327.706 0 3.49-1.004 6.187-2.233zm51.615-.295c0-.611-1.005-1-2.234-.863-2.973.33-2.917.301-2.366 1.193.742 1.201 4.6.924 4.6-.33zm4.965.046c0-.819-.42-1.489-.934-1.489-1.252 0-2.15 1.55-1.356 2.344 1.119 1.118 2.29.681 2.29-.855zm4.985-.023c.691-.833.988-1.782.661-2.109-1.017-1.017-3.66.5-3.66 2.102 0 1.944 1.388 1.948 3 .01zm5.372-2.571c-1.001-1.621-2.413-.904-2.413 1.227 0 1.754.248 1.901 1.479.88.813-.675 1.234-1.623.934-2.107zm3.545 1.105a.996.996 0 0 0-.993-.993.996.996 0 0 0-.993.993c0 .546.447.993.993.993a.996.996 0 0 0 .993-.993zm-15.888-2.541c0-.851-.447-1.272-.993-.934-.546.337-.993 1.034-.993 1.548s.447.934.993.934.993-.697.993-1.548zm4.965-1.017c0-.865-.53-1.396-1.179-1.18-1.841.614-2.147 2.752-.393 2.752.865 0 1.572-.707 1.572-1.572zm3.972-1.466c0-.513-.447-.934-.993-.934s-.993.697-.993 1.548c0 .852.447 1.272.993.935.546-.338.993-1.035.993-1.549zm-50.74-.686c6.008-3.43 4.794-4.215-6.637-4.292-5.854-.04-14.777-.283-19.83-.542-5.051-.258-9.185-.138-9.185.266 0 .405 1.201 1.99 2.669 3.521l2.668 2.785h13.636c11.165 0 14.187-.315 16.68-1.738zm56.132.859c.299-.484-.569-1.092-1.928-1.352-1.654-.316-2.47-.026-2.47.88 0 1.49 3.534 1.87 4.398.472zm-7.807-3.854c-.9-.9-3.67.746-3.02 1.795.444.72 1.093.678 2.072-.134.784-.65 1.21-1.398.948-1.66zm4.401-.232c0-.546-.197-.993-.438-.993-.24 0-.714.447-1.051.993-.338.546-.14.993.438.993.578 0 1.051-.447 1.051-.993zm-40.716-6.454l3.115-2.98-30.105-.496c-16.558-.273-30.298-.378-30.534-.233-.236.144.974 1.708 2.689 3.475l3.117 3.213h48.604l3.114-2.98zm9.37-8.938c1.457-1.911 2.516-3.513 2.351-3.56-2.07-.588-78.25-.892-78.25-.313 0 .44 1.428 2.273 3.174 4.074l3.174 3.275h66.9l2.65-3.476zm7.348-8.815c1.399-1.4 2.344-2.725 2.1-2.947-.629-.57-92.298-1.494-92.298-.93 0 .254.934 1.65 2.075 3.102l2.075 2.64 28.957.496c15.926.273 34.714.426 41.752.34 12.307-.152 12.892-.255 15.339-2.701zm6.13-8.57c1.208-1.697 2.036-3.222 1.84-3.388-1.004-.853-105.119-1.382-105.119-.535 0 .523.375.952.834.952.458 0 1.336 1.104 1.951 2.453 1.299 2.85-.112 2.776 62.9 3.306l35.397.297 2.197-3.085zm5.897-8.329c.76-1.42 1.123-2.842.807-3.159-1.042-1.041-41.731-1.264-44.382-.242-5.016 1.933-20.073 2.193-26.066.451-4.322-1.256-9.974-1.622-25.04-1.622-10.703 0-19.46.266-19.46.591 0 .325.845 1.778 1.877 3.227l1.877 2.636 54.502.351 54.502.35 1.383-2.583zm-47.623-4.662c4.51-.968 5.489-1.682 9.18-6.703 2.272-3.091 6.501-7.946 9.398-10.79 4.922-4.83 6.663-8.236 4.21-8.236-.58 0-2.133 1.28-3.45 2.844-1.316 1.565-4.887 4.134-7.936 5.71-5.375 2.779-5.586 2.809-6.942.986-1.341-1.804-1.515-1.754-4.318 1.246-5.38 5.759-8.725 1.334-7.683-10.16.72-7.954-.24-10.138-3.17-7.207-1.35 1.35-1.412 2.11-.401 4.904 1.69 4.674 1.486 7.644-.78 11.36-2.424 3.976-3.336 4.02-6.086.3l-2.163-2.925-1.91 2.43c-1.052 1.335-2.685 2.429-3.631 2.429-2.644 0-11.192-5.806-11.763-7.989-.324-1.242-1.36-1.942-2.874-1.942-1.827 0-2.367.536-2.367 2.35 0 1.874.977 2.757 4.817 4.352 4.172 1.734 5.336 2.905 8.69 8.735 3.043 5.293 4.614 7 7.347 7.985 4.377 1.578 15.229 1.737 21.832.32zm-10.863-5.316c-1.511-1.82-.543-3.531 1.998-3.531 2.228 0 2.554 2.215.57 3.862-1.031.856-1.65.776-2.568-.331zm-13.268-.928c-.587-1.53 1.072-3.596 2.887-3.596 1.698 0 2.436 2.536 1.121 3.85-1.518 1.52-3.373 1.401-4.008-.254zm24.522-.073c-.712-1.855.328-3.523 2.195-3.523 2.03 0 2.984 2.988 1.296 4.057-1.974 1.25-2.858 1.115-3.49-.534zm-29.175 4.122c0-.71-.547-2.452-1.216-3.87l-1.217-2.577-19.282-.073c-10.606-.041-19.664.162-20.13.45-.466.288-.172 1.829.654 3.424l1.5 2.902 19.1.292c10.506.16 19.437.394 19.847.518.41.124.744-.356.744-1.066zm80.191.05c.546-.682 1.301-2.246 1.678-3.475l.685-2.234h-40.703l-2.058 2.616c-1.132 1.44-2.058 3.003-2.058 3.476 0 1.447 41.29 1.075 42.456-.382zm-85.156-8.632c0-1.247-4.04-4.028-5.852-4.028-.791 0-2.144-.559-3.007-1.241-1.17-.927-5.652-1.116-17.666-.745l-16.098.496 2.045 3.228 2.046 3.227h19.266c11.41 0 19.266-.382 19.266-.937zm90.33-.984c2.652-4.957 2.395-5.03-17.667-5.03-18.128 0-18.755.067-20.705 2.234-4.348 4.83-4.754 4.717 16.963 4.717 19.133 0 20.443-.118 21.408-1.92zm-58.057-4.037c.338-.546-.306-.993-1.43-.993-1.125 0-2.045-.447-2.045-.993s1.062-.993 2.36-.993c1.3 0 2.918-.67 3.598-1.49.68-.819 1.804-1.49 2.498-1.49.694 0 1.519.671 1.833 1.49.86 2.24 4.688 1.796 8.844-1.029 6.557-4.455 5.196-5.425-7.607-5.425-12.41 0-12.52.055-12.52 6.337 0 4.251 2.862 7.187 4.47 4.586zm-43.716-7.2l1.28-3.723H83.022l.684 2.725c1.304 5.196 1.64 5.288 18.137 4.995l15.343-.273 1.28-3.723zm22.726 2.731c.314-.819 1.27-1.49 2.123-1.49.854 0 1.81.671 2.123 1.49.742 1.934 5.217 1.932 5.96 0 .314-.82.292-2.608-.05-3.972-.623-2.48-.628-2.48-13.017-2.48-6.816 0-12.394.314-12.394.697 0 .384 1.429 2.171 3.174 3.972 2.598 2.68 3.931 3.275 7.342 3.275 2.788 0 4.356-.493 4.739-1.49zm83.524-1.44c.834-1.611 1.515-3.409 1.515-3.994 0-.729-5.696-.98-18.036-.794l-18.037.27-.12 2.789c-.068 1.534-.777 3.203-1.576 3.709-.924.584 5.148.925 16.642.935l18.097.014 1.515-2.93zm-15.366-6.886l18.37-.13 1.242-2.673c.683-1.47 1.241-3.254 1.241-3.964 0-1.049-14.207-1.291-75.575-1.291-71.592 0-75.536.091-74.844 1.737.402.956.948 2.744 1.215 3.972l.484 2.235h67.342l.922-2.422c2.002-5.268 8.228-5.31 9.544-.064.594 2.364.873 2.429 11.68 2.702 6.09.154 13.082.223 15.54.153 2.458-.07 12.735-.185 22.84-.256zm3.112-9.953c17.67-.083 19.543-.254 19.995-1.83.275-.955.822-2.519 1.216-3.475.677-1.646-3.444-1.737-78.451-1.737H76.055l.599 2.234c.33 1.229.605 2.787.612 3.464.014 1.227 47.298 2.005 96.832 1.592 10.377-.086 27.64-.198 38.364-.248zm23.221-11.05c.81-1.565 1.471-3.314 1.471-3.887 0-.72-25.385-1.043-81.923-1.043-78.376 0-81.923.078-81.923 1.797 0 .988.558 2.541 1.241 3.452 1.63 2.176 5.622 2.282 90.879 2.417l68.784.109 1.471-2.845zm3.261-10.492l.3-3.08-7.747-.57c-4.262-.312-11.211-.625-15.444-.695-7.262-.12-7.696-.01-7.696 2.017 0 1.609-.42 1.983-1.684 1.499-.926-.356-4.908-1.148-8.85-1.76-6.466-1.006-7.998-.891-15.685 1.175-10.332 2.776-19.059 2.422-23.633-.96-2.113-1.562-3.237-1.856-4.163-1.087-5.157 4.28-18.094 5.342-29.446 2.418-6.61-1.703-7.179-1.707-11.774-.075-6.103 2.167-7.337 2.15-9.405-.136-1.538-1.7-1.62-5.143-.993-41.955l.682-40.103-21.752.496-21.752.497-.314 2.73-.314 2.731h21.415c13.616 0 21.416.362 21.416.993s-7.778.993-21.35.993h-21.35v6.874l20.704-.605c14.326-.419 20.907-.276 21.364.463 1.069 1.73-1.807 1.99-22.017 1.99-10.545 0-19.331.16-19.524.356-.193.196-.112 1.6.18 3.122l.532 2.766 20.456-.113c13.836-.076 20.573.234 20.814.958.247.743-6.055 1.07-20.58 1.07H60.4v2.424c0 1.334.4 2.672.891 2.975.49.303 9.638.575 20.33.605 11.134.031 19.686.458 20.02.998.36.583-7.199.943-19.833.943-21.615 0-21.087-.126-19.79 4.716.596 2.223.705 2.235 20.402 2.235 10.892 0 19.573.373 19.291.828-.282.456-9.133.853-19.67.882-20.708.058-19.293-.337-18.828 5.24.16 1.911.883 1.987 19.033 1.987 11.916 0 18.867.366 18.867.993s-6.986.993-18.973.993c-16.894 0-18.908.172-18.371 1.57.332.864.603 2.428.603 3.476 0 1.81.924 1.905 18.453 1.905 13.656 0 18.353.302 18.066 1.162-.28.843-5.26 1.095-18.093.917l-17.705-.245.619 2.31c.34 1.27.625 3.092.632 4.048.013 1.588 1.508 1.738 17.391 1.738 10.636 0 17.378.376 17.378.969 0 .58-6.667 1.078-16.633 1.241l-16.633.272.334 2.483c.184 1.365.736 2.9 1.227 3.411.858.893 10.877 1.51 25.002 1.54 4.157.01 6.703.424 6.703 1.094 0 .746-4.75.97-15.392.723-16.441-.381-16.326-.418-14.42 4.593l.97 2.552 83.187-.253 83.187-.254.3-3.08zm-77.813-4.833c-1.06-.801-2.375-1.458-2.92-1.458-.547 0-.126.657.934 1.458 1.06.802 2.374 1.458 2.92 1.458.546 0 .126-.656-.934-1.458zm12.967.465c.385-.623-1.535-.949-5.154-.875-4.728.096-5.231.254-2.79.875 4.402 1.12 7.252 1.12 7.944 0zm-27.576-.6c-.33-.33-1.187-.365-1.904-.078-.792.317-.556.552.6.6 1.047.043 1.634-.192 1.304-.522zm-36.446-2.113c3.192-2.237 11.755-2.19 18.275.1 3.627 1.273 6.33 1.543 10.426 1.043 5.565-.68 13.055-3.568 14.822-5.715.556-.676 1.085-16.89 1.273-39.078l.322-37.922-2.389-2.543c-2.963-3.155-6.992-3.293-15.945-.549-17.42 5.34-20.757 5.613-29.165 2.387-1.48-.568-1.618 3.002-1.618 41.688 0 23.27.348 42.31.772 42.31.425 0 1.877-.775 3.227-1.721zm.897-7.496c-.038-.12-.173-3.804-.3-8.188-.128-4.384-.532-8.455-.898-9.047-.78-1.261.08-2.346 1.861-2.346 1.79 0 2.414 18.65.647 19.324-.682.26-1.272.376-1.31.257zm9.326-1.466c-1.994-.332-2.188-1.021-2.483-8.83-.222-5.904.057-8.78.922-9.495 1.478-1.221 1.538-.923 1.274 6.321-.245 6.74 1.224 10.142 4 9.261 1.059-.336 1.925-.15 1.925.414 0 1.469-3.105 2.752-5.638 2.33zm8.188-1.416c-.23-.719-.607-4.77-.838-9.003-.328-6.006-.126-7.696.92-7.696 1.006 0 1.34 1.858 1.34 7.448 0 7.346.035 7.447 2.566 7.447 1.607 0 2.413.464 2.157 1.241-.567 1.728-5.625 2.192-6.145.563zm10.825-1.059c-3.519-9.396-5.026-15.64-3.774-15.64.762 0 1.543.559 1.737 1.241.193.683.89 3.214 1.547 5.625 1.375 5.044 2.552 4.175 3.584-2.646.425-2.81 1.137-4.22 2.13-4.22.946 0 1.314.637 1.004 1.738-.269.956-1.308 4.754-2.31 8.44-1.751 6.45-2.931 8.095-3.918 5.462zm-23.34-21.846c-.582-4.04-.004-18.11.755-18.362.565-.189 2.203 1.664 3.641 4.117 3.902 6.659 4.825 6.71 4.424.247-.202-3.247.067-5.562.649-5.586.566-.022 1.116 3.592 1.28 8.406.165 4.857-.113 8.447-.654 8.447-.517 0-2.21-2.01-3.762-4.467s-3.221-4.467-3.708-4.468c-.49-.001-.609 2.659-.264 5.956.51 4.886.358 5.958-.851 5.958-.811 0-1.49-.112-1.51-.248zm15.89-8.44c-.642-3.141-1.628-6.954-2.19-8.473-.563-1.52-.77-3.017-.459-3.327 1.137-1.137 2.475.7 3.157 4.333 1.1 5.866 1.708 5.918 3.404.291.87-2.888 2.03-5.081 2.576-4.872.546.209.82.826.61 1.372-.21.546-1.324 4.456-2.474 8.69-1.15 4.232-2.399 7.695-2.774 7.695-.374 0-1.207-2.57-1.85-5.71zm9.633 5.047c-1.005-1.005-.791-5.1.301-5.775.53-.327 1.255.562 1.61 1.977.849 3.381 3.774 2.888 4.19-.705.244-2.11-.31-2.985-2.66-4.201-3.176-1.642-4.529-4.259-3.538-6.841.833-2.17 4.178-3.088 5.937-1.628 1.644 1.365 1.937 3.933.449 3.933a.996.996 0 0 1-.993-.993c0-.546-.67-.993-1.49-.993-2.276 0-1.773 2.76.745 4.086 2.916 1.535 3.69 2.79 3.708 6.01.026 4.498-.956 5.792-4.394 5.792-1.762 0-3.501-.298-3.865-.662zm-32.439-24.164c0-.546.51-.993 1.135-.993 1 0 .789-7.496-.368-13.09-.448-2.17 6.41-1.113 8.419 1.296 1.752 2.101 2.26 6.299 1.12 9.267-1.181 3.079-10.306 6.195-10.306 3.52zm8.204-5.245c.69-2.071.518-3.376-.686-5.213-2.507-3.827-3.546-2.924-3.546 3.083 0 4.633.27 5.482 1.656 5.214.91-.177 2.07-1.565 2.576-3.084zm15.297 5.576c-.892-.893-.85-15.226.046-15.226.389 0 1.67 1.208 2.849 2.685l2.14 2.685 1.646-3.181c.905-1.75 1.97-3.178 2.365-3.172.395.01.805 3.609.91 8.008.14 5.817-.131 7.891-.993 7.609-.651-.214-1.323-2.04-1.493-4.057-.18-2.133-.726-3.41-1.304-3.053-.547.338-1.899-.204-3.004-1.204-1.995-1.805-2.007-1.781-1.735 3.355.273 5.14-.159 6.819-1.427 5.551zm-9.564-2.252c-1.448-2.706-1.278-10.266.28-12.396 1.718-2.35 4.77-1.676 6.402 1.417 1.474 2.794 1.028 9.258-.79 11.45-1.695 2.04-4.675 1.802-5.892-.47zm4.895-1.986c1.526-2.85 1.246-7.586-.537-9.065-2.14-1.775-3.364.255-3.384 5.607-.021 5.579 1.886 7.261 3.921 3.458zm18.146-4.53c.183-5.945.627-8.437 1.501-8.44.896 0 1.242 2.344 1.242 8.436 0 6.872-.28 8.441-1.502 8.441-1.243 0-1.457-1.454-1.241-8.436zm94.422 70.25c.24-.409.748-2.195 1.13-3.97l.691-3.227h-33.92l.001 3.723.001 3.724 15.83.246c8.706.136 16.026-.088 16.267-.496zm-56.808-2.763c8.684-2.555 9.85-2.55 18.503.082 2.229.678 2.234.652 2.253-11.104.01-6.48.296-24.702.636-40.492.6-27.906.564-28.685-1.26-27.864-3.212 1.445-13.499 1.714-17.714.463-2.213-.657-6.802-2.528-10.197-4.158-5.417-2.601-6.577-2.831-9.467-1.877-1.812.598-4.711 2.381-6.444 3.963l-3.149 2.877-.064 37.658c-.072 41.998-.452 39.703 6.927 41.801 5.783 1.644 10.997 1.292 19.976-1.35zm-21.61-8.884c.352-.919.64-5.21.64-9.534 0-4.324.377-7.863.837-7.863.46 0 1.68 1.564 2.709 3.476 1.03 1.911 2.24 3.475 2.69 3.475.45 0 1.458-1.533 2.24-3.407 2.66-6.363 3.44-5.133 3.44 5.418 0 7.624-.3 9.967-1.24 9.642-.767-.266-1.218-2.196-1.18-5.048.069-5.045-.22-5.46-2.056-2.95-1.119 1.53-1.316 1.49-2.378-.497-2.008-3.751-3.24-2.48-2.946 3.044.234 4.404-.007 5.263-1.56 5.562-1.376.265-1.677-.067-1.197-1.318zm15.371.286c-.231-.714-.177-4.873.12-9.242l.541-7.944h3.393c1.893 0 3.582.568 3.821 1.284.31.932-.28 1.107-2.151.638-2.364-.594-2.58-.389-2.58 2.439 0 2.154.475 3.086 1.572 3.086.865 0 1.386.559 1.159 1.242-.228.682-1.047 1.241-1.82 1.241-.815 0-1.546 1.21-1.735 2.87-.311 2.723-.17 2.84 2.73 2.26 2.31-.462 3.059-.253 3.059.853 0 .887-.947 1.465-2.401 1.465-1.321 0-3.05.249-3.844.553-.794.304-1.632-.03-1.864-.745zm9.909-.326c-.255-.254.577-3.652 1.847-7.55 1.271-3.898 2.311-7.645 2.311-8.326 0-.68.615-1.748 1.367-2.372 1.117-.927 1.884.455 4.207 7.575 3.232 9.905 3.306 10.382 1.68 10.924-.692.23-1.644-1.309-2.288-3.703-.905-3.358-1.487-4.042-3.224-3.788-1.437.21-2.386 1.336-2.94 3.488-.802 3.111-2.037 4.676-2.96 3.752zm7.137-11.399c0-.546-.197-.993-.438-.993-.24 0-.714.447-1.051.993-.338.547-.141.993.437.993.579 0 1.052-.446 1.052-.993zm-27.308-20.604c0-6.36-.114-6.691-2.234-6.467-1.363.144-2.234-.304-2.234-1.15 0-.976 1.613-1.486 5.463-1.725 3.89-.242 5.462.017 5.461.9 0 .684-.945 1.242-2.1 1.242-1.972 0-2.074.414-1.705 6.951.326 5.754.131 6.951-1.129 6.951-1.217 0-1.522-1.343-1.522-6.702zm10.895 5.904c-.53-.38-.965-3.93-.965-7.89 0-5.74.303-7.2 1.49-7.197 1.193 0 1.484 1.475 1.462 7.392-.028 7.641-.346 8.87-1.987 7.695zm8.541-2.811c-5.12-6.51.705-17.318 6.312-11.711 2.312 2.312 2.039 9.467-.465 12.154-2.601 2.792-3.346 2.736-5.847-.443zm5.439-3.752c.75-3.995-.232-7.803-1.872-7.26-.636.21-1.806 1.533-2.6 2.94-1.155 2.05-1.208 3.072-.269 5.134 1.666 3.656 3.977 3.26 4.74-.814zm-32.9-25.116c.172-4.208.72-7.787 1.219-7.953.498-.166 1.7 1.043 2.67 2.686.972 1.644 2.086 2.989 2.477 2.989s1.553-1.564 2.583-3.476c1.03-1.911 2.248-3.475 2.708-3.475.46 0 .837 3.835.837 8.523 0 6.374-.313 8.42-1.241 8.115-.683-.224-1.465-2.384-1.738-4.8-.44-3.887-.629-4.166-1.65-2.435-1.126 1.906-1.206 1.894-3.195-.497l-2.04-2.452-.033 5.214c-.025 3.874-.403 5.213-1.471 5.213-1.158 0-1.378-1.49-1.126-7.652zm15.138 6.921c-.284-.46-.62-4.393-.748-8.741-.196-6.693.022-7.955 1.419-8.227 1.41-.274 1.671.769 1.799 7.2.082 4.136.193 8.041.248 8.678.12 1.408-1.997 2.257-2.718 1.09zm6.14.235c-1.112-1.704-1.412-15.66-.344-16.035.547-.191 2.334 1.998 3.972 4.864l2.98 5.212.297-5.71c.455-8.722 2.185-6.796 2.185 2.434 0 9.031.99 9.199 2.987.505 2.324-10.11 3.37-10.253 6.338-.861 3.02 9.562 3.078 10.087 1.102 10.087-.907 0-1.49-.924-1.49-2.36 0-2.646-2.342-5.102-3.928-4.121-.57.352-1.037 1.954-1.037 3.56 0 2.451-.398 2.921-2.474 2.921-1.975 0-3.127-1.152-5.71-5.71l-3.236-5.71-.496 5.958c-.273 3.277-.788 5.512-1.145 4.966zm16.041-9.99c0-.85-.447-1.271-.993-.934-.546.338-.993 1.035-.993 1.549 0 .513.447.934.993.934s.993-.697.993-1.548zm-3.248 71.453c-.33-.33-1.186-.366-1.903-.079-.792.317-.557.552.6.6 1.047.043 1.633-.192 1.303-.521zm49.371-9.579c.21-.682.652-2.47.981-3.972l.598-2.73h-35.786v7.944h16.913c12.663 0 17.008-.312 17.294-1.242zm1.88-9.433c.25-.41.611-2.086.803-3.724l.348-2.98h-36.741l-.309 3.725-.308 3.723h17.876c9.831 0 18.08-.335 18.33-.744zm1.04-9.241c.252-.25.602-1.793.78-3.428l.324-2.971-18.619-.27-18.619-.27v8.083l17.84-.344c9.811-.19 18.044-.55 18.295-.8zm1.979-11.158c.323-1.206.594-2.527.601-2.937.007-.41-8.7-.745-19.35-.745H209.35v2.814c0 1.547.185 3 .412 3.227.226.228 8.669.283 18.762.124 17.973-.284 18.363-.335 18.939-2.483zm.615-9.143v-3.476H209.35V196.328h38.728v-3.475zm.81-8.69l.315-2.73H209.35v6l19.612-.27 19.612-.268.314-2.731zm-1.998-5.356c1.766-.473 2.219-1.205 1.986-3.214l-.302-2.6-19.364.152-19.363.153-.311 3.074-.312 3.075 17.69-.014c9.728-.01 18.718-.29 19.976-.626zm-3.53-8.285c5.426-.012 5.71-.136 5.71-2.495 0-1.365-.558-2.526-1.24-2.58-2.117-.165-12.6-.181-25.819-.04l-12.66.138v6.237l14.15-.624c7.782-.343 16.72-.63 19.86-.636zM85.473 163.57l17.626-.011V157.6H59.406v2.813c0 3.772.856 4.417 4.965 3.74 1.911-.315 11.407-.578 21.101-.584zm148.952-.96l14.647-.044v-5.958h-39.72v7.115l5.212-.534c2.868-.294 11.805-.554 19.86-.579zm-32.571-5.111c.561-.53-2.84-.891-8.391-.891-5.76 0-8.973.353-8.39.922 1.879 1.837 14.829 1.813 16.781-.03zm-65.986-3.53c5.815-2.245 13.813-2.27 17.193-.057 3.315 2.172 4.37 2.14 9.122-.283 4.691-2.392 8.5-2.52 12.557-.422 2.342 1.21 6.194 1.558 17.08 1.54 7.73-.013 23.775-.047 35.654-.075l21.598-.05v-6.27l-49.9.646c-27.443.356-70.118.649-94.832.652l-44.933.01v5.92l21.598.268c37.686.466 49.874.05 54.863-1.876zm113.002-7.663c.51-.316.717-1.679.459-3.03-.469-2.452-.482-2.454-14.22-2.754-11.631-.253-14.063-.045-15.78 1.349-4.793 3.888-24.348 4.638-31.074 1.192-1.543-.79-3.815-3.545-5.235-6.348-2.437-4.809-9.177-10.89-12.07-10.89-1.933 0-3.673-4.358-2.927-7.33.461-1.838 1.627-2.788 4.346-3.544 4.54-1.26 26.161-1.392 24.195-.146-.752.476-3.433.882-5.958.902-2.525.02-6.994.07-9.931.112l-5.34.075 2.513 3.228c2.216 2.846 2.994 3.19 6.582 2.912 4.25-.33 5.353.957 2.33 2.718-1.55.903-1.561 1.015-.098 1.042.902.017 2.622-1.634 3.822-3.668 2.103-3.564 2.235-3.628 3.616-1.738.789 1.078 2.575 2.05 3.97 2.157 2.422.187 2.512.009 2.008-3.972-.29-2.292-.841-5.685-1.223-7.538l-.694-3.37-25.933.626c-14.263.345-33.865.632-43.559.64l-17.626.012v2.731l-.001 2.73 10.924-.274c6.986-.175 10.923.093 10.923.745 0 .853-16.873 1.707-21.598 1.094-.682-.09-1.308.975-1.39 2.364-.082 1.39-.193 3.085-.248 3.768-.063.785.903 1.124 2.631.922 1.502-.176 2.731.16 2.731.744 0 .586-1.154 1.064-2.565 1.064-2.837 0-2.889 2.26-.064 2.808 1.13.22 2.155-.827 3.158-3.228 1.31-3.136 4.436-5.019 4.436-2.671 0 .484 1.42 1.088 3.154 1.343 4.05.594 8.203-1.78 9.918-5.668 2.702-6.128 9.8-3.467 8.161 3.06l-.661 2.635 12.802-.38c8.026-.24 12.895-.01 13.053.612.342 1.353-25.4 1.876-27 .548-.863-.716-2.153-.023-4.539 2.438-1.833 1.891-3.01 3.76-2.617 4.154.394.394 10.753.59 23.02.438 15.806-.197 22.304.042 22.304.82 0 .776-7.082 1.07-24.08.997l-24.081-.103-3.23 4.787c-5.127 7.601-7.39 8.404-22.735 8.06-10.767-.241-13.393-.598-14.974-2.03-1.629-1.477-3.956-1.738-15.493-1.738H59.406v6.259l94.267-.546c51.847-.3 94.685-.804 95.196-1.12zm-122.932-5.51c0-.74 8.932-1.05 29.046-1.007 15.975.035 28.152.412 27.06.84-3.235 1.262-56.106 1.42-56.106.166zm15.889-25.895c0-.613 5.15-.993 13.464-.993 8.723 0 13.248.35 12.85.993-.358.58-5.968.993-13.464.993-7.905 0-12.85-.382-12.85-.993zm-23.277 27.597c1.278-.582 3.9-3.434 5.828-6.337 1.928-2.903 6.217-8.05 9.53-11.437 5.756-5.882 6.908-8.83 3.45-8.83-.854 0-1.826.782-2.161 1.738-.697 1.989-3.189 4.26-8.494 7.745-4.58 3.008-6.141 3.056-7.404.227-.973-2.18-1.002-2.172-2.395.744-1.571 3.288-5.06 4.356-7.53 2.306-1.263-1.048-1.47-2.82-1.084-9.262.53-8.824.255-10.449-1.763-10.449-2.27 0-3.675 3.641-2.357 6.104 1.687 3.151.54 10.608-2.019 13.123l-2.16 2.123-2.455-2.979-2.455-2.98-1.86 2.235c-1.023 1.229-2.853 2.234-4.066 2.234-2.956 0-8.314-3.413-11.253-7.169-1.641-2.097-2.915-2.855-4.059-2.416-2.637 1.012-1.468 4.896 1.948 6.475 4.423 2.043 8.339 6.023 10.938 11.116 1.272 2.492 3.353 5.014 4.625 5.604 3.002 1.394 24.177 1.46 27.196.085zm-27.09-4.878c-1.526-1.526-.465-3.851 1.757-3.851 2.44 0 3.38 1.738 1.902 3.519-1.442 1.737-2.187 1.804-3.66.332zm12.632-.904c0-2.271 2.61-3.715 4.071-2.252 1.426 1.426-.033 4.27-2.191 4.27-1.228 0-1.88-.7-1.88-2.018zm12.101.812c-1.645-1.645-1.475-2.538.704-3.704 1.366-.73 2.182-.645 2.976.311 1.56 1.881-1.952 5.121-3.68 3.393zm99.44 4.083c1.406-.64 4.115-3.513 6.02-6.383 1.906-2.87 5.95-7.764 8.987-10.875 5.085-5.208 6.717-8.596 4.73-9.824-1.125-.696-2.48.467-4.008 3.44-1.27 2.468-10.492 8.848-12.791 8.848-.61 0-1.53-1.228-2.044-2.73l-.934-2.731-1.58 3.724c-1.21 2.847-2.15 3.723-3.993 3.723-4.629 0-5.863-4.24-4.264-14.642.69-4.484.561-5.301-.924-5.871-2.72-1.044-4.492 2.129-3.224 5.769 1.403 4.022.382 10.631-2.012 13.025-2.336 2.336-3.751 1.673-5.5-2.577l-1.296-3.151-1.68 3.227c-1.163 2.235-2.39 3.227-3.99 3.227-3.122 0-8.616-3.836-11.045-7.712-2.152-3.436-4.12-3.745-5.851-.918-1.201 1.962-1.552 1.577 6.686 7.339 3.027 2.117 5.425 4.934 7.187 8.44 3.222 6.415 2.504 5.664 7.048 7.368 4.414 1.656 20.291 1.191 24.478-.716zm-26.072-4.82c-.744-.46-1.078-1.551-.742-2.426.745-1.941 4.644-2.128 4.644-.222 0 2.034-2.334 3.617-3.902 2.648zm12.255-.41c-.745-1.942.27-3.605 2.201-3.605.975 0 1.39.754 1.183 2.156-.385 2.619-2.575 3.556-3.384 1.45zm10.952-.722c-1.05-1.698 2.261-4.554 3.659-3.156.623.623.863 1.832.535 2.688-.687 1.791-3.203 2.072-4.194.468zm-128.085 3.948c.339-.34.081-1.792-.573-3.228-1.187-2.605-1.216-2.61-12.947-2.61H59.406v2.813c0 1.547.335 3.153.744 3.568.867.877 23.615.374 24.532-.543zm164.389-4.38v-3.508l-11.462.28-11.462.28-2.042 3.227-2.04 3.228h27.006v-3.507zm-169.805-3.86c0-.229-1.676-1.434-3.724-2.678-2.048-1.245-3.947-2.522-4.22-2.838-.273-.317-3.066-.41-6.207-.21-5.557.357-5.71.444-5.71 3.254v2.887h9.93c5.462 0 9.93-.186 9.93-.415zm167.57-1.203c1.662-.446 2.235-1.333 2.235-3.462 0-1.575-.336-2.922-.745-2.993-.41-.071-2.98-.244-5.71-.384-6.924-.354-6.924-.72 0-1.391 5.858-.568 5.963-.632 6.27-3.805l.31-3.228h-5.028c-2.765 0-5.028-.447-5.028-.993s2.235-.993 4.966-.993c4.634 0 4.965-.165 4.965-2.482v-2.483H208.71l-1.096 7.08c-1.182 7.638-.387 11.787 2.259 11.787.86 0 2.173-1.452 2.916-3.227 1.983-4.736 2.67-5.03 4.672-1.994.994 1.506 1.81 2.15 1.813 1.43.004-.865.694-1.09 2.04-.662 2.35.746 8.89-3.685 8.89-6.024 0-1.17-2.068-1.439-11.09-1.439-6.098 0-10.783-.304-10.411-.676 1.167-1.168 26.78-1.293 28.171-.137 1.476 1.225 1.736 6.771.317 6.771-1.13 0-8.974 7.986-8.974 9.138 0 .918 15.302 1.056 18.62.167zm-38.479-7.319c0-.546.894-.993 1.986-.993 1.093 0 1.986.447 1.986.993 0 .547-.893.993-1.986.993-1.092 0-1.986-.446-1.986-.993zM89.92 126.218c-.33-.33-1.186-.366-1.903-.079-.792.317-.557.552.6.6 1.047.043 1.633-.192 1.303-.522zm11.192-.394c0-.546-.473-.993-1.052-.993-.578 0-.775.447-.437.993.337.547.81.993 1.051.993.241 0 .438-.446.438-.993zm97.315-.993c0-.546-.473-.993-1.052-.993-.578 0-.775.447-.437.993.337.547.81.993 1.051.993.241 0 .438-.446.438-.993zm-109.231-1.986c1.966 0 4.092-.517 4.724-1.15.871-.87 1.537-.827 2.746.176.878.729 2.722 1.374 4.098 1.434 2.311.101 2.464-.158 2.002-3.402-.276-1.932-.815-4.757-1.2-6.278-.498-1.97-.209-3.307 1.005-4.648 1.623-1.793 4.012-1.895 50.022-2.12 26.574-.13 49.88-.335 51.792-.454 1.912-.12 12.748-.267 24.08-.328l20.606-.11V100.873l-74.724.688c-41.099.378-77.406.793-80.682.923-3.277.13-12.103.295-19.612.368l-13.654.132v5.24l19.612-.385c12.473-.246 19.792-.025 20.108.607.32.641-6.624 1.088-19.612 1.262l-20.108.268v4.924h20.025c21.49 0 25.634.856 8.103 1.673-5.913.276-10.85.596-10.971.711-.122.115 1.165 1.891 2.86 3.947 2.188 2.654 3.389 3.43 4.143 2.676.584-.585 2.67-1.063 4.637-1.063zm-21.71.014c2.145-.011 2.696-.551 3.055-2.993l.437-2.979h-5.29c-3.489 0-5.34.423-5.44 1.242-.434 3.558-.441 4.288-.05 5.051.233.457 1.38.575 2.547.262 1.167-.313 3.3-.576 4.74-.583zm136.65-23.505c36.901-.558 43.942-.89 43.942-2.068 0-1.204-10.246-1.308-71.745-.726-39.46.373-73.756.815-76.214.982-2.458.166-12.4.342-22.094.39-15.731.079-17.626.266-17.626 1.738 0 1.765 6.878 1.75 143.738-.316zm4.046-6.712c8.37-.218 15.46-.64 15.759-.938.814-.814-5.858-9.455-11.292-14.624-6.644-6.32-19.182-14.528-28.088-18.386-7.714-3.341-22.812-6.37-31.553-6.33-6.77.03-25.466 5.06-32.975 8.871-3.521 1.787-8.66 4.928-11.42 6.981-9.471 7.045-24.14 22.821-22.973 24.709.55.888 84.936.694 122.542-.283z"/></svg>