<?xml version="1.0" encoding="UTF-8"?>
<!-- Generated by Pixelmator Pro 3.5.3 -->
<svg width="500" height="602" viewBox="0 0 500 602" xmlns="http://www.w3.org/2000/svg">
    <path id="path970" fill="#ffffff" stroke="none" d="M 457.883514 453.034973 C 493.706238 402.898315 497.694977 338.778442 498.888885 256.611847 L 498.888885 0.75 L 250 0.75 L 1.111143 0.75 L 1.111143 256.611847 C 2.304991 338.778442 6.293774 402.898315 42.116463 453.034973 C 85.268486 513.429565 157.157959 557.013123 250 599.832825 C 342.842041 557.013123 414.731506 513.429565 457.883514 453.034973 Z"/>
    <path id="path970-copy" fill="#4c9c17" fill-rule="evenodd" stroke="none" d="M 426.646484 489.322266 C 370.319206 426.158319 335 335.380531 335 234.503906 C 335 144.354415 363.206219 62.268724 409.40625 0.75 L 498.888672 0.75 L 498.888672 256.611328 C 497.694764 338.777841 493.7055 402.898564 457.882813 453.035156 C 448.737144 465.835236 438.299751 477.879686 426.646484 489.322266 Z M 72.025391 488.009766 C 60.905739 476.959037 50.914185 465.347238 42.117188 453.035156 C 6.294535 402.898564 2.305174 338.777841 1.111328 256.611328 L 1.111328 0.75 L 88.103516 0.75 C 134.303549 62.268724 162.509766 144.354415 162.509766 234.503906 C 162.509766 334.684396 127.675342 424.904027 72.025391 488.009766 Z"/>
    <g id="Group-copy">
        <path id="Ellipse-copy-2" fill="#1353b4" fill-rule="evenodd" stroke="#1353b4" stroke-width="4.004277" d="M 248.874496 319.341919 C 215.449677 319.341919 188.353439 292.214966 188.353439 258.752228 C 188.353439 225.28949 215.449677 198.162537 248.874496 198.162537 C 282.299316 198.162537 309.395569 225.28949 309.395569 258.752228 C 309.395569 292.214966 282.299316 319.341919 248.874496 319.341919 Z M 249.038834 301.405609 C 272.564453 301.405609 291.635803 282.312592 291.635803 258.760315 C 291.635803 235.208038 272.564453 216.115021 249.038834 216.115021 C 225.513229 216.115021 206.441864 235.208038 206.441864 258.760315 C 206.441864 282.312592 225.513229 301.405609 249.038834 301.405609 Z"/>
        <path id="Ellipse-copy-4" fill="#1353b4" fill-rule="evenodd" stroke="#1353b4" stroke-width="4.004277" d="M 248.874496 168.212738 C 215.449677 168.212738 188.353439 141.085785 188.353439 107.623047 C 188.353439 74.160339 215.449677 47.033386 248.874496 47.033386 C 282.299316 47.033386 309.395569 74.160339 309.395569 107.623047 C 309.395569 141.085785 282.299316 168.212738 248.874496 168.212738 Z M 249.038834 150.276428 C 272.564453 150.276428 291.635803 131.183441 291.635803 107.631134 C 291.635803 84.078857 272.564453 64.98584 249.038834 64.98584 C 225.513229 64.98584 206.441864 84.078857 206.441864 107.631134 C 206.441864 131.183441 225.513229 150.276428 249.038834 150.276428 Z"/>
        <g id="Group">
            <path id="path1644" fill="#ffe24b" stroke="none" d="M 77.686874 169.630463 C 70.987213 169.630127 65.556015 175.065979 65.556374 181.771301 C 65.556015 188.476685 70.987213 193.912537 77.686874 193.912201 C 84.386467 193.912506 89.817627 188.476685 89.817337 181.771301 C 89.817665 175.065979 84.386467 169.630157 77.686874 169.630463 Z M 53.425873 193.912201 C 46.728016 193.913147 41.298615 199.347198 41.297607 206.050781 C 41.297318 212.755219 46.727154 218.190674 53.425873 218.19162 C 60.125462 218.191925 65.556664 212.756134 65.556374 206.050781 C 65.555367 199.346313 60.124603 193.911896 53.425873 193.912201 Z M 101.947838 193.912201 C 95.249115 193.911896 89.818314 199.346313 89.817337 206.050781 C 89.817055 212.756134 95.248215 218.191956 101.947838 218.19162 C 108.646568 218.190674 114.076363 212.755219 114.076035 206.050781 C 114.075066 199.347198 108.645668 193.913147 101.947838 193.912201 Z M 77.686874 200.401764 C 76.182861 209.889343 62.318829 259.008575 39.762959 276.180908 C 49.286148 277.285858 59.05323 278.088745 67.040474 269.77655 C 70.4534 289.348358 74.504112 291.22406 77.686874 298.240387 C 80.869568 291.22406 84.92028 289.348358 88.333244 269.77655 C 96.320412 278.088745 106.087502 277.285858 115.610756 276.180908 C 93.054863 259.008575 79.190819 209.889343 77.686874 200.401764 Z"/>
            <path id="path1644-copy" fill="#ffe24b" stroke="none" d="M 420.178833 169.630463 C 413.479156 169.630127 408.047974 175.065979 408.048309 181.771301 C 408.047974 188.476685 413.479156 193.912537 420.178833 193.912201 C 426.878418 193.912506 432.30957 188.476685 432.309265 181.771301 C 432.309601 175.065979 426.878418 169.630157 420.178833 169.630463 Z M 395.917816 193.912201 C 389.219971 193.913147 383.790558 199.347198 383.789551 206.050781 C 383.789246 212.755219 389.219086 218.190674 395.917816 218.19162 C 402.617401 218.191925 408.048615 212.756134 408.048309 206.050781 C 408.047302 199.346313 402.616547 193.911896 395.917816 193.912201 Z M 444.439789 193.912201 C 437.741058 193.911896 432.310242 199.346313 432.309265 206.050781 C 432.30899 212.756134 437.740173 218.191956 444.439789 218.19162 C 451.138519 218.190674 456.568298 212.755219 456.567993 206.050781 C 456.567017 199.347198 451.137604 193.913147 444.439789 193.912201 Z M 420.178833 200.401764 C 418.674805 209.889343 404.81076 259.008575 382.254913 276.180908 C 391.778076 277.285858 401.545166 278.088745 409.53241 269.77655 C 412.945343 289.348358 416.996063 291.22406 420.178833 298.240387 C 423.361511 291.22406 427.412231 289.348358 430.825195 269.77655 C 438.812347 278.088745 448.579437 277.285858 458.102692 276.180908 C 435.546814 259.008575 421.68277 209.889343 420.178833 200.401764 Z"/>
        </g>
        <g id="g1">
            <path id="path1644-copy-2" fill="#1353b4" stroke="none" d="M 184.186874 397.332764 C 177.487213 397.332428 172.056015 402.76828 172.056381 409.473633 C 172.056015 416.179016 177.487213 421.614838 184.186874 421.614502 C 190.886459 421.614807 196.317627 416.179016 196.317337 409.473633 C 196.317657 402.76828 190.886459 397.332458 184.186874 397.332764 Z M 159.925873 421.614502 C 153.228012 421.615479 147.798615 427.0495 147.797607 433.753082 C 147.797318 440.45752 153.227158 445.892975 159.925873 445.893921 C 166.625458 445.894226 172.056671 440.458435 172.056381 433.753082 C 172.055374 427.048615 166.624603 421.614197 159.925873 421.614502 Z M 208.447845 421.614502 C 201.749115 421.614197 196.318314 427.048615 196.317337 433.753082 C 196.317047 440.458435 201.748215 445.894287 208.447845 445.893921 C 215.146576 445.892975 220.576355 440.45752 220.576035 433.753082 C 220.575058 427.0495 215.14566 421.615479 208.447845 421.614502 Z M 184.186874 428.104065 C 182.682861 437.591644 168.818832 486.710876 146.262955 503.88324 C 155.786148 504.98819 165.553238 505.791077 173.540482 497.478882 C 176.9534 517.050659 181.00412 518.926331 184.186874 525.942688 C 187.369568 518.926331 191.420273 517.050659 194.833252 497.478882 C 202.820419 505.791077 212.587509 504.98819 222.110764 503.88324 C 199.554855 486.710876 185.690826 437.591644 184.186874 428.104065 Z"/>
            <path id="path1644-copy-3" fill="#1353b4" stroke="none" d="M 313.18689 397.332764 C 306.487213 397.332428 301.05603 402.76828 301.056366 409.473633 C 301.05603 416.179016 306.487213 421.614838 313.18689 421.614502 C 319.886475 421.614807 325.317627 416.179016 325.317322 409.473633 C 325.317657 402.76828 319.886475 397.332458 313.18689 397.332764 Z M 288.925873 421.614502 C 282.228027 421.615479 276.798615 427.0495 276.797607 433.753082 C 276.797333 440.45752 282.227142 445.892975 288.925873 445.893921 C 295.625458 445.894226 301.056671 440.458435 301.056366 433.753082 C 301.055359 427.048615 295.624603 421.614197 288.925873 421.614502 Z M 337.447845 421.614502 C 330.749115 421.614197 325.318298 427.048615 325.317322 433.753082 C 325.317047 440.458435 330.74823 445.894287 337.447845 445.893921 C 344.146576 445.892975 349.576355 440.45752 349.57605 433.753082 C 349.575073 427.0495 344.14566 421.615479 337.447845 421.614502 Z M 313.18689 428.104065 C 311.682861 437.591644 297.818817 486.710876 275.26297 503.88324 C 284.786133 504.98819 294.553223 505.791077 302.540466 497.478882 C 305.9534 517.050659 310.00412 518.926331 313.18689 525.942688 C 316.369568 518.926331 320.420288 517.050659 323.833252 497.478882 C 331.820404 505.791077 341.587494 504.98819 351.110748 503.88324 C 328.554871 486.710876 314.690826 437.591644 313.18689 428.104065 Z"/>
        </g>
    </g>
    <path id="path968" fill="none" stroke="#554400" stroke-width="2.222017" d="M 457.883514 452.97876 C 493.706238 402.842102 497.694977 338.722198 498.888885 256.555603 L 498.888885 0.693787 L 250 0.693787 L 1.111143 0.693787 L 1.111143 256.555603 C 2.304991 338.722198 6.293774 402.842102 42.116463 452.97876 C 85.268486 513.373352 157.157959 556.956848 250 599.776611 C 342.842041 556.956848 414.731506 513.373352 457.883514 452.97876 Z"/>
</svg>
