<?xml version="1.0" encoding="utf-8"?>
<!-- Generator: Adobe Illustrator 15.0.2, SVG Export Plug-In  -->
<!DOCTYPE svg PUBLIC "-//W3C//DTD SVG 1.1//EN" "http://www.w3.org/Graphics/SVG/1.1/DTD/svg11.dtd" [
	<!ENTITY ns_flows "http://ns.adobe.com/Flows/1.0/">
]>
<svg version="1.1"
	 xmlns="http://www.w3.org/2000/svg" xmlns:xlink="http://www.w3.org/1999/xlink" xmlns:a="http://ns.adobe.com/AdobeSVGViewerExtensions/3.0/"
	 x="0px" y="0px" width="524px" height="659px" viewBox="0 -0.5 524 659" enable-background="new 0 -0.5 524 659"
	 xml:space="preserve">
<defs>
</defs>
<linearGradient id="SVGID_3_" gradientUnits="userSpaceOnUse" x1="37.7886" y1="515.3037" x2="92.6829" y2="536.3757">
	<stop  offset="0" style="stop-color:#8B5E3C"/>
	<stop  offset="0.497" style="stop-color:#FDC060"/>
</linearGradient>
<path display="none" fill="url(#SVGID_3_)" stroke="#000000" stroke-width="3" stroke-miterlimit="10" d="M109.092,493.628l-72,70
	c0,0-13.53,0.171-11-15c2.529-15.171,23-55,23-55s1-8,21-9S109.092,493.628,109.092,493.628z"/>
<linearGradient id="SVGID_4_" gradientUnits="userSpaceOnUse" x1="430.9292" y1="536.376" x2="485.8235" y2="515.304">
	<stop  offset="0.503" style="stop-color:#FDC060"/>
	<stop  offset="1" style="stop-color:#8B5E3C"/>
</linearGradient>
<path display="none" fill="url(#SVGID_4_)" stroke="#000000" stroke-width="3" stroke-miterlimit="10" d="M414.52,493.628l72,70
	c0,0,13.529,0.171,11-15s-23-55-23-55s-1-8-21-9S414.52,493.628,414.52,493.628z"/>
<linearGradient id="SVGID_5_" gradientUnits="userSpaceOnUse" x1="1.5" y1="461.1279" x2="107.0923" y2="461.1279">
	<stop  offset="0" style="stop-color:#BCBEC0"/>
	<stop  offset="0.3333" style="stop-color:#E6E7E8"/>
</linearGradient>
<path display="none" fill="url(#SVGID_5_)" stroke="#000000" stroke-width="3" stroke-miterlimit="10" d="M2.092,456.628
	c0-18,7.316-28,35-28s51,8,51,8l19,57c0,0-71.883-16.141-90.941-9.07S2.092,456.628,2.092,456.628z"/>
<linearGradient id="SVGID_6_" gradientUnits="userSpaceOnUse" x1="416.52" y1="461.1279" x2="522.1118" y2="461.1279">
	<stop  offset="0.6316" style="stop-color:#E6E7E8"/>
	<stop  offset="0.6867" style="stop-color:#DBDCDD"/>
	<stop  offset="0.7932" style="stop-color:#CACBCD"/>
	<stop  offset="0.8984" style="stop-color:#BFC1C3"/>
	<stop  offset="1" style="stop-color:#BCBEC0"/>
</linearGradient>
<path display="none" fill="url(#SVGID_6_)" stroke="#000000" stroke-width="3" stroke-miterlimit="10" d="M521.52,456.628
	c0-18-7.316-28-35-28s-51,8-51,8l-19,57c0,0,71.883-16.141,90.941-9.07S521.52,456.628,521.52,456.628z"/>
<path display="none" fill="#FBB040" stroke="#000000" stroke-width="3" stroke-miterlimit="10" d="M2.092,456.628c0,0,8,6,23,6
	c9.731,10.067,11,32,11,58.345c-25-1.345-34-19.345-34-48.345S2.092,456.628,2.092,456.628z"/>
<path display="none" fill="#FBB040" stroke="#000000" stroke-width="3" stroke-miterlimit="10" d="M521.52,456.628c0,0-8,6-23,6
	c-9.731,10.067-11,32-11,58.345c25-1.345,34-19.345,34-48.345S521.52,456.628,521.52,456.628z"/>
<g>
	<defs>
		<path id="SVGID_2_" d="M261.113,3.5H10.092c0,0,0,138.937,0,258.714c0,161.081,140,299,251.714,341
			c118.286-39,251.714-175.92,251.714-337c0-119.778,0-262.714,0-262.714H261.113z"/>
	</defs>
	<use xlink:href="#SVGID_2_"  overflow="visible" fill="#BE1E2D"/>
	<clipPath id="SVGID_7_">
		<use xlink:href="#SVGID_2_"  overflow="visible"/>
	</clipPath>
	<g clip-path="url(#SVGID_7_)">
		<g>
			<path fill="#FFFFFF" d="M214.903,376.638l-0.042,0.021h-0.042c-8.524,0.659-19.756,5.476-28.553,6.765
				c-1.728,0.745-2.894,1.734-3.61,2.835c-0.919,1.412-1.267,2.987-1.062,4.514c0.203,1.512,0.471,2.956,2.186,4.248
				c0.908,0.684,2.3,1.325,4.471,1.911c36.867-5.982,92.096-9.067,147.092,0.042c1.836-0.467,3.227-1.078,4.243-1.804
				c1.565-1.12,2.243-2.51,2.292-4.059c0.051-1.583,0.117-3.756-1.25-5.463c-0.796-0.994-1.983-1.818-3.685-2.246
				c0,0-14.979-5.869-28.488-6.743c-13.552-0.878-28.401-1.089-35.551-1.089c-7.483,0-14.966,0-22.45,0h-0.042h-0.043
				C238.538,375.621,225.487,371.354,214.903,376.638z"/>
			<path fill="#ECECEC" d="M181.593,390.772c0.203,1.512,0.471,2.956,2.186,4.248c0.908,0.684,2.3,1.325,4.471,1.911
				c36.867-5.982,92.096-9.067,147.092,0.042c1.836-0.467,3.227-1.078,4.243-1.804c1.565-1.12,2.243-2.51,2.292-4.059
				C344.397,380.338,178.794,382.264,181.593,390.772z"/>
			<path fill="#C6C5C5" d="M183.779,395.021c0.908,0.684,2.3,1.325,4.471,1.911c36.867-5.982,92.096-9.067,147.092,0.042
				c1.836-0.467,3.227-1.078,4.243-1.804c-24.343-5.507-55.046-7.405-78.629-7.283C233.522,388.029,203.666,390.208,183.779,395.021
				z"/>
			<path fill="none" stroke="#676767" stroke-width="0.9451" d="M214.903,376.638l-0.042,0.021h-0.042
				c-8.524,0.659-19.756,5.476-28.553,6.765c-1.728,0.745-2.894,1.734-3.61,2.835c-0.919,1.412-1.267,2.987-1.062,4.514
				c0.203,1.512,0.471,2.956,2.186,4.248c0.908,0.684,2.3,1.325,4.471,1.911c36.867-5.982,92.096-9.067,147.092,0.042
				c1.836-0.467,3.227-1.078,4.243-1.804c1.565-1.12,2.243-2.51,2.292-4.059c0.051-1.583,0.117-3.756-1.25-5.463
				c-0.796-0.994-1.983-1.818-3.685-2.246c0,0-14.979-5.869-28.488-6.743c-13.552-0.878-28.401-1.089-35.551-1.089
				c-7.483,0-14.966,0-22.45,0h-0.042h-0.043C238.538,375.621,225.487,371.354,214.903,376.638z"/>
			<path fill="#6A6A6A" d="M269.538,384.733c-2.898-0.388-5.609-0.886-8.158-1.478c-2.245-0.521-4.364-1.115-6.374-1.771
				c0.587,0.955,1.505,1.91,3.664,2.575c-1.732,0.02-3.972,0.728-4.773,1.094c0.854,0.322,3.188,0.897,4.916,0.824
				c-2.052,0.776-2.823,1.788-3.266,2.771c1.8-0.719,3.705-1.388,5.729-1.999C263.829,385.979,266.572,385.303,269.538,384.733z"/>
			<path fill="#6A6A6A" d="M208.315,387.58c-2.916-0.229-5.65-0.578-8.228-1.03c-2.27-0.396-4.417-0.874-6.461-1.419
				c0.639,0.922,1.607,1.825,3.8,2.37c-1.729,0.114-3.925,0.944-4.706,1.354c0.87,0.274,3.231,0.722,4.954,0.554
				c-2.006,0.888-2.722,1.939-3.11,2.946c1.758-0.816,3.624-1.589,5.612-2.311C202.683,389.137,205.385,388.31,208.315,387.58z"/>
			<path fill="#6A6A6A" d="M330.713,390.419c-2.813-0.802-5.423-1.686-7.86-2.639c-2.146-0.839-4.157-1.732-6.053-2.671
				c0.443,1.03,1.215,2.107,3.256,3.075c-1.718-0.23-4.035,0.148-4.881,0.396c0.797,0.441,3.024,1.347,4.745,1.522
				c-2.143,0.474-3.051,1.364-3.631,2.273c1.885-0.453,3.866-0.841,5.958-1.153C324.883,390.83,327.696,390.555,330.713,390.419z"/>
			<path fill="#6A6A6A" d="M238.947,385.77c-2.898-0.389-5.609-0.887-8.159-1.479c-2.244-0.521-4.363-1.115-6.374-1.771
				c0.587,0.956,1.505,1.911,3.664,2.575c-1.733,0.019-3.971,0.729-4.773,1.095c0.853,0.322,3.187,0.896,4.916,0.823
				c-2.052,0.777-2.824,1.789-3.267,2.771c1.8-0.719,3.705-1.388,5.73-1.998C233.238,387.016,235.981,386.338,238.947,385.77
				L238.947,385.77z"/>
			<path fill="#6A6A6A" d="M300.127,386.321c-2.881-0.501-5.57-1.104-8.095-1.793c-2.223-0.608-4.317-1.283-6.301-2.017
				c0.55,0.978,1.431,1.968,3.563,2.715c-1.733-0.048-3.997,0.574-4.812,0.909c0.839,0.355,3.148,1.02,4.88,1.013
				c-2.081,0.697-2.891,1.679-3.371,2.645c1.827-0.649,3.756-1.245,5.803-1.776C294.375,387.346,297.142,386.774,300.127,386.321z"
				/>
			<path fill="#DEC35E" d="M347.317,290.66c-4.589,23.819-8.264,47.074-11.865,71.004h-73.963h-73.962
				c-3.481-23.132-7.032-48.014-11.41-71.004c0,0,9.207,29.911,16.101,37.144c3.83,4.017,8.619,5.215,12.579,1.947
				c5.218-4.308,12.16-26.288,12.16-26.288s6.242,16.962,10.482,21.419c3.98,4.182,8.634,4.353,12.999,3.894
				c3.862-0.404,8.14-0.743,11.321-5.841c4.818-7.718,9.644-34.075,9.644-34.075s4.67,20.735,8.387,28.235
				c3.066,6.186,6.918,10.806,10.902,12.656c3.983,1.849,8.337,1.251,12.159-1.947c5.182-4.337,13.418-22.393,13.418-22.393
				s5.669,16.325,9.644,20.446c3.848,3.988,8.478,5.162,12.579,2.92c4.341-2.372,7.988-9.672,11.321-16.551
				C342.788,306.087,347.317,290.66,347.317,290.66z"/>
			<polygon fill="#F6E179" points="228.411,326.62 228.411,359.346 318.081,359.909 318.809,331.699 307.145,310.821 
				296.939,327.185 282.358,332.827 275.068,328.877 261.703,297.279 256.114,319.285 245.179,331.134 233.515,332.262 			"/>
			<polygon fill="#F6E179" points="201.438,359.346 200.709,333.956 208.728,328.313 216.99,311.386 226.224,327.748 
				229.383,330.57 229.869,360.475 			"/>
			<path fill="#D2BA47" d="M205.326,361.664h-17.799c-3.481-23.132-7.032-48.014-11.41-71.004c0,0,9.207,29.911,16.101,37.144
				c3.83,4.017,8.619,5.215,12.579,1.947L205.326,361.664z M315.913,325.857c3.848,3.988,8.478,5.162,12.579,2.92
				c4.341-2.372,7.988-9.671,11.321-16.551c2.975-6.138,7.504-21.565,7.504-21.565c-4.589,23.819-8.264,47.074-11.864,71.004
				h-19.802v-0.626L315.913,325.857z"/>
			<polygon fill="#E8CE55" points="261.46,300.102 262.675,362.167 295.238,362.731 295.238,328.877 287.705,334.519 
				277.255,331.699 266.321,314.208 			"/>
			<polygon fill="#D0B62C" points="294.509,355.656 294.752,330.005 307.145,312.514 316.622,329.442 316.622,360.733 
				294.266,360.733 			"/>
			<polygon fill="#E8CE55" points="197.55,330.57 198.735,361.938 207.969,361.938 207.027,329.442 203.868,332.262 			"/>
			<polygon fill="#F7ECA8" points="212.616,361.602 212.859,321.541 216.747,309.694 221.607,322.106 221.85,362.731 
				212.616,361.602 			"/>
			<path fill="#D2BA47" d="M261.418,288.991c0,0-4.841,26.357-9.659,34.075c-3.182,5.099-7.459,5.438-11.321,5.842
				c-4.364,0.459-9.018,0.288-12.999-3.895c-4.24-4.456-10.482-21.418-10.482-21.418s-6.941,21.979-12.16,26.287
				c-3.96,3.269-8.75,2.07-12.579-1.947c-6.895-7.233-16.101-37.144-16.101-37.144c1.713,8.995,3.299,18.28,4.804,27.637
				c0,0,3.548,8.726,5.936,12.585c2.466,3.988,5.375,6.716,8.326,8.03c2.852,1.27,5.875,1.157,8.71-0.296
				c2.967-1.521,5.774-4.795,8.326-8.625c1.778-2.669,4.544-9.815,4.544-9.815s3.625,6.892,5.576,9.518
				c2.085,2.809,4.509,5.719,6.856,6.997c2.749,1.498,5.631,1.305,8.454,1.19c3.13-0.128,6.303-0.41,9.351-2.082
				c2.539-1.392,4.148-3.199,6.323-6.543c2.283-3.508,6.85-13.626,8.565-18.595c1.513,3.3,5.123,14.289,7.629,18.141
				c2.176,3.344,4.762,5.149,7.302,6.544c3.047,1.67,6.22,1.954,9.35,2.082c2.823,0.112,5.705,0.308,8.454-1.19
				c2.348-1.279,4.576-3.734,6.661-6.543c1.95-2.626,4.598-7.246,4.598-7.246s2.961,5.328,4.739,7.997
				c2.552,3.833,5.358,7.105,8.326,8.625c2.835,1.454,5.858,1.568,8.71,0.297c2.951-1.313,5.859-4.042,8.325-8.03
				c2.388-3.86,5.936-13.039,5.936-13.039c1.505-9.357,3.092-18.642,4.805-27.637c0,0-9.207,29.911-16.102,37.144
				c-3.829,4.017-8.619,5.216-12.578,1.947c-5.219-4.308-12.16-26.287-12.16-26.287s-6.242,16.963-10.482,21.418
				c-3.981,4.182-8.635,4.354-12.998,3.895c-3.862-0.404-8.141-0.743-11.322-5.842C266.261,315.348,261.419,288.991,261.418,288.991
				L261.418,288.991z"/>
			<path fill="none" stroke="#806829" stroke-width="1.4402" d="M347.317,290.66c-4.589,23.819-8.264,47.074-11.865,71.004h-19.315
				h-54.647h-56.406h-17.556c-3.481-23.132-7.032-48.014-11.41-71.004c0,0,9.207,29.911,16.101,37.144
				c3.83,4.017,8.619,5.215,12.579,1.947c5.218-4.308,12.16-26.288,12.16-26.288s6.242,16.962,10.482,21.419
				c3.98,4.182,8.634,4.353,12.999,3.894c3.862-0.404,8.14-0.743,11.321-5.841c4.818-7.718,9.644-34.075,9.644-34.075
				s4.67,20.735,8.387,28.235c3.066,6.186,6.918,10.806,10.902,12.656c3.983,1.849,8.337,1.251,12.159-1.947
				c5.182-4.337,13.418-22.393,13.418-22.393s5.669,16.325,9.644,20.446c3.848,3.988,8.478,5.162,12.579,2.92
				c4.341-2.372,7.988-9.672,11.321-16.551C342.788,306.087,347.317,290.66,347.317,290.66z"/>
			<polygon fill="#F6E179" points="266.342,291.333 268.576,312.255 275.143,322.93 284.732,327.81 294.321,325.064 
				301.677,314.086 302.728,302.191 314.74,224.231 310.215,302.801 311.661,315.61 319.279,327.505 326.11,328.42 334.517,318.049 
				339.115,304.02 357.528,225.838 344.106,307.681 339.115,321.101 333.597,331.165 329.394,334.521 326.241,335.741 
				322.168,335.741 318.884,334.825 315.732,332.996 311.923,327.505 306.931,316.831 302.333,324.454 297.869,330.555 
				292.088,335.131 286.309,336.045 279.478,334.521 273.567,330.555 267.918,322.015 263.453,310.12 261.704,304.02 
				259.955,310.12 255.489,322.015 249.841,330.555 243.929,334.521 237.099,336.045 231.319,335.131 225.54,330.555 
				221.074,324.454 216.476,316.831 211.484,327.505 207.675,332.996 204.522,334.825 201.239,335.741 197.167,335.741 
				194.014,334.521 189.81,331.165 184.293,321.101 179.302,307.681 166.091,226.383 184.293,304.02 188.891,318.049 
				197.298,328.42 204.128,327.505 211.747,315.61 213.192,302.801 208.86,224.231 220.679,302.191 221.73,314.086 229.086,325.064 
				238.675,327.81 248.264,322.93 254.832,312.255 257.066,290.034 261.717,217.805 			"/>
			<path fill="none" stroke="#806829" stroke-width="1.4402" stroke-linecap="square" stroke-linejoin="bevel" d="M180.105,313.304
				l-12.726-78.991c-0.708-4.361-0.463-4.41,0.545-0.108l14.535,61.994c1.009,4.301,2.868,10.978,4.133,14.836
				c1.264,3.858,4.19,9.348,6.502,12.201c2.312,2.852,5.74,4.979,7.619,4.728c1.878-0.252,5.129-3.134,7.224-6.405
				c2.095-3.271,4.135-8.83,4.532-12.352c0.397-3.522,0.523-10.015,0.28-14.426l-3.448-62.527c-0.243-4.412,0.1-4.447,0.762-0.078
				l9.411,62.073c0.663,4.369,1.441,10.619,1.729,13.891c0.289,3.271,2.181,8.418,4.204,11.437s5.835,6.107,8.473,6.862
				c2.637,0.755,6.952,0.274,9.589-1.068s6.272-4.842,8.079-7.777c1.807-2.936,3.646-8.935,4.087-13.332l0.627-6.234
				c0.44-4.396,1.035-11.601,1.319-16.01l3.619-56.195c0.284-4.409,0.743-4.409,1.021,0.001l3.617,57.492
				c0.277,4.41,0.888,11.613,1.357,16.006l0.527,4.946c0.469,4.394,2.33,10.39,4.137,13.326c1.806,2.935,5.441,6.435,8.078,7.777
				s6.951,1.823,9.589,1.068c2.637-0.755,6.449-3.843,8.472-6.862c2.023-3.019,3.915-8.166,4.203-11.437
				c0.29-3.271,1.077-9.52,1.749-13.887l9.566-62.08c0.672-4.367,1.015-4.331,0.761,0.081l-3.601,62.529
				c-0.254,4.411-0.137,10.903,0.261,14.425c0.397,3.521,2.437,9.08,4.532,12.352c2.095,3.271,5.346,6.153,7.224,6.405
				c1.879,0.251,5.308-1.876,7.62-4.728c2.312-2.853,5.237-8.343,6.502-12.201s3.127-10.534,4.14-14.834l14.73-62.542
				c1.013-4.301,1.256-4.252,0.541,0.108l-13.729,82.752"/>
			<polygon fill="#E9E9E9" points="261.717,208.79 264.823,218.35 274.875,218.35 266.743,224.258 269.849,233.817 261.717,227.909 
				253.585,233.817 256.691,224.258 248.56,218.35 258.611,218.35 			"/>
			<polygon fill="none" stroke="#806829" stroke-width="0.8034" points="261.717,208.79 264.823,218.35 274.875,218.35 
				266.743,224.258 269.849,233.817 261.717,227.909 253.585,233.817 256.691,224.258 248.56,218.35 258.611,218.35 			"/>
			<ellipse fill="#ECECEC" cx="261.717" cy="223.1" rx="5.243" ry="5.329"/>
			<path fill="#CDCCCC" d="M257.29,225.925l0.997,1.256l1.921,1.071l1.662,0.074l1.772-0.185l1.885-1.477l0.812-1.256l0.518-1.957
				v-2.031l-0.813-1.146l-1.182-1.367l-1.478-0.591c0,0,0.768,1.359,0.96,1.995c0.185,0.61,0.197,1.406,0.074,2.032
				c-0.119,0.604-0.429,1.365-0.813,1.847c-0.426,0.533-1.232,1.182-1.848,1.478c-0.686,0.33-1.565,0.42-2.326,0.443
				C258.787,226.129,257.29,225.925,257.29,225.925z"/>
			<path fill="#FFFFFF" d="M262.645,220.551c0,1.54-1.291,2.789-2.881,2.789c-1.591,0-2.881-1.25-2.881-2.789
				c0-0.79,0.636-0.766,1.183-1.273c0.518-0.481,1.405-1.368,2.179-1.368C261.834,217.911,262.645,219.012,262.645,220.551z"/>
			<polygon fill="#E9E9E9" points="209.922,212.003 213.028,221.563 223.08,221.563 214.948,227.471 218.054,237.031 
				209.922,231.123 201.791,237.031 204.896,227.471 196.765,221.563 206.816,221.563 			"/>
			<polygon fill="none" stroke="#806829" stroke-width="0.8034" points="209.922,212.003 213.028,221.563 223.08,221.563 
				214.948,227.471 218.054,237.031 209.922,231.123 201.791,237.031 204.896,227.471 196.765,221.563 206.816,221.563 			"/>
			<ellipse fill="#ECECEC" cx="209.922" cy="226.313" rx="5.243" ry="5.33"/>
			<path fill="#CDCCCC" d="M205.495,229.139l0.998,1.256l1.92,1.071l1.662,0.075l1.772-0.186l1.885-1.477l0.812-1.256l0.517-1.958
				v-2.031l-0.813-1.146l-1.182-1.367l-1.477-0.591c0,0,0.768,1.359,0.96,1.995c0.185,0.61,0.197,1.406,0.074,2.032
				c-0.119,0.604-0.429,1.365-0.812,1.847c-0.426,0.533-1.233,1.182-1.847,1.478c-0.687,0.33-1.566,0.42-2.327,0.443
				C206.992,229.343,205.495,229.139,205.495,229.139L205.495,229.139z"/>
			<path fill="#FFFFFF" d="M210.85,223.765c0,1.54-1.291,2.789-2.881,2.789c-1.59,0-2.881-1.25-2.881-2.789
				c0-0.79,0.636-0.766,1.183-1.273c0.518-0.481,1.405-1.368,2.179-1.368C210.04,221.124,210.85,222.226,210.85,223.765z"/>
			<polygon fill="#E9E9E9" points="168.501,216.824 171.607,226.383 181.659,226.383 173.527,232.292 176.633,241.851 
				168.501,235.943 160.37,241.851 163.476,232.292 155.344,226.383 165.395,226.383 			"/>
			<polygon fill="none" stroke="#806829" stroke-width="0.8034" points="168.501,216.824 171.607,226.383 181.659,226.383 
				173.527,232.292 176.633,241.851 168.501,235.943 160.37,241.851 163.476,232.292 155.344,226.383 165.395,226.383 			"/>
			<ellipse fill="#ECECEC" cx="168.501" cy="231.133" rx="5.243" ry="5.329"/>
			<path fill="#CDCCCC" d="M164.074,233.959l0.998,1.256l1.92,1.071l1.662,0.074l1.772-0.185l1.885-1.477l0.812-1.256l0.517-1.958
				v-2.031l-0.813-1.146l-1.182-1.367l-1.477-0.591c0,0,0.768,1.359,0.96,1.994c0.185,0.61,0.197,1.406,0.074,2.032
				c-0.118,0.604-0.428,1.365-0.812,1.847c-0.426,0.533-1.232,1.182-1.847,1.478c-0.687,0.33-1.566,0.42-2.327,0.443
				C165.571,234.163,164.074,233.959,164.074,233.959L164.074,233.959z"/>
			<path fill="#FFFFFF" d="M169.429,228.585c0,1.54-1.291,2.789-2.881,2.789c-1.59,0-2.881-1.25-2.881-2.789
				c0-0.79,0.637-0.766,1.183-1.273c0.518-0.481,1.405-1.367,2.179-1.367C168.619,225.944,169.429,227.046,169.429,228.585z"/>
			<polygon fill="#E9E9E9" points="313.677,212.003 310.572,221.563 300.52,221.563 308.652,227.471 305.545,237.031 
				313.677,231.123 321.809,237.031 318.704,227.471 326.834,221.563 316.784,221.563 			"/>
			<polygon fill="none" stroke="#806829" stroke-width="0.8034" points="313.677,212.003 310.572,221.563 300.52,221.563 
				308.652,227.471 305.545,237.031 313.677,231.123 321.809,237.031 318.704,227.471 326.834,221.563 316.784,221.563 			"/>
			<ellipse fill="#ECECEC" cx="313.677" cy="226.313" rx="5.243" ry="5.33"/>
			<path fill="#CDCCCC" d="M318.105,229.139c0,0-1.497,0.204-2.143,0.186c-0.761-0.023-1.641-0.113-2.326-0.443
				c-0.615-0.296-1.422-0.945-1.848-1.478c-0.384-0.481-0.693-1.243-0.813-1.847c-0.123-0.626-0.11-1.421,0.074-2.032
				c0.192-0.636,0.96-1.995,0.96-1.995l-1.478,0.591l-1.181,1.367l-0.813,1.146v2.031l0.518,1.958l0.812,1.256l1.885,1.477
				l1.772,0.186l1.662-0.075l1.921-1.071L318.105,229.139z"/>
			<path fill="#FFFFFF" d="M315.15,221.124c0.773,0,1.661,0.887,2.179,1.368c0.547,0.507,1.183,0.483,1.183,1.273
				c0,1.54-1.29,2.789-2.881,2.789c-1.59,0-2.881-1.249-2.881-2.789C312.75,222.226,313.56,221.124,315.15,221.124z"/>
			<polygon fill="#E9E9E9" points="355.098,216.824 351.993,226.383 341.941,226.383 350.073,232.292 346.967,241.851 
				355.098,235.943 363.23,241.851 360.125,232.292 368.256,226.383 358.205,226.383 			"/>
			<polygon fill="none" stroke="#806829" stroke-width="0.8034" points="355.098,216.824 351.993,226.383 341.941,226.383 
				350.073,232.292 346.967,241.851 355.098,235.943 363.23,241.851 360.125,232.292 368.256,226.383 358.205,226.383 			"/>
			<ellipse fill="#ECECEC" cx="355.098" cy="231.133" rx="5.243" ry="5.329"/>
			<path fill="#CDCCCC" d="M359.526,233.959c0,0-1.498,0.204-2.143,0.185c-0.762-0.022-1.641-0.113-2.327-0.443
				c-0.614-0.296-1.421-0.945-1.847-1.478c-0.384-0.481-0.693-1.243-0.813-1.847c-0.123-0.626-0.11-1.422,0.074-2.032
				c0.192-0.635,0.96-1.994,0.96-1.994l-1.478,0.591l-1.181,1.367l-0.813,1.146v2.031l0.518,1.958l0.812,1.256l1.885,1.477
				l1.772,0.185l1.662-0.074l1.921-1.071L359.526,233.959z"/>
			<path fill="#FFFFFF" d="M356.571,225.944c0.773,0,1.661,0.886,2.179,1.367c0.546,0.508,1.183,0.483,1.183,1.273
				c0,1.539-1.291,2.789-2.881,2.789s-2.881-1.249-2.881-2.789C354.17,227.046,354.981,225.944,356.571,225.944z"/>
			<path fill="#D2BA47" d="M188.939,379.359c0,0,8.232-0.604,22.737-1.423s30.046-1.249,37.974-1.249c1.268,0,22.9,0,24.165,0
				c7.679,0,23.584,0.43,37.973,1.249s22.572,1.506,22.572,1.506l5.045-22.538c0,0-51.693-4.664-77.673-4.664
				c-25.98,0-77.672,4.664-77.672,4.664L188.939,379.359z"/>
			<polygon fill="#C5A942" points="252.125,352.292 272.367,352.393 272.411,376.563 253.216,376.563 			"/>
			<polygon fill="#E8CE55" points="194.835,355.729 253.307,352.123 253.27,375.474 196.228,378.124 			"/>
			<polygon fill="#F6E179" points="199.561,355.086 239.008,352.454 240.052,376.107 200.953,377.935 			"/>
			<polygon fill="#F7ECA8" points="204.916,354.563 227.384,353.116 228.429,376.813 217.368,377.213 206.308,377.615 			"/>
			<path fill="#D2BA47" d="M249.429,373.843c-8.005,0-23.543,0.428-38.092,1.249c-9.112,0.525-14.163,1.399-23.247,2.291
				l0.909,1.917c9.143-0.833,13.423-0.969,22.586-1.521c14.462-0.816,29.994-1.249,37.844-1.249c1.268,0,22.9,0,24.165,0
				c7.599,0,23.514,0.433,37.854,1.249c14.297,0.813,23.012,1.603,23.012,1.603l0.438-1.813c0,0-8.721-1.652-23.201-2.477
				c-14.435-0.821-30.344-1.249-38.103-1.249C272.329,373.843,250.696,373.843,249.429,373.843z"/>
			<path fill="#D0B62C" d="M211.336,354.352c-14.597,0.823-27.222,2.489-27.222,2.489l0.914,3.986c0,0,12.143-1.583,26.556-2.396
				c14.462-0.816,29.995-1.141,37.844-1.141c1.268,0,22.9,0,24.165,0c7.599,0,23.753,0.498,38.094,1.314
				c14.298,0.813,26.741,2.223,26.741,2.223l0.694-3.986c0,0-12.947-1.666-27.427-2.489c-14.436-0.821-30.344-1.835-38.103-1.835
				c-1.265,0-25.434,0-24.165,0C236.705,352.735,224.019,353.62,211.336,354.352z"/>
			<path fill="none" stroke="#806829" stroke-width="0.9451" d="M261.399,352.486c25.957-0.014,51.912,1.394,77.753,4.257
				l-4.73,22.748c-25.703-2.308-46.742-2.925-72.731-3.128 M262.035,352.486c-25.957-0.014-51.911,1.394-77.752,4.257l4.73,22.748
				c25.703-2.307,46.743-2.925,72.731-3.128"/>
			<path fill="#F6E179" d="M211.435,353.033l-0.021,0.017h-0.021c-9.23,0.664-19.914,1.389-29.235,2.658
				c-1.318,1.576-1.427,3.013,0.971,4.161c8.95-1.22,19.502-1.961,28.739-2.625c12.528-0.727,25.159-1.181,37.758-1.305h24.165
				c7.536,0,23.452,0.459,37.757,1.321c14.24,0.857,28.782,2.608,28.782,2.608c2.481-1.268,2.212-2.685,0.863-4.161
				c0,0-14.676-1.8-29.214-2.676c-14.471-0.871-30.367-1.32-38.188-1.32h-24.165C236.875,351.75,224.147,352.352,211.435,353.033z"
				/>
			<path fill="#F7ECA8" d="M342.196,357.359c0.074-0.697-0.33-0.913-1.005-1.651c0,0-14.676-1.8-29.214-2.675
				c-14.471-0.872-30.367-1.321-38.188-1.321h-24.165c-12.749,0.038-25.477,0.64-38.189,1.321l-0.021,0.017h-0.021
				c-9.23,0.664-19.914,1.389-29.235,2.658c-0.659,0.788-1.016,0.864-0.908,1.564c10.78-1.003,19.889-2.142,30.32-2.766
				c16.557-0.99,34.182-1.181,49.957-1.229c15.729-0.05,31.102,0.365,46.174,1.238C319.368,355.19,330.858,356.14,342.196,357.359z"
				/>
			<path fill="#D2BA47" d="M181.779,358.956c0.307,0.321,0.749,0.626,1.348,0.913c8.95-1.22,19.502-1.961,28.739-2.625
				c12.528-0.727,25.159-1.181,37.758-1.305h24.165c7.536,0,23.452,0.459,37.757,1.321c14.24,0.857,28.782,2.608,28.782,2.608
				c0.778-0.397,1.004-0.629,1.293-1.053c-27.541-3.759-52.563-4.136-78.978-4.323C236.913,354.312,207.922,355.496,181.779,358.956
				z"/>
			<path fill="none" stroke="#806829" stroke-width="1.0685" d="M211.435,353.033l-0.021,0.017h-0.021
				c-9.23,0.664-19.914,1.389-29.235,2.658c-1.318,1.576-1.427,3.013,0.971,4.161c8.95-1.22,19.502-1.961,28.739-2.625
				c12.528-0.727,25.159-1.181,37.758-1.305h24.165c7.536,0,23.452,0.459,37.757,1.321c14.24,0.857,28.782,2.608,28.782,2.608
				c2.481-1.268,2.212-2.685,0.863-4.161c0,0-14.676-1.8-29.214-2.676c-14.471-0.871-30.367-1.32-38.188-1.32h-24.165
				C236.875,351.75,224.147,352.352,211.435,353.033z"/>
			<path fill="#F6E179" d="M214.963,376.515l-0.02,0.017h-0.02c-8.583,0.665-18.516,1.389-27.184,2.659
				c-1.226,1.575-1.327,3.013,0.903,4.161c8.321-1.22,18.133-1.961,26.722-2.626c11.648-0.726,23.394-1.18,35.107-1.304h22.469
				c7.008,0,21.807,0.46,35.108,1.32c13.24,0.857,26.762,2.609,26.762,2.609c2.308-1.267,2.057-2.685,0.803-4.161
				c0,0-13.646-1.8-27.164-2.676c-13.456-0.87-28.235-1.32-35.509-1.32h-22.469C238.619,375.232,226.783,375.833,214.963,376.515z"
				/>
			<path fill="#F7ECA8" d="M336.548,380.842c0.069-0.697-0.308-0.913-0.935-1.651c0,0-13.646-1.8-27.164-2.676
				c-13.456-0.87-28.235-1.32-35.509-1.32h-22.469c-11.854,0.038-23.689,0.639-35.509,1.32l-0.02,0.017h-0.02
				c-8.583,0.665-18.516,1.389-27.184,2.659c-0.613,0.787-0.944,0.863-0.844,1.563c10.024-1.003,18.493-2.141,28.192-2.765
				c15.395-0.99,31.782-1.181,46.451-1.23c14.626-0.049,28.918,0.366,42.934,1.239C315.322,378.673,326.004,379.622,336.548,380.842
				z"/>
			<path fill="#D2BA47" d="M187.389,382.439c0.285,0.32,0.697,0.625,1.254,0.912c8.321-1.22,18.133-1.961,26.722-2.626
				c11.648-0.726,23.393-1.18,35.107-1.304h22.469c7.008,0,21.807,0.46,35.108,1.32c13.24,0.857,26.762,2.609,26.762,2.609
				c0.724-0.397,0.933-0.629,1.201-1.053c-25.607-3.76-48.873-4.137-73.434-4.323C238.653,377.793,211.698,378.979,187.389,382.439z
				"/>
			<path fill="none" stroke="#806829" stroke-width="1.1081" d="M214.963,376.515l-0.02,0.017h-0.02
				c-8.583,0.665-18.516,1.389-27.184,2.659c-1.226,1.575-1.327,3.013,0.903,4.161c8.321-1.22,18.133-1.961,26.722-2.626
				c11.648-0.726,23.394-0.939,35.107-1.063h22.469c7.008,0,21.807,0.22,35.108,1.081c13.24,0.856,26.762,2.608,26.762,2.608
				c2.308-1.267,2.057-2.685,0.803-4.161c0,0-13.646-1.8-27.164-2.676c-13.456-0.87-28.235-1.08-35.509-1.08h-22.469
				C238.619,375.473,226.783,375.833,214.963,376.515z"/>
			<rect x="246.27" y="357.607" fill="#F6E179" width="30.894" height="15.633"/>
			<polygon fill="#F7ECA8" points="246.27,357.607 277.164,357.607 246.27,373.24 			"/>
			<polygon fill="#E8CE55" points="277.164,360.906 277.164,373.24 252.44,373.24 			"/>
			<path fill="none" stroke="#806829" stroke-width="2.137" d="M247.308,357.607h28.818c0.574,0,1.038,0.355,1.038,0.794v14.044
				c0,0.439-0.464,0.795-1.038,0.795h-28.818c-0.573,0-1.038-0.355-1.038-0.795v-14.044
				C246.27,357.963,246.734,357.607,247.308,357.607z"/>
			<path fill="#496AB3" d="M251.376,359.659h20.681c0.987,0,1.787,0.612,1.787,1.367v8.794c0,0.756-0.8,1.368-1.787,1.368h-20.681
				c-0.987,0-1.787-0.612-1.787-1.368v-8.794C249.589,360.271,250.389,359.659,251.376,359.659z"/>
			<path fill="none" stroke="#A08A30" stroke-width="2.137" d="M251.376,359.659h20.681c0.987,0,1.787,0.612,1.787,1.367v8.794
				c0,0.756-0.8,1.368-1.787,1.368h-20.681c-0.987,0-1.787-0.612-1.787-1.368v-8.794
				C249.589,360.271,250.389,359.659,251.376,359.659z"/>
			<path fill="#4F8FCC" d="M273.322,370.789c-0.322,0.247-0.769,0.399-1.265,0.399h-20.681c-0.495,0-0.942-0.152-1.265-0.399
				s-0.522-0.59-0.522-0.969v-8.794c0-0.379,0.199-0.721,0.522-0.968C250.435,359.812,273.645,370.542,273.322,370.789z"/>
			<path fill="none" stroke="#A08A30" stroke-width="2.137" d="M273.322,370.789c-0.322,0.247-0.769,0.399-1.265,0.399h-20.681
				c-0.495,0-0.942-0.152-1.265-0.399s-0.522-0.59-0.522-0.969v-8.794c0-0.379,0.199-0.721,0.522-0.968
				C250.435,359.812,273.645,370.542,273.322,370.789z"/>
			<path fill="#5D7CBD" d="M273.322,370.789c-0.322,0.247-0.769,0.399-1.265,0.399h-20.681c-0.495,0-0.942-0.152-1.265-0.399
				s-0.522-0.59-0.522-0.969v-8.794c0-0.379,0.199-0.721,0.522-0.968c0.164-0.125,6.228,2.579,12.116,5.304
				C267.937,368.005,273.482,370.667,273.322,370.789z"/>
			<path fill="none" stroke="#D7E3F4" stroke-width="2.137" d="M273.322,370.789c-0.322,0.247-0.769,0.399-1.265,0.399h-20.681
				c-0.495,0-0.942-0.152-1.265-0.399s-0.522-0.59-0.522-0.969v-8.794c0-0.379,0.199-0.721,0.522-0.968
				c0.164-0.125,6.228,2.579,12.116,5.304C267.937,368.005,273.482,370.667,273.322,370.789z"/>
			<path fill="#2857A7" d="M273.322,360.059c0.323,0.247,0.522,0.589,0.522,0.968v8.794c0,0.379-0.199,0.722-0.522,0.969
				c-0.322,0.247-0.769,0.399-1.265,0.399h-20.681c-0.495,0-0.942-0.152-1.265-0.399S273,359.812,273.322,360.059z"/>
			<path fill="none" stroke="#B0C6E7" stroke-width="2.137" d="M273.322,360.059c0.323,0.247,0.522,0.589,0.522,0.968v8.794
				c0,0.379-0.199,0.722-0.522,0.969c-0.322,0.247-0.769,0.399-1.265,0.399h-20.681c-0.495,0-0.942-0.152-1.265-0.399
				S273,359.812,273.322,360.059z"/>
			<path fill="#2152A4" d="M273.322,370.789c-0.322,0.247-0.769,0.399-1.265,0.399h-20.681c-0.495,0-0.942-0.152-1.265-0.399
				c-0.164-0.126,5.73-2.95,11.621-5.669C261.732,365.12,273.645,370.542,273.322,370.789z"/>
			<path fill="none" stroke="#B0C6E7" stroke-width="2.137" d="M273.322,370.789c-0.322,0.247-0.769,0.399-1.265,0.399h-20.681
				c-0.495,0-0.942-0.152-1.265-0.399c-0.164-0.126,5.73-2.95,11.621-5.669C261.732,365.12,273.645,370.542,273.322,370.789z"/>
			<path fill="none" stroke="#A08A30" stroke-width="2.137" d="M251.376,359.659h20.681c0.987,0,1.787,0.612,1.787,1.367v8.794
				c0,0.756-0.8,1.368-1.787,1.368h-20.681c-0.987,0-1.787-0.612-1.787-1.368v-8.794
				C249.589,360.271,250.389,359.659,251.376,359.659z"/>
			<rect x="254.922" y="362.291" fill="#3462AE" width="13.59" height="5.893"/>
			<rect x="254.922" y="362.291" fill="none" stroke="#B0C6E7" stroke-width="2.137" width="13.59" height="5.893"/>
			<path fill="#F6E179" d="M216.277,360.707l8.446-0.829c3.516-0.346,6.815,1.91,7.367,5.039l0.105,0.596
				c0.552,3.129-1.851,5.945-5.367,6.29l-8.446,0.83c-3.517,0.347-6.815-1.91-7.367-5.039l-0.105-0.595
				C210.357,363.87,212.761,361.054,216.277,360.707z"/>
			<path fill="none" stroke="#806829" stroke-width="1.1475" d="M216.277,360.707l8.446-0.829c3.516-0.346,6.815,1.91,7.367,5.039
				l0.105,0.596c0.552,3.129-1.851,5.945-5.367,6.29l-8.446,0.83c-3.517,0.347-6.815-1.91-7.367-5.039l-0.105-0.595
				C210.357,363.87,212.761,361.054,216.277,360.707z"/>
			<path fill="#316A48" d="M216.82,362.295l7.929-0.779c2.7-0.266,5.233,1.467,5.657,3.87c0.424,2.402-1.421,4.565-4.122,4.83
				l-7.928,0.779c-2.701,0.266-5.233-1.467-5.658-3.869C212.274,364.723,214.12,362.56,216.82,362.295z"/>
			<path fill="#36A464" d="M225.07,365.117c0.11,0.625-0.332,1.717-1.096,2.301c-1.31,0.999-3.55,1.367-5.464,1.555
				c-3.03,0.298-5.241-1.064-5.54-2.758c-0.179-1.013,0.305-2.373,1.562-3.065c0.845-0.465,2.168-0.754,3.386-0.874
				c2.039-0.199,4.799-0.063,6.241,0.86C224.86,363.584,224.972,364.563,225.07,365.117z"/>
			<path fill="none" stroke="#A08A30" stroke-width="1.1475" d="M216.82,362.295l7.929-0.779c2.7-0.266,5.233,1.467,5.657,3.87
				c0.424,2.402-1.421,4.565-4.122,4.83l-7.928,0.779c-2.701,0.266-5.233-1.467-5.658-3.869
				C212.274,364.723,214.12,362.56,216.82,362.295z"/>
			<path fill="#B1DCBF" d="M220.696,365.189c0.152,0.865-0.883,1.681-2.314,1.821s-2.715-0.446-2.867-1.313
				c-0.153-0.864,0.883-1.68,2.314-1.82S220.543,364.325,220.696,365.189z"/>
			<polygon fill="#F6E179" points="187.081,376.737 198.974,366.699 184.457,361.701 184.235,369.936 			"/>
			<polygon fill="none" stroke="#806829" stroke-width="1.0935" points="187.081,376.737 198.974,366.699 184.457,361.701 
				184.235,369.936 			"/>
			<polygon fill="#EE2345" points="186.72,374.67 195.342,367.392 184.817,363.769 182.563,369.511 			"/>
			<polygon fill="#BC202C" points="186.72,374.67 195.342,367.392 182.664,369.493 			"/>
			<line fill="none" stroke="#F4D7D7" stroke-width="1.0935" x1="195.361" y1="367.347" x2="182.535" y2="369.571"/>
			<polygon fill="none" stroke="#A48E31" stroke-width="1.0935" points="186.72,374.67 195.342,367.392 184.817,363.769 
				182.443,369.419 			"/>
			<ellipse fill="#ECECEC" cx="238.815" cy="361.379" rx="2.611" ry="2.653"/>
			<path fill="#CDCCCC" d="M236.611,362.786l0.497,0.625l0.956,0.533l0.828,0.037l0.883-0.092l0.938-0.736l0.404-0.625l0.258-0.975
				v-1.012l-0.405-0.569l-0.588-0.682l-0.735-0.294c0,0,0.382,0.677,0.478,0.993c0.092,0.304,0.098,0.7,0.037,1.012
				c-0.059,0.301-0.213,0.68-0.405,0.919c-0.212,0.267-0.613,0.589-0.919,0.736c-0.342,0.165-0.78,0.209-1.159,0.221
				C237.357,362.888,236.611,362.786,236.611,362.786z"/>
			<path fill="#FFFFFF" d="M239.278,360.109c0,0.767-0.643,1.389-1.435,1.389c-0.792,0-1.435-0.622-1.435-1.389
				c0-0.393,0.316-0.381,0.589-0.634c0.258-0.239,0.7-0.681,1.085-0.681C238.874,358.795,239.278,359.343,239.278,360.109z"/>
			<ellipse fill="none" stroke="#818181" stroke-width="2.5929" cx="238.815" cy="361.379" rx="2.611" ry="2.653"/>
			<ellipse fill="#ECECEC" cx="239.349" cy="369.702" rx="2.611" ry="2.653"/>
			<path fill="#CDCCCC" d="M237.145,371.108l0.497,0.626l0.957,0.533l0.827,0.037l0.883-0.092l0.938-0.736l0.405-0.625l0.257-0.975
				v-1.012l-0.405-0.569l-0.588-0.682l-0.735-0.294c0,0,0.382,0.677,0.478,0.993c0.092,0.304,0.098,0.7,0.037,1.012
				c-0.059,0.301-0.213,0.68-0.404,0.919c-0.212,0.266-0.614,0.589-0.919,0.736c-0.342,0.164-0.78,0.209-1.159,0.22
				C237.891,371.211,237.145,371.108,237.145,371.108z"/>
			<path fill="#FFFFFF" d="M239.812,368.433c0,0.767-0.643,1.389-1.435,1.389s-1.434-0.622-1.434-1.389
				c0-0.393,0.316-0.381,0.588-0.634c0.258-0.239,0.7-0.681,1.085-0.681C239.408,367.118,239.812,367.666,239.812,368.433z"/>
			<ellipse fill="none" stroke="#818181" stroke-width="2.5929" cx="239.349" cy="369.702" rx="2.611" ry="2.653"/>
			<ellipse fill="#ECECEC" cx="203.692" cy="363.3" rx="2.611" ry="2.653"/>
			<path fill="#CDCCCC" d="M201.488,364.706l0.497,0.625l0.956,0.534l0.828,0.037l0.883-0.092l0.938-0.736l0.404-0.625l0.258-0.975
				v-1.012l-0.405-0.57l-0.588-0.681l-0.736-0.294c0,0,0.382,0.677,0.479,0.993c0.092,0.305,0.098,0.699,0.036,1.012
				c-0.059,0.301-0.213,0.68-0.404,0.92c-0.212,0.265-0.613,0.588-0.919,0.734c-0.342,0.165-0.78,0.21-1.159,0.222
				C202.233,364.809,201.488,364.706,201.488,364.706z"/>
			<path fill="#FFFFFF" d="M204.154,362.031c0,0.767-0.643,1.388-1.435,1.388c-0.792,0-1.435-0.621-1.435-1.388
				c0-0.395,0.316-0.382,0.589-0.635c0.258-0.239,0.7-0.681,1.085-0.681C203.75,360.716,204.154,361.265,204.154,362.031z"/>
			<ellipse fill="none" stroke="#818181" stroke-width="2.5929" cx="203.692" cy="363.3" rx="2.611" ry="2.653"/>
			<ellipse fill="#ECECEC" cx="204.226" cy="371.623" rx="2.611" ry="2.653"/>
			<path fill="#CDCCCC" d="M202.021,373.029l0.497,0.625l0.956,0.534l0.828,0.036l0.883-0.092l0.938-0.735l0.404-0.625l0.258-0.975
				v-1.012l-0.405-0.57l-0.588-0.681l-0.735-0.294c0,0,0.382,0.677,0.478,0.993c0.092,0.304,0.098,0.699,0.037,1.012
				c-0.059,0.301-0.213,0.68-0.404,0.92c-0.212,0.265-0.614,0.588-0.92,0.734c-0.341,0.165-0.78,0.21-1.159,0.222
				C202.767,373.132,202.021,373.029,202.021,373.029z"/>
			<path fill="#FFFFFF" d="M204.688,370.354c0,0.766-0.643,1.388-1.435,1.388s-1.435-0.622-1.435-1.388
				c0-0.395,0.317-0.383,0.589-0.635c0.258-0.239,0.7-0.681,1.085-0.681C204.285,369.039,204.688,369.588,204.688,370.354z"/>
			<ellipse fill="none" stroke="#818181" stroke-width="2.5929" cx="204.226" cy="371.623" rx="2.611" ry="2.653"/>
			<path fill="#F6E179" d="M307.157,360.707l-8.445-0.829c-3.517-0.346-6.814,1.91-7.367,5.039l-0.105,0.596
				c-0.552,3.129,1.851,5.945,5.367,6.29l8.445,0.83c3.518,0.347,6.815-1.91,7.368-5.039l0.104-0.595
				C313.077,363.87,310.673,361.054,307.157,360.707z"/>
			<path fill="none" stroke="#806829" stroke-width="1.1475" d="M307.157,360.707l-8.445-0.829c-3.517-0.346-6.814,1.91-7.367,5.039
				l-0.105,0.596c-0.552,3.129,1.851,5.945,5.367,6.29l8.445,0.83c3.518,0.347,6.815-1.91,7.368-5.039l0.104-0.595
				C313.077,363.87,310.673,361.054,307.157,360.707z"/>
			<path fill="#316A48" d="M306.615,362.295l-7.93-0.779c-2.7-0.266-5.233,1.467-5.657,3.87c-0.424,2.402,1.422,4.565,4.122,4.83
				l7.929,0.779c2.7,0.266,5.232-1.467,5.657-3.869C311.16,364.723,309.315,362.56,306.615,362.295z"/>
			<path fill="#36A464" d="M298.364,365.117c-0.11,0.625,0.331,1.717,1.097,2.301c1.31,0.999,3.55,1.367,5.463,1.555
				c3.031,0.298,5.241-1.064,5.54-2.758c0.179-1.013-0.305-2.373-1.562-3.065c-0.846-0.465-2.168-0.754-3.387-0.874
				c-2.039-0.199-4.799-0.063-6.24,0.86C298.573,363.584,298.461,364.563,298.364,365.117z"/>
			<path fill="none" stroke="#A08A30" stroke-width="1.1475" d="M306.615,362.295l-7.93-0.779c-2.7-0.266-5.233,1.467-5.657,3.87
				c-0.424,2.402,1.422,4.565,4.122,4.83l7.929,0.779c2.7,0.266,5.232-1.467,5.657-3.869
				C311.16,364.723,309.315,362.56,306.615,362.295z"/>
			<path fill="#B1DCBF" d="M302.738,365.189c-0.153,0.865,0.884,1.681,2.313,1.821c1.432,0.141,2.715-0.446,2.868-1.313
				c0.152-0.864-0.884-1.68-2.314-1.82S302.891,364.325,302.738,365.189z"/>
			<polygon fill="#F6E179" points="336.353,376.737 324.46,366.699 338.978,361.701 339.199,369.936 			"/>
			<polygon fill="none" stroke="#806829" stroke-width="1.0935" points="336.353,376.737 324.46,366.699 338.978,361.701 
				339.199,369.936 			"/>
			<polygon fill="#EE2345" points="336.713,374.67 328.091,367.392 338.617,363.769 340.871,369.511 			"/>
			<polygon fill="#BC202C" points="336.713,374.67 328.091,367.392 340.771,369.493 			"/>
			<line fill="none" stroke="#F4D7D7" stroke-width="1.0935" x1="328.073" y1="367.347" x2="340.899" y2="369.571"/>
			<polygon fill="none" stroke="#A48E31" stroke-width="1.0935" points="336.713,374.67 328.091,367.392 338.617,363.769 
				340.991,369.419 			"/>
			<ellipse fill="#ECECEC" cx="284.619" cy="361.379" rx="2.61" ry="2.653"/>
			<path fill="#CDCCCC" d="M286.823,362.786l-0.496,0.625l-0.957,0.533l-0.827,0.037l-0.883-0.092l-0.938-0.736l-0.405-0.625
				l-0.257-0.975v-1.012l0.404-0.569l0.589-0.682l0.735-0.294c0,0-0.382,0.677-0.478,0.993c-0.093,0.304-0.1,0.7-0.037,1.012
				c0.059,0.301,0.212,0.68,0.403,0.919c0.212,0.267,0.614,0.589,0.92,0.736c0.342,0.165,0.78,0.209,1.159,0.221
				C286.077,362.888,286.823,362.786,286.823,362.786z"/>
			<path fill="#FFFFFF" d="M284.157,360.109c0,0.767,0.643,1.389,1.434,1.389c0.792,0,1.435-0.622,1.435-1.389
				c0-0.393-0.315-0.381-0.589-0.634c-0.257-0.239-0.699-0.681-1.084-0.681C284.559,358.795,284.157,359.343,284.157,360.109z"/>
			<ellipse fill="none" stroke="#818181" stroke-width="2.5929" cx="284.619" cy="361.379" rx="2.61" ry="2.653"/>
			<ellipse fill="#ECECEC" cx="284.084" cy="369.702" rx="2.61" ry="2.653"/>
			<path fill="#CDCCCC" d="M286.289,371.108l-0.496,0.626l-0.957,0.533l-0.827,0.037l-0.883-0.092l-0.938-0.736l-0.404-0.625
				l-0.258-0.975v-1.012l0.404-0.569l0.589-0.682l0.735-0.294c0,0-0.382,0.677-0.479,0.993c-0.092,0.304-0.098,0.7-0.036,1.012
				c0.06,0.301,0.213,0.68,0.404,0.919c0.212,0.266,0.613,0.589,0.92,0.736c0.342,0.164,0.779,0.209,1.158,0.22
				C285.543,371.211,286.289,371.108,286.289,371.108z"/>
			<path fill="#FFFFFF" d="M283.623,368.433c0,0.767,0.643,1.389,1.435,1.389s1.434-0.622,1.434-1.389
				c0-0.393-0.315-0.381-0.588-0.634c-0.258-0.239-0.7-0.681-1.085-0.681C284.026,367.118,283.623,367.666,283.623,368.433z"/>
			<ellipse fill="none" stroke="#818181" stroke-width="2.5929" cx="284.084" cy="369.702" rx="2.61" ry="2.653"/>
			<ellipse fill="#ECECEC" cx="319.742" cy="363.3" rx="2.611" ry="2.653"/>
			<path fill="#CDCCCC" d="M321.947,364.706l-0.497,0.625l-0.955,0.534l-0.829,0.037l-0.882-0.092l-0.938-0.736l-0.405-0.625
				l-0.258-0.975v-1.012l0.405-0.57l0.588-0.681l0.735-0.294c0,0-0.382,0.677-0.478,0.993c-0.093,0.305-0.099,0.699-0.037,1.012
				c0.059,0.301,0.213,0.68,0.404,0.92c0.213,0.265,0.613,0.588,0.92,0.734c0.342,0.165,0.779,0.21,1.159,0.222
				C321.201,364.809,321.947,364.706,321.947,364.706z"/>
			<path fill="#FFFFFF" d="M319.28,362.031c0,0.767,0.644,1.388,1.435,1.388c0.792,0,1.435-0.621,1.435-1.388
				c0-0.395-0.316-0.382-0.589-0.635c-0.258-0.239-0.7-0.681-1.085-0.681C319.683,360.716,319.28,361.265,319.28,362.031z"/>
			<ellipse fill="none" stroke="#818181" stroke-width="2.5929" cx="319.742" cy="363.3" rx="2.611" ry="2.653"/>
			<ellipse fill="#ECECEC" cx="319.208" cy="371.623" rx="2.611" ry="2.653"/>
			<path fill="#CDCCCC" d="M321.413,373.029l-0.496,0.625l-0.956,0.534l-0.828,0.036l-0.884-0.092l-0.938-0.735l-0.403-0.625
				l-0.259-0.975v-1.012l0.405-0.57l0.588-0.681l0.735-0.294c0,0-0.381,0.677-0.478,0.993c-0.092,0.304-0.099,0.699-0.037,1.012
				c0.06,0.301,0.214,0.68,0.405,0.92c0.212,0.265,0.613,0.588,0.919,0.734c0.343,0.165,0.78,0.21,1.159,0.222
				C320.667,373.132,321.413,373.029,321.413,373.029z"/>
			<path fill="#FFFFFF" d="M318.747,370.354c0,0.766,0.643,1.388,1.434,1.388c0.793,0,1.435-0.622,1.435-1.388
				c0-0.395-0.316-0.383-0.589-0.635c-0.257-0.239-0.699-0.681-1.085-0.681C319.15,369.039,318.747,369.588,318.747,370.354z"/>
			<ellipse fill="none" stroke="#818181" stroke-width="2.5929" cx="319.208" cy="371.623" rx="2.611" ry="2.653"/>
		</g>
		<g>
			<g>
				<radialGradient id="SVGID_8_" cx="89.3057" cy="319.3569" r="38.271" gradientUnits="userSpaceOnUse">
					<stop  offset="0" style="stop-color:#E7A523"/>
					<stop  offset="0.1213" style="stop-color:#E7A625"/>
					<stop  offset="0.2187" style="stop-color:#E9A92D"/>
					<stop  offset="0.3078" style="stop-color:#EDAF3C"/>
					<stop  offset="0.3919" style="stop-color:#F2B751"/>
					<stop  offset="0.4719" style="stop-color:#F9C26B"/>
					<stop  offset="0.5" style="stop-color:#FEC775"/>
					<stop  offset="0.5281" style="stop-color:#F9C26B"/>
					<stop  offset="0.6081" style="stop-color:#F2B751"/>
					<stop  offset="0.6922" style="stop-color:#EDAF3C"/>
					<stop  offset="0.7813" style="stop-color:#E9A92D"/>
					<stop  offset="0.8787" style="stop-color:#E7A625"/>
					<stop  offset="1" style="stop-color:#E7A523"/>
				</radialGradient>
				
					<circle fill="url(#SVGID_8_)" stroke="#000000" stroke-width="1.637" stroke-miterlimit="10" cx="89.306" cy="319.357" r="38.271"/>
				<radialGradient id="SVGID_9_" cx="434.3062" cy="319.3569" r="38.2712" gradientUnits="userSpaceOnUse">
					<stop  offset="0" style="stop-color:#E7A523"/>
					<stop  offset="0.1213" style="stop-color:#E7A625"/>
					<stop  offset="0.2187" style="stop-color:#E9A92D"/>
					<stop  offset="0.3078" style="stop-color:#EDAF3C"/>
					<stop  offset="0.3919" style="stop-color:#F2B751"/>
					<stop  offset="0.4719" style="stop-color:#F9C26B"/>
					<stop  offset="0.5" style="stop-color:#FEC775"/>
					<stop  offset="0.5281" style="stop-color:#F9C26B"/>
					<stop  offset="0.6081" style="stop-color:#F2B751"/>
					<stop  offset="0.6922" style="stop-color:#EDAF3C"/>
					<stop  offset="0.7813" style="stop-color:#E9A92D"/>
					<stop  offset="0.8787" style="stop-color:#E7A625"/>
					<stop  offset="1" style="stop-color:#E7A523"/>
				</radialGradient>
				
					<circle fill="url(#SVGID_9_)" stroke="#000000" stroke-width="1.637" stroke-miterlimit="10" cx="434.306" cy="319.357" r="38.271"/>
			</g>
			<radialGradient id="SVGID_10_" cx="261.8062" cy="498.8643" r="38.2715" gradientUnits="userSpaceOnUse">
				<stop  offset="0" style="stop-color:#E7A523"/>
				<stop  offset="0.1213" style="stop-color:#E7A625"/>
				<stop  offset="0.2187" style="stop-color:#E9A92D"/>
				<stop  offset="0.3078" style="stop-color:#EDAF3C"/>
				<stop  offset="0.3919" style="stop-color:#F2B751"/>
				<stop  offset="0.4719" style="stop-color:#F9C26B"/>
				<stop  offset="0.5" style="stop-color:#FEC775"/>
				<stop  offset="0.5281" style="stop-color:#F9C26B"/>
				<stop  offset="0.6081" style="stop-color:#F2B751"/>
				<stop  offset="0.6922" style="stop-color:#EDAF3C"/>
				<stop  offset="0.7813" style="stop-color:#E9A92D"/>
				<stop  offset="0.8787" style="stop-color:#E7A625"/>
				<stop  offset="1" style="stop-color:#E7A523"/>
			</radialGradient>
			
				<circle fill="url(#SVGID_10_)" stroke="#000000" stroke-width="1.637" stroke-miterlimit="10" cx="261.806" cy="498.864" r="38.271"/>
		</g>
	</g>
	<g clip-path="url(#SVGID_7_)">
		<linearGradient id="SVGID_11_" gradientUnits="userSpaceOnUse" x1="261.8062" y1="165.6279" x2="261.8062" y2="3.5">
			<stop  offset="0" style="stop-color:#000000"/>
			<stop  offset="0.4221" style="stop-color:#0D0D0E"/>
			<stop  offset="0.7605" style="stop-color:#29292A"/>
			<stop  offset="1" style="stop-color:#414042"/>
		</linearGradient>
		
			<rect x="10.092" y="3.5" fill="url(#SVGID_11_)" stroke="#000000" stroke-width="2" stroke-miterlimit="10" width="503.428" height="162.128"/>
		<g>
			<radialGradient id="SVGID_12_" cx="93.4727" cy="84.7695" r="66.8972" gradientUnits="userSpaceOnUse">
				<stop  offset="0" style="stop-color:#E7A523"/>
				<stop  offset="0.1213" style="stop-color:#E7A625"/>
				<stop  offset="0.2187" style="stop-color:#E9A92D"/>
				<stop  offset="0.3078" style="stop-color:#EDAF3C"/>
				<stop  offset="0.3919" style="stop-color:#F2B751"/>
				<stop  offset="0.4719" style="stop-color:#F9C26B"/>
				<stop  offset="0.5" style="stop-color:#FEC775"/>
				<stop  offset="0.5281" style="stop-color:#F9C26B"/>
				<stop  offset="0.6081" style="stop-color:#F2B751"/>
				<stop  offset="0.6922" style="stop-color:#EDAF3C"/>
				<stop  offset="0.7813" style="stop-color:#E9A92D"/>
				<stop  offset="0.8787" style="stop-color:#E7A625"/>
				<stop  offset="1" style="stop-color:#E7A523"/>
			</radialGradient>
			<polygon fill="url(#SVGID_12_)" stroke="#000000" stroke-width="1.637" stroke-miterlimit="10" points="144.444,77.367 
				144.444,61.435 129.625,61.435 129.625,77.367 100.888,77.367 100.888,48.628 116.82,48.628 116.82,33.81 100.888,33.81 
				100.888,17.878 86.07,17.878 86.07,33.81 70.138,33.81 70.138,48.628 86.07,48.628 86.07,77.354 57.32,77.354 57.32,61.423 
				42.502,61.423 42.502,77.354 26.57,77.354 26.57,92.172 42.502,92.172 42.502,108.104 57.32,108.104 57.32,92.172 86.058,92.172 
				86.058,120.911 70.126,120.911 70.126,135.729 86.058,135.729 86.058,151.661 100.875,151.661 100.875,135.729 116.808,135.729 
				116.808,120.911 100.875,120.911 100.875,92.185 129.625,92.185 129.625,108.116 144.444,108.116 144.444,92.185 160.375,92.185 
				160.375,77.367 			"/>
			<radialGradient id="SVGID_13_" cx="430.1392" cy="84.7695" r="66.897" gradientUnits="userSpaceOnUse">
				<stop  offset="0" style="stop-color:#E7A523"/>
				<stop  offset="0.1213" style="stop-color:#E7A625"/>
				<stop  offset="0.2187" style="stop-color:#E9A92D"/>
				<stop  offset="0.3078" style="stop-color:#EDAF3C"/>
				<stop  offset="0.3919" style="stop-color:#F2B751"/>
				<stop  offset="0.4719" style="stop-color:#F9C26B"/>
				<stop  offset="0.5" style="stop-color:#FEC775"/>
				<stop  offset="0.5281" style="stop-color:#F9C26B"/>
				<stop  offset="0.6081" style="stop-color:#F2B751"/>
				<stop  offset="0.6922" style="stop-color:#EDAF3C"/>
				<stop  offset="0.7813" style="stop-color:#E9A92D"/>
				<stop  offset="0.8787" style="stop-color:#E7A625"/>
				<stop  offset="1" style="stop-color:#E7A523"/>
			</radialGradient>
			<polygon fill="url(#SVGID_13_)" stroke="#000000" stroke-width="1.637" stroke-miterlimit="10" points="481.109,77.367 
				481.109,61.435 466.292,61.435 466.292,77.367 437.554,77.367 437.554,48.628 453.486,48.628 453.486,33.81 437.554,33.81 
				437.554,17.878 422.736,17.878 422.736,33.81 406.804,33.81 406.804,48.628 422.736,48.628 422.736,77.354 393.986,77.354 
				393.986,61.423 379.167,61.423 379.167,77.354 363.236,77.354 363.236,92.172 379.167,92.172 379.167,108.104 393.986,108.104 
				393.986,92.172 422.724,92.172 422.724,120.911 406.792,120.911 406.792,135.729 422.724,135.729 422.724,151.661 
				437.542,151.661 437.542,135.729 453.474,135.729 453.474,120.911 437.542,120.911 437.542,92.185 466.292,92.185 
				466.292,108.116 481.109,108.116 481.109,92.185 497.042,92.185 497.042,77.367 			"/>
		</g>
		<g>
			<circle fill="#FDB913" cx="259.138" cy="34.633" r="24.295"/>
			<radialGradient id="SVGID_14_" cx="259.1382" cy="34.6328" r="18.8223" gradientUnits="userSpaceOnUse">
				<stop  offset="0" style="stop-color:#E7A523"/>
				<stop  offset="0.1213" style="stop-color:#E7A625"/>
				<stop  offset="0.2187" style="stop-color:#E9A92D"/>
				<stop  offset="0.3078" style="stop-color:#EDAF3C"/>
				<stop  offset="0.3919" style="stop-color:#F2B751"/>
				<stop  offset="0.4719" style="stop-color:#F9C26B"/>
				<stop  offset="0.5" style="stop-color:#FEC775"/>
				<stop  offset="0.5281" style="stop-color:#F9C26B"/>
				<stop  offset="0.6081" style="stop-color:#F2B751"/>
				<stop  offset="0.6922" style="stop-color:#EDAF3C"/>
				<stop  offset="0.7813" style="stop-color:#E9A92D"/>
				<stop  offset="0.8787" style="stop-color:#E7A625"/>
				<stop  offset="1" style="stop-color:#E7A523"/>
			</radialGradient>
			<circle fill="url(#SVGID_14_)" cx="259.138" cy="34.633" r="18.822"/>
			<g>
				<g>
					<g>
						<radialGradient id="SVGID_15_" cx="221.0034" cy="71.7998" r="39.2424" gradientUnits="userSpaceOnUse">
							<stop  offset="0" style="stop-color:#E7A523"/>
							<stop  offset="0.9104" style="stop-color:#E7A523"/>
							<stop  offset="1" style="stop-color:#E7A523"/>
						</radialGradient>
						<path fill="url(#SVGID_15_)" stroke="#000000" stroke-width="1.5809" stroke-miterlimit="10" d="M195.982,60.538
							c0,0,1.92-9.213,6.115-17.016c0.523-0.973,3.389-5.506,2.724-6.62c-0.664-1.113-2.059-1.859-4.386-1.078
							c1.37-1.091,3.489-1.602,5.683-1.602s2.616,0.965,3.489,0.266c0.872-0.696,0.519-1.731-0.56-2.969
							c-0.647-0.744-1.839-1.303-3.827-1.236c1.665-1.334,6.65-1.127,9.276,0.212c2.626,1.34,4.363,2.68,6.672,4.99
							c8.31,8.911,9.178,37.072,20.667,36.415c13.557-0.774,14.953-15.849,14.953-15.849l-0.344,42.565c0,0-5.04-3.988-8.229-3.988
							c-3.19,0-1.196,18.74-15.152,19.538c4.514-5.666,5.762-9.71,4.698-14.988c-3.161,11.771-9.626,15.088-11.948,15.038
							c4.059-8.024,4.458-16.825,4.458-16.825s-5.382,14.583-14.553,16.177c5.98-9.569,6.479-19.604,6.479-19.604
							s-5.766,15.705-19.039,15.817c11.032-8.905,11.696-11.165,12.095-18.74c-0.869,3.322-10.949,14.204-20.07,12.759
							c5.682-4.386,9.835-8.639,10.633-18.208c-1.33,3.323-8.075,13.192-16.548,11.099c8.374-5.583,9.831-15.167,9.831-15.167
							s-3.517,6.798-13.884,4.733c10.766-5.583,12.758-12.496,13.956-17.544c1.196-5.049,2.283-10.716,1.186-11.314
							C199.261,56.8,195.982,60.538,195.982,60.538z"/>
						<g>
							<path fill="#C98314" d="M233.064,114.167c8.972-2.891,8.292-20.549,13.267-20.094c1.401,0.065-3.246,12.975-4.314,14.798
								C240.95,110.694,237.55,113.869,233.064,114.167z"/>
							<path fill="#C98314" d="M236.852,90.044c0,0-4.286,17.544-10.81,23.711c5.993-3.216,6.582-3.566,8.535-7.597
								C237.811,98.728,236.852,90.044,236.852,90.044z"/>
							<path fill="#C98314" d="M215.72,113.569c10.566-10.666,15.218-27.313,15.218-27.313s-1.389,13.387-3.769,17.21
								C224.791,107.29,222.969,109.156,215.72,113.569z"/>
							<path fill="#C98314" d="M203.16,109.782c13.257-3.988,19.937-24.988,19.937-24.988s-1.302,10.465-5.586,15.717
								S206.947,110.679,203.16,109.782z"/>
							<path fill="#C98314" d="M195.185,103.8c9.132-2.093,18.94-14.454,21.532-23.126c0,0-1.196,11.87-6.778,16.302
								C204.156,104.499,195.185,103.8,195.185,103.8z"/>
							<path fill="#C98314" d="M189.27,96.69c9.304-1.862,17.345-22.817,17.345-22.817s-1.662,12.981-5.35,16.171
								C197.577,93.234,194.72,98.352,189.27,96.69z"/>
						</g>
						<path fill="none" stroke="#771515" stroke-width="1.1962" stroke-miterlimit="10" d="M195.982,60.538
							c0,0,1.92-9.213,6.115-17.016c0.523-0.973,3.389-5.506,2.724-6.62c-0.664-1.113-2.059-1.859-4.386-1.078
							c1.37-1.091,3.489-1.602,5.683-1.602s2.616,0.965,3.489,0.266c0.872-0.696,0.519-1.731-0.56-2.969
							c-0.647-0.744-1.839-1.303-3.827-1.236c1.665-1.334,6.65-1.127,9.276,0.212c2.626,1.34,4.363,2.68,6.672,4.99
							c8.31,8.911,9.178,37.072,20.667,36.415c13.557-0.774,14.953-15.849,14.953-15.849l-0.344,42.565c0,0-5.04-3.988-8.229-3.988
							c-3.19,0-1.196,18.74-15.152,19.538c4.514-5.666,5.762-9.71,4.698-14.988c-3.161,11.771-9.626,15.088-11.948,15.038
							c4.059-8.024,4.458-16.825,4.458-16.825s-5.382,14.583-14.553,16.177c5.98-9.569,6.479-19.604,6.479-19.604
							s-5.766,15.705-19.039,15.817c11.032-8.905,11.696-11.165,12.095-18.74c-0.869,3.322-10.949,14.204-20.07,12.759
							c5.682-4.386,9.835-8.639,10.633-18.208c-1.33,3.323-8.075,13.192-16.548,11.099c8.374-5.583,9.831-15.167,9.831-15.167
							s-3.517,6.798-13.884,4.733c10.766-5.583,12.758-12.496,13.956-17.544c1.196-5.049,2.283-10.716,1.186-11.314
							C199.261,56.8,195.982,60.538,195.982,60.538z"/>
						<g>
							<path fill="#771515" d="M205.861,85.634c1.661-6.262,0.754-11.761,0.754-11.761C199.97,95.56,189.27,96.69,189.27,96.69
								C197.624,98.753,204.4,89.088,205.861,85.634z"/>
							<path fill="#771515" d="M195.185,103.8c9.244,4.948,20.07-12.759,20.07-12.759s1.595-4.918,1.462-10.368
								C216.509,85.488,207.014,102.471,195.185,103.8z"/>
							<path fill="#771515" d="M203.16,109.782c9.038-1.33,19.271-15.418,19.937-24.988c-0.178,6.592,0,6.702-0.897,9.171
								C220.039,100.345,210.336,110.711,203.16,109.782z"/>
							<path fill="#771515" d="M215.72,113.569c11.63-8.705,14.686-24.521,15.218-27.313c0.398,5.183,0,8.373,0,8.373
								S226.552,110.845,215.72,113.569z"/>
							<path fill="#771515" d="M225.815,114.217c6.805-4.974,10.173-14.803,11.037-24.173c1.396,6.313,0.911,9.135,0.911,9.135
								S232.788,113.603,225.815,114.217z"/>
							<path fill="#771515" d="M233.064,114.167c10.5-2.393,10.609-20.094,13.267-20.094c2.658,0,1.57,0.311,1.185,0.925
								S244.494,113.769,233.064,114.167z"/>
						</g>
						<g>
							<path fill="#771515" d="M217.708,33.178c7.013,5.797,7.716,39.123,17.35,39.123c2.284,0,6.273,0.102,7.443,0.133
								C232.134,68.785,228.395,37.153,217.708,33.178z"/>
						</g>
						<path fill="#FDB913" d="M201.697,52.842c0,0,5.935-16.883,11.431-17.756c5.495-0.874,4.63,2.924,4.508,3.588
							s-1.587-1.063-4.111,1.196C211.001,42.13,201.697,52.842,201.697,52.842z"/>
						<g>
							<path fill="#FDB913" d="M217.779,47.446c0,0-0.31,29.772,16.526,32.298C220.836,74.294,217.779,47.446,217.779,47.446z"/>
							<path fill="#771515" d="M217.779,47.446c0,0-0.31,29.772,16.526,32.298C214.058,78.149,217.779,47.446,217.779,47.446z"/>
						</g>
					</g>
					<g>
						<radialGradient id="SVGID_16_" cx="302.6099" cy="71.7998" r="39.2424" gradientUnits="userSpaceOnUse">
							<stop  offset="0" style="stop-color:#E7A523"/>
							<stop  offset="0.9104" style="stop-color:#E7A523"/>
							<stop  offset="1" style="stop-color:#E7A523"/>
						</radialGradient>
						<path fill="url(#SVGID_16_)" stroke="#000000" stroke-width="1.5809" stroke-miterlimit="10" d="M327.63,60.538
							c0,0-1.921-9.213-6.115-17.016c-0.523-0.973-3.39-5.506-2.724-6.62c0.664-1.113,2.06-1.859,4.385-1.078
							c-1.369-1.091-3.488-1.602-5.682-1.602c-2.194,0-2.616,0.965-3.491,0.266c-0.87-0.696-0.517-1.731,0.561-2.969
							c0.648-0.744,1.84-1.303,3.828-1.236c-1.665-1.334-6.649-1.127-9.277,0.212c-2.625,1.34-4.361,2.68-6.671,4.99
							c-8.311,8.911-9.179,37.072-20.668,36.415c-13.557-0.774-14.953-15.849-14.953-15.849l0.344,42.565
							c0,0,5.04-3.988,8.229-3.988c3.19,0,1.197,18.74,15.152,19.538c-4.514-5.666-5.763-9.71-4.699-14.988
							c3.163,11.771,9.628,15.088,11.947,15.038c-4.058-8.024-4.457-16.825-4.457-16.825s5.383,14.583,14.554,16.177
							c-5.98-9.569-6.479-19.604-6.479-19.604s5.766,15.705,19.039,15.817c-11.031-8.905-11.695-11.165-12.094-18.74
							c0.868,3.322,10.948,14.204,20.068,12.759c-5.681-4.386-9.835-8.639-10.633-18.208c1.329,3.323,8.074,13.192,16.547,11.099
							c-8.373-5.583-9.83-15.167-9.83-15.167s3.517,6.798,13.885,4.733c-10.766-5.583-12.759-12.496-13.956-17.544
							c-1.195-5.049-2.282-10.716-1.187-11.314C324.351,56.8,327.63,60.538,327.63,60.538z"/>
						<g>
							<path fill="#C98314" d="M290.548,114.167c-8.971-2.891-8.292-20.549-13.267-20.094c-1.402,0.065,3.244,12.975,4.313,14.798
								C282.663,110.694,286.062,113.869,290.548,114.167z"/>
							<path fill="#C98314" d="M286.76,90.044c0,0,4.286,17.544,10.811,23.711c-5.994-3.216-6.581-3.566-8.535-7.597
								C285.801,98.728,286.76,90.044,286.76,90.044z"/>
							<path fill="#C98314" d="M307.893,113.569c-10.566-10.666-15.22-27.313-15.22-27.313s1.39,13.387,3.77,17.21
								C298.822,107.29,300.642,109.156,307.893,113.569z"/>
							<path fill="#C98314" d="M320.453,109.782c-13.257-3.988-19.937-24.988-19.937-24.988s1.301,10.465,5.586,15.717
								C310.386,105.762,316.665,110.679,320.453,109.782z"/>
							<path fill="#C98314" d="M328.427,103.8c-9.131-2.093-18.938-14.454-21.53-23.126c0,0,1.195,11.87,6.777,16.302
								C319.457,104.499,328.427,103.8,328.427,103.8z"/>
							<path fill="#C98314" d="M334.341,96.69c-9.303-1.862-17.344-22.817-17.344-22.817s1.661,12.981,5.35,16.171
								C326.036,93.234,328.893,98.352,334.341,96.69z"/>
						</g>
						<path fill="none" stroke="#771515" stroke-width="1.1962" stroke-miterlimit="10" d="M327.63,60.538
							c0,0-1.921-9.213-6.115-17.016c-0.523-0.973-3.39-5.506-2.724-6.62c0.664-1.113,2.06-1.859,4.385-1.078
							c-1.369-1.091-3.488-1.602-5.682-1.602c-2.194,0-2.616,0.965-3.491,0.266c-0.87-0.696-0.517-1.731,0.561-2.969
							c0.648-0.744,1.84-1.303,3.828-1.236c-1.665-1.334-6.649-1.127-9.277,0.212c-2.625,1.34-4.361,2.68-6.671,4.99
							c-8.311,8.911-9.179,37.072-20.668,36.415c-13.557-0.774-14.953-15.849-14.953-15.849l0.344,42.565
							c0,0,5.04-3.988,8.229-3.988c3.19,0,1.197,18.74,15.152,19.538c-4.514-5.666-5.763-9.71-4.699-14.988
							c3.163,11.771,9.628,15.088,11.947,15.038c-4.058-8.024-4.457-16.825-4.457-16.825s5.383,14.583,14.554,16.177
							c-5.98-9.569-6.479-19.604-6.479-19.604s5.766,15.705,19.039,15.817c-11.031-8.905-11.695-11.165-12.094-18.74
							c0.868,3.322,10.948,14.204,20.068,12.759c-5.681-4.386-9.835-8.639-10.633-18.208c1.329,3.323,8.074,13.192,16.547,11.099
							c-8.373-5.583-9.83-15.167-9.83-15.167s3.517,6.798,13.885,4.733c-10.766-5.583-12.759-12.496-13.956-17.544
							c-1.195-5.049-2.282-10.716-1.187-11.314C324.351,56.8,327.63,60.538,327.63,60.538z"/>
						<g>
							<path fill="#771515" d="M317.751,85.634c-1.659-6.262-0.754-11.761-0.754-11.761c6.646,21.686,17.344,22.817,17.344,22.817
								C325.99,98.753,319.211,89.088,317.751,85.634z"/>
							<path fill="#771515" d="M328.427,103.8c-9.242,4.948-20.068-12.759-20.068-12.759s-1.596-4.918-1.462-10.368
								C307.103,85.488,316.598,102.471,328.427,103.8z"/>
							<path fill="#771515" d="M320.453,109.782c-9.038-1.33-19.272-15.418-19.937-24.988c0.179,6.592,0,6.702,0.897,9.171
								C303.573,100.345,313.277,110.711,320.453,109.782z"/>
							<path fill="#771515" d="M307.893,113.569c-11.63-8.705-14.687-24.521-15.22-27.313c-0.397,5.183,0,8.373,0,8.373
								S297.062,110.845,307.893,113.569z"/>
							<path fill="#771515" d="M297.796,114.217c-6.804-4.974-10.173-14.803-11.036-24.173c-1.396,6.313-0.911,9.135-0.911,9.135
								S290.826,113.603,297.796,114.217z"/>
							<path fill="#771515" d="M290.548,114.167c-10.499-2.393-10.609-20.094-13.267-20.094c-2.659,0-1.57,0.311-1.186,0.925
								S279.118,113.769,290.548,114.167z"/>
						</g>
						<g>
							<path fill="#771515" d="M305.904,33.178c-7.013,5.797-7.717,39.123-17.35,39.123c-2.284,0-6.273,0.102-7.442,0.133
								C291.479,68.785,295.217,37.153,305.904,33.178z"/>
						</g>
						<path fill="#FDB913" d="M321.915,52.842c0,0-5.934-16.883-11.431-17.756c-5.494-0.874-4.629,2.924-4.508,3.588
							c0.123,0.665,1.587-1.063,4.111,1.196C312.611,42.13,321.915,52.842,321.915,52.842z"/>
						<g>
							<path fill="#FDB913" d="M305.833,47.446c0,0,0.311,29.772-16.526,32.298C302.776,74.294,305.833,47.446,305.833,47.446z"/>
							<path fill="#771515" d="M305.833,47.446c0,0,0.311,29.772-16.526,32.298C309.553,78.149,305.833,47.446,305.833,47.446z"/>
						</g>
					</g>
				</g>
				<g>
					<g>
						<path fill="#FBB040" d="M245.288,113.001c0,0-5.505,7.646-10.088,7.646c-4.583,0-5.681-3.44-10.864-2.667
							c-8.374,1.969-7.875,10.043-6.181,11.737c1.705-3.774,2.184-5.693,7.253-6.173c-3.09,2.891-8.948,7.07-3.066,14.546
							c-1.496-6.678,4.385-10.197,5.98-8.972c3.987,1.197-2.991,8.374,5.845,11.365c-1.994-5.583-2.456-7.975,1.133-9.77
							c3.588-1.794,6.778,2.193,7.576,5.184c0.797,2.991,2.082-3.5-1.95-6.934c-4.031-3.433,9.125-13.401,9.125-13.401l-1.992-3.39
							L245.288,113.001z"/>
						<path fill="#F7941E" d="M241.146,132.56c0.065-2.342-3.652-3.639-6.643-3.041c-2.986,0.597-1.772,6.068-1.769,6.082
							c-0.37-2.333,0.263-3.733,2.567-4.886C237.581,129.575,239.7,130.771,241.146,132.56L241.146,132.56z"/>
						<path fill="#F7941E" d="M250.053,115.563l-0.999-1.699c-2.522,1.875-5.536,4.318-7.174,6.284
							c-2.991,3.589-1.714,6.983-1.714,6.983C240.401,122.876,250.053,115.563,250.053,115.563z"/>
						<path fill="#F7941E" d="M222.542,122.939c-3.19,0.2-3.196,4.193-3.196,4.193l0,0c1.079-2.092,2.319-3.232,6.063-3.587
							C225.409,123.545,225.732,122.74,222.542,122.939z"/>
						<path fill="#F7941E" d="M228.323,129.119c0.806,0.243,1.164,0.729,1.294,1.374c-0.018-0.102,0.299-3.367-3.088-3.361
							c-3.387,0.006-4.146,6.711-4.147,6.722C223.425,130,227.11,128.188,228.323,129.119z"/>
						<path fill="none" stroke="#F7941E" stroke-width="0.7975" stroke-miterlimit="10" d="M220.548,121.743
							c0,0,3.588-3.389,11.064,0c4.253,1.233,9.047-2.226,9.047-2.226s-3.963,2.824-5.757,4.22
							c-1.794,1.396-5.981-1.196-10.566,2.592"/>
						<path fill="none" stroke="#F7941E" stroke-width="0.7975" stroke-miterlimit="10" d="M230.915,131.513
							c0,0,2.249-5.447,6.009-8.605c3.76-3.158,8.05-7.743,8.05-7.743"/>
						<path fill="none" stroke="#F7941E" stroke-width="0.7975" stroke-miterlimit="10" d="M238.89,128.123
							c0,0-1.966-5.215,1.891-8.485"/>
						<g>
							<path fill="#BCBEC0" d="M219.803,126.328c-0.355-1.276-1.326-2.108-2.25-2.632c-0.826,2.562-0.272,5.146,0.604,6.022
								C218.773,128.351,219.23,127.229,219.803,126.328z"/>
							<path fill="#BCBEC0" d="M242.423,130.708c-0.471,0.55-0.943,1.167-1.375,1.73c0.88,1.051,1.526,2.327,1.829,3.459
								C243.553,138.432,244.577,134.161,242.423,130.708z"/>
							<path fill="#BCBEC0" d="M232.782,135.879c-1.568,0.465-2.504,0.258-3.292,0.024c0.281,1.758,1.374,3.462,4.678,4.582
								C233.506,138.627,233.013,137.125,232.782,135.879z"/>
							<path fill="#BCBEC0" d="M220.45,129.237c-1.049,2.318-0.991,5.189,1.893,8.854c-0.416-1.857-0.26-3.468,0.214-4.803
								C221.316,132.331,220.81,130.813,220.45,129.237z"/>
						</g>
						<g>
							<path fill="#939598" d="M222.557,133.288c-0.421-0.325-0.752-0.718-1.027-1.152c-0.001,0.001-0.002,0.002-0.003,0.002
								c-0.949,1.093,0.816,5.952,0.816,5.952C221.927,136.233,222.083,134.623,222.557,133.288z"/>
							<path fill="#939598" d="M231.363,136.143c0.394,1.61,2.805,4.341,2.805,4.341c-0.663-1.857-1.155-3.359-1.386-4.605
								C232.239,136.041,231.775,136.117,231.363,136.143z"/>
							<path fill="#939598" d="M242.877,135.898c0.174,0.653,0.371,0.851,0.531,0.731c0.104-1.357-1.345-3.732-1.975-4.692
								c-0.131,0.17-0.26,0.338-0.385,0.501C241.928,133.49,242.575,134.766,242.877,135.898z"/>
							<path fill="#939598" d="M219.321,125.287c-0.891,0.995-1.165,4.431-1.165,4.431c0.618-1.367,1.075-2.489,1.647-3.39
								C219.695,125.939,219.525,125.597,219.321,125.287z"/>
						</g>
					</g>
					<g>
						<path fill="#FBB040" d="M278.325,113.001c0,0,5.505,7.646,10.088,7.646s5.68-3.44,10.864-2.667
							c8.373,1.969,7.874,10.043,6.18,11.737c-1.706-3.774-2.184-5.693-7.251-6.173c3.088,2.891,8.945,7.07,3.064,14.546
							c1.496-6.678-4.386-10.197-5.981-8.972c-3.987,1.197,2.991,8.374-5.845,11.365c1.993-5.583,2.457-7.975-1.132-9.77
							c-3.59-1.794-6.779,2.193-7.577,5.184c-0.797,2.991-2.082-3.5,1.95-6.934c4.031-3.433-9.125-13.401-9.125-13.401l1.993-3.39
							L278.325,113.001z"/>
						<path fill="#F7941E" d="M282.465,132.56c-0.063-2.342,3.654-3.639,6.644-3.041c2.985,0.597,1.773,6.068,1.771,6.082
							c0.369-2.333-0.263-3.733-2.567-4.886C286.031,129.575,283.913,130.771,282.465,132.56L282.465,132.56z"/>
						<path fill="#F7941E" d="M273.56,115.563l0.999-1.699c2.521,1.875,5.535,4.318,7.173,6.284c2.99,3.589,1.716,6.983,1.716,6.983
							C283.212,122.876,273.56,115.563,273.56,115.563z"/>
						<path fill="#F7941E" d="M301.071,122.939c3.189,0.2,3.196,4.193,3.196,4.193l0,0c-1.081-2.092-2.319-3.232-6.062-3.587
							C298.206,123.545,297.881,122.74,301.071,122.939z"/>
						<path fill="#F7941E" d="M295.289,129.119c-0.805,0.243-1.163,0.729-1.294,1.374c0.018-0.102-0.3-3.367,3.088-3.361
							c3.388,0.006,4.147,6.711,4.148,6.722C300.188,130,296.501,128.188,295.289,129.119z"/>
						<path fill="none" stroke="#F7941E" stroke-width="0.7975" stroke-miterlimit="10" d="M303.065,121.743
							c0,0-3.589-3.389-11.064,0c-4.254,1.233-9.047-2.226-9.047-2.226s3.963,2.824,5.756,4.22
							c1.795,1.396,5.981-1.196,10.567,2.592"/>
						<path fill="none" stroke="#F7941E" stroke-width="0.7975" stroke-miterlimit="10" d="M292.698,131.513
							c0,0-2.25-5.447-6.01-8.605c-3.759-3.158-8.05-7.743-8.05-7.743"/>
						<path fill="none" stroke="#F7941E" stroke-width="0.7975" stroke-miterlimit="10" d="M284.722,128.123
							c0,0,1.966-5.215-1.891-8.485"/>
						<g>
							<path fill="#BCBEC0" d="M303.81,126.328c0.354-1.276,1.327-2.108,2.25-2.632c0.826,2.562,0.273,5.146-0.604,6.022
								C304.839,128.351,304.381,127.229,303.81,126.328z"/>
							<path fill="#BCBEC0" d="M281.191,130.708c0.47,0.55,0.942,1.167,1.374,1.73c-0.88,1.051-1.527,2.327-1.83,3.459
								C280.061,138.432,279.036,134.161,281.191,130.708z"/>
							<path fill="#BCBEC0" d="M290.831,135.879c1.567,0.465,2.503,0.258,3.293,0.024c-0.282,1.758-1.374,3.462-4.68,4.582
								C290.106,138.627,290.598,137.125,290.831,135.879z"/>
							<path fill="#BCBEC0" d="M303.162,129.237c1.05,2.318,0.992,5.189-1.892,8.854c0.416-1.857,0.261-3.468-0.214-4.803
								C302.297,132.331,302.802,130.813,303.162,129.237z"/>
						</g>
						<g>
							<path fill="#939598" d="M301.056,133.288c0.421-0.325,0.752-0.718,1.027-1.152c0,0.001,0.002,0.002,0.003,0.002
								c0.948,1.093-0.816,5.952-0.816,5.952C301.686,136.233,301.531,134.623,301.056,133.288z"/>
							<path fill="#939598" d="M292.25,136.143c-0.394,1.61-2.806,4.341-2.806,4.341c0.662-1.857,1.154-3.359,1.387-4.605
								C291.375,136.041,291.837,136.117,292.25,136.143z"/>
							<path fill="#939598" d="M280.735,135.898c-0.173,0.653-0.37,0.851-0.53,0.731c-0.104-1.357,1.346-3.732,1.974-4.692
								c0.132,0.17,0.261,0.338,0.387,0.501C281.685,133.49,281.038,134.766,280.735,135.898z"/>
							<path fill="#939598" d="M304.292,125.287c0.891,0.995,1.165,4.431,1.165,4.431c-0.617-1.367-1.075-2.489-1.646-3.39
								C303.917,125.939,304.087,125.597,304.292,125.287z"/>
						</g>
					</g>
					<g>
						<path d="M253.942,37.013c-2.891-0.698-6.279-2.599-11.165-2.094c-4.884,0.505-8.872,1.88-8.872,0.591s2.94-5.027,2.94-5.027
							s-5.386,3.08-5.087,5.679c0.299,2.599,2.47,2.2,4.766,1.947s5.23-1.396,6.439-1.396s2.704,0.2,4.398,0.598
							c1.694,0.399,2.193,1.296,3.688,1.296C252.546,38.608,253.942,37.013,253.942,37.013z"/>
						<radialGradient id="SVGID_17_" cx="261.8071" cy="93.1201" r="51.0308" gradientUnits="userSpaceOnUse">
							<stop  offset="0" style="stop-color:#E7A523"/>
							<stop  offset="0.9104" style="stop-color:#E7A523"/>
							<stop  offset="1" style="stop-color:#E7A523"/>
						</radialGradient>
						<path fill="url(#SVGID_17_)" stroke="#000000" stroke-width="1.5809" stroke-miterlimit="10" d="M272.063,137.393
							c-2.544-3.725-3.426-9.154-3.73-11.764c1.417,2.989,11.965,2.295,8.616,2.295c-3.59,0-8.274-7.875-8.274-7.875
							s-1.188-2.093,1.005-3.888c2.192-1.794,5.076,6.978,9.063,0.398c3.986-6.579-8.174-6.778-8.174-14.155
							c0-7.376,3.039-6.18,3.039-17.943s-4.834-12.161-5.632-24.522c1.993,2.792,4.786,3.788,9.97,3.389
							c-6.438-2.389-10.566-6.579-10.368-10.367c1.794,1.595,7.774,2.591,7.774,2.591l-7.774-8.373
							c-0.918-3.39,1.217-3.589,1.616-8.772c0.143-1.867,0.855-6.791,2.62-7.583c1.766-0.791,2.603-3.609,2.882-4.394
							c0.28-0.784-1.017,2.041-2.512,2.207c-1.495,0.166-0.255-0.598-4.642-0.598c-4.386,0-1.539-1.994-6.906-2.393
							c-5.369-0.398-2.607,2.393-6.993,2.393c-4.386,0-7.975-0.398-10.229,0c-2.255,0.399-1.334,7.576,0,5.209
							c1.334-2.366,5.046-1.222,8.493,0c3.446,1.223,2.533,5.158-1.854,6.752c-4.387,1.595-3.616-1.595-3.616-1.595
							s-2.787,2.417,0.651,4.809c3.438,2.392,4.084-2.339,7.928-1.143c3.845,1.196,0.721,2.614,1.02,5.106l-7.776,8.373
							c0,0,5.981-0.997,7.776-2.591c0.198,3.788-3.931,7.978-10.367,10.367c5.183,0.398,7.975-0.598,9.968-3.389
							c-0.797,12.361-5.631,12.759-5.631,24.522s3.04,10.567,3.04,17.943c0,7.377-12.161,7.576-8.174,14.155
							c3.988,6.58,6.871-2.192,9.063-0.398c2.192,1.794,1.005,3.888,1.005,3.888s-4.686,7.875-8.274,7.875
							c-3.349,0,7.198,0.694,8.615-2.295c-0.305,2.61-1.186,8.04-3.729,11.764c-4.064,5.95-15.252,12.66-15.252,12.66
							s13.058-2.492,14.055,1.895c0.997,4.386,4.806-0.889,7.74,1.304c2.55,1.906,0.172,6.362,2.903,7.236
							c0,0,0.567,0.157,0.811,0.142c0.242,0.015,0.81-0.142,0.81-0.142c2.731-0.874,0.353-5.33,2.902-7.236
							c2.935-2.193,6.743,3.082,7.741-1.304c0.997-4.386,14.055-1.895,14.055-1.895S276.127,143.343,272.063,137.393z"/>
						<path opacity="0.49" fill="#FBB040" d="M243.414,33.251c1.334-2.366,5.046-1.222,8.493,0c3.446,1.223,2.533,5.158-1.854,6.752
							c-4.387,1.595-3.616-1.595-3.616-1.595s-2.787,2.417,0.651,4.809c3.438,2.392,4.084-2.339,7.928-1.143
							c0,0-0.908-1.474-0.908-6.191c0-2.347,0.438-5.466,1.037-8.002c-0.382,0.1-0.865,0.16-1.502,0.16
							c-4.386,0-7.975-0.398-10.229,0C241.159,28.44,242.08,35.617,243.414,33.251z"/>
						<path fill="#C98314" d="M248.26,55.554c0,0,7.278-3.339,8.374-5.283c-0.099,2.343-0.099,2.343-0.67,2.62
							C254.788,53.896,248.26,55.554,248.26,55.554z"/>
						<path fill="#C98314" d="M248.26,62.931c0,0,7.888-3.146,8.031-4.888c-0.106,1.947-1.369,2.779-1.369,2.779
							s-3.371,2.859-6.662,2.584C244.97,63.13,248.26,62.931,248.26,62.931z"/>
						<path fill="#C98314" d="M255.436,62.162L255.436,62.162c-1.194,10.234-5.431,11.288-5.431,22.3
							c0,11.497,2.902,10.619,3.035,17.459c-0.001-0.007,0-0.013,0-0.021c-0.105-3.993,5.104-8.565,5.104-18.948
							C258.143,72.57,255.038,69.311,255.436,62.162z"/>
						<path fill="#C98314" d="M245.469,116.46c2.484-1.078,8.672-7.875,8.074-9.271c-0.429-1.001-0.45-1.844-1.201-1.949
							c-2.518,4.711-10.777,5.7-7.522,11.229C245.036,116.546,245.254,116.554,245.469,116.46z"/>
						<path fill="#C98314" d="M273.56,115.165c-1.515-0.598-3.106,0.757-3.106,0.757s0.002,0.003,0.003,0.004
							c1.555,0.183,3.43,3.673,5.747,3.037c0.396-0.181,0.707-0.342,0.866-0.433c0.019-0.013,0.035-0.026,0.054-0.04
							C277.592,118.108,275.055,115.755,273.56,115.165z"/>
						<path fill="#C98314" d="M258.143,133.207c-1.51-10.167-0.7-10.051-1.853-9.511c-0.46,0.215-0.674,1.381-1.146,2.983
							c-0.403,2.834-1.354,7.434-3.594,10.714c-4.064,5.95-15.452,10.667-15.252,12.66
							C239.289,151.15,259.653,143.375,258.143,133.207z"/>
						<path fill="#FBB040" d="M242.359,33.146c0.285-0.116,0.486-0.248,0.486-0.248s0.232-3.05,2.923-3.555
							c2.691-0.504,3.297-0.616,3.293-1.408l0,0c-2.315-0.082-4.241-0.143-5.647,0.105
							C241.873,28.314,241.815,31.751,242.359,33.146z"/>
						<g>
							<polygon fill="#771516" stroke="#771516" stroke-width="1.1962" stroke-miterlimit="10" points="244.975,149.963 
								244.976,149.963 244.975,149.963 							"/>
							<path fill="#771516" stroke="#771516" stroke-width="1.1962" stroke-miterlimit="10" d="M250.353,151.948
								c1.753-0.998,3.721-5.981,3.721-5.981s-2.697,3.165-7.604,3.581"/>
							<path fill="#771516" stroke="#771516" stroke-width="1.1962" stroke-miterlimit="10" d="M277.02,149.594
								c-4.907-0.416-7.604-3.581-7.604-3.581s1.968,4.984,3.72,5.981"/>
						</g>
						<path fill="#771516" d="M262.614,160.62l0.003-0.132c0.744-0.238,1.105-0.743,1.296-1.387c-1.059-1.462-2.105-3.93-2.105-7.75
							c0,3.818-1.047,6.284-2.104,7.746c0.102,0.35,0.251,0.661,0.489,0.908c0.2,0.209,0.464,0.374,0.804,0.483l0.002,0.132
							c0.299,0.023,0.565,0.024,0.809,0.01C262.049,160.644,262.315,160.643,262.614,160.62z"/>
						<path fill="#FDB913" d="M271.187,79.744c0.101,3.821,0,11.015-0.498,12.501c-0.499,1.487-0.913,8.084-0.499,8.465
							c0.057,0.052,0.222-0.04,0.459-0.229c0.48-5.341,2.959-5.398,2.959-16.019c0-9.086-2.883-11.395-4.563-17.67l-0.849-0.671
							C268.197,66.121,271.087,75.923,271.187,79.744z"/>
						<path fill="#C98314" d="M267.363,28.039c-4.121-0.056-1.438-1.997-6.727-2.39c-4.241-0.314-3.412,1.359-5.035,2.077
							c0.05,0.639,0.035,1.013,0.035,1.013s0.598,3.489,1.795,5.283c1.196,1.794,2.592,2.492,3.639,2.542
							c1.046,0.05-4.648-4.494-2.058-6.487C261.604,28.083,267.622,31.568,267.363,28.039z"/>
						<path fill="none" stroke="#771516" stroke-width="0.7975" stroke-linecap="round" stroke-miterlimit="10" d="M259.666,31.339
							c-2.583-2.201,0.656-2.401,2.134-1.472"/>
						<path fill="#FDB913" d="M269.194,38.409c0.143-1.867,0.855-6.791,2.62-7.583c1.766-0.791,2.603-3.609,2.882-4.394
							c0.28-0.784-1.017,2.041-2.512,2.207c-0.772,0.086-0.815-0.076-1.281-0.254c-0.001,0.001-6.07,7.416-4.601,11.396
							c1.47,3.98-0.446,5.57,1.074,5.438C267.567,43.426,268.887,42.378,269.194,38.409z"/>
						<path fill="#FDB913" d="M270.454,103.817c0,0,1.304,6.047,5.182,7.958c1.785,0.879,2.938,1.406,3.815,1.598
							c-0.878-3.427-7.621-4.786-8.728-9.587C270.614,103.779,270.519,103.785,270.454,103.817z"/>
						<path fill="#FDB913" d="M272.063,137.393c-2.124-3.111-3.089-7.406-3.527-10.26v-0.001c0,0,0.06,11.458,4.047,13.85
							c3.987,2.392,13.315,8.872,14.732,9.071C287.514,148.06,276.127,143.343,272.063,137.393z"/>
						<path fill="none" stroke="#771516" stroke-width="1.1962" stroke-miterlimit="10" d="M255.016,42.075
							c3.845,1.196,0.721,2.614,1.02,5.106l-7.776,8.373c0,0,5.981-0.997,7.776-2.591c0.198,3.788-3.931,7.978-10.367,10.367
							c5.183,0.398,7.975-0.598,9.968-3.389c-0.797,12.361-5.631,12.759-5.631,24.522s3.04,10.567,3.04,17.943
							c0,7.377-12.161,7.576-8.174,14.155c3.988,6.58,6.871-2.192,9.063-0.398c2.192,1.794,1.005,3.888,1.005,3.888
							s-4.686,7.875-8.274,7.875c-3.349,0,7.198,0.694,8.615-2.295c-0.305,2.61-1.186,8.04-3.729,11.764
							c-4.064,5.95-15.252,12.66-15.252,12.66s13.058-2.492,14.055,1.895c0.997,4.386,4.806-0.889,7.74,1.304
							c2.231,1.667,0.689,5.287,2.1,6.752c0.2,0.209,0.464,0.374,0.804,0.483c0,0,0.567,0.157,0.811,0.142
							c0.242,0.015,0.81-0.142,0.81-0.142c2.731-0.874,0.353-5.33,2.902-7.236c2.935-2.193,6.743,3.082,7.741-1.304
							c0.997-4.386,14.055-1.895,14.055-1.895s-11.188-6.71-15.252-12.66c-2.544-3.725-3.426-9.154-3.73-11.764
							c1.417,2.989,11.965,2.295,8.616,2.295c-3.59,0-8.274-7.875-8.274-7.875s-1.188-2.093,1.005-3.888
							c2.192-1.794,5.076,6.978,9.063,0.398c3.986-6.579-8.174-6.778-8.174-14.155c0-7.376,3.039-6.18,3.039-17.943
							s-4.834-12.161-5.632-24.522c1.993,2.792,4.786,3.788,9.97,3.389c-6.438-2.389-10.566-6.579-10.368-10.367
							c1.794,1.595,7.774,2.591,7.774,2.591l-7.774-8.373c-0.918-3.39,1.217-3.589,1.616-8.772c0.143-1.867,0.855-6.791,2.62-7.583
							c1.766-0.791,2.603-3.609,2.882-4.394c0.28-0.784-1.017,2.041-2.512,2.207c-1.495,0.166-0.255-0.598-4.642-0.598
							c-4.386,0-1.539-1.994-6.906-2.393c-4.59-0.34-3.242,1.647-5.491,2.232"/>
						<path fill="none" stroke="#771516" stroke-width="1.1962" stroke-miterlimit="10" d="M255.145,27.881
							c-0.382,0.1-0.865,0.16-1.502,0.16c-4.386,0-7.975-0.398-10.229,0c-2.255,0.399-1.334,7.576,0,5.209
							c1.334-2.366,5.046-1.222,8.493,0c3.446,1.223,2.533,5.158-1.854,6.752c-4.387,1.595-3.616-1.595-3.616-1.595
							s-2.787,2.417,0.651,4.809c3.438,2.392,4.084-2.339,7.928-1.143"/>
					</g>
				</g>
			</g>
		</g>
	</g>
	<use xlink:href="#SVGID_2_"  overflow="visible" fill="none" stroke="#000000" stroke-width="7" stroke-miterlimit="10"/>
</g>
<radialGradient id="SVGID_18_" cx="261.8062" cy="575.5225" r="180.5935" gradientUnits="userSpaceOnUse">
	<stop  offset="0.6316" style="stop-color:#FFFFFF"/>
	<stop  offset="0.7049" style="stop-color:#F4F5F5"/>
	<stop  offset="0.8549" style="stop-color:#EAEBEB"/>
	<stop  offset="1" style="stop-color:#E6E7E8"/>
</radialGradient>
<path display="none" fill="url(#SVGID_18_)" stroke="#000000" stroke-width="3" stroke-miterlimit="10" d="M474.52,493.628
	c0,0-35,101-212.714,101s-212.714-101-212.714-101s-32,43-29,61S84.52,657.416,261.806,657.416S500.52,572.628,503.52,554.628
	S474.52,493.628,474.52,493.628z"/>
<g display="none">
	<path fill="none" d="M20.092,554.628c3,18,64.428,102.788,241.714,102.788S500.52,572.628,503.52,554.628"/>
	<path display="inline" d="M58.17,557.796l1.968-0.403l1.307,1.382l10.12-7.123c-0.281-0.464-0.494-0.771-0.636-0.922
		c-1.142-1.208-2.714-1.67-4.716-1.386c-2.002,0.285-3.851,1.229-5.546,2.831l-0.217,0.205l-3.55-0.805
		c6.417-5.409,12.402-5.177,17.956,0.697l0.579,0.612l-11.74,8.269l6.607,6.987l5.268-3.715c3.463-2.445,6.696-3.861,9.698-4.247
		c3.002-0.386,5.338,0.304,7.009,2.07c0.657,0.695,1.113,1.437,1.369,2.225l-3.231,1.21c0.174-1.638-0.038-2.773-0.638-3.408
		c-0.757-0.8-1.822-1.005-3.195-0.614c-1.374,0.391-3.327,1.461-5.86,3.213l-13.311,9.153c-2.855,1.971-4.686,3.337-5.492,4.099
		c-1.064,1.007-1.197,1.933-0.397,2.778c0.35,0.37,0.906,0.845,1.669,1.425l-1.116,0.776l-6.788-4.415l13.603-9.559l-6.606-6.987
		l-2.102,1.473c-3.333,2.336-6.61,3.646-9.833,3.935c-3.223,0.287-5.727-0.514-7.511-2.4c-1.321-1.397-1.842-3.128-1.563-5.193
		l3.732-0.525c-1.02,2.337-0.874,4.2,0.44,5.59c1.892,2,5.343,1.24,10.353-2.281l4.235-2.975L58.17,557.796z"/>
	<path display="inline" d="M79.308,597.266l4.582-4.81c-4.404,2.253-7.684,2.618-9.839,1.095c-1.502-1.061-2.191-2.624-2.069-4.688
		c0.123-2.064,1.034-4.299,2.733-6.703c1.059-1.499,3.043-3.763,5.954-6.793c2.911-3.029,5.764-5.803,8.561-8.32
		c-0.367-0.398-0.635-0.658-0.805-0.778c-1.4-0.989-3.049-1.131-4.947-0.426c-1.898,0.706-3.565,2.075-5.002,4.107l-3.639-0.089
		c5.208-6.579,11.071-7.565,17.588-2.961l0.917,0.647c-3.12,2.777-6.236,5.783-9.349,9.019c-3.113,3.234-5.281,5.718-6.504,7.448
		c-1.33,1.882-2.099,3.547-2.307,4.993c-0.208,1.447,0.176,2.516,1.152,3.205c1.026,0.726,2.467,0.838,4.323,0.337
		c1.855-0.501,3.911-1.564,6.168-3.192l15.008-15.81l3.197,1.605l-4.92,4.91l-10.637,11.191c-1.948,2.055-3.16,3.419-3.636,4.093
		c-0.887,1.255-0.766,2.281,0.363,3.078c0.399,0.282,0.949,0.584,1.651,0.905l-0.954,0.998L79.308,597.266z"/>
	<path display="inline" d="M89.419,600.879l3.374-1.85c-0.086,2.582,0.712,4.281,2.395,5.098c1.103,0.535,2.391,0.369,3.862-0.498
		c1.471-0.867,2.874-2.282,4.207-4.244l11.497-16.954c-0.427-0.333-0.734-0.545-0.921-0.636c-1.542-0.748-3.193-0.62-4.951,0.385
		c-1.758,1.006-3.18,2.628-4.266,4.868l-3.605,0.504c1.928-3.476,4.317-5.747,7.168-6.815c2.851-1.068,5.87-0.829,9.058,0.718
		l1.136,0.551c-1.468,7.431-3.493,14.82-6.075,22.168l19.061-15.87l3.234,0.976l-4.055,5.646l-9.894,14.576
		c-0.873,1.301-1.511,2.366-1.915,3.198c-0.546,1.126-0.319,1.932,0.681,2.417c0.496,0.24,1.193,0.492,2.094,0.755l-0.778,1.141
		l-7.84-1.479l15.756-23.235l-19.798,16.39l-1.593-0.394l0.27-0.557c2.427-5.005,4.548-11.651,6.363-19.941l-4.949,7.275
		c-6.089,8.983-11.49,12.332-16.202,10.047C91.087,604.32,89.982,602.906,89.419,600.879z"/>
	<path display="inline" d="M123.401,617.014l2.912-2.09c0.281,2.282,1.181,3.676,2.7,4.181c1.449,0.482,3.087,0.108,4.914-1.12
		c1.827-1.229,4.328-3.654,7.503-7.275l11.39-12.961c-1.017-0.533-1.909-0.928-2.678-1.184c-2.061-0.686-3.885-0.508-5.474,0.532
		c-1.588,1.039-2.819,2.87-3.69,5.491l-3.553,1.002c1.032-2.478,2.249-4.406,3.649-5.787c1.552-1.539,3.095-2.489,4.627-2.851
		c1.533-0.36,3.545-0.254,6.037,0.32c0.497,0.12,1.251,0.288,2.263,0.505l3.266,0.253l-2.052,6.812l-3.799,14.286
		c-0.885,3.321-1.32,5.558-1.304,6.711c0.016,1.153,0.492,1.886,1.429,2.197c0.167,0.056,0.758,0.207,1.771,0.453l-0.637,1.272
		l-7.3-0.719l2.713-10.184l-8.06-2.681c-2.788,3.181-5.123,5.278-7.004,6.294c-1.882,1.016-3.784,1.204-5.707,0.564
		C125.495,620.431,124.189,619.09,123.401,617.014z M141.165,612.892l7.321,2.436l4.116-15.536L141.165,612.892z"/>
	<path display="inline" d="M154.335,626.848l2.844-2.565c0.529,2.534,1.697,3.999,3.504,4.396c1.208,0.265,2.425-0.192,3.652-1.373
		c1.227-1.18,2.261-2.886,3.102-5.119l7.217-19.148c-0.494-0.224-0.847-0.36-1.06-0.406c-1.665-0.365-3.234,0.146-4.709,1.533
		s-2.479,3.298-3.012,5.729l-3.388,1.332c1.01-3.638,2.762-6.363,5.256-8.175c2.493-1.813,5.272-2.383,8.337-1.71l1.461,0.32
		c0.241,3.897,0.758,8.11,1.551,12.64l0.9,5.134c0.639,3.534,1.054,6.37,1.245,8.509l4.394-11.662
		c1.51-4.023,3.261-7.008,5.251-8.952s4.041-2.685,6.152-2.222c0.751,0.165,1.444,0.521,2.08,1.067l-1.713,2.573
		c-0.69-1.17-1.451-1.847-2.283-2.029c-2.192-0.481-4.237,1.809-6.134,6.868l-5.727,15.192l-2.069,6.013l-2.15,0.489
		c-0.021-1.649-0.443-4.815-1.267-9.496l-1.746-9.864c-0.464-2.636-0.813-4.977-1.044-7.022l-2.917,7.771
		c-1.854,4.909-3.944,8.535-6.272,10.879c-2.328,2.344-4.735,3.243-7.222,2.697C156.822,629.862,155.411,628.73,154.335,626.848z"/>
	<path display="inline" d="M186.746,635.598l2.777-2.779l1.033,0.154c1.171,0.174,2.115-0.221,2.832-1.186s1.524-2.955,2.425-5.971
		l5.078-16.848l-4.178-0.622l2.7-2.791l10.036,1.495l-2.809,2.774l-2.513-0.374l-4.399,14.618c-1.349,4.474-3.59,7.671-6.723,9.592
		l5.965,1.104l-2.685,2.793L186.746,635.598z"/>
	<path display="inline" d="M223.341,638.195l2.369-3.01c0.951,2.407,2.35,3.652,4.198,3.737c1.235,0.056,2.357-0.602,3.367-1.973
		c1.009-1.37,1.738-3.228,2.188-5.571l3.865-20.094c-0.524-0.138-0.895-0.212-1.113-0.222c-1.702-0.078-3.163,0.692-4.38,2.31
		c-1.218,1.618-1.883,3.67-1.997,6.157l-3.113,1.887c0.379-3.756,1.644-6.738,3.794-8.947c2.149-2.209,4.792-3.242,7.927-3.099
		l1.495,0.067c0.898,3.801,2.122,7.865,3.672,12.193l1.757,4.907c1.229,3.375,2.119,6.1,2.67,8.175l2.352-12.238
		c0.807-4.222,2.025-7.459,3.658-9.713c1.631-2.254,3.526-3.331,5.686-3.232c0.769,0.034,1.512,0.269,2.23,0.699l-1.252,2.827
		c-0.879-1.037-1.744-1.575-2.595-1.614c-2.242-0.102-3.869,2.501-4.881,7.809l-3.067,15.944l-1.02,6.276l-2.036,0.847
		c-0.3-1.622-1.253-4.671-2.859-9.144l-3.393-9.426c-0.905-2.519-1.645-4.767-2.22-6.744l-1.558,8.153
		c-0.994,5.152-2.44,9.08-4.336,11.785c-1.897,2.704-4.117,3.998-6.66,3.883C226.304,640.744,224.721,639.868,223.341,638.195z"/>
	<path display="inline" d="M256.704,641.48l2.307-3.18l1.045-0.011c1.185-0.011,2.055-0.549,2.61-1.614s1.043-3.158,1.46-6.277
		l2.373-17.436l-4.224,0.041l2.229-3.18l10.146-0.098l-2.338,3.181l-2.541,0.024l-2.052,15.128
		c-0.632,4.63-2.344,8.139-5.137,10.526l6.064,0.155l-2.214,3.18L256.704,641.48z"/>
	<path display="inline" d="M270.513,641.451l2.096-3.237l0.903-0.033c1.235-0.046,2.12-0.569,2.655-1.571s0.958-2.918,1.27-5.748
		l1.187-10.976c0.348-3.244,1.324-5.946,2.929-8.104c1.605-2.159,3.477-3.278,5.616-3.357c0.955-0.035,2.078,0.394,3.369,1.285
		l-0.583,5.338l-0.996,0.037c0.018-0.37,0.021-0.677,0.013-0.919c-0.098-2.644-1.144-3.929-3.137-3.855
		c-1.963,0.072-3.191,2.417-3.687,7.033l-1.071,9.861c-0.317,2.958-0.828,5.24-1.533,6.847s-1.84,3.05-3.404,4.332l8.714-0.129
		c2.503-0.093,4.675-0.97,6.516-2.633l-0.174,1.608c-1.39,1.816-2.44,2.983-3.154,3.501s-1.673,0.798-2.878,0.843L270.513,641.451z"
		/>
	<path display="inline" d="M314.041,637.124l1.666-3.174c1.274,1.914,2.704,2.757,4.287,2.527c1.512-0.219,2.809-1.286,3.892-3.204
		c1.082-1.917,2.23-5.206,3.446-9.866l4.372-16.691c-1.147-0.021-2.122,0.026-2.924,0.143c-2.149,0.311-3.701,1.287-4.655,2.929
		s-1.233,3.829-0.838,6.563l-2.727,2.488c-0.188-2.677,0.035-4.946,0.669-6.809c0.697-2.071,1.65-3.612,2.858-4.622
		c1.208-1.009,3.055-1.815,5.54-2.42c0.497-0.115,1.247-0.303,2.249-0.563l3.033-1.237l1.219,7.008l3.008,14.474
		c0.696,3.365,1.311,5.561,1.842,6.584c0.531,1.022,1.285,1.464,2.263,1.322c0.175-0.025,0.771-0.154,1.786-0.388l0.001,1.423
		l-6.848,2.63l-2.139-10.32l-8.407,1.217c-1.066,4.093-2.213,7.015-3.44,8.766c-1.227,1.752-2.843,2.772-4.848,3.063
		C317.443,639.24,315.675,638.626,314.041,637.124z M328.072,625.478l7.636-1.104l-3.284-15.733L328.072,625.478z"/>
	<path display="inline" d="M345.932,634.058l1.473-3.563l0.883-0.197c1.206-0.27,1.981-0.945,2.326-2.027
		c0.344-1.082,0.412-3.043,0.204-5.883l-0.827-11.009c-0.247-3.254,0.223-6.088,1.408-8.502c1.187-2.415,2.823-3.854,4.913-4.321
		c0.933-0.208,2.115,0.009,3.547,0.651l0.396,5.355l-0.974,0.218c-0.051-0.368-0.102-0.67-0.154-0.906
		c-0.576-2.582-1.838-3.656-3.785-3.222c-1.917,0.428-2.699,2.956-2.348,7.585l0.738,9.893c0.225,2.967,0.137,5.304-0.265,7.012
		c-0.401,1.707-1.255,3.333-2.561,4.878l8.545-1.71c2.444-0.545,4.421-1.803,5.93-3.771l0.12,1.612
		c-1.035,2.039-1.857,3.377-2.465,4.016c-0.608,0.639-1.501,1.089-2.677,1.352L345.932,634.058z"/>
	<path display="inline" d="M366.872,629.282l1.396-3.673l1.005-0.282c1.141-0.32,1.84-1.067,2.099-2.241
		c0.258-1.173,0.181-3.32-0.231-6.44l-2.266-17.449l-4.066,1.143l1.321-3.651l9.768-2.746l-1.426,3.682l-2.446,0.688l1.973,15.139
		c0.601,4.633-0.135,8.468-2.207,11.503l5.895-1.436l-1.306,3.647L366.872,629.282z"/>
	<path display="inline" d="M382.905,624.747l1.138-3.758l0.251-0.087c1.492-0.518,2.373-1.298,2.645-2.34
		c0.271-1.041,0.114-3.071-0.471-6.088l-3.708-19.342c-2.021,0.702-3.398,2.012-4.13,3.929c-0.731,1.918-0.683,4.073,0.147,6.465
		l0.153,0.443l-2.199,2.887c-1.167-4.157-1.043-7.573,0.372-10.247c1.415-2.675,4.174-4.724,8.277-6.146l8.658-3.004l0.669,6.159
		l-0.928,0.322c-0.104-0.552-0.228-1.035-0.372-1.452c-0.368-1.062-1.066-1.64-2.095-1.735c-1.028-0.095-2.716,0.265-5.062,1.079
		l-0.457,0.158l2.433,12.526l6.567-2.278l-0.782,2.597c-2.363,0.384-3.948,0.716-4.753,0.995l-0.736,0.255l0.445,2.281
		c0.504,2.562,0.652,4.679,0.446,6.351c-0.206,1.673-0.841,3.482-1.902,5.43l7.2-2.07l1.567-0.476c1.6-0.555,2.838-1.82,3.715-3.796
		l0.324,1.694c-0.903,3.009-2.121,4.778-3.652,5.31l-0.684,0.215L382.905,624.747z"/>
	<path display="inline" d="M402.796,615.879l0.683-3.769c1.968,1.682,3.788,2.127,5.46,1.336c1.117-0.528,1.802-1.635,2.051-3.318
		c0.25-1.684,0.025-3.666-0.675-5.948l-5.994-19.564c-0.528,0.124-0.891,0.232-1.088,0.325c-1.541,0.729-2.47,2.093-2.788,4.093
		c-0.319,2,0.054,4.125,1.118,6.375l-1.867,3.125c-1.424-3.496-1.703-6.724-0.838-9.683c0.865-2.958,2.716-5.108,5.553-6.45
		l1.353-0.64c2.573,2.938,5.559,5.956,8.955,9.055l3.851,3.513c2.667,2.405,4.729,4.396,6.188,5.973l-3.653-11.915
		c-1.264-4.107-1.703-7.539-1.316-10.295c0.387-2.755,1.557-4.595,3.51-5.519c0.695-0.329,1.462-0.471,2.299-0.427l0.217,3.084
		c-1.262-0.505-2.277-0.575-3.048-0.211c-2.028,0.96-2.247,4.021-0.655,9.186l4.756,15.524l2.038,6.022l-1.402,1.702
		c-1.025-1.293-3.295-3.54-6.809-6.741l-7.411-6.738c-1.979-1.803-3.686-3.442-5.12-4.92l2.441,7.933
		c1.534,5.019,2.097,9.167,1.688,12.444c-0.409,3.278-1.765,5.461-4.066,6.549C406.608,616.744,404.798,616.711,402.796,615.879z"/>
	<path display="inline" d="M453.062,591.197l-2.894-5.979c0.563,4.915-0.248,8.113-2.431,9.597c-1.521,1.033-3.227,1.13-5.117,0.29
		c-1.89-0.841-3.661-2.479-5.316-4.914c-1.031-1.519-2.454-4.172-4.268-7.961c-1.814-3.789-3.409-7.436-4.783-10.938
		c-0.503,0.204-0.84,0.364-1.012,0.481c-1.418,0.963-2.13,2.457-2.137,4.482c-0.006,2.024,0.69,4.066,2.089,6.126l-1.361,3.376
		c-4.33-7.188-3.195-13.023,3.406-17.508l0.928-0.631c1.504,3.896,3.224,7.87,5.159,11.921s3.499,6.953,4.689,8.706
		c1.295,1.906,2.583,3.211,3.865,3.914c1.281,0.703,2.416,0.719,3.404,0.047c1.04-0.706,1.651-2.016,1.835-3.929
		c0.183-1.912-0.092-4.211-0.822-6.896l-9.531-19.604l2.627-2.43l2.869,6.332l6.741,13.89c1.239,2.546,2.092,4.16,2.555,4.843
		c0.863,1.271,1.866,1.518,3.01,0.741c0.404-0.274,0.88-0.684,1.427-1.228l0.601,1.243L453.062,591.197z"/>
	<path display="inline" d="M460.378,583.184l-0.762-3.771c2.439,0.851,4.3,0.595,5.579-0.77c0.839-0.894,1.063-2.173,0.674-3.836
		c-0.391-1.662-1.324-3.422-2.801-5.278l-12.766-16.02c-0.446,0.309-0.74,0.539-0.882,0.69c-1.174,1.25-1.542,2.863-1.105,4.841
		c0.438,1.978,1.563,3.817,3.378,5.521l-0.591,3.592c-2.744-2.875-4.202-5.832-4.374-8.872c-0.172-3.039,0.955-5.851,3.38-8.435
		l0.863-0.92c6.658,3.611,13.11,7.743,19.357,12.395l-9.48-22.919l1.894-2.797l4.184,5.551l10.974,13.782
		c0.981,1.22,1.81,2.146,2.483,2.779c0.913,0.856,1.749,0.879,2.511,0.068c0.376-0.401,0.824-0.992,1.343-1.774l0.857,1.082
		l-3.744,7.046l-17.496-21.955l9.758,23.777l-0.85,1.404l-0.451-0.424c-4.056-3.806-9.771-7.809-17.146-12.008l5.474,6.89
		c6.766,8.486,8.356,14.639,4.772,18.457C464.161,582.615,462.483,583.249,460.378,583.184z"/>
</g>
</svg>
