<?xml version="1.0" encoding="utf-8"?>
<!-- Generator: Adobe Illustrator 15.0.0, SVG Export Plug-In  -->
<!DOCTYPE svg PUBLIC "-//W3C//DTD SVG 1.1//EN" "http://www.w3.org/Graphics/SVG/1.1/DTD/svg11.dtd" [
	<!ENTITY ns_flows "http://ns.adobe.com/Flows/1.0/">
]>
<svg version="1.1"
	 xmlns="http://www.w3.org/2000/svg" xmlns:xlink="http://www.w3.org/1999/xlink" xmlns:a="http://ns.adobe.com/AdobeSVGViewerExtensions/3.0/"
	 x="0px" y="0px" width="524px" height="659px" viewBox="132.396 -0.5 524 659" enable-background="new 132.396 -0.5 524 659"
	 xml:space="preserve">
<defs>
</defs>
<linearGradient id="SVGID_3_" gradientUnits="userSpaceOnUse" x1="170.1851" y1="515.3037" x2="225.0794" y2="536.3757">
	<stop  offset="0" style="stop-color:#8B5E3C"/>
	<stop  offset="0.497" style="stop-color:#FDC060"/>
</linearGradient>
<path display="none" fill="url(#SVGID_3_)" stroke="#000000" stroke-width="3" stroke-miterlimit="10" d="M241.489,493.628l-72,70
	c0,0-13.53,0.171-11-15c2.529-15.171,23-55,23-55s1-8,21-9S241.489,493.628,241.489,493.628z"/>
<linearGradient id="SVGID_4_" gradientUnits="userSpaceOnUse" x1="563.3257" y1="536.376" x2="618.22" y2="515.304">
	<stop  offset="0.503" style="stop-color:#FDC060"/>
	<stop  offset="1" style="stop-color:#8B5E3C"/>
</linearGradient>
<path display="none" fill="url(#SVGID_4_)" stroke="#000000" stroke-width="3" stroke-miterlimit="10" d="M546.917,493.628l72,70
	c0,0,13.529,0.171,11-15s-23-55-23-55s-1-8-21-9S546.917,493.628,546.917,493.628z"/>
<linearGradient id="SVGID_5_" gradientUnits="userSpaceOnUse" x1="133.8965" y1="461.1279" x2="239.4888" y2="461.1279">
	<stop  offset="0" style="stop-color:#BCBEC0"/>
	<stop  offset="0.3333" style="stop-color:#E6E7E8"/>
</linearGradient>
<path display="none" fill="url(#SVGID_5_)" stroke="#000000" stroke-width="3" stroke-miterlimit="10" d="M134.489,456.628
	c0-18,7.316-28,35-28s51,8,51,8l19,57c0,0-71.883-16.141-90.941-9.07S134.489,456.628,134.489,456.628z"/>
<linearGradient id="SVGID_6_" gradientUnits="userSpaceOnUse" x1="548.9165" y1="461.1279" x2="654.5083" y2="461.1279">
	<stop  offset="0.6316" style="stop-color:#E6E7E8"/>
	<stop  offset="0.6867" style="stop-color:#DBDCDD"/>
	<stop  offset="0.7932" style="stop-color:#CACBCD"/>
	<stop  offset="0.8984" style="stop-color:#BFC1C3"/>
	<stop  offset="1" style="stop-color:#BCBEC0"/>
</linearGradient>
<path display="none" fill="url(#SVGID_6_)" stroke="#000000" stroke-width="3" stroke-miterlimit="10" d="M653.917,456.628
	c0-18-7.316-28-35-28s-51,8-51,8l-19,57c0,0,71.883-16.141,90.941-9.07S653.917,456.628,653.917,456.628z"/>
<path display="none" fill="#FBB040" stroke="#000000" stroke-width="3" stroke-miterlimit="10" d="M134.489,456.628c0,0,8,6,23,6
	c9.731,10.067,11,32,11,58.345c-25-1.345-34-19.345-34-48.345S134.489,456.628,134.489,456.628z"/>
<path display="none" fill="#FBB040" stroke="#000000" stroke-width="3" stroke-miterlimit="10" d="M653.917,456.628c0,0-8,6-23,6
	c-9.731,10.067-11,32-11,58.345c25-1.345,34-19.345,34-48.345S653.917,456.628,653.917,456.628z"/>
<g>
	<defs>
		<path id="SVGID_2_" d="M393.759,3.5H142.739c0,0,0,138.937,0,258.714c0,161.081,140,299,251.714,341
			c118.286-39,251.714-175.92,251.714-337c0-119.778,0-262.714,0-262.714H393.759z"/>
	</defs>
	<radialGradient id="SVGID_7_" cx="394.4526" cy="303.3569" r="276.8339" gradientUnits="userSpaceOnUse">
		<stop  offset="0" style="stop-color:#FFD56C"/>
		<stop  offset="1" style="stop-color:#FBB041"/>
	</radialGradient>
	<use xlink:href="#SVGID_2_"  overflow="visible" fill="url(#SVGID_7_)"/>
	<clipPath id="SVGID_8_">
		<use xlink:href="#SVGID_2_"  overflow="visible"/>
	</clipPath>
	<radialGradient id="SVGID_9_" cx="394.4517" cy="367.6343" r="327.2118" gradientUnits="userSpaceOnUse">
		<stop  offset="0" style="stop-color:#ED1C24"/>
		<stop  offset="1" style="stop-color:#BE1E2D"/>
	</radialGradient>
	<polygon clip-path="url(#SVGID_8_)" fill="url(#SVGID_9_)" stroke="#000000" stroke-width="2" stroke-miterlimit="10" points="
		787.543,511.632 394.454,123.475 1.361,511.632 85.908,611.794 394.454,307.123 702.999,611.794 	"/>
	<g display="none" clip-path="url(#SVGID_8_)">
		<path fill="#BE1E2D" stroke="#000000" stroke-width="2" stroke-miterlimit="10" d="M290.655,40.036c-4.969,0-16.513,0-28.332,0
			c-0.167,0-0.333,0-0.5,0c0,0-4.745,0-11.667,0c-3.041,0-6.503,0-10.166,0c-3.755,0-7.721,0-11.668,0c-0.167,0-0.333,0-0.499,0
			c-11.82,0-23.363,0-28.333,0c-12,0-14.667-7.075-14.667-7.075v7.641v24.053v7.641c0,0,2.667-7.075,14.667-7.075
			c4.97,0,16.513,0,28.333,0c0,26.788,0,66.398,0,74.408c0,12.333-9,13.667-9,13.667h21.167h10.166h21.167c0,0-9-1.334-9-13.667
			c0-8.01,0-47.62,0-74.408c11.819,0,23.363,0,28.332,0c12,0,14.667,7.075,14.667,7.075v-7.641V40.602v-7.641
			C305.322,32.961,302.655,40.036,290.655,40.036z"/>
		<path fill="#BE1E2D" stroke="#000000" stroke-width="2" stroke-miterlimit="10" d="M440.035,440.536c-4.969,0-16.513,0-28.332,0
			c-0.167,0-0.333,0-0.5,0c0,0-4.745,0-11.667,0c-3.041,0-6.503,0-10.166,0c-3.755,0-7.721,0-11.668,0c-0.167,0-0.333,0-0.499,0
			c-11.82,0-23.363,0-28.333,0c-12,0-14.667-7.075-14.667-7.075v7.641v24.053v7.641c0,0,2.667-7.075,14.667-7.075
			c4.97,0,16.513,0,28.333,0c0,26.789,0,66.398,0,74.408c0,12.333-9,13.667-9,13.667h21.167h10.166h21.167c0,0-9-1.334-9-13.667
			c0-8.01,0-47.619,0-74.408c11.819,0,23.363,0,28.332,0c12,0,14.667,7.075,14.667,7.075v-7.641v-24.053v-7.641
			C454.702,433.461,452.035,440.536,440.035,440.536z"/>
		<path fill="#BE1E2D" stroke="#000000" stroke-width="2" stroke-miterlimit="10" d="M498.25,40.036c4.97,0,16.514,0,28.333,0
			c0.167,0,0.333,0,0.5,0c0,0,4.745,0,11.667,0c3.041,0,6.502,0,10.166,0c3.755,0,7.721,0,11.668,0c0.166,0,0.332,0,0.499,0
			c11.819,0,23.363,0,28.333,0c12,0,14.667-7.075,14.667-7.075v7.641v24.053v7.641c0,0-2.667-7.075-14.667-7.075
			c-4.97,0-16.514,0-28.333,0c0,26.788,0,66.398,0,74.408c0,12.333,9,13.667,9,13.667h-21.167H538.75h-21.167c0,0,9-1.334,9-13.667
			c0-8.01,0-47.62,0-74.408c-11.819,0-23.363,0-28.333,0c-12,0-14.666,7.075-14.666,7.075v-7.641V40.602v-7.641
			C483.583,32.961,486.25,40.036,498.25,40.036z"/>
	</g>
	<g clip-path="url(#SVGID_8_)">
		<g>
			
				<radialGradient id="SVGID_10_" cx="84.4893" cy="-43.3721" r="1.0001" gradientTransform="matrix(87.3159 0 0 -87.3159 -7133.0093 -3684.0527)" gradientUnits="userSpaceOnUse">
				<stop  offset="0" style="stop-color:#F15D49"/>
				<stop  offset="0.3148" style="stop-color:#D8443B"/>
				<stop  offset="0.7368" style="stop-color:#C52930"/>
				<stop  offset="1" style="stop-color:#BE1E2D"/>
			</radialGradient>
			<path fill="url(#SVGID_10_)" d="M293.726,116.682c22.789,26.932,32.815-22.364,40.008-33.422
				c-11.457-5.57-50.03-40.105-51.867-6.422c-0.685,12.423-10.469,7.795-15.797,4.148c-4.715-3.227-13.326-11.044-0.844-16.336
				c30.273-12.834-12.656-37.903-20.742-46.664c-7.301,8.823-53.489,35.47-20.742,47.133c11.795,4.201,0.697,15.095-1.242,16.359
				c-1.866,1.216-14.893,11.112-15.938-2.625c-2.728-35.849-40.982-0.352-51.891,4.289c6.816,11.358,18.522,62.932,39.984,32.672
				c6.217-8.766,12.414,2.125,14.039,6.961c2.34,6.965,2.598,17.969-7.781,14.977c-33.815-9.748-12.023,49.57-12.023,49.57
				c11.829-1.422,61.768,2.777,44.672-27.141c-5.603-9.805,4.265-11.294,10.617-11.719c6.735-0.45,15.963-0.139,9.727,10.805
				c-17.658,30.986,30.681,26.371,45.633,28.805c2.178-12.098,22.172-58.84-11.977-51.281c-11.953,2.646-9.259-8.176-7.172-13.383
				C282.218,118.848,284.525,105.807,293.726,116.682z"/>
			<path fill="none" stroke="#010101" stroke-width="1.3333" d="M293.726,116.682c22.789,26.932,32.815-22.364,40.008-33.422
				c-11.457-5.57-50.03-40.105-51.867-6.422c-0.685,12.423-10.469,7.795-15.797,4.148c-4.715-3.227-13.326-11.044-0.844-16.336
				c30.273-12.834-12.656-37.903-20.742-46.664c-7.301,8.823-53.489,35.47-20.742,47.133c11.795,4.201,0.697,15.095-1.242,16.359
				c-1.866,1.216-14.893,11.112-15.938-2.625c-2.728-35.849-40.982-0.352-51.891,4.289c6.816,11.358,18.522,62.932,39.984,32.672
				c6.217-8.766,12.414,2.125,14.039,6.961c2.34,6.965,2.598,17.969-7.781,14.977c-33.815-9.748-12.023,49.57-12.023,49.57
				c11.829-1.422,61.768,2.777,44.672-27.141c-5.603-9.805,4.265-11.294,10.617-11.719c6.735-0.45,15.963-0.139,9.727,10.805
				c-17.658,30.986,30.681,26.371,45.633,28.805c2.178-12.098,22.172-58.84-11.977-51.281c-11.953,2.646-9.259-8.176-7.172-13.383
				C282.218,118.848,284.525,105.807,293.726,116.682z"/>
			
				<radialGradient id="SVGID_11_" cx="84.4888" cy="-43.3716" r="1" gradientTransform="matrix(18.75 0 0 -18.75 -1339.6757 -701.489)" gradientUnits="userSpaceOnUse">
				<stop  offset="0" style="stop-color:#F15D49"/>
				<stop  offset="0.3148" style="stop-color:#D8443B"/>
				<stop  offset="0.7368" style="stop-color:#C52930"/>
				<stop  offset="1" style="stop-color:#BE1E2D"/>
			</radialGradient>
			<path fill="url(#SVGID_11_)" d="M225.734,111.736c0,10.35,8.399,18.75,18.75,18.75c10.35,0,18.75-8.4,18.75-18.75
				c0-10.351-8.4-18.75-18.75-18.75C234.133,92.986,225.734,101.386,225.734,111.736z"/>
			<path fill="none" stroke="#010101" stroke-width="1.3333" d="M225.734,111.736c0,10.35,8.399,18.75,18.75,18.75
				c10.35,0,18.75-8.4,18.75-18.75c0-10.351-8.4-18.75-18.75-18.75C234.133,92.986,225.734,101.386,225.734,111.736z"/>
			<path fill="#BE1E2D" d="M243.95,39.024c-0.245,32.268,0.189,33.605,0.189,33.605c-0.787,4.438-2.23,8.443-7.973,9.621"/>
			<path fill="none" stroke="#010101" stroke-width="1.3333" d="M243.95,39.024c-0.245,32.268,0.189,33.605,0.189,33.605
				c-0.787,4.438-2.23,8.443-7.973,9.621"/>
			<path fill="#BE1E2D" d="M243.909,32.339c0.245,32.268-0.189,40.291-0.189,40.291c0.787,4.438,2.231,8.443,7.973,9.621"/>
			<path fill="none" stroke="#010101" stroke-width="1.3333" d="M243.909,32.339c0.245,32.268-0.189,40.291-0.189,40.291
				c0.787,4.438,2.231,8.443,7.973,9.621"/>
			<path fill="#BE1E2D" d="M175.444,89.499c30.612,10.205,32.02,10.205,32.02,10.205c3.977,2.119,7.34,4.73,6.686,10.556"/>
			<path fill="none" stroke="#010101" stroke-width="1.3333" d="M175.444,89.499c30.612,10.205,32.02,10.205,32.02,10.205
				c3.977,2.119,7.34,4.73,6.686,10.556"/>
			<path fill="#BE1E2D" d="M169.073,87.473c30.764,9.738,38.261,12.632,38.261,12.632c4.464,0.621,8.719,0.486,11.613-4.611"/>
			<path fill="none" stroke="#010101" stroke-width="1.3333" d="M169.073,87.473c30.764,9.738,38.261,12.632,38.261,12.632
				c4.464,0.621,8.719,0.486,11.613-4.611"/>
			<path fill="#BE1E2D" d="M201.04,170.801c19.164-25.961,19.6-27.299,19.6-27.299c3.245-3.127,6.768-5.52,12.105-3.097"/>
			<path fill="none" stroke="#010101" stroke-width="1.3333" d="M201.04,170.801c19.164-25.961,19.6-27.299,19.6-27.299
				c3.245-3.127,6.768-5.52,12.105-3.097"/>
			<path fill="#BE1E2D" d="M197.143,176.234c18.769-26.25,23.837-32.485,23.837-32.485c1.971-4.053,3.157-8.142-0.796-12.47"/>
			<path fill="none" stroke="#010101" stroke-width="1.3333" d="M197.143,176.234c18.769-26.25,23.837-32.485,23.837-32.485
				c1.971-4.053,3.157-8.142-0.796-12.47"/>
			<path fill="#BE1E2D" d="M287.065,170.658c-18.769-26.248-19.907-27.076-19.907-27.076c-1.971-4.053-3.157-8.142,0.797-12.47"/>
			<path fill="none" stroke="#010101" stroke-width="1.3333" d="M287.065,170.658c-18.769-26.248-19.907-27.076-19.907-27.076
				c-1.971-4.053-3.157-8.142,0.797-12.47"/>
			<path fill="#BE1E2D" d="M291.028,176.043c-19.165-25.961-23.529-32.709-23.529-32.709c-3.245-3.127-6.768-5.518-12.105-3.096"/>
			<path fill="none" stroke="#010101" stroke-width="1.3333" d="M291.028,176.043c-19.165-25.961-23.529-32.709-23.529-32.709
				c-3.245-3.127-6.768-5.518-12.105-3.096"/>
			<path fill="#BE1E2D" d="M313.974,89.026c-30.764,9.738-31.902,10.565-31.902,10.565c-4.463,0.622-8.719,0.487-11.613-4.61"/>
			<path fill="none" stroke="#010101" stroke-width="1.3333" d="M313.974,89.026c-30.764,9.738-31.902,10.565-31.902,10.565
				c-4.463,0.622-8.719,0.487-11.613-4.61"/>
			<path fill="#BE1E2D" d="M320.32,86.921c-30.612,10.205-38.379,12.271-38.379,12.271c-3.977,2.12-7.34,4.73-6.686,10.557"/>
			<path fill="none" stroke="#010101" stroke-width="1.3333" d="M320.32,86.921c-30.612,10.205-38.379,12.271-38.379,12.271
				c-3.977,2.12-7.34,4.73-6.686,10.557"/>
		</g>
		<g>
			
				<radialGradient id="SVGID_12_" cx="84.4888" cy="-43.3721" r="1.0001" gradientTransform="matrix(87.3159 0 0 -87.3159 -6833.0093 -3684.0527)" gradientUnits="userSpaceOnUse">
				<stop  offset="0" style="stop-color:#F15D49"/>
				<stop  offset="0.3148" style="stop-color:#D8443B"/>
				<stop  offset="0.7368" style="stop-color:#C52930"/>
				<stop  offset="1" style="stop-color:#BE1E2D"/>
			</radialGradient>
			<path fill="url(#SVGID_12_)" d="M593.726,116.682c22.789,26.932,32.815-22.364,40.008-33.422
				c-11.457-5.57-50.03-40.105-51.867-6.422c-0.685,12.423-10.469,7.795-15.797,4.148c-4.715-3.227-13.326-11.044-0.844-16.336
				c30.273-12.834-12.656-37.903-20.742-46.664c-7.301,8.823-53.489,35.47-20.742,47.133c11.795,4.201,0.697,15.095-1.242,16.359
				c-1.866,1.216-14.893,11.112-15.938-2.625c-2.728-35.849-40.982-0.352-51.891,4.289c6.816,11.358,18.522,62.932,39.984,32.672
				c6.217-8.766,12.414,2.125,14.039,6.961c2.34,6.965,2.598,17.969-7.781,14.977c-33.815-9.748-12.023,49.57-12.023,49.57
				c11.829-1.422,61.768,2.777,44.672-27.141c-5.603-9.805,4.265-11.294,10.617-11.719c6.735-0.45,15.963-0.139,9.727,10.805
				c-17.658,30.986,30.681,26.371,45.633,28.805c2.178-12.098,22.172-58.84-11.977-51.281c-11.953,2.646-9.259-8.176-7.172-13.383
				C582.218,118.848,584.525,105.807,593.726,116.682z"/>
			<path fill="none" stroke="#010101" stroke-width="1.3333" d="M593.726,116.682c22.789,26.932,32.815-22.364,40.008-33.422
				c-11.457-5.57-50.03-40.105-51.867-6.422c-0.685,12.423-10.469,7.795-15.797,4.148c-4.715-3.227-13.326-11.044-0.844-16.336
				c30.273-12.834-12.656-37.903-20.742-46.664c-7.301,8.823-53.489,35.47-20.742,47.133c11.795,4.201,0.697,15.095-1.242,16.359
				c-1.866,1.216-14.893,11.112-15.938-2.625c-2.728-35.849-40.982-0.352-51.891,4.289c6.816,11.358,18.522,62.932,39.984,32.672
				c6.217-8.766,12.414,2.125,14.039,6.961c2.34,6.965,2.598,17.969-7.781,14.977c-33.815-9.748-12.023,49.57-12.023,49.57
				c11.829-1.422,61.768,2.777,44.672-27.141c-5.603-9.805,4.265-11.294,10.617-11.719c6.735-0.45,15.963-0.139,9.727,10.805
				c-17.658,30.986,30.681,26.371,45.633,28.805c2.178-12.098,22.172-58.84-11.977-51.281c-11.953,2.646-9.259-8.176-7.172-13.383
				C582.218,118.848,584.525,105.807,593.726,116.682z"/>
			
				<radialGradient id="SVGID_13_" cx="84.4888" cy="-43.3716" r="1" gradientTransform="matrix(18.75 0 0 -18.75 -1039.6757 -701.489)" gradientUnits="userSpaceOnUse">
				<stop  offset="0" style="stop-color:#F15D49"/>
				<stop  offset="0.3148" style="stop-color:#D8443B"/>
				<stop  offset="0.7368" style="stop-color:#C52930"/>
				<stop  offset="1" style="stop-color:#BE1E2D"/>
			</radialGradient>
			<path fill="url(#SVGID_13_)" d="M525.734,111.736c0,10.35,8.399,18.75,18.75,18.75c10.35,0,18.75-8.4,18.75-18.75
				c0-10.351-8.4-18.75-18.75-18.75C534.133,92.986,525.734,101.386,525.734,111.736z"/>
			<path fill="none" stroke="#010101" stroke-width="1.3333" d="M525.734,111.736c0,10.35,8.399,18.75,18.75,18.75
				c10.35,0,18.75-8.4,18.75-18.75c0-10.351-8.4-18.75-18.75-18.75C534.133,92.986,525.734,101.386,525.734,111.736z"/>
			<path fill="#BE1E2D" d="M543.95,39.024c-0.245,32.268,0.189,33.605,0.189,33.605c-0.787,4.438-2.23,8.443-7.973,9.621"/>
			<path fill="none" stroke="#010101" stroke-width="1.3333" d="M543.95,39.024c-0.245,32.268,0.189,33.605,0.189,33.605
				c-0.787,4.438-2.23,8.443-7.973,9.621"/>
			<path fill="#BE1E2D" d="M543.909,32.339c0.245,32.268-0.189,40.291-0.189,40.291c0.787,4.438,2.231,8.443,7.973,9.621"/>
			<path fill="none" stroke="#010101" stroke-width="1.3333" d="M543.909,32.339c0.245,32.268-0.189,40.291-0.189,40.291
				c0.787,4.438,2.231,8.443,7.973,9.621"/>
			<path fill="#BE1E2D" d="M475.444,89.499c30.612,10.205,32.02,10.205,32.02,10.205c3.977,2.119,7.34,4.73,6.686,10.556"/>
			<path fill="none" stroke="#010101" stroke-width="1.3333" d="M475.444,89.499c30.612,10.205,32.02,10.205,32.02,10.205
				c3.977,2.119,7.34,4.73,6.686,10.556"/>
			<path fill="#BE1E2D" d="M469.073,87.473c30.764,9.738,38.261,12.632,38.261,12.632c4.464,0.621,8.719,0.486,11.613-4.611"/>
			<path fill="none" stroke="#010101" stroke-width="1.3333" d="M469.073,87.473c30.764,9.738,38.261,12.632,38.261,12.632
				c4.464,0.621,8.719,0.486,11.613-4.611"/>
			<path fill="#BE1E2D" d="M501.04,170.801c19.164-25.961,19.6-27.299,19.6-27.299c3.245-3.127,6.768-5.52,12.105-3.097"/>
			<path fill="none" stroke="#010101" stroke-width="1.3333" d="M501.04,170.801c19.164-25.961,19.6-27.299,19.6-27.299
				c3.245-3.127,6.768-5.52,12.105-3.097"/>
			<path fill="#BE1E2D" d="M497.143,176.234c18.769-26.25,23.837-32.485,23.837-32.485c1.971-4.053,3.157-8.142-0.796-12.47"/>
			<path fill="none" stroke="#010101" stroke-width="1.3333" d="M497.143,176.234c18.769-26.25,23.837-32.485,23.837-32.485
				c1.971-4.053,3.157-8.142-0.796-12.47"/>
			<path fill="#BE1E2D" d="M587.065,170.658c-18.769-26.248-19.907-27.076-19.907-27.076c-1.971-4.053-3.157-8.142,0.797-12.47"/>
			<path fill="none" stroke="#010101" stroke-width="1.3333" d="M587.065,170.658c-18.769-26.248-19.907-27.076-19.907-27.076
				c-1.971-4.053-3.157-8.142,0.797-12.47"/>
			<path fill="#BE1E2D" d="M591.028,176.043c-19.165-25.961-23.529-32.709-23.529-32.709c-3.245-3.127-6.768-5.518-12.105-3.096"/>
			<path fill="none" stroke="#010101" stroke-width="1.3333" d="M591.028,176.043c-19.165-25.961-23.529-32.709-23.529-32.709
				c-3.245-3.127-6.768-5.518-12.105-3.096"/>
			<path fill="#BE1E2D" d="M613.974,89.026c-30.764,9.738-31.902,10.565-31.902,10.565c-4.463,0.622-8.719,0.487-11.613-4.61"/>
			<path fill="none" stroke="#010101" stroke-width="1.3333" d="M613.974,89.026c-30.764,9.738-31.902,10.565-31.902,10.565
				c-4.463,0.622-8.719,0.487-11.613-4.61"/>
			<path fill="#BE1E2D" d="M620.32,86.921c-30.612,10.205-38.379,12.271-38.379,12.271c-3.977,2.12-7.34,4.73-6.686,10.557"/>
			<path fill="none" stroke="#010101" stroke-width="1.3333" d="M620.32,86.921c-30.612,10.205-38.379,12.271-38.379,12.271
				c-3.977,2.12-7.34,4.73-6.686,10.557"/>
		</g>
	</g>
	<g clip-path="url(#SVGID_8_)">
		
			<radialGradient id="SVGID_14_" cx="84.4888" cy="-43.3721" r="1.0001" gradientTransform="matrix(87.3159 0 0 -87.3159 -6983.0093 -3319.0527)" gradientUnits="userSpaceOnUse">
			<stop  offset="0" style="stop-color:#F15D49"/>
			<stop  offset="0.3148" style="stop-color:#D8443B"/>
			<stop  offset="0.7368" style="stop-color:#C52930"/>
			<stop  offset="1" style="stop-color:#BE1E2D"/>
		</radialGradient>
		<path fill="url(#SVGID_14_)" d="M443.726,481.682c22.789,26.932,32.815-22.364,40.008-33.422
			c-11.457-5.57-50.03-40.105-51.867-6.422c-0.685,12.423-10.469,7.795-15.797,4.148c-4.715-3.227-13.326-11.044-0.844-16.336
			c30.273-12.834-12.656-37.903-20.742-46.664c-7.301,8.823-53.489,35.47-20.742,47.133c11.795,4.201,0.697,15.095-1.242,16.359
			c-1.866,1.216-14.893,11.112-15.938-2.625c-2.728-35.849-40.982-0.352-51.891,4.289c6.816,11.358,18.522,62.932,39.984,32.672
			c6.217-8.766,12.414,2.125,14.039,6.961c2.34,6.965,2.598,17.969-7.781,14.977c-33.815-9.748-12.023,49.57-12.023,49.57
			c11.829-1.422,61.768,2.777,44.672-27.141c-5.603-9.805,4.265-11.294,10.617-11.719c6.735-0.45,15.963-0.139,9.727,10.805
			c-17.658,30.986,30.681,26.371,45.633,28.805c2.178-12.098,22.172-58.84-11.977-51.281c-11.953,2.646-9.259-8.176-7.172-13.383
			C432.218,483.848,434.525,470.807,443.726,481.682z"/>
		<path fill="none" stroke="#010101" stroke-width="1.3333" d="M443.726,481.682c22.789,26.932,32.815-22.364,40.008-33.422
			c-11.457-5.57-50.03-40.105-51.867-6.422c-0.685,12.423-10.469,7.795-15.797,4.148c-4.715-3.227-13.326-11.044-0.844-16.336
			c30.273-12.834-12.656-37.903-20.742-46.664c-7.301,8.823-53.489,35.47-20.742,47.133c11.795,4.201,0.697,15.095-1.242,16.359
			c-1.866,1.216-14.893,11.112-15.938-2.625c-2.728-35.849-40.982-0.352-51.891,4.289c6.816,11.358,18.522,62.932,39.984,32.672
			c6.217-8.766,12.414,2.125,14.039,6.961c2.34,6.965,2.598,17.969-7.781,14.977c-33.815-9.748-12.023,49.57-12.023,49.57
			c11.829-1.422,61.768,2.777,44.672-27.141c-5.603-9.805,4.265-11.294,10.617-11.719c6.735-0.45,15.963-0.139,9.727,10.805
			c-17.658,30.986,30.681,26.371,45.633,28.805c2.178-12.098,22.172-58.84-11.977-51.281c-11.953,2.646-9.259-8.176-7.172-13.383
			C432.218,483.848,434.525,470.807,443.726,481.682z"/>
		
			<radialGradient id="SVGID_15_" cx="84.4888" cy="-43.3716" r="1" gradientTransform="matrix(18.75 0 0 -18.75 -1189.6757 -336.489)" gradientUnits="userSpaceOnUse">
			<stop  offset="0" style="stop-color:#F15D49"/>
			<stop  offset="0.3148" style="stop-color:#D8443B"/>
			<stop  offset="0.7368" style="stop-color:#C52930"/>
			<stop  offset="1" style="stop-color:#BE1E2D"/>
		</radialGradient>
		<path fill="url(#SVGID_15_)" d="M375.734,476.736c0,10.35,8.399,18.75,18.75,18.75c10.35,0,18.75-8.4,18.75-18.75
			c0-10.351-8.4-18.75-18.75-18.75C384.133,457.986,375.734,466.386,375.734,476.736z"/>
		<path fill="none" stroke="#010101" stroke-width="1.3333" d="M375.734,476.736c0,10.35,8.399,18.75,18.75,18.75
			c10.35,0,18.75-8.4,18.75-18.75c0-10.351-8.4-18.75-18.75-18.75C384.133,457.986,375.734,466.386,375.734,476.736z"/>
		<path fill="#BE1E2D" d="M393.95,404.024c-0.245,32.268,0.189,33.605,0.189,33.605c-0.787,4.438-2.23,8.443-7.973,9.621"/>
		<path fill="none" stroke="#010101" stroke-width="1.3333" d="M393.95,404.024c-0.245,32.268,0.189,33.605,0.189,33.605
			c-0.787,4.438-2.23,8.443-7.973,9.621"/>
		<path fill="#BE1E2D" d="M393.909,397.339c0.245,32.268-0.189,40.291-0.189,40.291c0.787,4.438,2.231,8.443,7.973,9.621"/>
		<path fill="none" stroke="#010101" stroke-width="1.3333" d="M393.909,397.339c0.245,32.268-0.189,40.291-0.189,40.291
			c0.787,4.438,2.231,8.443,7.973,9.621"/>
		<path fill="#BE1E2D" d="M325.444,454.499c30.612,10.205,32.02,10.205,32.02,10.205c3.977,2.119,7.34,4.73,6.686,10.556"/>
		<path fill="none" stroke="#010101" stroke-width="1.3333" d="M325.444,454.499c30.612,10.205,32.02,10.205,32.02,10.205
			c3.977,2.119,7.34,4.73,6.686,10.556"/>
		<path fill="#BE1E2D" d="M319.073,452.473c30.764,9.738,38.261,12.632,38.261,12.632c4.464,0.621,8.719,0.486,11.613-4.611"/>
		<path fill="none" stroke="#010101" stroke-width="1.3333" d="M319.073,452.473c30.764,9.738,38.261,12.632,38.261,12.632
			c4.464,0.621,8.719,0.486,11.613-4.611"/>
		<path fill="#BE1E2D" d="M351.04,535.801c19.164-25.961,19.6-27.299,19.6-27.299c3.245-3.127,6.768-5.52,12.105-3.097"/>
		<path fill="none" stroke="#010101" stroke-width="1.3333" d="M351.04,535.801c19.164-25.961,19.6-27.299,19.6-27.299
			c3.245-3.127,6.768-5.52,12.105-3.097"/>
		<path fill="#BE1E2D" d="M347.143,541.234c18.769-26.25,23.837-32.485,23.837-32.485c1.971-4.053,3.157-8.142-0.796-12.47"/>
		<path fill="none" stroke="#010101" stroke-width="1.3333" d="M347.143,541.234c18.769-26.25,23.837-32.485,23.837-32.485
			c1.971-4.053,3.157-8.142-0.796-12.47"/>
		<path fill="#BE1E2D" d="M437.065,535.658c-18.769-26.248-19.907-27.076-19.907-27.076c-1.971-4.053-3.157-8.142,0.797-12.47"/>
		<path fill="none" stroke="#010101" stroke-width="1.3333" d="M437.065,535.658c-18.769-26.248-19.907-27.076-19.907-27.076
			c-1.971-4.053-3.157-8.142,0.797-12.47"/>
		<path fill="#BE1E2D" d="M441.028,541.043c-19.165-25.961-23.529-32.709-23.529-32.709c-3.245-3.127-6.768-5.518-12.105-3.096"/>
		<path fill="none" stroke="#010101" stroke-width="1.3333" d="M441.028,541.043c-19.165-25.961-23.529-32.709-23.529-32.709
			c-3.245-3.127-6.768-5.518-12.105-3.096"/>
		<path fill="#BE1E2D" d="M463.974,454.026c-30.764,9.738-31.902,10.565-31.902,10.565c-4.463,0.622-8.719,0.487-11.613-4.61"/>
		<path fill="none" stroke="#010101" stroke-width="1.3333" d="M463.974,454.026c-30.764,9.738-31.902,10.565-31.902,10.565
			c-4.463,0.622-8.719,0.487-11.613-4.61"/>
		<path fill="#BE1E2D" d="M470.32,451.921c-30.612,10.205-38.379,12.271-38.379,12.271c-3.977,2.12-7.34,4.73-6.686,10.557"/>
		<path fill="none" stroke="#010101" stroke-width="1.3333" d="M470.32,451.921c-30.612,10.205-38.379,12.271-38.379,12.271
			c-3.977,2.12-7.34,4.73-6.686,10.557"/>
	</g>
	<use xlink:href="#SVGID_2_"  overflow="visible" fill="none" stroke="#000000" stroke-width="7" stroke-miterlimit="10"/>
</g>
<radialGradient id="SVGID_16_" cx="394.2026" cy="575.5225" r="180.5935" gradientUnits="userSpaceOnUse">
	<stop  offset="0.6316" style="stop-color:#FFFFFF"/>
	<stop  offset="0.7049" style="stop-color:#F4F5F5"/>
	<stop  offset="0.8549" style="stop-color:#EAEBEB"/>
	<stop  offset="1" style="stop-color:#E6E7E8"/>
</radialGradient>
<path display="none" fill="url(#SVGID_16_)" stroke="#000000" stroke-width="3" stroke-miterlimit="10" d="M606.917,493.628
	c0,0-35,101-212.714,101s-212.714-101-212.714-101s-32,43-29,61s64.428,102.788,241.714,102.788s238.714-84.788,241.714-102.788
	S606.917,493.628,606.917,493.628z"/>
<path display="none" fill="none" d="M152.489,554.628c3,18,64.428,102.788,241.714,102.788s238.714-84.788,241.714-102.788"/>
<g display="none">
	
		<text transform="matrix(0.5913 0.5966 -0.8167 0.8096 173.2817 562.8242)" display="inline" font-family="'LucidaCalligraphy-Italic'" font-size="38">H</text>
	
		<text transform="matrix(0.6973 0.4684 -0.6413 0.9546 197.1484 586.3994)" display="inline" font-family="'LucidaCalligraphy-Italic'" font-size="38">U</text>
	
		<text transform="matrix(0.7618 0.3538 -0.4844 1.043 223.4077 604.1387)" display="inline" font-family="'LucidaCalligraphy-Italic'" font-size="38">M</text>
	
		<text transform="matrix(0.8004 0.255 -0.3491 1.0957 257.396 619.6162)" display="inline" font-family="'LucidaCalligraphy-Italic'" font-size="38">A</text>
	
		<text transform="matrix(0.8217 0.1746 -0.239 1.1249 287.3262 629.1357)" display="inline" font-family="'LucidaCalligraphy-Italic'" font-size="38">N</text>
	
		<text transform="matrix(0.8311 0.1222 -0.1673 1.1378 319.6694 635.6895)" display="inline" font-family="'LucidaCalligraphy-Italic'" font-size="38">I</text>
	
		<text transform="matrix(0.8344 0.0967 -0.1325 1.1423 333.9653 637.7607)" display="inline" font-family="'LucidaCalligraphy-Italic'" font-size="38"> </text>
	
		<text transform="matrix(0.8365 0.0763 -0.1044 1.1452 344.4971 638.9795)" display="inline" font-family="'LucidaCalligraphy-Italic'" font-size="38"> </text>
	
		<text transform="matrix(0.8392 0.037 -0.0507 1.1489 355.1392 640.2012)" display="inline" font-family="'LucidaCalligraphy-Italic'" font-size="38">N</text>
	
		<text transform="matrix(0.84 -0.0081 0.011 1.1499 388.0083 641.4854)" display="inline" font-family="'LucidaCalligraphy-Italic'" font-size="38">I</text>
	
		<text transform="matrix(0.8394 -0.0307 0.0421 1.1492 402.479 641.4648)" display="inline" font-family="'LucidaCalligraphy-Italic'" font-size="38">L</text>
	
		<text transform="matrix(0.8379 -0.0587 0.0804 1.1472 423.8804 640.5947)" display="inline" font-family="'LucidaCalligraphy-Italic'" font-size="38"> </text>
	
		<text transform="matrix(0.8363 -0.0784 0.1073 1.145 434.4595 639.8525)" display="inline" font-family="'LucidaCalligraphy-Italic'" font-size="38"> </text>
	
		<text transform="matrix(0.8314 -0.12 0.1643 1.1382 445.1606 639.1133)" display="inline" font-family="'LucidaCalligraphy-Italic'" font-size="38">A</text>
	
		<text transform="matrix(0.8209 -0.1782 0.244 1.1238 476.0903 634.4902)" display="inline" font-family="'LucidaCalligraphy-Italic'" font-size="38">L</text>
	
		<text transform="matrix(0.8101 -0.2219 0.3039 1.1091 497.0435 629.8496)" display="inline" font-family="'LucidaCalligraphy-Italic'" font-size="38">I</text>
	
		<text transform="matrix(0.7947 -0.2723 0.3727 1.0879 511.1382 626.1406)" display="inline" font-family="'LucidaCalligraphy-Italic'" font-size="38">E</text>
	
		<text transform="matrix(0.7612 -0.3552 0.4863 1.0421 533.7349 618.6895)" display="inline" font-family="'LucidaCalligraphy-Italic'" font-size="38">N</text>
	
		<text transform="matrix(0.7012 -0.4626 0.6333 0.9599 563.939 604.585)" display="inline" font-family="'LucidaCalligraphy-Italic'" font-size="38">U</text>
	
		<text transform="matrix(0.5893 -0.5986 0.8195 0.8068 590.9019 587.3477)" display="inline" font-family="'LucidaCalligraphy-Italic'" font-size="38">M</text>
</g>
</svg>
