<?xml version="1.0" encoding="utf-8"?>
<!DOCTYPE svg PUBLIC "-//W3C//DTD SVG 1.1//EN" "http://www.w3.org/Graphics/SVG/1.1/DTD/svg11.dtd" [
	<!ENTITY ns_flows "http://ns.adobe.com/Flows/1.0/">
]>
<svg xmlns="http://www.w3.org/2000/svg" width="524" height="659" xmlns:xlink="http://www.w3.org/1999/xlink" viewBox="0 0 524 659">
  <defs>
    <path id="a" d="M261.113 3.5H10.093v258.714c0 161.08 140 299 251.713 341 118.286-39 251.714-175.92 251.714-337V3.5H261.113z"/>
  </defs>
  <use fill="#ED1C24" xlink:href="#a" overflow="visible"/>
  <clipPath id="b">
    <use xlink:href="#a" overflow="visible"/>
  </clipPath>
  <g clip-path="url(#b)">
    <defs>
      <path id="c" d="M261.22 49.48H48.69v219.04c0 136.382 118.53 253.152 213.116 288.713 100.15-33.02 213.117-148.945 213.117-285.326V49.48H261.22z"/>
    </defs>
    <use fill="#FFF" xlink:href="#c" overflow="visible"/>
    <clipPath id="d">
      <use xlink:href="#c" overflow="visible"/>
    </clipPath>
    <g clip-path="url(#d)">
      <defs>
        <path id="e" d="M261.324 94.628H86.59v180.09c0 112.126 97.452 208.13 175.216 237.368 82.34-27.147 175.217-122.457 175.217-234.584V94.628h-175.7z"/>
      </defs>
      <use fill="#ED1C24" xlink:href="#e" overflow="visible"/>
    </g>
  </g>
  <path fill="#2E3192" d="M10.092 3.5h251.714v599.714H10.092z" clip-path="url(#b)"/>
  <g clip-path="url(#b)">
    <path fill="#FFF" d="M90.097 356.542s-7.047-9.527-6.93-14.683c.04-1.61 1.103-2.23 1.46-3.71.424-1.76.59-3.61-.063-5.12-1.034-2.4-3.778-1.82-5.47-1.16-2.257.87-6.08 6.89-6.08 6.89l-.95 9.92 7.89 12.59 10.143-4.74z"/>
    <path fill="none" stroke="#010101" stroke-width="3" d="M90.097 356.542s-7.047-9.527-6.93-14.683c.04-1.61 1.103-2.23 1.46-3.71.424-1.76.59-3.61-.063-5.12-1.034-2.4-3.778-1.82-5.47-1.16-2.257.87-6.08 6.89-6.08 6.89l-.95 9.92 7.89 12.59 10.143-4.74z"/>
    <path fill="#FFF" d="M172.408 384.275s-23.604-7.064-33.83-6.753c-2.44.075-5.903.065-8.054 2.104-1.885 1.788-3.764 6.016-4.733 9.345-1.07 3.7-2.66 9.73-1.68 13.47.9 3.42 6.33 5.97 6.33 5.97s-5.21 2.77-7.33 1.71c-1.57-.78-3.3-3.66-4.18-6.05-.66-1.79-1.06-6.87-1.06-6.87s-2.08 3.53-3.36 3.99c-1.7.61-5.38-.6-5.38-.6s1.65-2.5 2.27-3.58c1.06-1.84 2.06-4.43 2.43-6.94.23-1.52-.73-5.05-.73-5.05s-.5 3.1-.9 4.27c-.85 2.52-2.28 5.7-3.64 7.4-.77.96-2.31.79-2.93 2.04-.82 1.68-1.41 2.45-1.14 4.59.21 1.64.52 3.77 1.42 4.36.59.39 1.91 1.44 2.47.95.47-.41 1.64-1.1 1.64-1.1s-.71 3.18-1.98 5.05c-.68 1.01-1.82 1.11-2.44 1.31-.31.11-1.55.9-2.79-.42-1.21-1.28-2.21-3.59-2.38-4.04 0 0-1.75-3.63-2.04-5.54-.45-2.93-.21-7.19.27-10.12.28-1.63 1.38-3.28 1.61-4.93.19-1.37-.35-3.33-.13-4.67.26-1.5.22-1.43.22-1.43s.45 1.2-.35 3.39c-.89 2.44-3.35 8.67-3.35 8.67l-2.19-5.67-.26-5.72s-.1-1.93.23-2.35c.36-.44 1.04.73 1.44.42.99-.77.91-4.27.91-4.27s-.04 3.45-1.05 4.22c-.37.28-1.02-.78-1.32-.32-1.1 1.67-.35 4.49.03 8.4.27 2.85 1.05 5.67.54 7.38-.46 1.54-2.94 2.76-2.94 2.76l-7.4-4.64s-2.18-3.71-2.37-5.84c-.29-3.43.95-12.35.95-12.35l-.51-.2-3.19 5.26s.06 7.93-1.4 9.28c-1.04.96-3.67-2.3-3.67-2.3l-6.61-10.67s-.35-4.21.11-5.74c.7-2.32 4.02-5.23 4.02-5.23l-3.24-3s-4.12 3.65-5.82 2.64c-.83-.49-1.44-2.61-1.78-4.02-.66-2.71-.85-9.73-.85-9.73l6.28-16.62s2.34-.47 3.09.48c1.58 2.02 2.49 10.51 2.49 10.51s5.91 5.92 8.75 6.46c3.01.57 6.93-2.85 9.95-3.19 2.04-.23 4.82-.26 6.79.63.72.32 1.66 1.06 2.23 1.88 1.22 1.75 2.42 4.89 3.17 7.31.72 2.33.83 6.15 1.7 8.33.45 1.13 2.01 2.96 2.01 2.96s-2.86-8.04-3.92-11.64c-1.31-4.44-2.15-11.22-3.86-15.23-.52-1.22-1.87-1.91-2.21-3.32-.64-2.67-.33-7.04.38-9.68.11-.41.63-.59.63-1.05.03-1.67-1.76-2.55-2.2-4.03-.99-3.32-1.57-8.51-1.43-12.26.12-3.26.67-8.08 2.04-10.33 1.08-1.78 3.3-2.34 4.78-2.32 2.12.03 6.75 3.5 6.75 3.5s-3.55.86-4.79 2.32c-.88 1.05-1.96 3.12-2.15 4.94-.1 1.01.28 2.37.56 3.26 1.23 3.85 5.58 11 5.58 11s5.33-2.53 7.68-2.92c2.96-.49 6.97-.42 9.9.4 1.58.45 3.63 1.65 5.11 2.72 1.78 1.29 3.75 4.94 5.68 5.25 1.17.19 2.66-1.22 3.75-2 1.18-.84 2.86-1.88 3.77-3.44.83-1.4 34.16-20.1 24.74-31.37l-19.64-23.51 30.1 32.82 13.66 36.5-19.23 42.9z"/>
    <path fill="none" stroke="#010101" stroke-width="3" d="M172.408 384.275s-23.604-7.064-33.83-6.753c-2.44.075-5.903.065-8.054 2.104-1.885 1.788-3.764 6.016-4.733 9.345-1.07 3.7-2.66 9.73-1.68 13.47.9 3.42 6.33 5.97 6.33 5.97s-5.21 2.77-7.33 1.71c-1.57-.78-3.3-3.66-4.18-6.05-.66-1.79-1.06-6.87-1.06-6.87s-2.08 3.53-3.36 3.99c-1.7.61-5.38-.6-5.38-.6s1.65-2.5 2.27-3.58c1.06-1.84 2.06-4.43 2.43-6.94.23-1.52-.73-5.05-.73-5.05s-.5 3.1-.9 4.27c-.85 2.52-2.28 5.7-3.64 7.4-.77.96-2.31.79-2.93 2.04-.82 1.68-1.41 2.45-1.14 4.59.21 1.64.52 3.77 1.42 4.36.59.39 1.91 1.44 2.47.95.47-.41 1.64-1.1 1.64-1.1s-.71 3.18-1.98 5.05c-.68 1.01-1.82 1.11-2.44 1.31-.31.11-1.55.9-2.79-.42-1.21-1.28-2.21-3.59-2.38-4.04 0 0-1.75-3.63-2.04-5.54-.45-2.93-.21-7.19.27-10.12.28-1.63 1.38-3.28 1.61-4.93.19-1.37-.35-3.33-.13-4.67.26-1.5.22-1.43.22-1.43s.45 1.2-.35 3.39c-.89 2.44-3.35 8.67-3.35 8.67l-2.19-5.67-.26-5.72s-.1-1.93.23-2.35c.36-.44 1.04.73 1.44.42.99-.77.91-4.27.91-4.27s-.04 3.45-1.05 4.22c-.37.28-1.02-.78-1.32-.32-1.1 1.67-.35 4.49.03 8.4.27 2.85 1.05 5.67.54 7.38-.46 1.54-2.94 2.76-2.94 2.76l-7.4-4.64s-2.18-3.71-2.37-5.84c-.29-3.43.95-12.35.95-12.35l-.51-.2-3.19 5.26s.06 7.93-1.4 9.28c-1.04.96-3.67-2.3-3.67-2.3l-6.61-10.67s-.35-4.21.11-5.74c.7-2.32 4.02-5.23 4.02-5.23l-3.24-3s-4.12 3.65-5.82 2.64c-.83-.49-1.44-2.61-1.78-4.02-.66-2.71-.85-9.73-.85-9.73l6.28-16.62s2.34-.47 3.09.48c1.58 2.02 2.49 10.51 2.49 10.51s5.91 5.92 8.75 6.46c3.01.57 6.93-2.85 9.95-3.19 2.04-.23 4.82-.26 6.79.63.72.32 1.66 1.06 2.23 1.88 1.22 1.75 2.42 4.89 3.17 7.31.72 2.33.83 6.15 1.7 8.33.45 1.13 2.01 2.96 2.01 2.96s-2.86-8.04-3.92-11.64c-1.31-4.44-2.15-11.22-3.86-15.23-.52-1.22-1.87-1.91-2.21-3.32-.64-2.67-.33-7.04.38-9.68.11-.41.63-.59.63-1.05.03-1.67-1.76-2.55-2.2-4.03-.99-3.32-1.57-8.51-1.43-12.26.12-3.26.67-8.08 2.04-10.33 1.08-1.78 3.3-2.34 4.78-2.32 2.12.03 6.75 3.5 6.75 3.5s-3.55.86-4.79 2.32c-.88 1.05-1.96 3.12-2.15 4.94-.1 1.01.28 2.37.56 3.26 1.23 3.85 5.58 11 5.58 11s5.33-2.53 7.68-2.92c2.96-.49 6.97-.42 9.9.4 1.58.45 3.63 1.65 5.11 2.72 1.78 1.29 3.75 4.94 5.68 5.25 1.17.19 2.66-1.22 3.75-2 1.18-.84 2.86-1.88 3.77-3.44.83-1.4 34.16-20.1 24.74-31.37l-19.64-23.51 30.1 32.82 13.66 36.5-19.23 42.9z"/>
    <path fill="none" stroke="#010101" stroke-width="2.5" d="M97.974 330.08s2.006 1.97 2.946 2.45c.863.443 2.98.66 2.98.66m3.173 6.946s-1.76-2.11-2.64-2.26c-.993-.17-2.44.397-3.223 1.486-.835 1.164-1.646 5.5-1.646 5.5m8.05-.398s-2.083-1.088-2.88-.474c-1.178.912-2.047 3.955-2.58 6-.29 1.098-.484 3.928-.484 3.928m8.206-3.44s-2.42-.215-3.31.585c-.822.742-1.64 2.588-2.03 4.047-.52 1.92-.643 6.973-.643 6.973m-21.287 14.225s1.988-2.663 2.743-3.48c1.02-1.115 4.02-.018 4.02-.018m-16.39-6.04s1.21-2.16 1.9-2.437c.94-.382 3.18 1.023 3.18 1.023"/>
    <path fill="#ED1C24" d="M74.808 338.957c-.925-1.385-1.273-4.503-2.104-6.058-1.25-2.35-5-6.18-5-6.18s3.23-.76 4.584-.35c1.638.5 3.944 1.62 5.12 3.66.903 1.56 1.75 4.61 1.63 6.83-.077 1.44-.726 3.62-1.52 4.05-.847.45-2.044-.97-2.71-1.97z"/>
    <path fill="none" stroke="#010101" stroke-width="2.5" d="M74.808 338.957c-.925-1.385-1.273-4.503-2.104-6.058-1.25-2.35-5-6.18-5-6.18s3.23-.76 4.584-.35c1.638.5 3.944 1.62 5.12 3.66.903 1.56 1.75 4.61 1.63 6.83-.077 1.44-.726 3.62-1.52 4.05-.847.45-2.044-.97-2.71-1.97z"/>
    <path fill="#ED1C24" d="M65.196 343.23c.66 1.137 1.274 3.142 1.51 4.726.245 1.62.56 4.177.027 5.647-.34.938-1.285 1.46-1.906 1.612-.444.108-1.045-.157-1.444-.464-.843-.64-1.525-2.81-2.42-3.23-.783-.36-1.96.03-2.736.58-1.097.77-1.68.97-2.463 2.53-.6 1.2-1.84 5.88-1.84 5.88s-1.09-5.59-.95-7.84c.203-3.29.984-6.42 2.453-8.64.928-1.4 2.597-2.23 3.79-2.53 1.473-.37 3.49-.02 4.885.7.36.19.828.59 1.094 1.04z"/>
    <path fill="none" stroke="#010101" stroke-width="2.5" d="M65.196 343.23c.66 1.137 1.274 3.142 1.51 4.726.245 1.62.56 4.177.027 5.647-.34.938-1.285 1.46-1.906 1.612-.444.108-1.045-.157-1.444-.464-.843-.64-1.525-2.81-2.42-3.23-.783-.36-1.96.03-2.736.58-1.097.77-1.68.97-2.463 2.53-.6 1.2-1.84 5.88-1.84 5.88s-1.09-5.59-.95-7.84c.203-3.29.984-6.42 2.453-8.64.928-1.4 2.597-2.23 3.79-2.53 1.473-.37 3.49-.02 4.885.7.36.19.828.59 1.094 1.04z"/>
    <path fill="#ED1C24" d="M71.21 377.283c.544-.07 1.3.483 1.686 1.146.948 1.64 1.944 4.92 1.65 7.21-.22 1.73-1.6 3.15-2.474 4.08-1.3 1.38-3.27 2.63-4.778 2.91-1.395.26-4.63-1-4.63-1s2.825-2.99 3.728-4.84c.838-1.72 1.086-5.04 1.98-6.67.68-1.24 1.862-2.72 2.84-2.85z"/>
    <path fill="none" stroke="#010101" stroke-width="2.5" d="M71.21 377.283c.544-.07 1.3.483 1.686 1.146.948 1.64 1.944 4.92 1.65 7.21-.22 1.73-1.6 3.15-2.474 4.08-1.3 1.38-3.27 2.63-4.778 2.91-1.395.26-4.63-1-4.63-1s2.825-2.99 3.728-4.84c.838-1.72 1.086-5.04 1.98-6.67.68-1.24 1.862-2.72 2.84-2.85z"/>
    <path fill="#ED1C24" d="M88.847 391.883c1.205-.343 2.665 2.116 3.418 3.776.645 1.41.792 2.8.69 4.61-.13 2.38-1.207 5.44-2.292 6.92-.675.92-1.885 1.35-2.737 1.37-1.003.02-1.895.42-2.782-.38-1.024-.93-2.943-4.3-2.943-4.3s2.53-.03 3.43-.94c.98-1 2.04-3.27 2.34-5.17.17-1.03-.42-2.5-.24-3.52.15-.89.61-2.23 1.13-2.38z"/>
    <path fill="none" stroke="#010101" stroke-width="2.5" d="M88.847 391.883c1.205-.343 2.665 2.116 3.418 3.776.645 1.41.792 2.8.69 4.61-.13 2.38-1.207 5.44-2.292 6.92-.675.92-1.885 1.35-2.737 1.37-1.003.02-1.895.42-2.782-.38-1.024-.93-2.943-4.3-2.943-4.3s2.53-.03 3.43-.94c.98-1 2.04-3.27 2.34-5.17.17-1.03-.42-2.5-.24-3.52.15-.89.61-2.23 1.13-2.38z"/>
    <path fill="#FFF" d="M66.333 105.752s1.71-13.15 4.19-16.357c.755-.977 1.895.195 3.1-.686 1.298-.95 4.205-2.69 4.467-5.09.268-2.46-1.8-7.69-1.8-7.69s-4.42-5.5-6.645-5.69c-2.425-.21-7.604 4.94-7.604 4.94L61 86.66l5.333 19.088z"/>
    <path fill="none" stroke="#010101" stroke-width="3" d="M66.333 105.752s1.71-13.15 4.19-16.357c.755-.977 1.895.195 3.1-.686 1.298-.95 4.205-2.69 4.467-5.09.268-2.46-1.8-7.69-1.8-7.69s-4.42-5.5-6.645-5.69c-2.425-.21-7.604 4.94-7.604 4.94L61 86.66l5.333 19.088z"/>
    <path fill="#FFF" d="M155.445 168.667s-16.343 67.416-46.53 70.41c-5.546.55-13.062-3.498-17.836-8.37-2.41-2.46-6.5-11.59-6.5-11.59s-4.47 4.756-5.16 8.193c-.51 2.524.22 6.314.82 8.756.65 2.645 3.33 7.633 3.33 7.633s-4.99-1.79-6.58-4.18c-1.68-2.52-2.87-7.61-3.5-11.31-.57-3.39-.46-6.71.39-9.93.63-2.35 2.62-7.22 2.62-7.22s-3.41-7.75-4.73-11.62c-1.16-3.39-3.13-11.96-3.13-11.96s-1.82 1.02-2.47 1.85c-.58.75-1.29 2.03-1.56 3.2-.38 1.66-.76 4.5-.16 5.94.63 1.52 3.48 1.69 3.48 1.69s-1.18 2.99-1.98 3.26c-1.68.57-4.2-1.35-5.28-3.64-1.61-3.43-1.97-10.19-1.52-14.58.27-2.67 1.55-5.84 2.62-7.81 1.1-2.03 4.45-5.13 4.45-5.13s-2.72-4.4-3.3-6.9c-.43-1.84.08-4.75-.31-6.62-.51-2.42-2.69-4.4-2.88-6.96-.55-7.56 5.29-23.76 5.29-23.76s-3.37 13.93-6.48 16.54c-1.4 1.17-5.14-.69-5.14-.69l-3.6-13.52s.12-4.94.99-6.08c2.06-2.67 8.53.18 8.53.18l-5.63-2.1-.51-11.02 4.48-4.39s-5.12 5.67-7.44 4.84c-1.33-.48-3.23-5.43-3.23-5.43l.76-11.22s1.14-5.25 2.3-5.54c3.12-.77 8.18 11.33 8.18 11.33l-5.07-8.83 1.49-4.67 5.02 7.37-5.06-8.11.05-8.15 1.69-.26s-3.24-.93-3.95-2.6c-.83-1.96-1.26-4.89-.61-7.06 1-3.37 6.4-5.92 6.4-5.92s5.04-1.12 6.43.99c1.18 1.79 1.69 4.42 1.6 7.16-.07 2.28-2.1 6.74-2.1 6.74s2.12 13.08 3.68 18.19c1.81 5.95 4.96 13.21 7.64 18.07 2.54 4.61 7.02 8.71 9.55 13.34 3.88 7.09 8.22 22.71 11.19 31.04 3.77 10.6 13.6 20.74 13.6 20.74l46.08-21.65-.48 11.3z"/>
    <path fill="none" stroke="#010101" stroke-width="3" d="M155.445 168.667s-16.343 67.416-46.53 70.41c-5.546.55-13.062-3.498-17.836-8.37-2.41-2.46-6.5-11.59-6.5-11.59s-4.47 4.756-5.16 8.193c-.51 2.524.22 6.314.82 8.756.65 2.645 3.33 7.633 3.33 7.633s-4.99-1.79-6.58-4.18c-1.68-2.52-2.87-7.61-3.5-11.31-.57-3.39-.46-6.71.39-9.93.63-2.35 2.62-7.22 2.62-7.22s-3.41-7.75-4.73-11.62c-1.16-3.39-3.13-11.96-3.13-11.96s-1.82 1.02-2.47 1.85c-.58.75-1.29 2.03-1.56 3.2-.38 1.66-.76 4.5-.16 5.94.63 1.52 3.48 1.69 3.48 1.69s-1.18 2.99-1.98 3.26c-1.68.57-4.2-1.35-5.28-3.64-1.61-3.43-1.97-10.19-1.52-14.58.27-2.67 1.55-5.84 2.62-7.81 1.1-2.03 4.45-5.13 4.45-5.13s-2.72-4.4-3.3-6.9c-.43-1.84.08-4.75-.31-6.62-.51-2.42-2.69-4.4-2.88-6.96-.55-7.56 5.29-23.76 5.29-23.76s-3.37 13.93-6.48 16.54c-1.4 1.17-5.14-.69-5.14-.69l-3.6-13.52s.12-4.94.99-6.08c2.06-2.67 8.53.18 8.53.18l-5.63-2.1-.51-11.02 4.48-4.39s-5.12 5.67-7.44 4.84c-1.33-.48-3.23-5.43-3.23-5.43l.76-11.22s1.14-5.25 2.3-5.54c3.12-.77 8.18 11.33 8.18 11.33l-5.07-8.83 1.49-4.67 5.02 7.37-5.06-8.11.05-8.15 1.69-.26s-3.24-.93-3.95-2.6c-.83-1.96-1.26-4.89-.61-7.06 1-3.37 6.4-5.92 6.4-5.92s5.04-1.12 6.43.99c1.18 1.79 1.69 4.42 1.6 7.16-.07 2.28-2.1 6.74-2.1 6.74s2.12 13.08 3.68 18.19c1.81 5.95 4.96 13.21 7.64 18.07 2.54 4.61 7.02 8.71 9.55 13.34 3.88 7.09 8.22 22.71 11.19 31.04 3.77 10.6 13.6 20.74 13.6 20.74l46.08-21.65-.48 11.3z"/>
    <path fill="none" stroke="#010101" stroke-width="2.5" d="M76.472 212.08s2.29-4.527 3.12-6.415c.676-1.536 1.64-3.545 2.513-4.738.53-.722 1.962-1.884 1.962-1.884M68.52 187.575s1.966-1.645 2.866-2.022c1.325-.557 3.29.34 4.52-.693 1.48-1.243 2.853-4.55 3.78-6.913.62-1.58 1.555-5.778 1.555-5.778m-15.45.39s3.32-.47 4.64-2.72m-4.44-29.24s2.57 17.09 6.2 21.77c2.56 3.3 8.01 4.22 8.01 4.22"/>
    <path fill="#ED1C24" d="M69.9 75.904c.16 1.663.82 3.863 1.596 4.873.59.77 1.693 1.4 2.4.996.945-.544 1.834-1.268 2.15-2.914.858-4.47 1.01-10.03-.067-14.32-.82-3.25-2.82-7.15-4.71-8.49-.87-.62-1.69-1.14-2.58-.63-.9.51-3.02 2.51-3.02 2.51s2.11.97 2.83 1.95c.8 1.09 1.61 3.15 1.98 4.81.47 2.08-.02 3.75-.05 6-.03 1.58-.7 3.64-.55 5.19z"/>
    <path fill="none" stroke="#010101" stroke-width="2.5" d="M69.9 75.904c.16 1.663.82 3.863 1.596 4.873.59.77 1.693 1.4 2.4.996.945-.544 1.834-1.268 2.15-2.914.858-4.47 1.01-10.03-.067-14.32-.82-3.25-2.82-7.15-4.71-8.49-.87-.62-1.69-1.14-2.58-.63-.9.51-3.02 2.51-3.02 2.51s2.11.97 2.83 1.95c.8 1.09 1.61 3.15 1.98 4.81.47 2.08-.02 3.75-.05 6-.03 1.58-.7 3.64-.55 5.19z"/>
    <path fill="#ED1C24" d="M46.096 62.987s.255-5.868 1.59-8.09c1.346-2.236 3.836-4.093 5.688-4.28 1.26-.13 3.01.81 4.02 2.11 1.932 2.49 3.61 6.206 4.197 10.272.25 1.7.49 3.84.06 5.44-.49 1.84-1.64 2.95-2.79 3.15-.83.15-2.06-1.69-2.67-2.66-1.58-2.51-1.54-7.84-3.39-9.72-.57-.58-1.52-.75-2.19-.69-.59.05-1.34.68-1.91.97-.86.44-2.58 3.47-2.58 3.47z"/>
    <path fill="none" stroke="#010101" stroke-width="2.5" d="M46.096 62.987s.255-5.868 1.59-8.09c1.346-2.236 3.836-4.093 5.688-4.28 1.26-.13 3.01.81 4.02 2.11 1.932 2.49 3.61 6.206 4.197 10.272.25 1.7.49 3.84.06 5.44-.49 1.84-1.64 2.95-2.79 3.15-.83.15-2.06-1.69-2.67-2.66-1.58-2.51-1.54-7.84-3.39-9.72-.57-.58-1.52-.75-2.19-.69-.59.05-1.34.68-1.91.97-.86.44-2.58 3.47-2.58 3.47z"/>
    <path fill="#ED1C24" d="M48.366 103.91c.592-.287 1.56-.426 1.9-1.315.493-1.278.362-3.75-.038-5.11-.566-1.924-1.146-3.494-2.344-4.074-.677-.32-3.598 1.16-4.238 1.68-1.592 1.28-2.565 2.83-3.27 5.62-.645 2.55-.763 6.68-.167 9.24.46 2.01 1.9 3.9 2.97 5 .65.68 2.41 1.34 2.41 1.34s-1.34-5.31-1.14-7.67c.11-1.37.72-3.18 1.38-3.96.63-.75 1.77-.37 2.51-.72z"/>
    <path fill="none" stroke="#010101" stroke-width="2.5" d="M48.366 103.91c.592-.287 1.56-.426 1.9-1.315.493-1.278.362-3.75-.038-5.11-.566-1.924-1.146-3.494-2.344-4.074-.677-.32-3.598 1.16-4.238 1.68-1.592 1.28-2.565 2.83-3.27 5.62-.645 2.55-.763 6.68-.167 9.24.46 2.01 1.9 3.9 2.97 5 .65.68 2.41 1.34 2.41 1.34s-1.34-5.31-1.14-7.67c.11-1.37.72-3.18 1.38-3.96.63-.75 1.77-.37 2.51-.72z"/>
    <path fill="#ED1C24" d="M51.167 130.767c.742-1.13 2.45.107 3.193 1.216.785 1.17 1.377 3.815 1.238 5.608-.156 2.01-1.362 4.26-2.3 5.47-1.315 1.71-3.52 3.38-5.148 3.18-1.734-.21-3.988-2.38-5.117-4.67-1.22-2.46-2-6.99-2.04-10.26-.02-1.42.77-4.55.77-4.55s.958 4.57 1.84 5.86c1.22 1.79 3.437 2.94 5.04 2.98.84.02 2.08-4.15 2.524-4.82z"/>
    <path fill="none" stroke="#010101" stroke-width="2.5" d="M51.167 130.767c.742-1.13 2.45.107 3.193 1.216.785 1.17 1.377 3.815 1.238 5.608-.156 2.01-1.362 4.26-2.3 5.47-1.315 1.71-3.52 3.38-5.148 3.18-1.734-.21-3.988-2.38-5.117-4.67-1.22-2.46-2-6.99-2.04-10.26-.02-1.42.77-4.55.77-4.55s.958 4.57 1.84 5.86c1.22 1.79 3.437 2.94 5.04 2.98.84.02 2.08-4.15 2.524-4.82z"/>
    <path fill="#FFF" d="M38.9 226.436c.815-.185 1.98.03 2.713.675.58.52 1.214 1.7 1.514 2.71.804 2.7.405 7.16 1.08 9.96 1.097 4.56 5.396 13.5 5.396 13.5l-10.94 1.33-8.577-12.76 1.11-6.85s1.854-3.82 2.862-5c1.307-1.53 3.28-3.2 4.84-3.55z"/>
    <path fill="none" stroke="#010101" stroke-width="3" d="M38.9 226.436c.815-.185 1.98.03 2.713.675.58.52 1.214 1.7 1.514 2.71.804 2.7.405 7.16 1.08 9.96 1.097 4.56 5.396 13.5 5.396 13.5l-10.94 1.33-8.577-12.76 1.11-6.85s1.854-3.82 2.862-5c1.307-1.53 3.28-3.2 4.84-3.55z"/>
    <path fill="#FFF" d="M138.563 200.067L96.2 211.102l-44.19 29.953-12.394 8.846-3.242-3.85s-2.23-8.06-4.002-10.06c-1.184-1.33-4.633-1.5-4.633-1.5l-4 17.07s.37 4.35 1.03 5.73c.7 1.46 3.25 2.91 3.25 2.91l3.58-2.32c.44-.75 10.25 1.22 11.91 2.88.4.4 1.3-1.14 1.11-1.88-.2-.8-1.79.34-3.1.26-1.71-.1-2.66.78-3.43.63-2.97-.58-3.04.02-5.18 2.43-.93 1.05-1.7 5.69-1.7 5.69l7.48 17.25s4.27 2.18 5.73.57c1.72-1.89 1.43-7.97 2.57-10.9.84-2.18 2.4-7.67 3.61-6.13 1.15 1.47-2.51 2.53-3.8 5.93-1.58 4.18-1.02 10.66-1.02 10.66l3.22 6.71s7.13 1.27 9.85-.79c.43-.32 1.04-1.09 1.11-1.89.14-1.67 1.3-6.54.51-8.65-.98-2.62-2.88-4.19-2.88-4.19s-.48.29.14.1c1.37-.44 2.86 4.19 2.86 4.19l6.65-8.47s.35 2.87.2 4.06c-.26 2.04-1.97 6.06-1.97 6.06s4.05-.79 6.13-2.71c1.54-1.42 4.49-4.58 5.29-7.28.53-1.8 1.31-3.46 1.31-3.46s.21 6.18-.55 9.66c-.46 2.09-2.18 5-2.18 5s2.33.25 4.33-.48c1.83-.66 3.31-2.29 3.8-2.63.09-.07 2.39-1.96 3.99-6.61 1.5-4.37.72-4.22 2.48-5.76.45-.39.55 3.42-.02 7.33-.5 3.47-1.65 7.08-1.63 7.18 2.21-.45 8.76-3.57 11.45-6.71 4.5-5.27 6.44-17.23 7.33-16.5 3.86 3.16 13.86 3.68 16.94 8.81 2.95 4.94 10.51-3.28 14.25-.34 5.98 4.72 16-47.68 16-47.68l-6.61-19.93-9.29-.14z"/>
    <path fill="none" stroke="#010101" stroke-width="3" d="M138.563 200.067L96.2 211.102l-44.19 29.953-12.394 8.846-3.242-3.85s-2.23-8.06-4.002-10.06c-1.184-1.33-4.633-1.5-4.633-1.5l-4 17.07s.37 4.35 1.03 5.73c.7 1.46 3.25 2.91 3.25 2.91l3.58-2.32c.44-.75 10.25 1.22 11.91 2.88.4.4 1.3-1.14 1.11-1.88-.2-.8-1.79.34-3.1.26-1.71-.1-2.66.78-3.43.63-2.97-.58-3.04.02-5.18 2.43-.93 1.05-1.7 5.69-1.7 5.69l7.48 17.25s4.27 2.18 5.73.57c1.72-1.89 1.43-7.97 2.57-10.9.84-2.18 2.4-7.67 3.61-6.13 1.15 1.47-2.51 2.53-3.8 5.93-1.58 4.18-1.02 10.66-1.02 10.66l3.22 6.71s7.13 1.27 9.85-.79c.43-.32 1.04-1.09 1.11-1.89.14-1.67 1.3-6.54.51-8.65-.98-2.62-2.88-4.19-2.88-4.19s-.48.29.14.1c1.37-.44 2.86 4.19 2.86 4.19l6.65-8.47s.35 2.87.2 4.06c-.26 2.04-1.97 6.06-1.97 6.06s4.05-.79 6.13-2.71c1.54-1.42 4.49-4.58 5.29-7.28.53-1.8 1.31-3.46 1.31-3.46s.21 6.18-.55 9.66c-.46 2.09-2.18 5-2.18 5s2.33.25 4.33-.48c1.83-.66 3.31-2.29 3.8-2.63.09-.07 2.39-1.96 3.99-6.61 1.5-4.37.72-4.22 2.48-5.76.45-.39.55 3.42-.02 7.33-.5 3.47-1.65 7.08-1.63 7.18 2.21-.45 8.76-3.57 11.45-6.71 4.5-5.27 6.44-17.23 7.33-16.5 3.86 3.16 13.86 3.68 16.94 8.81 2.95 4.94 10.51-3.28 14.25-.34 5.98 4.72 16-47.68 16-47.68l-6.61-19.93-9.29-.14z"/>
    <path fill="#ED1C24" d="M40.35 232.48c.153-3.135-.58-6.415-1.878-8.58-1.118-1.863-3.343-2.615-4.884-2.928-1.593-.325-3.915-.425-5.33.913-.74.7-1.186 1.563-1.423 2.97-.223 1.325-.37 4.27-.37 4.27s1.374-1.746 2.065-1.82c1.04-.114 2.356 1.143 3.255 2.046.933.94 1.86 2.96 2.743 4.04.62.76 1.45 1.89 2.188 2.17.794.31 2.013.37 2.706-.38.46-.5.883-1.75.93-2.69z"/>
    <path fill="none" stroke="#010101" stroke-width="2.5" d="M40.35 232.48c.153-3.135-.58-6.415-1.878-8.58-1.118-1.863-3.343-2.615-4.884-2.928-1.593-.325-3.915-.425-5.33.913-.74.7-1.186 1.563-1.423 2.97-.223 1.325-.37 4.27-.37 4.27s1.374-1.746 2.065-1.82c1.04-.114 2.356 1.143 3.255 2.046.933.94 1.86 2.96 2.743 4.04.62.76 1.45 1.89 2.188 2.17.794.31 2.013.37 2.706-.38.46-.5.883-1.75.93-2.69z"/>
    <path fill="#ED1C24" d="M31.72 244.028c-.27 1.63-1.338 3.502-2.252 4.097-.81.527-2.08.152-2.86-.473-1.008-.805-1.63-3.73-2.658-4.458-1.225-.87-3.13-.624-4.42-.07-.846.36-1.937 1.323-2.563 2.38-.807 1.368-1.857 5.672-1.857 5.672s-.568-8.296.277-11.396c.673-2.467 2.506-4.84 3.91-6.065 1.26-1.103 3.194-1.68 4.6-1.637 1.312.038 3.097.68 4.24 1.777 1.093 1.046 2.38 3.13 2.98 5.035.432 1.377.856 3.62.603 5.138z"/>
    <path fill="none" stroke="#010101" stroke-width="2.5" d="M31.72 244.028c-.27 1.63-1.338 3.502-2.252 4.097-.81.527-2.08.152-2.86-.473-1.008-.805-1.63-3.73-2.658-4.458-1.225-.87-3.13-.624-4.42-.07-.846.36-1.937 1.323-2.563 2.38-.807 1.368-1.857 5.672-1.857 5.672s-.568-8.296.277-11.396c.673-2.467 2.506-4.84 3.91-6.065 1.26-1.103 3.194-1.68 4.6-1.637 1.312.038 3.097.68 4.24 1.777 1.093 1.046 2.38 3.13 2.98 5.035.432 1.377.856 3.62.603 5.138z"/>
    <path fill="#ED1C24" d="M37.937 277.188c.832-1.736.778-4.174.145-6.126-.698-2.15-2.298-4.943-3.714-5.188-1.024-.177-2.04 2.232-2.898 3.23-1.06 1.23-2.556 2.7-3.48 4.22-.948 1.556-2.112 3.907-2.68 5.943-.343 1.226-.763 3.075-.618 4.407.21 1.92 2.157 5.308 2.157 5.308s-.36-4.5.14-6.125c.45-1.458 1.68-2.634 2.57-3.237 1.43-.976 3.55-.966 5.08-1.06 1.22-.075 2.49.278 3.28-1.372z"/>
    <path fill="none" stroke="#010101" stroke-width="2.5" d="M37.937 277.188c.832-1.736.778-4.174.145-6.126-.698-2.15-2.298-4.943-3.714-5.188-1.024-.177-2.04 2.232-2.898 3.23-1.06 1.23-2.556 2.7-3.48 4.22-.948 1.556-2.112 3.907-2.68 5.943-.343 1.226-.763 3.075-.618 4.407.21 1.92 2.157 5.308 2.157 5.308s-.36-4.5.14-6.125c.45-1.458 1.68-2.634 2.57-3.237 1.43-.976 3.55-.966 5.08-1.06 1.22-.075 2.49.278 3.28-1.372z"/>
    <path fill="#ED1C24" d="M55.417 289.578c.437 2.48.813 5.09.332 7.56-.53 2.695-2.39 5.634-3.92 6.635-.97.633-2.03 1.01-3.04.664-1.07-.364-3.42-2.05-3.42-2.05s1.8-1.595 2.48-2.525c.79-1.09 1.97-2.594 2.33-4.238.46-2.127-.74-5.5-.17-7.556.35-1.27 1.35-2.66 2.15-2.817.85-.16 1.99 1 2.6 2.04.31.53.5 1.56.63 2.29z"/>
    <path fill="none" stroke="#010101" stroke-width="2.5" d="M55.417 289.578c.437 2.48.813 5.09.332 7.56-.53 2.695-2.39 5.634-3.92 6.635-.97.633-2.03 1.01-3.04.664-1.07-.364-3.42-2.05-3.42-2.05s1.8-1.595 2.48-2.525c.79-1.09 1.97-2.594 2.33-4.238.46-2.127-.74-5.5-.17-7.556.35-1.27 1.35-2.66 2.15-2.817.85-.16 1.99 1 2.6 2.04.31.53.5 1.56.63 2.29z"/>
    <path fill="#FFF" d="M166.05 308.785c-2.748-1.176-6.67.048-9.436 1.2-1.5.624-4.753 3.46-4.753 3.46s3.6 3.47 5.21 4.703c3.19 2.44 7.99 3.664 10.93 6.92 2.61 2.884 5.37 8.428 7.28 12.652 2.17 4.805 6.07 17.41 6.07 17.41s1.17-23.556-1.71-31.646c-2.52-7.102-8.91-12.703-13.57-14.7z"/>
    <path fill="none" stroke="#010101" stroke-width="3" d="M166.05 308.785c-2.748-1.176-6.67.048-9.436 1.2-1.5.624-4.753 3.46-4.753 3.46s3.6 3.47 5.21 4.703c3.19 2.44 7.99 3.664 10.93 6.92 2.61 2.884 5.37 8.428 7.28 12.652 2.17 4.805 6.07 17.41 6.07 17.41s1.17-23.556-1.71-31.646c-2.52-7.102-8.91-12.703-13.57-14.7z"/>
    <path fill="#FFF" d="M168.2 453.362s-4.534-5.907-5.26-9.72c-.496-2.61 1.118-6.542.6-9.14-.498-2.5-2.136-5.364-3.57-6.238-1.076-.653-3.79.74-3.79.74l-3.225 12.5 2.223 5.06 4.55 7.22 8.473-.422z"/>
    <path fill="none" stroke="#010101" stroke-width="3" d="M168.2 453.362s-4.534-5.907-5.26-9.72c-.496-2.61 1.118-6.542.6-9.14-.498-2.5-2.136-5.364-3.57-6.238-1.076-.653-3.79.74-3.79.74l-3.225 12.5 2.223 5.06 4.55 7.22 8.473-.422z"/>
    <path fill="#FFF" d="M114.177 190.036s-19.146 64.908-15.955 69.82c3.066 4.723 20.796 12.944 24.597 15.62 6.09 4.292 19.13 17.317 25.31 21.22 4.64 2.933 10.92 9.423 15.17 13.803 4.69 4.83 11.49 11.46 14.21 19.7 1.68 5.09 2.5 13.72 1.62 19.42-1.34 8.63-7.51 15.55-11 22.12-.58 1.09-2.46.72-4.2 4.34-1.82 3.77-3.52 11.53-4.61 11.62-1.91.15-5.28-3.57-5.28-3.57s.25 4.35 1.69 7.53c1.14 2.52 3.45 4.01 4.09 4.01 1.6-.02 3.78-1.63 4.27-1.93 2.52-1.56 6.14-11.28 6.14-11.28s-6.69 12.6-6.86 19.41c-.08 3 1.38 5.43 1.07 8.39-.34 3.18-.87 6.6-2.72 6.88-2.71.4-6.26-1.5-6.26-1.5s1.53 4.89 4.05 7.33c1.57 1.51 3.52 1.79 5.22.72 3.75-2.39 8.22-8.63 10.48-14.38 1.33-3.37 2.29-12.98 2.29-12.98s-4.11 14.4-3.29 20.64c.56 4.34 4.1 9.4 4.1 9.4s-4.52 2.67-6.65 5.01c-3.36 3.7-8.25 18.06-8.25 18.06s-5.07-3.42-6.91-5.82c-1.21-1.58-1.92-5.74-3.37-6.49-1.05-.54-3.54 1.62-3.54 1.62l-2.77 18.72s1.32 5.31 2.54 6.05c2.06 1.24 4.72-3.02 7.02-3.37 2.28-.34 6.9 1.19 6.9 1.19l-8.37 8.54-.48 5.73 6.43 10.6s4.3-.9 5.43-3.15c1.55-3.09 1.46-13.41 1.46-13.41s1.52 3.03 1.9 5.18c.47 2.68-.36 7.58-.36 7.58l3.07 5.07 6.31 1.08s2.77-3.19 2.94-5.4c.3-3.89-3.57-11.45-3.57-11.45l6.95-1.58 1.24-9.11s1.94 11.85 4.3 14.52c1.51 1.72 4.31 1.68 6.03.63 1.43-.88 3.75-5.92 3.75-5.92s-2.71 1.74-3.82 1.16c-1-.52-2.52-2.33-2.51-4.15.01-3.44 4.82-7.88 4.82-7.88s4.1 4.11 6.07 4.43c1.41.24 3.63.08 4.63-1.67 1.07-1.88.98-8.62.98-8.62s-1.26 3.32-2.43 3.48c-1.18.16-3.37-.8-3.85-2.67-.92-3.56 1.2-12.92 1.2-12.92s4.37 2.29 6.36.65c.78-.65 2.17-3.27 2.36-5.64.28-3.56-.09-5.3-.09-5.3s-1.24 4.4-2.69 4.25c-1.46-.15-3.45-1.67-4.42-3.57-1.66-3.22-2.7-9.33-2.64-13.66.06-5.25 1.68-10.22 2.75-15.15.31-1.44 1.04-3.99 1.04-3.99s3.21 4.61 5 5.57c1.25.67 4.15-.18 5.24-1.48 1.62-1.95 2.99-7.23 2.52-10.53-.39-2.75-2.8-5.02-2.8-5.02s.18 4.43-.01 6.37c-.14 1.382-2.21 2.21-2.99 2.59-.64.3-1.46-1.14-1.83-2.08-1.82-4.67-1.68-12.03-1.27-17.65.3-3.998 3.4-12.09 3.4-12.09s4.76 6.75 7.22 8.18c1.79 1.03 2.69-4.39 1.79-9.24-1.09-5.91-4.26-11.58-4.26-11.58s-9.2-15.29-11.07-20.04c-5.08-12.88-6.7-24.66-12.41-36.697-2.22-4.65-6.01-12-8.46-16.27-4.17-7.25-11.28-17.44-15.14-25.19-6.54-13.11-21.27-42.98-21.27-42.98l-7.07-19.45-30.61-1.51z"/>
    <path fill="none" stroke="#010101" stroke-width="3" d="M114.177 190.036s-19.146 64.908-15.955 69.82c3.066 4.723 20.796 12.944 24.597 15.62 6.09 4.292 19.13 17.317 25.31 21.22 4.64 2.933 10.92 9.423 15.17 13.803 4.69 4.83 11.49 11.46 14.21 19.7 1.68 5.09 2.5 13.72 1.62 19.42-1.34 8.63-7.51 15.55-11 22.12-.58 1.09-2.46.72-4.2 4.34-1.82 3.77-3.52 11.53-4.61 11.62-1.91.15-5.28-3.57-5.28-3.57s.25 4.35 1.69 7.53c1.14 2.52 3.45 4.01 4.09 4.01 1.6-.02 3.78-1.63 4.27-1.93 2.52-1.56 6.14-11.28 6.14-11.28s-6.69 12.6-6.86 19.41c-.08 3 1.38 5.43 1.07 8.39-.34 3.18-.87 6.6-2.72 6.88-2.71.4-6.26-1.5-6.26-1.5s1.53 4.89 4.05 7.33c1.57 1.51 3.52 1.79 5.22.72 3.75-2.39 8.22-8.63 10.48-14.38 1.33-3.37 2.29-12.98 2.29-12.98s-4.11 14.4-3.29 20.64c.56 4.34 4.1 9.4 4.1 9.4s-4.52 2.67-6.65 5.01c-3.36 3.7-8.25 18.06-8.25 18.06s-5.07-3.42-6.91-5.82c-1.21-1.58-1.92-5.74-3.37-6.49-1.05-.54-3.54 1.62-3.54 1.62l-2.77 18.72s1.32 5.31 2.54 6.05c2.06 1.24 4.72-3.02 7.02-3.37 2.28-.34 6.9 1.19 6.9 1.19l-8.37 8.54-.48 5.73 6.43 10.6s4.3-.9 5.43-3.15c1.55-3.09 1.46-13.41 1.46-13.41s1.52 3.03 1.9 5.18c.47 2.68-.36 7.58-.36 7.58l3.07 5.07 6.31 1.08s2.77-3.19 2.94-5.4c.3-3.89-3.57-11.45-3.57-11.45l6.95-1.58 1.24-9.11s1.94 11.85 4.3 14.52c1.51 1.72 4.31 1.68 6.03.63 1.43-.88 3.75-5.92 3.75-5.92s-2.71 1.74-3.82 1.16c-1-.52-2.52-2.33-2.51-4.15.01-3.44 4.82-7.88 4.82-7.88s4.1 4.11 6.07 4.43c1.41.24 3.63.08 4.63-1.67 1.07-1.88.98-8.62.98-8.62s-1.26 3.32-2.43 3.48c-1.18.16-3.37-.8-3.85-2.67-.92-3.56 1.2-12.92 1.2-12.92s4.37 2.29 6.36.65c.78-.65 2.17-3.27 2.36-5.64.28-3.56-.09-5.3-.09-5.3s-1.24 4.4-2.69 4.25c-1.46-.15-3.45-1.67-4.42-3.57-1.66-3.22-2.7-9.33-2.64-13.66.06-5.25 1.68-10.22 2.75-15.15.31-1.44 1.04-3.99 1.04-3.99s3.21 4.61 5 5.57c1.25.67 4.15-.18 5.24-1.48 1.62-1.95 2.99-7.23 2.52-10.53-.39-2.75-2.8-5.02-2.8-5.02s.18 4.43-.01 6.37c-.14 1.382-2.21 2.21-2.99 2.59-.64.3-1.46-1.14-1.83-2.08-1.82-4.67-1.68-12.03-1.27-17.65.3-3.998 3.4-12.09 3.4-12.09s4.76 6.75 7.22 8.18c1.79 1.03 2.69-4.39 1.79-9.24-1.09-5.91-4.26-11.58-4.26-11.58s-9.2-15.29-11.07-20.04c-5.08-12.88-6.7-24.66-12.41-36.697-2.22-4.65-6.01-12-8.46-16.27-4.17-7.25-11.28-17.44-15.14-25.19-6.54-13.11-21.27-42.98-21.27-42.98l-7.07-19.45-30.61-1.51z"/>
    <path fill="none" stroke="#010101" stroke-width="2.5" d="M215.635 365.61s-1.707-7.445-2.9-10.71c-1.053-2.885-3.677-4.972-4.75-7.834-.9-2.398-1.86-9-1.86-9m-5.813 11.184s2.557 6.1 2.88 9.196c.49 4.678-1.604 10.296-1.66 15.057-.04 3.118.454 6.615.147 9.084-.27 2.11-1.5 6.713-1.5 6.713s2.86-2.43 3.9-4.462c.4-.783 3-5.62 3-5.62s-.98 11.35-.23 15.937c.22 1.373 1.5 3.963 1.5 3.963m-7.66 29.824s.86 5.538 1.57 7.63c.6 1.773 2.61 5.145 2.61 5.145M197 461.715s1.67-5.826 1.94-8.533c.294-3.003.28-7.222-.218-10.134-.186-1.083-1.11-3.225-1.11-3.225m-5.63 2.733s1.645 5.864 1.507 8.633c-.21 4.08-2.06 8.91-2.71 12.86-.33 1.99-.87 4.69-.82 6.75.04 1.6.89 5.09.89 5.09M186 462.58s1.14-10.07 1.316-12.36c.15-1.92-.403-5.7-.403-5.7m-22.4-199.71l-4.37 10.81m7.29-5.5l-3.78 8m5.92-2.32l-2.018 6.21m4.34-1.69l-2.16 5.88m18.59 160.8l-3.66 1.38-5.658-1.705s-.275 2.32-.045 3.81c.146.95.81 2.57 1.32 2.984.96.77 2.395 1.57 3.44 1.3.525-.14 1.55-1.49 1.55-1.49m-.67-41.41s-2.296 5.88-2.43 8.79c-.124 2.71.75 6.29 1.496 8.67.64 2.05 1.31 3.87 2.55 4.77 1.083.78 4.264.63 4.264.63s-2.76 3-4.1 3.21c-1.77.27-4.23-.85-5.73-2.49-.975-1.07-1.91-3.38-2.444-5.16-.717-2.4-1.385-8.68-1.385-8.68m-4.54-8.99s-2.664 5.31-2.99 8.24c-.25 2.29.38 5.37.21 7.69-.16 2.16-.49 4.42-1.02 6.4-.57 2.12-2.894 8.24-2.894 8.24"/>
    <path fill="none" stroke="#010101" stroke-width="2.5" d="M209.29 359.105s.296 7.526-.07 10.668c-.396 3.368-2.505 10.614-2.505 10.614m-65.118-106.613s2.767 4.22 3.642 6.19c.5 1.146 2.72 6.903 2.72 6.903m.74-7.595s3.74 6.24 4.92 8.94c.62 1.423 1.99 6.32 1.99 6.32m-.27-9.918s2.75 6.15 3.74 9.006c.71 2.05 2.04 7.158 2.04 7.158m1.42-8.558s1.93 4.176 2.58 6.16c.61 1.854 1.41 4.427 1.65 6.53.23 2.042-.08 6.954-.08 6.954"/>
    <path fill="#ED1C24" d="M158.326 433.27c-.02-2.203-1.506-4.56-2.53-5.842-1.205-1.51-1.834-1.965-3.306-2.364-1.282-.35-3.14-.82-4.334.09-1.276.974-3.197 5.87-3.197 5.87s4.11-1.16 5.8-.457c1.84.768 2.31 3.84 4.07 5.027.63.43 1.58 1.313 2.22.877.62-.42 1.28-2.03 1.26-3.2z"/>
    <path fill="none" stroke="#010101" stroke-width="2.5" d="M158.326 433.27c-.02-2.203-1.506-4.56-2.53-5.842-1.205-1.51-1.834-1.965-3.306-2.364-1.282-.35-3.14-.82-4.334.09-1.276.974-3.197 5.87-3.197 5.87s4.11-1.16 5.8-.457c1.84.768 2.31 3.84 4.07 5.027.63.43 1.58 1.313 2.22.877.62-.42 1.28-2.03 1.26-3.2z"/>
    <path fill="#ED1C24" d="M150.68 443.1c.89 1.6 1.53 1.954 1.528 4.188 0 1.95-.724 4.9-1.725 5.79-.603.53-1.565-.308-2.217-.596-1.098-.485-2.416-2.122-3.548-2.228-.95-.088-2.265.47-3.092 1.306-.662.67-1.365 2.083-1.758 3.227-.416 1.21-.24 2.646-.438 4.01-.062.425-1.43-2.362-1.77-4.032-.355-1.727-.45-4.344-.162-6.112.414-2.538 1.58-3.79 2.71-5.56 1.064-1.664 2.587-1.52 3.98-2.062 1.42-.55 3.442-.25 4.834.46.55.28 1.263.91 1.66 1.62z"/>
    <path fill="none" stroke="#010101" stroke-width="2.5" d="M150.68 443.1c.89 1.6 1.53 1.954 1.528 4.188 0 1.95-.724 4.9-1.725 5.79-.603.53-1.565-.308-2.217-.596-1.098-.485-2.416-2.122-3.548-2.228-.95-.088-2.265.47-3.092 1.306-.662.67-1.365 2.083-1.758 3.227-.416 1.21-.24 2.646-.438 4.01-.062.425-1.43-2.362-1.77-4.032-.355-1.727-.45-4.344-.162-6.112.414-2.538 1.58-3.79 2.71-5.56 1.064-1.664 2.587-1.52 3.98-2.062 1.42-.55 3.442-.25 4.834.46.55.28 1.263.91 1.66 1.62z"/>
    <path fill="#ED1C24" d="M156.582 475.1s2.32 1.08 3.136 2.108c.45.566.712 1.002.844 1.945.28 2-.03 5.177-.812 6.736-1.057 2.1-3.492 2.35-5.033 3.11-1.058.52-3.248 1.88-3.248 1.88s2.25-10.91 3-12.66c.9-2.11 1.97-3.05 2.1-3.13z"/>
    <path fill="none" stroke="#010101" stroke-width="2.5" d="M156.582 475.1s2.32 1.08 3.136 2.108c.45.566.712 1.002.844 1.945.28 2-.03 5.177-.812 6.736-1.057 2.1-3.492 2.35-5.033 3.11-1.058.52-3.248 1.88-3.248 1.88s2.25-10.91 3-12.66c.9-2.11 1.97-3.05 2.1-3.13z"/>
    <path fill="#ED1C24" d="M178.213 483.754c.753.612 1.606 2.122 1.928 3.456.4 1.648.5 4.328.08 5.975-.58 2.282-2.33 4.343-3.61 5.462-1.7 1.484-6.19 2.328-6.19 2.328s2.13-3.73 2.88-5.565c.46-1.13 1.17-2.684 1.26-4.054.11-1.67-1.12-3.73-.89-5.363.15-1.057.86-2.246 1.44-2.64.88-.593 2.27-.287 3.12.4z"/>
    <path fill="none" stroke="#010101" stroke-width="2.5" d="M178.213 483.754c.753.612 1.606 2.122 1.928 3.456.4 1.648.5 4.328.08 5.975-.58 2.282-2.33 4.343-3.61 5.462-1.7 1.484-6.19 2.328-6.19 2.328s2.13-3.73 2.88-5.565c.46-1.13 1.17-2.684 1.26-4.054.11-1.67-1.12-3.73-.89-5.363.15-1.057.86-2.246 1.44-2.64.88-.593 2.27-.287 3.12.4z"/>
    <path fill="none" stroke="#010101" stroke-width="1.6" d="M217.81 367.813l-3.657-8.54"/>
    <path fill="#FFF" d="M221.845 355.6s2.324 3.62 5.134 3.557c2.43-.055 5.51-4.1 6.88-7.638.82-2.13 1.84-16.33 1.34-19.57-.66-4.2-3.01-10.03-4.74-11.92-1.73-1.89-3.68-2.14-5.21-1.44-.75.34-1.47 1.85-2.03 2.78-.43.7-1.25 1.52-1.29 2.53-.03.59.39 1.2.63 1.62.87 1.55 3.41 4.14 3.41 4.14s-3.21 2.65-4.61 2.21c-1.28-.4-2.91-2.39-3.49-4.4-.75-2.61-.55-7.02.07-9.75.54-2.43 2.07-5.1 3.34-6.47 1.37-1.47 5.18-2.46 5.18-2.46s-5.86 1.33-8.26.32c-2.04-.86-4.59-3.34-6.13-5.79-.79-1.25-1.74-3.32-1.98-5.14-.28-2.21-.02-5.51.63-7.49.64-1.95 2.08-4.2 3.33-4.72 1.22-.52 3 .41 4.08 1.53.9.93 2.26 4.63 2.26 4.63s-2.07-.68-2.87-.15c-.64.42-1.65 1.54-1.67 2.73-.04 1.75 1.42 3.31 2.26 4.26.96 1.09 3.64 2.15 3.64 2.15l4.52-.22 3.58.9s-4.12-15.75-5.84-21.71c-.99-3.4-2.45-12.2-3.05-15.87-.8-4.87-.58-5.41-1.47-10.22-1.02-5.55-2.86-13.12-5.33-17.03-1.43-2.27-4.6-4.72-6.47-5.62-1.57-.76-3.23-.6-4.84-.09-1.23.39-2.96 1.68-3.68 3.47-.83 2.05-1.17 5.88-.71 8.24.15.77.73 1.45 1.13 1.88.83.89 2.1 1.71 3.07 1.89 1.38.26 3.33.04 4.6-.97.35-.28.94-1.49.94-1.49s-.91 5.83-1.92 7.6c-1.07 1.87-3.12 3.32-4.62 3.59-1.69.29-4.09-.58-5.51-2.17-1.83-2.04-3.83-6.37-4.38-10.02-.64-4.23-.13-10.65 1.11-14.48 1.06-3.31 3.63-6.53 5.65-7.96 1.27-.9 4.53-.72 4.53-.72l1.93 1.14s-2.38-1.21-3.36-1.9c-1.06-.75-2.57-1.58-3.43-2.9-1.69-2.61-3.59-7.18-4.09-11.02-.31-2.47.14-5.99.64-8.37.63-3 1.85-7 3.29-8.97 1.46-1.99 4-3.34 5.84-3.46 1.13-.08 2.73.52 3.65 1.65 1.22 1.49 2.65 4.55 2.82 7.14.08 1.18-.82 3.74-.82 3.74s-1.57-3.57-2.55-4.27c-1.02-.72-2.65-.81-3.66-.03-.63.49-1.25 1.89-1.53 2.99-.54 2.1-1.01 5.51-.49 7.62.57 2.3 2.55 3.9 3.84 5.02 1.26 1.09 4.51 2.28 4.51 2.28l4.69 6.15s-.68-10.83-.608-15.49c.07-4 .43-9.34.96-13.24.71-5.21 2.05-12.03 3.42-16.84 2.01-7.08 6.38-14.87 8.27-22.05.64-2.45 1.25-5.94 1.42-8.61.2-3.37.16-8.03-.43-11.24-.38-2.06-1.433-4.4-2.18-6.13-.82-1.9-1.79-4.95-3.043-5.89-.863-.65-2.29-.44-3.16.1s-1.84 2-2.32 3.23c-.47 1.23-.95 3.37-.75 4.49.21 1.12 1.77 3.72 2.29 3.45.52-.28 4.236-1.66 4.236-1.66s-1.08 5.4-2.28 6.98c-1.2 1.58-4.53 1.84-6.75 1.33-2.22-.51-5.02-4.5-6.85-7.05s-3.43-5.27-4.03-8.02c-.61-2.75-.47-6.64-.08-8.99.39-2.35 1.27-4.776 2.27-6.11.76-1.01 3.02-1.72 3.02-1.72s-3.52-2.44-4.71-4.28c-1.254-1.934-2.7-5.21-3.17-8.02-.53-3.19-.604-8.09.226-11.11 1.16-4.2 3.45-9.14 5.76-11.5 1.61-1.65 4.99-4.145 6.85-4.19 1.312-.03 3.2 2.61 4.13 4.21.907 1.56 1.63 4.82 1.387 7.01-.184 1.65-2.11 4.23-2.11 4.23s.54-4.34.04-5.87c-.4-1.238-1.53-2.45-2.35-2.39-1.11.09-2.58 1.96-3.04 3.73-.34 1.32-.01 3.44.32 4.75.8 3.18 4.32 8.78 4.32 8.78l7.44 3.8 4.77 5.53 1.34 3.38 2.51-9.85s4.66-8.09 7.18-10.07c1.36-1.07 3.43-1.93 4.89-1.47 1.42.45 3.13 2.48 4.13 4.27.73 1.3 1.85 3.47 1.69 5.26-.18 2.02-2.83 4.73-2.83 4.73s.64-4.135.11-5.5c-.53-1.38-2.04-1.99-3-1.89-.96.1-2.13 1.43-2.89 2.48-.92 1.29-1.944 3.51-2.474 5.352-.57 2.01-1.1 5-1.05 7.24.07 3.33 1.35 7.4 2.01 10.51.96 4.53 2.9 10.17 3.48 14.89.29 2.35.34 5.61.16 8-.11 1.47-.82 4.74-.82 4.74l-1.67 5.62s4.2-6.66 6.45-7.9c1.7-.93 4.35-1.34 5.94.04 1.94 1.7 3.57 6.56 4.34 10.1.35 1.64.502 4.13.26 5.83-.28 1.91-1.24 4.12-2.02 5.55-.55 1-2.15 2.64-2.15 2.64s1.49-5.88 1.27-8.47c-.19-2.22-1.09-5.36-2.24-6.37-1.47-1.294-4.1-.824-5.49.757-1.165 1.33-1.836 4.79-2.18 7.13-.4 2.7.4 6.607-.066 9.27-.52 2.98-2.062 6.397-3.26 8.72-1.67 3.25-4.77 6.01-6.46 9.227-1.34 2.55-5.9 13.89-6.51 16.11-.74 2.74-1.63 6.79-1.44 9.79.09 1.34 1.19 3.98 1.19 3.98s.938-4.4 1.72-5.81c1.69-3.03 4.82-5.225 7.05-6.84 1.67-1.21 4.62-.49 5.8-2.87 1-2 1.26-6.307.67-8.73-.41-1.73-2.12-3.52-2.86-3.73-.75-.21-1.38.79-1.38.79s1.9-4.1 3.08-4.48c1.52-.49 3.83.94 4.85 2.95.8 1.58 1.7 4.37 1.87 6.46.17 2.21-.26 5.78-.75 7.85-.52 2.19-2.47 3.51-3.384 5.275-.64 1.23-2.1 2.89-1.86 4.49.3 2.03 2.6 1.85 3.63 2.94 1.71 1.83 3.97 4.52 5.27 7.19.78 1.59 1.67 4.07 1.94 6.11.48 3.71.26 9.06-.4 12.71-.4 2.22-1.27 5.2-2.33 6.6-.53.7-1.48.97-2.14 1.04-1.29.14-3.19.16-4.26-1.09-.88-1.03-1.79-5.31-1.79-5.31l-.44-1.85s3.1 3.33 4.55 2.94c.8-.22 1.88-1.56 2.15-2.9.36-1.79-.12-4.75-.87-6.1-.95-1.71-3.05-1.73-4.4-2.15-1.09-.34-2.52-1.23-3.7-.52-1.39.84-3.32 1.8-4.587 3.14-.94 1-1.98 2.887-2.77 4.22-.59.98-1.56 2.12-1.85 3.43-.96 4.23-.5 13.21-.23 17.71.18 2.99.6 6.97 1.15 9.81 1.51 7.797 2.89 12.22 4.61 19.88 1.42 6.35 4.9 20.02 6.02 26.555.49 2.86 1.33 6.6 1.6 9.55.31 3.45.18 8.16.22 11.66.05 5.56.63 10.98-.22 16.36-.53 3.37-2.03 9.36-3.19 12.22-1.3 3.2-2.93 7.84-4.79 10.03-1.72 2.02-4.51 3.41-6.57 3.66-1.62.19-4.12-.2-5.62-1.24-2.27-1.56-6.95-7.6-6.95-7.6"/>
    <path fill="none" stroke="#010101" stroke-width="3" d="M221.845 355.6s2.324 3.62 5.134 3.557c2.43-.055 5.51-4.1 6.88-7.638.82-2.13 1.84-16.33 1.34-19.57-.66-4.2-3.01-10.03-4.74-11.92-1.73-1.89-3.68-2.14-5.21-1.44-.75.34-1.47 1.85-2.03 2.78-.43.7-1.25 1.52-1.29 2.53-.03.59.39 1.2.63 1.62.87 1.55 3.41 4.14 3.41 4.14s-3.21 2.65-4.61 2.21c-1.28-.4-2.91-2.39-3.49-4.4-.75-2.61-.55-7.02.07-9.75.54-2.43 2.07-5.1 3.34-6.47 1.37-1.47 5.18-2.46 5.18-2.46s-5.86 1.33-8.26.32c-2.04-.86-4.59-3.34-6.13-5.79-.79-1.25-1.74-3.32-1.98-5.14-.28-2.21-.02-5.51.63-7.49.64-1.95 2.08-4.2 3.33-4.72 1.22-.52 3 .41 4.08 1.53.9.93 2.26 4.63 2.26 4.63s-2.07-.68-2.87-.15c-.64.42-1.65 1.54-1.67 2.73-.04 1.75 1.42 3.31 2.26 4.26.96 1.09 3.64 2.15 3.64 2.15l4.52-.22 3.58.9s-4.12-15.75-5.84-21.71c-.99-3.4-2.45-12.2-3.05-15.87-.8-4.87-.58-5.41-1.47-10.22-1.02-5.55-2.86-13.12-5.33-17.03-1.43-2.27-4.6-4.72-6.47-5.62-1.57-.76-3.23-.6-4.84-.09-1.23.39-2.96 1.68-3.68 3.47-.83 2.05-1.17 5.88-.71 8.24.15.77.73 1.45 1.13 1.88.83.89 2.1 1.71 3.07 1.89 1.38.26 3.33.04 4.6-.97.35-.28.94-1.49.94-1.49s-.91 5.83-1.92 7.6c-1.07 1.87-3.12 3.32-4.62 3.59-1.69.29-4.09-.58-5.51-2.17-1.83-2.04-3.83-6.37-4.38-10.02-.64-4.23-.13-10.65 1.11-14.48 1.06-3.31 3.63-6.53 5.65-7.96 1.27-.9 4.53-.72 4.53-.72l1.93 1.14s-2.38-1.21-3.36-1.9c-1.06-.75-2.57-1.58-3.43-2.9-1.69-2.61-3.59-7.18-4.09-11.02-.31-2.47.14-5.99.64-8.37.63-3 1.85-7 3.29-8.97 1.46-1.99 4-3.34 5.84-3.46 1.13-.08 2.73.52 3.65 1.65 1.22 1.49 2.65 4.55 2.82 7.14.08 1.18-.82 3.74-.82 3.74s-1.57-3.57-2.55-4.27c-1.02-.72-2.65-.81-3.66-.03-.63.49-1.25 1.89-1.53 2.99-.54 2.1-1.01 5.51-.49 7.62.57 2.3 2.55 3.9 3.84 5.02 1.26 1.09 4.51 2.28 4.51 2.28l4.69 6.15s-.68-10.83-.608-15.49c.07-4 .43-9.34.96-13.24.71-5.21 2.05-12.03 3.42-16.84 2.01-7.08 6.38-14.87 8.27-22.05.64-2.45 1.25-5.94 1.42-8.61.2-3.37.16-8.03-.43-11.24-.38-2.06-1.433-4.4-2.18-6.13-.82-1.9-1.79-4.95-3.043-5.89-.863-.65-2.29-.44-3.16.1s-1.84 2-2.32 3.23c-.47 1.23-.95 3.37-.75 4.49.21 1.12 1.77 3.72 2.29 3.45.52-.28 4.236-1.66 4.236-1.66s-1.08 5.4-2.28 6.98c-1.2 1.58-4.53 1.84-6.75 1.33-2.22-.51-5.02-4.5-6.85-7.05s-3.43-5.27-4.03-8.02c-.61-2.75-.47-6.64-.08-8.99.39-2.35 1.27-4.776 2.27-6.11.76-1.01 3.02-1.72 3.02-1.72s-3.52-2.44-4.71-4.28c-1.254-1.934-2.7-5.21-3.17-8.02-.53-3.19-.604-8.09.226-11.11 1.16-4.2 3.45-9.14 5.76-11.5 1.61-1.65 4.99-4.145 6.85-4.19 1.312-.03 3.2 2.61 4.13 4.21.907 1.56 1.63 4.82 1.387 7.01-.184 1.65-2.11 4.23-2.11 4.23s.54-4.34.04-5.87c-.4-1.238-1.53-2.45-2.35-2.39-1.11.09-2.58 1.96-3.04 3.73-.34 1.32-.01 3.44.32 4.75.8 3.18 4.32 8.78 4.32 8.78l7.44 3.8 4.77 5.53 1.34 3.38 2.51-9.85s4.66-8.09 7.18-10.07c1.36-1.07 3.43-1.93 4.89-1.47 1.42.45 3.13 2.48 4.13 4.27.73 1.3 1.85 3.47 1.69 5.26-.18 2.02-2.83 4.73-2.83 4.73s.64-4.135.11-5.5c-.53-1.38-2.04-1.99-3-1.89-.96.1-2.13 1.43-2.89 2.48-.92 1.29-1.944 3.51-2.474 5.352-.57 2.01-1.1 5-1.05 7.24.07 3.33 1.35 7.4 2.01 10.51.96 4.53 2.9 10.17 3.48 14.89.29 2.35.34 5.61.16 8-.11 1.47-.82 4.74-.82 4.74l-1.67 5.62s4.2-6.66 6.45-7.9c1.7-.93 4.35-1.34 5.94.04 1.94 1.7 3.57 6.56 4.34 10.1.35 1.64.502 4.13.26 5.83-.28 1.91-1.24 4.12-2.02 5.55-.55 1-2.15 2.64-2.15 2.64s1.49-5.88 1.27-8.47c-.19-2.22-1.09-5.36-2.24-6.37-1.47-1.294-4.1-.824-5.49.757-1.165 1.33-1.836 4.79-2.18 7.13-.4 2.7.4 6.607-.066 9.27-.52 2.98-2.062 6.397-3.26 8.72-1.67 3.25-4.77 6.01-6.46 9.227-1.34 2.55-5.9 13.89-6.51 16.11-.74 2.74-1.63 6.79-1.44 9.79.09 1.34 1.19 3.98 1.19 3.98s.938-4.4 1.72-5.81c1.69-3.03 4.82-5.225 7.05-6.84 1.67-1.21 4.62-.49 5.8-2.87 1-2 1.26-6.307.67-8.73-.41-1.73-2.12-3.52-2.86-3.73-.75-.21-1.38.79-1.38.79s1.9-4.1 3.08-4.48c1.52-.49 3.83.94 4.85 2.95.8 1.58 1.7 4.37 1.87 6.46.17 2.21-.26 5.78-.75 7.85-.52 2.19-2.47 3.51-3.384 5.275-.64 1.23-2.1 2.89-1.86 4.49.3 2.03 2.6 1.85 3.63 2.94 1.71 1.83 3.97 4.52 5.27 7.19.78 1.59 1.67 4.07 1.94 6.11.48 3.71.26 9.06-.4 12.71-.4 2.22-1.27 5.2-2.33 6.6-.53.7-1.48.97-2.14 1.04-1.29.14-3.19.16-4.26-1.09-.88-1.03-1.79-5.31-1.79-5.31l-.44-1.85s3.1 3.33 4.55 2.94c.8-.22 1.88-1.56 2.15-2.9.36-1.79-.12-4.75-.87-6.1-.95-1.71-3.05-1.73-4.4-2.15-1.09-.34-2.52-1.23-3.7-.52-1.39.84-3.32 1.8-4.587 3.14-.94 1-1.98 2.887-2.77 4.22-.59.98-1.56 2.12-1.85 3.43-.96 4.23-.5 13.21-.23 17.71.18 2.99.6 6.97 1.15 9.81 1.51 7.797 2.89 12.22 4.61 19.88 1.42 6.35 4.9 20.02 6.02 26.555.49 2.86 1.33 6.6 1.6 9.55.31 3.45.18 8.16.22 11.66.05 5.56.63 10.98-.22 16.36-.53 3.37-2.03 9.36-3.19 12.22-1.3 3.2-2.93 7.84-4.79 10.03-1.72 2.02-4.51 3.41-6.57 3.66-1.62.19-4.12-.2-5.62-1.24-2.27-1.56-6.95-7.6-6.95-7.6"/>
    <path fill="none" stroke="#010101" stroke-width="2.5" d="M206.04 68.88s-1.563 8.727-1.29 11.77c.328 3.668 1.047 8.672 2.25 11.725.957 2.428 2.87 4.818 4.35 6.245 2.42 2.332 8.752 5.08 8.752 5.08"/>
    <path fill="#FFF" d="M215.24 111.314s-3.645 3.286-4.844 5.46c-.86 1.56-1.842 4.093-2.104 6.2-.29 2.333.493 7.89.493 7.89"/>
    <path fill="none" stroke="#010101" stroke-width="2.5" d="M215.24 111.314s-3.645 3.286-4.844 5.46c-.86 1.56-1.842 4.093-2.104 6.2-.29 2.333.493 7.89.493 7.89"/>
    <path fill="#F8DE01" d="M241.093 144.477s-3.152 10.814-5.05 14.782c-.637 1.33-1.7 2.76-2.498 3.8-.79 1.03-2.77 3.08-2.77 3.08"/>
    <path fill="none" stroke="#010101" stroke-width="2.5" d="M241.093 144.477s-3.152 10.814-5.05 14.782c-.637 1.33-1.7 2.76-2.498 3.8-.79 1.03-2.77 3.08-2.77 3.08"/>
    <path fill="#FFF" d="M237.286 177.668s-2.767-1.443-3.974-1.223c-.975.178-2.24 1.123-3.036 2.128-.737.933-1.95 4.05-1.95 4.05"/>
    <path fill="none" stroke="#010101" stroke-width="2.5" d="M237.286 177.668s-2.767-1.443-3.974-1.223c-.975.178-2.24 1.123-3.036 2.128-.737.933-1.95 4.05-1.95 4.05m25.324 49.41s-3.434-6.99-5.29-9.357c-1.886-2.407-4.898-4.8-7.24-5.07-2.63-.306-6.224 1.535-8.54 3.762-1.56 1.5-3.137 4.796-4.308 7.14-1.228 2.455-3.633 8.815-3.633 8.815"/>
    <path fill="#F8DE01" d="M229.81 301.405s2.444 5.45 3.105 7.67c.52 1.745 1.19 6.222 1.19 6.222"/>
    <path fill="none" stroke="#010101" stroke-width="2.5" d="M229.81 301.405s2.444 5.45 3.105 7.67c.52 1.745 1.19 6.222 1.19 6.222"/>
    <path fill="#EF3733" d="M130.85 138.442s-5.942-6.345-8.895-7.01c-2.1-.47-4.993-.515-7.076.122-3 .914-7.43 6.628-10.45 7.288-1.43.31-2.62.595-3.62-.96-1.8-2.782-.37-8.248-1.47-11.782-.54-1.73-1.9-3.526-2.99-4.45-1.36-1.142-3.49-2.094-5.04-1.833-.97.163-2.91 2.163-2.91 2.163s2.53 2.21 3.14 3.79c1.34 3.462.27 9.653 1.46 13.24.47 1.413 1.61 2.783 2.42 3.78.82 1.025 1.98 2.446 3 2.907 2.28 1.027 5.6.855 7.94.112 2.85-.91 6.02-6.38 8.87-7.29 2.16-.69 5.18.71 7.35 1.34 1.58.46 5.02 2.93 5.02 2.93l3.21-4.36z"/>
    <path fill="none" stroke="#010101" stroke-width="2.5" d="M130.85 138.442s-5.942-6.345-8.895-7.01c-2.1-.47-4.993-.515-7.076.122-3 .914-7.43 6.628-10.45 7.288-1.43.31-2.62.595-3.62-.96-1.8-2.782-.37-8.248-1.47-11.782-.54-1.73-1.9-3.526-2.99-4.45-1.36-1.142-3.49-2.094-5.04-1.833-.97.163-2.91 2.163-2.91 2.163s2.53 2.21 3.14 3.79c1.34 3.462.27 9.653 1.46 13.24.47 1.413 1.61 2.783 2.42 3.78.82 1.025 1.98 2.446 3 2.907 2.28 1.027 5.6.855 7.94.112 2.85-.91 6.02-6.38 8.87-7.29 2.16-.69 5.18.71 7.35 1.34 1.58.46 5.02 2.93 5.02 2.93l3.21-4.36z"/>
    <path fill="#FFF" d="M110.24 117.575c.298-1.593.555-1.063 1.465-1.607.92-.55.903-.852 1.62.272.646 1.02.834.64.922 2.156.23 3.915-.088 7.83-.98 11.462-.38 1.54-1.4 3.523-1.4 3.523s-.718-1.51-1.037-3.37c-.676-3.93-1.327-8.51-.59-12.43z"/>
    <path fill="none" stroke="#010101" stroke-width="2.5" d="M110.24 117.575c.298-1.593.555-1.063 1.465-1.607.92-.55.903-.852 1.62.272.646 1.02.834.64.922 2.156.23 3.915-.088 7.83-.98 11.462-.38 1.54-1.4 3.523-1.4 3.523s-.718-1.51-1.037-3.37c-.676-3.93-1.327-8.51-.59-12.43z"/>
    <path fill="#FFF" d="M111.15 147.625c-.043 1.67.306 1.324 1.05 2.37.75 1.055.675 1.33 1.574.694.814-.58.912-.11 1.304-1.49 1.01-3.54 1.505-7.4 1.402-11.34-.044-1.67-.598-4.13-.598-4.13s-.982 1-1.66 2.56c-1.43 3.29-2.97 7.21-3.073 11.32z"/>
    <path fill="none" stroke="#010101" stroke-width="2.5" d="M111.15 147.625c-.043 1.67.306 1.324 1.05 2.37.75 1.055.675 1.33 1.574.694.814-.58.912-.11 1.304-1.49 1.01-3.54 1.505-7.4 1.402-11.34-.044-1.67-.598-4.13-.598-4.13s-.982 1-1.66 2.56c-1.43 3.29-2.97 7.21-3.073 11.32z"/>
    <path fill="#FFF" d="M141.31 142.507s-9.3 16.41-14.063 21.625c-4.52 4.948-11.88 7.048-16.392 12.02-4.555 5.022-10.092 13.453-13.396 20.87-2.27 5.095-4.26 13.122-5.68 19.064-1.31 5.447 1.66 13.085.35 13.76-1.72.887-4.84 4.67-6.88 10.587-1.44 4.145-2.11 10.562-2.44 12.53-.46 2.69-.2 7.01.79 9.2 1.09 2.426 5.46 3.907 5.46 3.907s-1.9-5.9-1.46-8.444c.35-2.032 1.93-4.054 3.12-4.55 1.77-.745 3.98.575 3.98.575s-1.76 9.18-1.22 13c.4 2.95 2.88 5.23 3.44 8.09.53 2.72.61 6.82.13 9.58-.82 4.68-5.41 13.33-5.41 13.33s7.01-3.63 9.3-7.14c1.96-3 3.96-8.52 4.52-12.95.52-4.19-1.78-10.12-.97-14.18 1.02-5.15 7.38-12.91 7.38-12.91s.21 9.49.75 13.41c.36 2.65 2.28 5.8 1.9 8.45-.52 3.56-4.4 4.69-5.36 7.97-.97 3.29-.88 8.61-.56 12.25.23 2.59.91 6.1 1.9 8.07 1.49 2.97 4.34 5.56 6.53 6.6.77.36 2.64.04 2.64.04s-4.42-5.02-5.2-8.49c-.43-1.92-.23-5.02.29-6.89.63-2.27 2.45-4.08 3.57-5.69 1.6-2.3 4.23-4.42 5.56-7.2 1.38-2.84 2.62-7.48 3.19-11.06.6-3.77.56-13.01.56-13.01s-.24 7.05.8 10.37c.63 1.99 3.17 5.41 3.87 7.32.57 1.56 1.39 3.92 1.27 5.76-.15 2.32-1.77 4.49-2.48 6.48-.65 1.8-2.04 6.1-2.04 6.1s5.95-4.68 7.99-7.92c1.83-2.91 4.28-7.57 4.73-11.8.24-2.22-.65-5.13-1.03-7.29-.27-1.52-.8-3.45-1.05-4.99-.25-1.47-.9-3.53-.62-4.99.48-2.47 3.79-5.69 3.79-5.69s-.85 4.8-.73 6.88c.21 3.48 2.54 10.76 2.54 10.76s.34-6.53 1.4-8.4c1.85-3.27 6.08-2.28 8.4-4.47 2.68-2.53 7.27-10.39 9.18-14.54.41-.89 3.97 7.42 6.26 4.43 3.66-4.79 6.44-10.64 9.25-20.1 2.15-7.29-.37-17.79-.09-27.22.3-10.21 2.15-23.08 2-23.99-.89-5.32-4.61-11.68-4.61-11.68l-.86-24.9L168.5 120l-31.15 14.48 3.884 8.1z"/>
    <path fill="none" stroke="#010101" stroke-width="3" d="M141.31 142.507s-9.3 16.41-14.063 21.625c-4.52 4.948-11.88 7.048-16.392 12.02-4.555 5.022-10.092 13.453-13.396 20.87-2.27 5.095-4.26 13.122-5.68 19.064-1.31 5.447 1.66 13.085.35 13.76-1.72.887-4.84 4.67-6.88 10.587-1.44 4.145-2.11 10.562-2.44 12.53-.46 2.69-.2 7.01.79 9.2 1.09 2.426 5.46 3.907 5.46 3.907s-1.9-5.9-1.46-8.444c.35-2.032 1.93-4.054 3.12-4.55 1.77-.745 3.98.575 3.98.575s-1.76 9.18-1.22 13c.4 2.95 2.88 5.23 3.44 8.09.53 2.72.61 6.82.13 9.58-.82 4.68-5.41 13.33-5.41 13.33s7.01-3.63 9.3-7.14c1.96-3 3.96-8.52 4.52-12.95.52-4.19-1.78-10.12-.97-14.18 1.02-5.15 7.38-12.91 7.38-12.91s.21 9.49.75 13.41c.36 2.65 2.28 5.8 1.9 8.45-.52 3.56-4.4 4.69-5.36 7.97-.97 3.29-.88 8.61-.56 12.25.23 2.59.91 6.1 1.9 8.07 1.49 2.97 4.34 5.56 6.53 6.6.77.36 2.64.04 2.64.04s-4.42-5.02-5.2-8.49c-.43-1.92-.23-5.02.29-6.89.63-2.27 2.45-4.08 3.57-5.69 1.6-2.3 4.23-4.42 5.56-7.2 1.38-2.84 2.62-7.48 3.19-11.06.6-3.77.56-13.01.56-13.01s-.24 7.05.8 10.37c.63 1.99 3.17 5.41 3.87 7.32.57 1.56 1.39 3.92 1.27 5.76-.15 2.32-1.77 4.49-2.48 6.48-.65 1.8-2.04 6.1-2.04 6.1s5.95-4.68 7.99-7.92c1.83-2.91 4.28-7.57 4.73-11.8.24-2.22-.65-5.13-1.03-7.29-.27-1.52-.8-3.45-1.05-4.99-.25-1.47-.9-3.53-.62-4.99.48-2.47 3.79-5.69 3.79-5.69s-.85 4.8-.73 6.88c.21 3.48 2.54 10.76 2.54 10.76s.34-6.53 1.4-8.4c1.85-3.27 6.08-2.28 8.4-4.47 2.68-2.53 7.27-10.39 9.18-14.54.41-.89 3.97 7.42 6.26 4.43 3.66-4.79 6.44-10.64 9.25-20.1 2.15-7.29-.37-17.79-.09-27.22.3-10.21 2.15-23.08 2-23.99-.89-5.32-4.61-11.68-4.61-11.68l-.86-24.9L168.5 120l-31.15 14.48 3.884 8.1z"/>
    <path fill="#FFF" d="M167.743 83.292s1.698-3.768 2.23-6.984c.324-1.96.158-7.726-.01-10.59-.158-2.684-.668-3.747-.668-3.747s-.335 3.28-.785 4.96c-.754 2.84-3.772 8.1-3.772 8.1s.542-3.76.494-5.39c-.15-5.05-2.508-16.24-2.508-16.24s-1.207 10.92-2.8 14.63c-1.375 3.21-3.15 2.13-5.326 3.4-5.442 3.19-15.273.57-21.493 4.79-2.562 1.75-7.847 7.97-7.847 7.97s-6.54 3.79-10.146 2.6c-1.325-.44-2.857-2.57-4.188-2.15-2.36.75-4.252.64-6.23 1.66-2.485 1.28-2.706 10.33-1.94 14.62.258 1.44 1.36 2.75 1.564 4.21.34 2.45-.888 5.95-.48 8.36.48 2.85 2.002 6.43 3.534 7.73 2.102 1.78 5.39.34 7.624-.94 2.45-1.4 5.085-.98 6.457-4.79.554-1.54 2.273-7.29 2.273-7.29s3.857 4.97 4.723 9.14c.75 3.63.65 9.41-.33 12.9-1.44 5.15-5.26 10.42-8.34 12.44-2.77 1.82-7.11-1.81-9.82.21-2.16 1.6-4.3 3.06-5.08 6.9-.51 2.49-.86 7.75.1 9.77 1.11 2.33 3.53.2 4.38 2.85.48 1.5.33 7.33.33 7.33s3.93-4.34 4.88-7.25c.6-1.85.66-6.96.66-6.96s9.52 1.25 13.61 1.24c2.83-.01 7.67 1.26 10.22-.9 2-1.69 3.61-5.93 4.1-9.7.18-1.4-.76-4.55-.76-4.55s1.47-1.54 2.21-.32c1.82 3.03 2.48 6.79 2.5 11.2.02 7.75-.64 19.19-2.65 26.12-1.18 4.07-3.27 9.41-5.56 13.24-.93 1.56-1.89 2.87-2.83 3.74-2.29 2.13-6.04 2.06-8.26 4.42-1.5 1.59-3.24 4.6-4.08 7.27-.68 2.17-1.14 5.55-1.08 8.01.08 3.11 1.91 9.79 1.91 9.79l1.62-7.93 7.94-6.47s10.43-3.88 14.25-8.02c4.22-4.56 4.35-7.19 4.35-7.19s-1.03 9.9-6.02 17.59c-1.56 2.4-6.04 5.95-6.04 5.95s8.48-.96 11.69-3.67c3.8-3.22 8.04-10.37 10.55-16.3 2.27-5.37 5.89-23.74 5.89-23.74s-2.52-17.31-4.48-25.59c-1.06-4.5-4.91-13.78-4.91-13.78s3.75 9.54 4.9 14.06c2.54 9.99 5.98 34.95 5.98 34.95s3.15-15.93 3.68-23.04c.39-5.23.59-12.45-.15-17.55-.63-4.34-3.97-13.21-3.97-13.21s3.14 9.25 3.93 13.61c.9 4.96-.15 12.79 1.45 17.17 1.86 5.11 6.17 10.99 9.66 11.11 1.44.05 3.18-2.43 4.13-4.33 1.29-2.55 2.81-7 2.62-10.38-.13-2.22-2.47-6.06-2.47-6.06s-1.21 5.3-2.05 6.9c-.73 1.39-2.1.83-3.01-.17-.81-.89-.65-5.21-.79-6.87-.67-8.19 2.29-17.78.72-24.45-.54-2.27-2.31-8.32-3.92-10.15-1.05-1.2-5.07-4.38-5.07-4.38s2.72-2.98 3.51-4.89c1.7-4.11 2.77-10.88 3.3-15.85.38-3.56.11-12.06.11-12.06s-6.42.28-9.14.97c-1.57.4-5.16 2.08-5.16 2.08z"/>
    <path fill="none" stroke="#010101" stroke-width="3" d="M167.743 83.292s1.698-3.768 2.23-6.984c.324-1.96.158-7.726-.01-10.59-.158-2.684-.668-3.747-.668-3.747s-.335 3.28-.785 4.96c-.754 2.84-3.772 8.1-3.772 8.1s.542-3.76.494-5.39c-.15-5.05-2.508-16.24-2.508-16.24s-1.207 10.92-2.8 14.63c-1.375 3.21-3.15 2.13-5.326 3.4-5.442 3.19-15.273.57-21.493 4.79-2.562 1.75-7.847 7.97-7.847 7.97s-6.54 3.79-10.146 2.6c-1.325-.44-2.857-2.57-4.188-2.15-2.36.75-4.252.64-6.23 1.66-2.485 1.28-2.706 10.33-1.94 14.62.258 1.44 1.36 2.75 1.564 4.21.34 2.45-.888 5.95-.48 8.36.48 2.85 2.002 6.43 3.534 7.73 2.102 1.78 5.39.34 7.624-.94 2.45-1.4 5.085-.98 6.457-4.79.554-1.54 2.273-7.29 2.273-7.29s3.857 4.97 4.723 9.14c.75 3.63.65 9.41-.33 12.9-1.44 5.15-5.26 10.42-8.34 12.44-2.77 1.82-7.11-1.81-9.82.21-2.16 1.6-4.3 3.06-5.08 6.9-.51 2.49-.86 7.75.1 9.77 1.11 2.33 3.53.2 4.38 2.85.48 1.5.33 7.33.33 7.33s3.93-4.34 4.88-7.25c.6-1.85.66-6.96.66-6.96s9.52 1.25 13.61 1.24c2.83-.01 7.67 1.26 10.22-.9 2-1.69 3.61-5.93 4.1-9.7.18-1.4-.76-4.55-.76-4.55s1.47-1.54 2.21-.32c1.82 3.03 2.48 6.79 2.5 11.2.02 7.75-.64 19.19-2.65 26.12-1.18 4.07-3.27 9.41-5.56 13.24-.93 1.56-1.89 2.87-2.83 3.74-2.29 2.13-6.04 2.06-8.26 4.42-1.5 1.59-3.24 4.6-4.08 7.27-.68 2.17-1.14 5.55-1.08 8.01.08 3.11 1.91 9.79 1.91 9.79l1.62-7.93 7.94-6.47s10.43-3.88 14.25-8.02c4.22-4.56 4.35-7.19 4.35-7.19s-1.03 9.9-6.02 17.59c-1.56 2.4-6.04 5.95-6.04 5.95s8.48-.96 11.69-3.67c3.8-3.22 8.04-10.37 10.55-16.3 2.27-5.37 5.89-23.74 5.89-23.74s-2.52-17.31-4.48-25.59c-1.06-4.5-4.91-13.78-4.91-13.78s3.75 9.54 4.9 14.06c2.54 9.99 5.98 34.95 5.98 34.95s3.15-15.93 3.68-23.04c.39-5.23.59-12.45-.15-17.55-.63-4.34-3.97-13.21-3.97-13.21s3.14 9.25 3.93 13.61c.9 4.96-.15 12.79 1.45 17.17 1.86 5.11 6.17 10.99 9.66 11.11 1.44.05 3.18-2.43 4.13-4.33 1.29-2.55 2.81-7 2.62-10.38-.13-2.22-2.47-6.06-2.47-6.06s-1.21 5.3-2.05 6.9c-.73 1.39-2.1.83-3.01-.17-.81-.89-.65-5.21-.79-6.87-.67-8.19 2.29-17.78.72-24.45-.54-2.27-2.31-8.32-3.92-10.15-1.05-1.2-5.07-4.38-5.07-4.38s2.72-2.98 3.51-4.89c1.7-4.11 2.77-10.88 3.3-15.85.38-3.56.11-12.06.11-12.06s-6.42.28-9.14.97c-1.57.4-5.16 2.08-5.16 2.08z"/>
    <path fill="#FFF" d="M132.79 93.894c-1.065 4.058 1.27 9.85 5.218 12.94 3.946 3.088 8.008 2.303 9.072-1.755s-1.272-9.86-5.22-12.94-8.007-2.31-9.07 1.75z"/>
    <path fill="none" stroke="#010101" stroke-width="2.5" d="M132.79 93.894c-1.065 4.058 1.27 9.85 5.218 12.94 3.946 3.088 8.008 2.303 9.072-1.755s-1.272-9.86-5.22-12.94-8.007-2.31-9.07 1.75z"/>
    <path fill="#FFF" d="M142.91 96.607c-.043 4.838-2.33 8.73-5.11 8.694-2.78-.03-4.998-3.98-4.953-8.82v-.01c.044-4.83 2.332-8.73 5.11-8.69 2.78.04 4.998 3.99 4.954 8.83v.01z"/>
    <path fill="none" stroke="#010101" stroke-width="2.5" d="M142.91 96.607c-.043 4.838-2.33 8.73-5.11 8.694-2.78-.03-4.998-3.98-4.953-8.82v-.01c.044-4.83 2.332-8.73 5.11-8.69 2.78.04 4.998 3.99 4.954 8.83v.01z"/>
    <path fill="#010101" d="M138.364 89.007c-.38-.008-.72.09-1.063.156-.68.13-1.26.323-1.26.323l.46 3.733s.47-.16 1.03-.26c.56-.11 1.25.06 1.14-.02-.04-.04.39.83.43 1.03.11.62.02 2.96-.16 3.59-.06.22-.58 1-.62 1.02.17-.09-.38-.02-.78-.15s-.74-.29-.74-.29-1.11-.25-1.27.38c-.22.83.61 2.85.61 2.85s.44.18.96.35c.52.16 1.06.46 1.85.02.95-.52 1.53-1.55 1.94-2.91.54-1.83.69-3.97.35-5.98-.24-1.43-.66-2.66-1.6-3.41-.44-.35-.85-.46-1.23-.46z"/>
    <path fill="#FFF" d="M137.507 83.122s-1.74.448-2.463.936c-1.416.96-2.857 3.16-3.063 5.777-.1 1.37.19 2.537.75 3.504.61 1.03 1.6.92 2.45 1 1.25.11 2.82-1.57 4.03-1.3 1.75.39 4.01 2.29 5.31 4.34.61.96.73 3.3 1.41 4.09.62.71 1.78 1.18 2.45.61.69-.59 1.06-2.58 1.27-3.87.1-.62.12-1.52.02-2.14-.15-.93-.6-2.03-.98-2.73-.47-.88-1.87-2.36-1.87-2.36"/>
    <path fill="none" stroke="#010101" stroke-width="2.5" d="M137.507 83.122s-1.74.448-2.463.936c-1.416.96-2.857 3.16-3.063 5.777-.1 1.37.19 2.537.75 3.504.61 1.03 1.6.92 2.45 1 1.25.11 2.82-1.57 4.03-1.3 1.75.39 4.01 2.29 5.31 4.34.61.96.73 3.3 1.41 4.09.62.71 1.78 1.18 2.45.61.69-.59 1.06-2.58 1.27-3.87.1-.62.12-1.52.02-2.14-.15-.93-.6-2.03-.98-2.73-.47-.88-1.87-2.36-1.87-2.36m-41.41 11.09s3.12-7.03 4.53-8.02c1.41-.99 1.94-.84 2.21.03s.17 2.24-.88 4.01c-1.05 1.77-5.84 3.98-5.84 3.98z"/>
    <path fill="#010101" d="M167.363 95.9s1.758-4.773 2.93-5.934c1.848-1.832 6.966-2.125 6.966-2.125s.79 7.75-.42 9.86c-.6 1.05-2.19-.64-2.8.38-.8 1.35.42 5.05-.38 6.39-.54.9-2.48.25-2.48.25s.08-5.47-.73-7.09c-.65-1.27-3.1-1.71-3.1-1.71z"/>
    <path fill="none" stroke="#010101" stroke-width="2.5" d="M167.363 95.9s1.758-4.773 2.93-5.934c1.848-1.832 6.966-2.125 6.966-2.125s.79 7.75-.42 9.86c-.6 1.05-2.19-.64-2.8.38-.8 1.35.42 5.05-.38 6.39-.54.9-2.48.25-2.48.25s.08-5.47-.73-7.09c-.65-1.27-3.1-1.71-3.1-1.71zm-4.678 2.76s-3.557 12.042-5.896 16.063c-1.24 2.122-3.25 4.438-4.91 5.312-3.18 1.68-11.44 2.543-11.44 2.543l-.53 1.133s9.31-4.04 11.92.17c.97 1.57.94 5.59.37 7.7-.49 1.8-1.79 4.3-2.77 5.31-1.54 1.58-5.58 3.46-5.58 3.46m15.59 19.78s.43 9.26-.13 13.07c-.88 6.01-2.45 11.2-4.29 16.52-.74 2.15-2.72 6.88-2.72 6.88m-49.27 41.16s-4.03 4.61-5.5 7.37c-1.09 2.05-2.76 8.22-2.76 8.22m49.44-26.54s-7.73 4.14-10.95 7.87c-1.49 1.73-2.85 5.41-3.65 8.2-1.23 4.37-2.02 12.5-2.02 12.5m15.56-7.71s4.43-7.41 6.25-10.01c2.45-3.51 7.11-5.34 8.93-9.87 1.16-2.9 1.43-11.51 1.43-11.51m-57.26-17.72s-.44 10.51-1.47 14.59c-.51 2.03-1.73 5.63-3.02 8.12-2.57 4.99-5.67 8.71-5.67 8.71m19.21 22.89s1.49-9.76 2.7-13.79c.78-2.63 3.6-7.64 3.6-7.64"/>
    <path fill="#DEC35E" d="M206.505 114.34c-5.132 1.596-9.888 3.443-14.724 5.408l-23.38-26.54-23.38-26.54c2.48-4.398 5.2-9.06 7.37-13.76 0 0-1.71 7.375-.65 10.833.59 1.93 1.92 3.81 3.68 4.78 2.32 1.29 7.91.79 7.91.79s-.64 4.55.01 6.68c.62 2 2.06 3.69 3.51 5.2 1.28 1.33 2.69 2.82 4.48 3.27 2.72.68 8.32-1.18 8.32-1.18s-1.72 4.5-1.71 6.86c.02 1.95.52 3.96 1.49 5.64.98 1.68 2.44 3.16 4.15 4.1 2.31 1.27 7.7 1.77 7.7 1.77s-.73 4.25-.11 6.24c.6 1.92 1.88 3.75 3.52 4.91 1.74 1.24 4.02 1.55 6.14 1.81 1.89.23 5.71-.24 5.71-.24z"/>
    <path fill="#F6E179" d="M163.36 76.568l-5.06 4.456 28.26 32.252 4.59-3.58-.46-7.027-5.755-1.44-5.48-4.47-1.696-3.16.65-9.1-5.17.99-5.29-2.31-3.86-4.04"/>
    <path fill="#F6E179" d="M149.774 71.345l3.694-3.72 3.407 2.11 5.228.66.39 5.542.563 1.518-4.47 4.246"/>
    <path fill="#D2BA47" d="M150.645 73.055l-5.627-6.387c2.475-4.398 5.198-9.06 7.367-13.76 0 0-1.712 7.375-.65 10.833.59 1.93 1.918 3.81 3.675 4.78l-4.765 4.54zm40.493 34.807c.6 1.923 1.882 3.745 3.525 4.912 1.738 1.234 4.02 1.55 6.137 1.81 1.89.23 5.705-.245 5.705-.245-5.132 1.59-9.888 3.44-14.724 5.4l-6.26-7.11.1-.09 5.52-4.7z"/>
    <path fill="#E8CE55" d="M177.904 84.816l-9.207 8.887 10.207 11.76 5.23-4.608-3.252-1.935-2.868-4.133-.753-6.306"/>
    <path fill="#D0B62C" d="M179.766 104.24l4.04-3.406 6.622 2.065.38 5.7-4.836 4.26-7.067-8.02"/>
    <path fill="#E8CE55" d="M152.993 66.032l-4.474 4.696 2.92 3.313 4.72-4.76-1.44-.75"/>
    <path fill="#F7ECA8" d="M152.96 75.663l6.267-5.366 3.06-.22-.38 3.435-6.203 5.618"/>
    <path fill="#D2BA47" d="M179.61 83.29s-5.605 1.85-8.32 1.174c-1.795-.448-3.198-1.938-4.482-3.268-1.45-1.504-2.896-3.197-3.508-5.195-.65-2.12-.003-6.67-.003-6.67s-5.59.5-7.906-.78c-1.75-.97-3.08-2.85-3.67-4.78-1.06-3.45.65-10.83.65-10.83-.85 1.84-1.78 3.68-2.75 5.49 0 0-.23 2.46-.07 3.84.17 1.43.66 2.85 1.39 4.08.71 1.2 1.68 2.27 2.8 3.09 1.18.86 2.57 1.42 3.97 1.82.98.28 2.96.3 2.96.3s.08 2.24.29 3.3c.23 1.13.54 2.39 1.09 3.41.64 1.19 1.58 2.2 2.49 3.2 1.01 1.11 2.06 2.21 3.28 3.07 1.02.72 1.81 1.06 3.01 1.38 1.27.34 4.27.61 5.59.54-.03 1-.59 3.79-.39 5.21.17 1.24.71 2.41 1.3 3.51.71 1.32 1.67 2.5 2.64 3.64.88 1.03 1.76 2.09 2.86 2.87.94.67 2.02 1.14 3.12 1.5 1.02.35 2.57.67 2.57.67s.11 1.79.26 2.79c.22 1.44.6 2.89 1.3 4.16.67 1.22 1.61 2.32 2.71 3.17 1.14.88 2.48 1.56 3.87 1.9 1.35.33 3.89.35 3.89.35 1.92-.73 3.86-1.43 5.79-2.04 0 0-7.53.77-10.83-.72-1.83-.82-3.53-2.38-4.28-4.25-.99-2.45.22-7.94.22-7.94s-4.59.07-6.62-.84c-1.9-.86-3.4-2.5-4.71-4.13-1.16-1.44-2.46-3.02-2.68-4.86-.33-2.78 2.22-8.11 2.22-8.11z"/>
    <path fill="none" stroke="#806829" stroke-width="1.177" d="M206.505 114.34c-5.132 1.596-9.888 3.443-14.724 5.408l-6.1-6.93-17.27-19.61-17.83-20.24-5.55-6.3c2.48-4.398 5.2-9.06 7.37-13.76 0 0-1.71 7.375-.65 10.833.59 1.93 1.92 3.81 3.68 4.78 2.32 1.29 7.91.79 7.91.79s-.64 4.55.01 6.68c.62 2 2.06 3.69 3.51 5.2 1.28 1.33 2.69 2.82 4.48 3.27 2.72.68 8.32-1.18 8.32-1.18s-1.73 4.5-1.71 6.86c.01 1.95.52 3.96 1.49 5.64.98 1.68 2.44 3.16 4.15 4.1 2.31 1.27 7.7 1.77 7.7 1.77s-.73 4.25-.11 6.24c.6 1.92 1.88 3.75 3.52 4.91 1.74 1.24 4.02 1.55 6.14 1.81 1.89.23 5.71-.24 5.71-.24z"/>
    <path fill="#F6E179" d="M164.828 70.77c-.426.344-.688.907-.826 1.42-.34 1.254-.127 2.49.304 3.718.466 1.33 1.09 2.346 2.01 3.414.767.89 2.26 2.295 3.278 2.88 1.254.724 2.23.94 3.67 1.085.81.082 1.68-.152 2.433-.464.868-.36 1.947-1.458 1.947-1.458-1.29-.682-2.596-1.112-3.91-1.377-1.49-.3-2.99-.39-4.498-.39l11.434-10.202c-.237 2.103-.607 3.807-.555 5.654.045 1.555.167 2.267.667 3.422.7-1.07 1.184-1.652 1.525-3.13.474-2.047 1.063-4.154 1.365-6.395 2.145 1.747 4.038 3.712 5.866 5.786 1.826 2.074 3.537 4.2 5 6.547-2.262.018-4.427.337-6.518.55-1.51.152-2.146.56-3.297 1.118 1.083.64 1.774.852 3.312 1.093 1.825.29 3.563.14 5.68.17l-11.563 10.05c.188-1.49.288-2.99.18-4.51-.1-1.33-.36-2.68-.875-4.05 0 0-1.225.93-1.69 1.75-.406.71-.746 1.54-.768 2.36-.04 1.45.05 2.45.61 3.78.45 1.09 1.66 2.75 2.44 3.62.94 1.05 1.87 1.8 3.13 2.43 1.16.58 2.36.95 3.65.77.52-.07 1.11-.26 1.51-.64 0 0 3.3 3.13 2.8 3.56-.88.75-1.11 2.04-1.1 3.21.01 1.65.49 3.11 1.92 4.45 2.11 2.01 5.86 2.21 8.25 1.64-4.61-3.58-4.18-2.41-5.91-3.8l11.89-5.68c-1.65 2.87-3.36 5.71-3.05 9.57 2.91-1.83 4.97-5.72 7.15-9.63 2.3 2.88 4.1 5.73 5.22 8.54-4.88 1-9.29 2.24-13.48 3.64-5.13.98-8.98-.04-11.47-2.58-1.23-1.24-2.26-2.55-2.67-4.43-.32-1.47-.49-3.16-.15-4.9 0 0-2.96-.37-4.4-.97-1.65-.69-3.26-1.73-4.52-3.01-1.3-1.32-2.69-3.38-3.44-5.07-.76-1.7-.82-2.84-.85-4.66-.02-1.3.78-4.15.78-4.15s-2.93.43-4.22.25c-1.8-.25-2.93-.46-4.52-1.42-1.59-.96-3.45-2.6-4.6-4.06-1.11-1.4-1.94-3.13-2.42-4.85-.42-1.5-.41-4.48-.41-4.48-1.78.12-3.43-.27-4.85-.77-1.82-.64-2.98-1.83-4.06-3.2-2.2-2.79-2.73-6.74-1.11-11.7 1.92-3.98 3.7-8.19 5.31-12.91 2.64 1.47 5.24 3.61 7.81 6.26-4.16 1.67-8.27 3.22-10.46 5.88 3.78.79 6.81-.54 9.87-1.81l-7.12 11.08c-1.16-1.89-.05-1.32-3.03-6.34-.87 2.29-1.14 6.04.58 8.39 1.15 1.58 2.54 2.24 4.17 2.46 1.17.16 2.47.09 3.33-.68"/>
    <path fill="#F6E179" d="M152.297 66.915c-2.203-2.79-2.727-6.74-1.11-11.703 1.918-3.983 3.703-8.196 5.313-12.91 2.642 1.47 5.24 3.61 7.808 6.26-4.16 1.665-8.273 3.218-10.46 5.877 3.786.79 6.816-.55 9.87-1.82l-7.13 11.08c-1.157-1.89-.05-1.32-3.027-6.34-.86 2.29-1.13 6.04.59 8.39l-1.85 1.16zm41.69 44.06c2.114 2 5.86 2.207 8.248 1.636-4.608-3.58-4.18-2.41-5.91-3.8l11.89-5.67c-1.645 2.87-3.352 5.71-3.045 9.57 2.914-1.83 4.973-5.72 7.15-9.63 2.305 2.88 4.1 5.73 5.226 8.54-4.88 1.01-9.284 2.25-13.478 3.65-5.128.98-8.98-.04-11.47-2.57l-.14.03 1.528-1.72z"/>
    <path fill="#F6E179" d="M181.31 81.972l-.507 3.403-2.527 3.65.426 3.81 2.277 4.105 3.45 3.067 4.02 1.145 2.17-1.243 2.27 2.77-1.53 2.26.57 4.35 2.02 2.57 4.26 1.6 3.62-.26 1.01 2.29-3.66.03-3.3-.61-1.85-1.05-1.19-.97-1.29-1.46-.9-1.31-.72-1.38-.36-2.12.07-3.25-2.63-.61-2.36-.77-2.54-1.45-1.97-1.95-1.93-2.66-1.26-2.66-.47-3.19.42-3.22.39-1.46-1.5.2-3.25.02-3.1-.87-2.48-1.58-2.4-2.25-1.69-2.2-1.12-2.7-.47-2.44-.28-2.69-3.23-.34-2.05-.62-1.28-.88-1.18-1.05-1.29-1.46-.81-1.3-.81-1.97-.19-3.35.49-3.62 2.14 1.29-.71 3.56 1.05 4.43 2.3 2.33 4.24 1.11 2.44-1.23 2.46 2.6-1.51 1.99.63 4.13 2.61 3.81 3.79 2.77 3.72.9 4.14-2.22"/>
    <path fill="#F7ECA8" d="M164.832 70.77c-.425.344-.687.907-.825 1.418-.34 1.256-.127 2.492.304 3.72.47 1.328 1.1 2.346 2.01 3.413.77.9 2.26 2.3 3.28 2.89 1.26.73 2.23.94 3.67 1.09.81.09 1.68-.15 2.44-.46.87-.36 1.95-1.46 1.95-1.46-1.29-.68-2.59-1.11-3.91-1.37-1.48-.3-2.98-.39-4.49-.39l11.44-10.2c-.23 2.1-.6 3.81-.55 5.65.05 1.56.17 2.27.67 3.42.7-1.07 1.19-1.65 1.53-3.12.47-2.04 1.06-4.15 1.37-6.39 2.15 1.75 4.04 3.71 5.87 5.79 1.83 2.07 3.54 4.2 5 6.54-2.26.02-4.42.34-6.51.55-1.5.16-2.14.56-3.29 1.12 1.08.64 1.77.86 3.31 1.1 1.82.29 3.56.13 5.68.16l-11.6 10.03c.19-1.49.29-2.99.18-4.51-.1-1.34-.36-2.69-.87-4.05 0 0-1.22.93-1.69 1.75-.4.71-.74 1.54-.76 2.36-.04 1.45.06 2.45.61 3.78.46 1.09 1.66 2.75 2.45 3.62.94 1.04 1.87 1.79 3.13 2.42 1.17.58 2.37.95 3.65.77.53-.07 1.12-.26 1.52-.64 0 0 3.31 3.13 2.81 3.56-.87.76-1.1 2.04-1.09 3.22.02 1.64.5 3.1 1.92 4.45 2.12 2 5.87 2.21 8.25 1.64-4.61-3.58-4.18-2.41-5.91-3.8l11.89-5.68c-1.64 2.87-3.35 5.71-3.04 9.57 2.92-1.83 4.98-5.72 7.15-9.63 2.31 2.88 4.1 5.73 5.23 8.54l-1.14.24c-.85-2.71-2.36-4.85-3.99-6.88-2.55 5.39-5.26 7.68-7.63 9.07-.57-1.89-.89-4.07.88-8.71-2.26 1.36-4.69 2.53-7.28 3.5 2.13.96 4.1 2.17 5.12 4.48 0 0-2.31.66-3.64.65-1.52-.02-3.11-.25-4.49-.9-1.92-.91-3.36-2.26-4.01-4.21-.42-1.28-.68-3.63.03-4.88 0 0 .68-1.07 1.15-1.54.54-.53-.96-2.23-.96-2.23l-1.66.91c-.89.49-2.41.51-3.4.3-1-.21-1.99-.6-2.85-1.15-.99-.64-1.91-1.52-2.68-2.41-.81-.94-1.45-1.82-2.01-2.92-.54-1.05-.82-2.16-1.02-3.32-.56-3.3 1.28-5.62 3.73-7.7.72 1.4 1.11 2.6 1.31 3.7.31 1.61.24 3 .31 4.47l8.01-6.81c-1.49-.09-2.95.1-4.48-.29-1.04-.27-2.81-1.03-3.98-2.09 1.91-1.05 2.01-1.83 9.75-2.49-1.16-1.63-2.03-3.03-3.73-4.97-1.71-1.93-2.98-2.97-4.46-4.33-1.63 7.6-2.42 7.59-3.71 9.36-.9-1.29-1.43-3.14-1.56-4.21-.2-1.57.17-2.99.27-4.48l-7.78 7.08c1.45.26 2.84.37 4.39.87 1.07.345 2.21.876 3.51 1.77-2.37 2.167-4.9 3.7-8.11 2.726-1.13-.34-2.19-.76-3.17-1.43-1.02-.7-1.81-1.44-2.64-2.362-.79-.88-1.55-1.91-2.06-2.97-.44-.92-.7-1.95-.78-2.97-.08-1.01.13-2.52.72-3.34l1.12-1.54m-2.1-1.22c-.53.41-1.68.95-1.68.95-1.32.54-3.62-.01-4.84-.59-1.86-.89-3.02-2.49-3.68-4.51-.47-1.46-.5-3.06-.33-4.57.15-1.33 1.1-3.54 1.1-3.54 2.16 1.3 3.11 3.4 3.79 5.64 1.29-2.46 2.75-4.72 4.39-6.79-4.83 1.18-6.94.58-8.75-.22 1.68-2.17 4.29-4.58 9.96-6.43-1.8-1.87-3.73-3.63-6.31-4.82.13-.36.26-.73.38-1.1 2.64 1.47 5.24 3.61 7.81 6.26-4.16 1.667-8.27 3.22-10.46 5.88 3.79.79 6.82-.55 9.87-1.814l-7.13 11.08c-1.16-1.89-.05-1.32-3.03-6.34-.86 2.29-1.13 6.03.59 8.39 1.16 1.58 2.55 2.24 4.17 2.46 1.17.15 2.48.09 3.33-.68"/>
    <linearGradient id="f" x1="-47.887" x2="-46.887" y1="-43.346" y2="-43.346" gradientUnits="userSpaceOnUse" gradientTransform="rotate(48.62 2221.574 7016.556) scale(91.3852)">
      <stop offset="0" stop-color="#FFF"/>
      <stop offset="1"/>
    </linearGradient>
    <path fill="url(#f)" d="M203.56 113.537l.308-.082-.126-.298c-.965-2.187-2.766-3.405-4.707-4.34 2.174-.846 4.22-1.833 6.152-2.957-1.486 4.193-1.227 6.41-.68 8.23l.102.33.3-.174c2.33-1.368 5.01-3.675 7.52-8.787 1.51 1.91 2.9 3.92 3.69 6.44l.53-.17c-.87-2.76-2.4-4.94-4.03-6.98l-.28-.35-.19.41c-2.42 5.11-4.96 7.34-7.21 8.72-.49-1.78-.69-3.85.96-8.16l.28-.76-.69.42c-2.24 1.35-4.66 2.51-7.24 3.48l-.64.23.62.27c2.01.9 3.79 2.03 4.8 4.05l.01.06.48.38zm-50.373-57.055c1.87 1.26 2.763 3.167 3.404 5.27l.19.65.32-.596c1.29-2.44 2.75-4.692 4.37-6.744l.5-.633-.78.18c-4.48 1.09-6.51.63-8.21-.08 1.66-2.06 4.2-4.29 9.57-6.04l.42-.14-.3-.32c-1.81-1.89-3.78-3.68-6.41-4.88l-.23.5c2.4 1.1 4.22 2.72 5.93 4.47-5.39 1.84-8.01 4.21-9.66 6.35l-.22.27.33.15c1.74.77 3.9 1.31 8.24.37-1.35 1.77-2.59 3.68-3.7 5.72-.68-2.04-1.66-3.98-3.71-5.22l-.28-.17-.12.29-.06-.03.44.58zm11.235 12.816l-.03.027-.032.04-.7 1.057.095.133.354.192.68-1.028m-2.48-1.64l.35.56m18.8 14.96l.27-.22.16.3c.73 1.42 1.12 2.66 1.33 3.78.27 1.43.25 2.67.29 3.93l7.02-5.97c-1.23-.02-2.48.05-3.82-.29-1.1-.28-2.89-1.04-4.11-2.14l-.29-.27.33-.19c.93-.52 1.47-1 2.74-1.42 1.2-.4 3.16-.74 6.66-1.06-1.04-1.48-1.91-2.8-3.45-4.55-1.55-1.75-2.74-2.78-4.07-3.99-.76 3.43-1.34 5.33-1.89 6.47-.58 1.2-1.12 1.68-1.75 2.53l-.23.31-.23-.32c-.95-1.35-1.47-3.22-1.61-4.34-.17-1.37.04-2.6.18-3.82l-6.79 6.2c1.24.19 2.48.34 3.85.79 1.09.35 2.26.89 3.58 1.79l.29.21-.27.23-.66-.17c-1.15-.74-2.17-1.23-3.12-1.54-1.52-.49-2.89-.61-4.36-.87l-.55-.1.41-.38 7.77-7.08.5-.47-.04.69c-.11 1.52-.46 2.91-.28 4.43.11.93.58 2.54 1.32 3.75.52-.67.97-1.16 1.43-2.12.54-1.14 1.15-3.02 1.96-6.81l.1-.47.36.33c1.47 1.36 2.76 2.41 4.46 4.34s2.58 3.35 3.74 4.97l.28.4-.48.04c-3.86.33-5.81.69-7 1.08-1.02.34-1.55.73-2.29 1.17 1.1.88 2.65 1.54 3.56 1.77 1.48.38 2.91.21 4.43.3l.68.04-.53.45-8.01 6.81-.42.37-.04-.56c-.07-1.49-.01-2.85-.3-4.42-.19-.98-.55-2.06-1.14-3.28l-.08-.69z"/>
    <path fill="#FFF0A7" d="M188.083 75.863c-.85-.9-2.083-2.08-2.85-2.774 0 0-1.16 3.45-1.895 5.12-.525 1.19-1.806 3.53-1.785 3.55l6.53-5.91zm-12.123.197c.78-.642 1.652-1.755 2.343-2.24 0 0-.194 2.163.208 3.562.29 1 1.66 3.554 1.64 3.57l-4.19-4.892zM186.48 88c.733-.693 1.947-1.418 2.516-2.04 0 0-2.17-.08-3.507-.657-.96-.41-3.32-2.092-3.34-2.075l4.32 4.77z"/>
    <path fill="#E8CE55" d="M175.77 76.15c-.735.692-1.95 1.416-2.517 2.04 0 0 2.17.08 3.506.655.95.41 3.31 2.092 3.33 2.075l-4.33-4.77zm10.517 11.938c-.78.64-1.65 1.754-2.34 2.238 0 0 .193-2.162-.21-3.56-.287-1-1.657-3.554-1.638-3.57l4.18 4.892z"/>
    <path fill="#F7ECA8" d="M156.637 45.186c1.1.57 2.573 1.43 3.45 1.977 0 0-3.034 1.676-4.432 2.84-.998.832-2.723 2.79-2.752 2.777l3.734-7.594z"/>
    <path fill="#E8CE55" d="M214.648 111.138c-.426-1.16-1.094-2.733-1.524-3.672 0 0-2.046 2.8-3.376 4.038-.952.886-3.11 2.35-3.103 2.38l8.003-2.746z"/>
    <path fill="none" stroke="#806829" stroke-width="1.177" d="M164.828 70.77c-.426.344-.688.907-.826 1.42-.34 1.254-.127 2.49.304 3.718.466 1.33 1.09 2.346 2.01 3.414.767.89 2.26 2.295 3.278 2.88 1.254.724 2.23.94 3.67 1.085.81.082 1.68-.152 2.433-.464.868-.36 1.947-1.458 1.947-1.458-1.29-.682-2.596-1.112-3.91-1.377-1.49-.3-2.99-.39-4.498-.39l11.434-10.202c-.237 2.103-.607 3.807-.555 5.654.045 1.555.167 2.267.667 3.422.7-1.07 1.184-1.652 1.525-3.13.474-2.047 1.063-4.154 1.365-6.395 2.145 1.747 4.038 3.712 5.866 5.786 1.826 2.074 3.537 4.2 5 6.547-2.262.018-4.427.337-6.518.55-1.51.152-2.146.56-3.297 1.118 1.083.64 1.774.852 3.312 1.093 1.825.29 3.563.14 5.68.17l-11.563 10.05c.188-1.49.288-2.99.18-4.51-.1-1.33-.36-2.68-.875-4.05 0 0-1.225.93-1.69 1.75-.406.71-.746 1.54-.768 2.36-.04 1.45.05 2.45.61 3.78.45 1.09 1.66 2.75 2.44 3.62.94 1.05 1.87 1.8 3.13 2.43 1.16.58 2.36.95 3.65.77.52-.07 1.11-.26 1.51-.64 0 0 3.3 3.13 2.8 3.56-.88.75-1.11 2.04-1.1 3.21.01 1.65.49 3.11 1.92 4.45 2.11 2.01 5.86 2.21 8.25 1.64-4.61-3.58-4.18-2.41-5.91-3.8l11.89-5.68c-1.65 2.87-3.36 5.71-3.05 9.57 2.91-1.83 4.97-5.72 7.15-9.63 2.3 2.88 4.1 5.73 5.22 8.54-4.88 1-9.29 2.24-13.48 3.64-5.13.98-8.98-.04-11.47-2.58-1.23-1.24-2.26-2.55-2.67-4.43-.32-1.47-.49-3.16-.15-4.9 0 0-2.96-.37-4.4-.97-1.65-.69-3.26-1.73-4.52-3.01-1.3-1.32-2.69-3.38-3.44-5.07-.76-1.7-.82-2.84-.85-4.66-.02-1.3.78-4.15.78-4.15s-2.93.43-4.22.25c-1.8-.25-2.93-.46-4.52-1.42-1.59-.96-3.45-2.6-4.6-4.06-1.11-1.4-1.94-3.13-2.42-4.85-.42-1.5-.41-4.48-.41-4.48-1.78.12-3.43-.27-4.85-.77-1.82-.64-2.98-1.83-4.06-3.2-2.2-2.79-2.73-6.74-1.11-11.7 1.92-3.98 3.7-8.19 5.31-12.91 2.64 1.47 5.24 3.61 7.81 6.26-4.16 1.67-8.27 3.22-10.46 5.88 3.78.79 6.81-.54 9.87-1.81l-7.12 11.08c-1.16-1.89-.05-1.32-3.03-6.34-.87 2.29-1.14 6.04.58 8.39 1.15 1.58 2.54 2.24 4.17 2.46 1.17.16 2.47.09 3.33-.68"/>
    <ellipse cx="181.224" cy="82.056" fill="#ECECEC" transform="rotate(48.624 181.22 82.057)" rx="2.507" ry="2.548"/>
    <path fill="#CDCCCC" d="M178.81 81.36l-.135.755.223 1.028.5.62.625.577 1.126.21.7-.106.86-.434.73-.642.15-.654.11-.856-.26-.717s-.25.71-.41.98c-.16.26-.45.52-.71.67-.26.15-.63.28-.92.29-.33.02-.82-.07-1.12-.19-.34-.14-.65-.43-.9-.69-.21-.22-.61-.82-.61-.82z"/>
    <path fill="#FFF" d="M182.43 81.583c-.55.486-1.406.418-1.91-.152-.502-.57-.462-1.42.09-1.91.284-.25.477-.01.83.02.337.04.937.08 1.18.35.503.57.364 1.21-.19 1.7z"/>
    <ellipse cx="181.224" cy="82.056" fill="none" stroke="#818181" stroke-width="1.607" transform="rotate(48.624 181.22 82.057)" rx="2.507" ry="2.548"/>
    <ellipse cx="152.369" cy="54.606" fill="#ECECEC" transform="rotate(48.616 152.377 54.613)" rx="2.508" ry="2.549"/>
    <path fill="#CDCCCC" d="M149.956 53.91l-.136.755.223 1.028.5.62.626.577 1.12.21.7-.106.86-.434.73-.642.15-.654.11-.856-.26-.717s-.25.71-.42.98c-.16.26-.44.52-.71.67-.26.15-.63.28-.92.29-.33.02-.82-.06-1.12-.19-.34-.14-.65-.43-.9-.69-.21-.22-.61-.82-.61-.82z"/>
    <path fill="#FFF" d="M153.577 54.133c-.553.486-1.41.418-1.91-.152-.504-.57-.464-1.42.09-1.91.282-.25.476-.01.83.02.336.04.934.07 1.18.35.5.57.362 1.21-.19 1.7z"/>
    <ellipse cx="152.369" cy="54.606" fill="none" stroke="#818181" stroke-width="1.607" transform="rotate(48.616 152.377 54.613)" rx="2.508" ry="2.549"/>
    <ellipse cx="204.819" cy="114.141" fill="#ECECEC" transform="rotate(-131.376 204.82 114.14)" rx="2.507" ry="2.549"/>
    <path fill="#CDCCCC" d="M205.204 116.623l-.766.04-.99-.35-.553-.575-.495-.694-.064-1.143.193-.68.53-.8.73-.64.66-.07h.86l.68.34s-.73.16-1.02.29c-.28.13-.57.38-.76.62-.18.24-.36.59-.41.88-.06.33-.04.82.05 1.13.1.35.34.7.57.98.19.24.74.71.74.71z"/>
    <path fill="#FFF" d="M205.44 113.003c-.553.486-.593 1.344-.09 1.915.502.57 1.357.64 1.91.152.284-.25.074-.47.083-.827.01-.337.047-.937-.197-1.213-.503-.572-1.154-.514-1.707-.027z"/>
    <ellipse cx="204.819" cy="114.141" fill="none" stroke="#818181" stroke-width="1.607" transform="rotate(-131.376 204.82 114.14)" rx="2.507" ry="2.549"/>
    <path fill="#F6E179" d="M162.436 66.426l3.867 3.94-.383 1.38-1.39.36-3.868-3.938.268-1.5"/>
    <path fill="#F7ECA8" d="M162.436 66.426l3.867 3.94-.383 1.38-4.99-5.08"/>
    <path fill="none" stroke="#806829" stroke-width="1.177" d="M162.436 66.426l3.867 3.94-.383 1.38-1.39.36-3.868-3.938.268-1.5z"/>
    <path fill="#F6E179" d="M194.36 102.665l-3.418-4.333-1.42.206-.532 1.333 3.42 4.34 1.522-.07"/>
    <path fill="#FEE8A7" d="M194.36 102.665l-3.418-4.333-1.42.206 4.41 5.59"/>
    <path fill="none" stroke="#806829" stroke-width="1.177" d="M194.36 102.665l-3.418-4.333-1.42.206-.532 1.333 3.42 4.34 1.522-.07z"/>
    <path fill="#D2BA47" d="M139.333 72.577s2.82 2.763 7.698 7.71c4.88 4.946 9.95 10.386 12.46 13.23.4.456 7.24 8.218 7.64 8.672 2.43 2.75 7.3 8.59 11.56 14.02 4.26 5.42 6.6 8.57 6.6 8.57l9.69-5.32s-14.68-20.03-22.89-29.35c-8.21-9.33-26.23-26.4-26.23-26.4l-6.51 8.85z"/>
    <path fill="#C5A942" d="M169.02 86.694l6.363 7.295-8.66 7.65-6.065-6.89"/>
    <path fill="#E8CE55" d="M149.677 67.223l19.778 19.84-8.39 7.37-18.984-19.63"/>
    <path fill="#F6E179" d="M151.4 68.715l13.416 13.323-8.157 7.852-13.02-13.452"/>
    <path fill="#F7ECA8" d="M153.282 70.472l7.622 7.605-8.173 7.865-3.64-3.842-3.64-3.842"/>
    <path fill="#D2BA47" d="M160.434 92.54c-2.53-2.873-7.595-8.313-12.488-13.274-3.07-3.104-4.98-4.64-8.172-7.618l-.4.93c3.188 3.02 4.59 4.512 7.686 7.626 4.864 4.932 9.93 10.37 12.41 13.185l7.64 8.67c2.403 2.72 7.28 8.57 11.52 13.98 4.228 5.38 6.7 8.76 6.7 8.76l.788-.42s-2.164-3.65-6.445-9.11c-4.27-5.44-9.145-11.29-11.597-14.07l-7.642-8.68z"/>
    <path fill="#D0B62C" d="M155.387 72.71c-4.91-4.98-9.5-8.982-9.5-8.982l-1.14 1.588s4.406 3.856 9.255 8.77c4.864 4.933 9.89 10.403 12.372 13.22l7.64 8.67c2.4 2.728 7.33 8.682 11.57 14.085 4.23 5.39 7.656 10.3 7.656 10.3l1.65-1.01s-3.496-5.17-7.777-10.63c-4.27-5.43-8.935-11.46-11.388-14.25l-7.64-8.67c-4.1-4.5-8.426-8.77-12.698-13.09z"/>
    <path fill="none" stroke="#806829" stroke-width="1.177" d="M171.883 90.083c8.21 9.31 15.91 19.068 23.052 29.247l-9.658 5.493c-7.298-9.952-13.728-17.697-21.87-27.086m8.676-7.426c-8.2-9.31-16.91-18.18-26.107-26.55l-6.667 8.89c8.95 8.5 15.82 15.85 24.11 25.11"/>
    <path fill="#F6E179" d="M155.892 72.327l-.013-.002-.01-.008c-3.16-3.102-6.8-6.707-10.2-9.65-.98.025-1.53.44-1.19 1.664 3.26 2.83 6.86 6.38 10.02 9.49 4.22 4.27 8.37 8.66 12.4 13.14l7.64 8.67c2.38 2.71 7.25 8.57 11.46 13.97 4.19 5.38 8.16 11.16 8.16 11.16 1.24.49 1.66-.05 1.76-1.01 0 0-4-5.83-8.28-11.33-4.26-5.47-9.12-11.31-11.6-14.12l-7.64-8.67c-4.04-4.56-8.28-8.94-12.55-13.28z"/>
    <path fill="#F7ECA8" d="M195.676 120.616c.273-.193.223-.407.274-.883 0 0-3.993-5.835-8.275-11.328-4.262-5.468-9.125-11.314-11.6-14.12l-7.638-8.672c-4.043-4.563-8.283-8.94-12.546-13.286l-.01-.002v-.008c-3.15-3.102-6.79-6.707-10.19-9.65-.49.013-.63-.09-.85.17 3.77 3.55 7.06 6.458 10.58 10.005 5.59 5.627 11.23 11.892 16.24 17.537 4.99 5.62 9.7 11.27 14.16 16.96 3.45 4.4 6.74 8.82 9.89 13.27z"/>
    <path fill="#D2BA47" d="M144.39 63.56c-.018.21.014.466.1.77 3.267 2.827 6.868 6.378 10.027 9.483 4.22 4.266 8.376 8.655 12.404 13.136l7.64 8.67c2.39 2.7 7.25 8.56 11.47 13.96 4.2 5.38 8.17 11.15 8.17 11.15.39.15.55.16.79.13-7.35-11.07-15.13-20.17-23.41-29.71-8.07-9.29-17.66-19.32-27.16-27.61z"/>
    <path fill="none" stroke="#806829" stroke-width="1.33" d="M155.892 72.327l-.013-.002-.01-.008c-3.16-3.102-6.8-6.707-10.2-9.65-.98.025-1.53.44-1.19 1.664 3.26 2.83 6.86 6.38 10.02 9.49 4.22 4.27 8.37 8.66 12.4 13.14l7.64 8.67c2.38 2.71 7.25 8.57 11.46 13.97 4.19 5.38 8.16 11.16 8.16 11.16 1.24.49 1.66-.05 1.76-1.01 0 0-4-5.83-8.28-11.33-4.26-5.47-9.12-11.31-11.6-14.12l-7.64-8.67c-4.04-4.56-8.28-8.94-12.55-13.28z"/>
    <path fill="#F6E179" d="M148.58 81.017l-.01-.002-.008-.007c-2.95-2.87-6.352-6.205-9.547-8.914-.952.058-1.5.477-1.208 1.64 3.068 2.6 6.436 5.886 9.39 8.757 3.943 3.96 7.82 8.03 11.566 12.19l7.103 8.07c2.216 2.52 6.73 7.97 10.625 13.02 3.88 5.02 7.53 10.43 7.53 10.43 1.19.43 1.62-.11 1.75-1.02 0 0-3.67-5.47-7.63-10.59-3.94-5.1-8.45-10.55-10.75-13.16l-7.1-8.06c-3.76-4.24-7.71-8.3-11.7-12.32z"/>
    <path fill="#F7ECA8" d="M185.464 126.013c.272-.196.23-.4.298-.857 0 0-3.67-5.466-7.628-10.593-3.94-5.104-8.452-10.55-10.752-13.16l-7.103-8.062c-3.76-4.24-7.72-8.29-11.7-12.32h-.03c-2.95-2.87-6.35-6.2-9.55-8.91-.48.03-.61-.06-.83.19 3.52 3.28 6.61 5.96 9.9 9.25 5.22 5.21 10.47 11.03 15.12 16.28 4.64 5.23 9.01 10.49 13.13 15.8 3.19 4.11 6.22 8.24 9.12 12.41z"/>
    <path fill="#D2BA47" d="M137.74 72.995c-.026.204-.006.447.067.738 3.068 2.6 6.436 5.887 9.39 8.758 3.943 3.96 7.82 8.03 11.566 12.19l7.103 8.07c2.216 2.52 6.73 7.97 10.625 13.02 3.88 5.02 7.53 10.43 7.53 10.43.37.14.52.14.76.1-6.74-10.38-13.96-18.84-21.66-27.72-7.5-8.64-16.44-17.94-25.37-25.57z"/>
    <path fill="none" stroke="#806829" stroke-width="1.379" d="M148.58 81.017l-.01-.002-.008-.007c-2.95-2.87-6.352-6.205-9.547-8.914-.952.058-1.5.477-1.208 1.64 3.068 2.6 6.436 5.886 9.39 8.757 3.943 3.96 7.732 8.1 11.48 12.27l7.103 8.07c2.216 2.52 6.815 7.9 10.71 12.94 3.88 5.02 7.524 10.43 7.524 10.43 1.185.43 1.613-.11 1.748-1.02 0 0-3.67-5.46-7.628-10.59-3.94-5.1-8.538-10.47-10.838-13.08l-7.103-8.06c-3.76-4.24-7.63-8.37-11.612-12.4z"/>
    <path fill="#F6E179" d="M169.427 102.297l-9.765-11.086 5.61-4.94 9.765 11.09z"/>
    <path fill="#F7ECA8" d="M165.263 86.273l9.766 11.085-15.38-6.143"/>
    <path fill="#E8CE55" d="M173.844 98.402l-4.425 3.9-7.82-8.873"/>
    <path fill="none" stroke="#806829" stroke-width="2.66" d="M165.59 86.646l9.11 10.34c.18.206.2.485.043.624l-5.04 4.44c-.157.14-.432.084-.613-.122l-9.11-10.34c-.18-.207-.2-.486-.042-.625l5.04-4.44c.156-.137.432-.084.613.123z"/>
    <path fill="#496AB3" d="M166.14 88.754l6.538 7.42c.313.355.345.835.074 1.075l-3.155 2.77c-.27.24-.743.14-1.056-.21l-6.53-7.43c-.31-.36-.34-.84-.07-1.08l3.16-2.78c.27-.24.75-.15 1.06.21z"/>
    <path fill="none" stroke="#A08A30" stroke-width="2.66" d="M166.14 88.754l6.538 7.42c.313.355.345.835.074 1.075l-3.155 2.77c-.27.24-.743.14-1.056-.21l-6.53-7.43c-.31-.36-.34-.84-.07-1.08l3.16-2.78c.27-.24.75-.15 1.06.21z"/>
    <path fill="#4F8FCC" d="M169.084 100.147c-.19-.037-.387-.15-.543-.327l-6.53-7.422c-.15-.178-.24-.386-.25-.58-.01-.194.05-.374.19-.494l3.16-2.78c.14-.12.32-.156.52-.12.19.04 3.68 11.76 3.49 11.723z"/>
    <path fill="none" stroke="#A08A30" stroke-width="2.66" d="M169.084 100.147c-.19-.037-.387-.15-.543-.327l-6.53-7.422c-.15-.178-.24-.386-.25-.58-.01-.194.05-.374.19-.494l3.16-2.78c.14-.12.32-.156.52-.12.19.04 3.68 11.76 3.49 11.723z"/>
    <path fill="#5D7CBD" d="M169.084 100.147c-.19-.037-.387-.15-.543-.327l-6.53-7.422c-.15-.178-.24-.386-.25-.58-.01-.194.05-.374.19-.494l3.16-2.78c.14-.12.32-.156.52-.12.1.02 1.05 3.05 1.93 6.025.86 2.88 1.65 5.71 1.56 5.69z"/>
    <path fill="none" stroke="#D7E3F4" stroke-width="2.66" d="M169.084 100.147c-.19-.037-.387-.15-.543-.327l-6.53-7.422c-.15-.178-.24-.386-.25-.58-.01-.194.05-.374.19-.494l3.16-2.78c.14-.12.32-.156.52-.12.1.02 1.05 3.05 1.93 6.025.86 2.88 1.65 5.71 1.56 5.69z"/>
    <path fill="#2857A7" d="M172.934 96.756c.014.193-.046.373-.182.494l-3.155 2.78c-.137.12-.322.155-.513.118-.19-.037-.387-.15-.543-.327l-6.53-7.42c-.15-.18-.24-.38-.25-.58-.01-.19 11.18 4.74 11.19 4.94z"/>
    <path fill="none" stroke="#B0C6E7" stroke-width="2.66" d="M172.934 96.756c.014.193-.046.373-.182.494l-3.155 2.78c-.137.12-.322.155-.513.118-.19-.037-.387-.15-.543-.327l-6.53-7.42c-.15-.18-.24-.38-.25-.58-.01-.19 11.18 4.74 11.19 4.94z"/>
    <path fill="#2152A4" d="M169.084 100.147c-.19-.037-.387-.15-.543-.327l-6.53-7.422c-.15-.178-.24-.386-.25-.58 0-.1 2.87 1.124 5.71 2.377 0 0 1.82 5.99 1.63 5.952z"/>
    <path fill="none" stroke="#B0C6E7" stroke-width="2.66" d="M169.084 100.147c-.19-.037-.387-.15-.543-.327l-6.53-7.422c-.15-.178-.24-.386-.25-.58 0-.1 2.87 1.124 5.71 2.377 0 0 1.82 5.99 1.63 5.952z"/>
    <path fill="none" stroke="#A08A30" stroke-width="2.66" d="M166.14 88.754l6.538 7.42c.313.355.345.835.074 1.075l-3.155 2.77c-.27.24-.743.14-1.056-.21l-6.53-7.43c-.31-.36-.34-.84-.07-1.08l3.16-2.78c.27-.24.75-.15 1.06.21z"/>
    <path fill="#3462AE" d="M168.502 97.597l-4.296-4.876 2.115-1.86 4.3 4.88z"/>
    <path fill="none" stroke="#B0C6E7" stroke-width="2.66" d="M168.502 97.597l-4.296-4.876 2.115-1.86 4.3 4.88z"/>
    <path fill="#F6E179" d="M154.668 76.49l2.968 2.77c1.235 1.15 1.47 3.048.52 4.235l-.18.226c-.948 1.19-2.72 1.22-3.954.07l-2.968-2.77c-1.235-1.15-1.468-3.05-.52-4.23l.18-.22c.95-1.18 2.718-1.21 3.954-.06z"/>
    <path fill="none" stroke="#806829" stroke-width="1.428" d="M154.668 76.49l2.968 2.77c1.235 1.15 1.47 3.048.52 4.235l-.18.226c-.948 1.19-2.72 1.22-3.954.07l-2.968-2.77c-1.235-1.15-1.468-3.05-.52-4.23l.18-.22c.95-1.18 2.718-1.21 3.954-.06z"/>
    <path fill="#316A48" d="M154.27 77.188l2.786 2.6c.95.883 1.128 2.34.4 3.252-.728.912-2.088.934-3.036.048l-2.786-2.6c-.95-.883-1.128-2.34-.4-3.25.728-.914 2.088-.935 3.037-.05z"/>
    <path fill="#36A464" d="M155.865 81.04c-.188.237-.72.424-1.17.334-.774-.154-1.613-.842-2.286-1.47-1.07-.993-1.28-2.216-.77-2.86.31-.383.94-.64 1.59-.407.43.156.95.54 1.38.94.71.666 1.54 1.7 1.66 2.51.06.393-.26.743-.43.953z"/>
    <path fill="none" stroke="#A08A30" stroke-width="1.428" d="M154.27 77.188l2.786 2.6c.95.883 1.128 2.34.4 3.252-.728.912-2.088.934-3.036.048l-2.786-2.6c-.95-.883-1.128-2.34-.4-3.25.728-.914 2.088-.935 3.037-.05z"/>
    <path fill="#B1DCBF" d="M154.458 79.494c-.263.328-.883.214-1.386-.255s-.697-1.12-.436-1.45c.263-.33.882-.22 1.386.25.502.47.697 1.11.436 1.44z"/>
    <path fill="#F6E179" d="M139.687 71.082l7.36 1.094-2.795-6.79-3.024 2.524"/>
    <path fill="none" stroke="#806829" stroke-width="1.361" d="M139.687 71.082l7.36 1.094-2.795-6.79-3.024 2.524z"/>
    <path fill="#EE2345" d="M140.315 70.3l5.337.792-2.027-4.922-2.773 1.006"/>
    <path fill="#BC202C" d="M140.315 70.3l5.337.792-4.762-3.885"/>
    <path fill="none" stroke="#F4D7D7" stroke-width="1.361" d="M145.673 71.085l-4.85-3.9"/>
    <path fill="none" stroke="#A48E31" stroke-width="1.361" d="M140.315 70.3l5.337.792-2.027-4.922-2.778.934z"/>
    <ellipse cx="161.552" cy="84.791" fill="#ECECEC" transform="rotate(48.63 161.545 84.788)" rx="1.249" ry="1.269"/>
    <path fill="#CDCCCC" d="M160.35 84.444l-.066.375.11.51.25.31.31.28.562.1.353-.05.43-.22.36-.32.07-.33.06-.43-.13-.36s-.12.35-.21.48c-.08.13-.22.25-.36.33-.13.07-.31.14-.46.14-.17.01-.41-.03-.56-.1-.17-.07-.32-.22-.45-.35-.11-.12-.31-.42-.31-.42z"/>
    <path fill="#FFF" d="M162.154 84.555c-.275.242-.7.208-.95-.076-.252-.29-.23-.72.043-.96.142-.13.237-.01.414.01.17.02.47.03.59.17.25.28.18.6-.09.84z"/>
    <ellipse cx="161.552" cy="84.791" fill="none" stroke="#818181" stroke-width="3.228" transform="rotate(48.63 161.545 84.788)" rx="1.249" ry="1.269"/>
    <ellipse cx="158.735" cy="87.613" fill="#ECECEC" transform="rotate(48.616 158.734 87.612)" rx="1.248" ry="1.269"/>
    <path fill="#CDCCCC" d="M157.533 87.267l-.067.376.11.51.25.31.31.288.563.11.35-.05.43-.21.36-.32.07-.32.06-.42-.13-.35s-.12.35-.21.49c-.08.13-.22.26-.35.34-.13.08-.32.14-.46.15-.16.01-.41-.03-.56-.1-.17-.07-.33-.21-.45-.34-.11-.11-.31-.41-.31-.41z"/>
    <path fill="#FFF" d="M159.336 87.378c-.275.242-.702.208-.952-.076s-.23-.71.045-.954c.14-.124.23-.007.41.01.17.018.46.037.59.175.25.285.18.602-.1.845z"/>
    <ellipse cx="158.735" cy="87.613" fill="none" stroke="#818181" stroke-width="3.228" transform="rotate(48.616 158.734 87.612)" rx="1.248" ry="1.269"/>
    <ellipse cx="149.76" cy="72.794" fill="#ECECEC" transform="rotate(48.63 149.753 72.792)" rx="1.249" ry="1.269"/>
    <path fill="#CDCCCC" d="M148.557 72.448l-.066.375.12.512.25.31.32.286.56.11.36-.05.43-.21.36-.32.08-.32.06-.42-.13-.35s-.12.35-.2.49c-.08.13-.22.26-.35.33-.12.07-.31.14-.45.15-.16.01-.41-.03-.56-.09-.16-.07-.32-.21-.44-.34-.1-.11-.3-.41-.3-.41z"/>
    <path fill="#FFF" d="M150.36 72.56c-.273.242-.7.208-.95-.076s-.23-.71.045-.954c.14-.125.237-.007.413.01.168.018.466.037.587.175.25.284.18.602-.094.844z"/>
    <ellipse cx="149.76" cy="72.794" fill="none" stroke="#818181" stroke-width="3.228" transform="rotate(48.63 149.753 72.792)" rx="1.249" ry="1.269"/>
    <ellipse cx="146.942" cy="75.617" fill="#ECECEC" transform="rotate(48.61 146.94 75.61)" rx="1.249" ry="1.269"/>
    <path fill="#CDCCCC" d="M145.74 75.27l-.067.376.11.512.25.31.312.286.56.104.354-.053.43-.216.36-.32.07-.33.05-.43-.13-.36s-.12.35-.21.48c-.08.13-.22.25-.35.33-.13.07-.31.14-.46.14-.17.01-.41-.04-.56-.1-.17-.07-.32-.22-.45-.35-.11-.11-.31-.41-.31-.41z"/>
    <path fill="#FFF" d="M147.543 75.382c-.274.242-.7.208-.95-.076-.252-.284-.232-.71.044-.953.14-.125.235-.007.413.01.168.017.466.037.587.175.25.283.182.602-.094.844z"/>
    <ellipse cx="146.942" cy="75.617" fill="none" stroke="#818181" stroke-width="3.228" transform="rotate(48.61 146.94 75.61)" rx="1.249" ry="1.269"/>
    <path fill="#F6E179" d="M183.398 109.102l-2.372-3.293c-.988-1.38-2.84-1.85-4.138-1.05l-.247.15c-1.29.79-1.54 2.54-.56 3.91l2.38 3.29c.99 1.37 2.84 1.84 4.14 1.05l.25-.15c1.3-.79 1.55-2.55.56-3.92z"/>
    <path fill="none" stroke="#806829" stroke-width="1.428" d="M183.398 109.102l-2.372-3.293c-.988-1.38-2.84-1.85-4.138-1.05l-.247.15c-1.29.79-1.54 2.54-.56 3.91l2.38 3.29c.99 1.37 2.84 1.84 4.14 1.05l.25-.15c1.3-.79 1.55-2.55.56-3.92z"/>
    <path fill="#316A48" d="M182.657 109.408l-2.228-3.092c-.76-1.053-2.18-1.414-3.18-.806-1 .607-1.19 1.953-.43 3.006l2.22 3.092c.75 1.052 2.18 1.414 3.17.806.99-.607 1.19-1.953.43-3.006z"/>
    <path fill="#36A464" d="M179.036 107.34c-.26.158-.51.663-.48 1.12.057.787.633 1.707 1.17 2.453.852 1.182 2.04 1.544 2.742 1.116.42-.26.755-.86.604-1.53-.1-.45-.414-1.02-.756-1.5-.572-.8-1.495-1.74-2.28-1.97-.384-.11-.77.16-1 .3z"/>
    <path fill="none" stroke="#A08A30" stroke-width="1.428" d="M182.657 109.408l-2.228-3.092c-.76-1.053-2.18-1.414-3.18-.806-1 .607-1.19 1.953-.43 3.006l2.22 3.092c.75 1.052 2.18 1.414 3.17.806.99-.607 1.19-1.953.43-3.006z"/>
    <path fill="#B1DCBF" d="M180.392 108.933c-.358.22-.324.85.078 1.406.402.55 1.02.83 1.377.61.358-.22.324-.85-.078-1.41-.41-.56-1.02-.84-1.38-.62z"/>
    <path fill="#F6E179" d="M186.875 124.645l-.158-7.44 6.384 3.628-2.88 2.683"/>
    <path fill="none" stroke="#806829" stroke-width="1.361" d="M186.875 124.645l-.158-7.44 6.384 3.628-2.88 2.683z"/>
    <path fill="#EE2345" d="M187.73 124.12l-.113-5.394 4.628 2.63-1.348 2.626"/>
    <path fill="#BC202C" d="M187.73 124.12l-.113-5.394 3.255 5.213"/>
    <path fill="none" stroke="#F4D7D7" stroke-width="1.361" d="M187.627 118.706l3.256 5.305"/>
    <path fill="none" stroke="#A48E31" stroke-width="1.361" d="M187.73 124.12l-.113-5.394 4.628 2.63-1.277 2.64z"/>
    <ellipse cx="176.032" cy="101.226" fill="#ECECEC" transform="rotate(-131.376 176.033 101.224)" rx="1.248" ry="1.269"/>
    <path fill="#CDCCCC" d="M176.224 102.462l-.382.02-.493-.175-.28-.285-.25-.346-.04-.57.09-.342.27-.4.36-.32.33-.035.43-.01.34.17s-.36.08-.51.14c-.14.06-.28.18-.38.3-.09.11-.18.29-.2.43-.03.16-.02.4.02.56.05.17.17.34.28.48.1.11.37.35.37.35z"/>
    <path fill="#FFF" d="M176.34 100.66c-.274.242-.294.67-.043.953.25.284.675.318.95.076.142-.13.037-.24.042-.42 0-.17.02-.47-.1-.61-.25-.29-.58-.26-.85-.02z"/>
    <ellipse cx="176.032" cy="101.226" fill="none" stroke="#818181" stroke-width="3.228" transform="rotate(-131.376 176.033 101.224)" rx="1.248" ry="1.269"/>
    <ellipse cx="172.876" cy="103.665" fill="#ECECEC" transform="rotate(-131.39 172.876 103.666)" rx="1.248" ry="1.269"/>
    <path fill="#CDCCCC" d="M173.07 104.9l-.383.02-.493-.173-.275-.286-.25-.34-.03-.57.09-.34.27-.4.36-.32.33-.03h.43l.34.17s-.37.08-.51.15c-.14.06-.28.19-.38.31-.09.12-.18.3-.2.44-.03.16-.02.41.02.57.04.18.17.35.28.49.09.12.37.35.37.35z"/>
    <path fill="#FFF" d="M173.186 103.1c-.275.24-.295.668-.045.952.25.284.68.318.96.076.14-.124.04-.234.04-.41.01-.17.03-.468-.1-.606-.25-.284-.57-.256-.85-.013z"/>
    <ellipse cx="172.876" cy="103.665" fill="none" stroke="#818181" stroke-width="3.228" transform="rotate(-131.39 172.876 103.666)" rx="1.248" ry="1.269"/>
    <ellipse cx="186.446" cy="114.437" fill="#ECECEC" transform="rotate(-131.37 186.448 114.433)" rx="1.249" ry="1.269"/>
    <path fill="#CDCCCC" d="M186.638 115.672l-.38.02-.495-.175-.275-.285-.246-.346-.032-.57.096-.34.27-.402.362-.32.333-.035.43-.01.34.17s-.36.08-.5.14c-.14.06-.28.18-.37.3-.09.11-.17.29-.2.43-.03.16-.02.4.03.56.05.17.17.34.29.48.1.11.37.35.37.35z"/>
    <path fill="#FFF" d="M186.755 113.87c-.275.243-.296.67-.045.954.25.284.677.318.95.075.143-.13.038-.24.043-.42.004-.17.023-.47-.1-.61-.248-.29-.573-.26-.848-.02z"/>
    <ellipse cx="186.446" cy="114.437" fill="none" stroke="#818181" stroke-width="3.228" transform="rotate(-131.37 186.448 114.433)" rx="1.249" ry="1.269"/>
    <ellipse cx="183.291" cy="116.876" fill="#ECECEC" transform="rotate(-131.37 183.292 116.872)" rx="1.249" ry="1.269"/>
    <path fill="#CDCCCC" d="M183.483 118.112l-.38.02-.495-.175-.274-.285-.247-.346-.032-.57.097-.342.27-.4.36-.32.334-.034.43-.004.34.17s-.365.077-.51.143c-.137.06-.282.18-.374.3-.09.11-.177.29-.202.43-.028.16-.017.4.027.56.05.17.17.34.287.48.096.11.37.35.37.35z"/>
    <path fill="#FFF" d="M183.6 116.31c-.275.24-.296.668-.045.953.25.284.677.318.95.075.143-.124.038-.233.043-.41.004-.17.023-.467-.1-.605-.248-.285-.573-.256-.848-.014z"/>
    <ellipse cx="183.291" cy="116.876" fill="none" stroke="#818181" stroke-width="3.228" transform="rotate(-131.37 183.292 116.872)" rx="1.249" ry="1.269"/>
  </g>
  <use fill="none" stroke="#000" stroke-width="7" stroke-miterlimit="10" xlink:href="#a" overflow="visible"/>
</svg>
