<?xml version="1.0" encoding="utf-8"?>
<!-- Generator: Adobe Illustrator 15.0.0, SVG Export Plug-In  -->
<!DOCTYPE svg PUBLIC "-//W3C//DTD SVG 1.1//EN" "http://www.w3.org/Graphics/SVG/1.1/DTD/svg11.dtd" [
	<!ENTITY ns_flows "http://ns.adobe.com/Flows/1.0/">
]>
<svg version="1.1"
	 xmlns="http://www.w3.org/2000/svg" xmlns:xlink="http://www.w3.org/1999/xlink" xmlns:a="http://ns.adobe.com/AdobeSVGViewerExtensions/3.0/"
	 x="0px" y="0px" width="524px" height="659px" viewBox="0 0 524 659" enable-background="new 0 0 524 659" xml:space="preserve">
<defs>
</defs>
<linearGradient id="SVGID_3_" gradientUnits="userSpaceOnUse" x1="37.7886" y1="515.3037" x2="92.6829" y2="536.3757">
	<stop  offset="0" style="stop-color:#8B5E3C"/>
	<stop  offset="0.497" style="stop-color:#FDC060"/>
</linearGradient>
<path fill="url(#SVGID_3_)" stroke="#000000" stroke-width="3" stroke-miterlimit="10" d="M109.092,493.628l-72,70
	c0,0-13.53,0.171-11-15c2.529-15.171,23-55,23-55s1-8,21-9S109.092,493.628,109.092,493.628z"/>
<linearGradient id="SVGID_4_" gradientUnits="userSpaceOnUse" x1="430.9292" y1="536.376" x2="485.8235" y2="515.304">
	<stop  offset="0.503" style="stop-color:#FDC060"/>
	<stop  offset="1" style="stop-color:#8B5E3C"/>
</linearGradient>
<path fill="url(#SVGID_4_)" stroke="#000000" stroke-width="3" stroke-miterlimit="10" d="M414.52,493.628l72,70
	c0,0,13.529,0.171,11-15s-23-55-23-55s-1-8-21-9S414.52,493.628,414.52,493.628z"/>
<linearGradient id="SVGID_5_" gradientUnits="userSpaceOnUse" x1="1.5" y1="461.1279" x2="107.0923" y2="461.1279">
	<stop  offset="0" style="stop-color:#BCBEC0"/>
	<stop  offset="0.3333" style="stop-color:#E6E7E8"/>
</linearGradient>
<path fill="url(#SVGID_5_)" stroke="#000000" stroke-width="3" stroke-miterlimit="10" d="M2.092,456.628c0-18,7.316-28,35-28
	s51,8,51,8l19,57c0,0-71.883-16.141-90.941-9.07S2.092,456.628,2.092,456.628z"/>
<linearGradient id="SVGID_6_" gradientUnits="userSpaceOnUse" x1="416.52" y1="461.1279" x2="522.1118" y2="461.1279">
	<stop  offset="0.6316" style="stop-color:#E6E7E8"/>
	<stop  offset="0.6867" style="stop-color:#DBDCDD"/>
	<stop  offset="0.7932" style="stop-color:#CACBCD"/>
	<stop  offset="0.8984" style="stop-color:#BFC1C3"/>
	<stop  offset="1" style="stop-color:#BCBEC0"/>
</linearGradient>
<path fill="url(#SVGID_6_)" stroke="#000000" stroke-width="3" stroke-miterlimit="10" d="M521.52,456.628c0-18-7.316-28-35-28
	s-51,8-51,8l-19,57c0,0,71.883-16.141,90.941-9.07S521.52,456.628,521.52,456.628z"/>
<path fill="#FBB040" stroke="#000000" stroke-width="3" stroke-miterlimit="10" d="M2.092,456.628c0,0,8,6,23,6
	c9.731,10.067,11,32,11,58.345c-25-1.345-34-19.345-34-48.345S2.092,456.628,2.092,456.628z"/>
<path fill="#FBB040" stroke="#000000" stroke-width="3" stroke-miterlimit="10" d="M521.52,456.628c0,0-8,6-23,6
	c-9.731,10.067-11,32-11,58.345c25-1.345,34-19.345,34-48.345S521.52,456.628,521.52,456.628z"/>
<g>
	<defs>
		<path id="SVGID_2_" d="M261.113,3.5H10.092c0,0,0,138.937,0,258.714c0,161.081,140,299,251.714,341
			c118.286-39,251.714-175.92,251.714-337c0-119.778,0-262.714,0-262.714H261.113z"/>
	</defs>
	<radialGradient id="SVGID_7_" cx="261.8062" cy="303.3569" r="276.8339" gradientUnits="userSpaceOnUse">
		<stop  offset="0" style="stop-color:#F69173"/>
		<stop  offset="1" style="stop-color:#CE1B23"/>
	</radialGradient>
	<use xlink:href="#SVGID_2_"  overflow="visible" fill="url(#SVGID_7_)"/>
	<clipPath id="SVGID_8_">
		<use xlink:href="#SVGID_2_"  overflow="visible"/>
	</clipPath>
	<g clip-path="url(#SVGID_8_)">
		<g>
			<path fill="#D4AC57" d="M316.382,359.294c0,0,4-9.333,17.666-10s44.333,5,63.666,5c7.17,0,13.011-1.65,17.488-3.846
				c7.594-3.725,11.266-9.019,10.846-10.487c-0.666-2.333-12,8.333-19.666,8.333c-7.668,0-30.668-11.667-29.334-13.667
				s39-27.667,53.334-44.667c14.332-17,15.332-20.667,15.332-20.667s37.667-6,51-27.333c13.334-21.333,9-28.333,7.334-28.333
				s-8.666,30.667-23.666,33s-19.334,2-22.334-3.333s2-22.667,13.334-32.667c11.332-10,10.666-32.667,9.332-41.333
				c-1.332-8.667-8.333-21.333-10-19c-1.666,2.333,6.334,18.333,3,30.333c-3.332,12-11.666,24-20,22.667
				c-8.332-1.333-26.333-14.666-30-39.333c-3.666-24.667,1.001-39.667,3.668-44.667c2.666-5-6.334-1-12,19.333
				c-5.668,20.333-2.668,21.667,1.332,35s9.334,20.333,15.334,35.667s11.334,40.667-5.666,61.333s-25,33.333-31,31.667
				s-8.667-20.666-4-35.333c4.666-14.667,11.999-20,8.332-19.333c-3.666,0.667-11,8.333-17.666,19.333s-4,34.666-10.334,44.333
				c-6.332,9.667-33.666,26.667-38.332,22c-4.668-4.667,3.859-32.667-6.404-59s-18.263-26-18.596-25
				c-0.334,1,13.666,33.334,12,45.667c-1.668,12.333-5,38-17,42s-7,4.306-8,8.319S316.382,359.294,316.382,359.294z"/>
			<g>
				<g>
					<path fill="#6E5726" d="M339.798,344.128c8.25-0.25,10.75,2.25,14.25,2.5s8-2.5,8-2.5c14.25,1.25,33,11.25,40.25,8.75
						c2.645-0.912,5.984-1.056,8.727-0.717c-3.754,1.283-8.186,2.134-13.311,2.134c-19.333,0-50-5.667-63.666-5
						c-9.162,0.447-13.965,4.781-16.146,7.595c-1.224,0.517-2.427,1.016-3.553,1.452c-1.176-0.563-2.775-1.344-4.546-2.253
						C318.548,345.128,331.548,344.378,339.798,344.128z"/>
					<path fill="#6E5726" d="M371.714,311.294c3.996-6.099,4.41-17.767,5.846-28.313c0.875,4.532,1.155,12.379,0.988,19.897
						c-0.25,11.25-10.391,12.606-10.391,12.606l0,0C369.645,314.004,370.871,312.583,371.714,311.294z"/>
					<path fill="#6E5726" d="M446.779,269.105c2.8-5.141,7.197-10.804,13.27-11.728c11.5-1.75,19.341-3.079,26.75-7.5
						c2.364-1.411,5.332-3.523,8.034-5.237C481.69,261.809,452.66,268.007,446.779,269.105z"/>
					<path fill="#6E5726" d="M432.048,209.294c-5.734-14.653-10.855-21.71-14.791-33.943c6.188,14.469,22.953,31.304,25.791,43.526
						c2.096,9.026-2.146,18.357-5.426,23.853C438.695,230.142,435.485,218.077,432.048,209.294z"/>
					<path fill="#6E5726" d="M412.551,159.669c1.055,2.524,2.025,5.718,2.752,9.54C414.053,165.481,413.033,162.718,412.551,159.669
						z"/>
					<path fill="#6E5726" d="M471.382,210.628c-5.469,4.825-9.458,11.356-11.79,17.425c-3.173-2.525-5.144-8.372,1.956-13.175
						c4.893-3.31,12.516-12.332,18.107-19.396C478.181,201.372,475.622,206.887,471.382,210.628z"/>
					<path fill="#6E5726" d="M312.455,327.63c4.884-9.712,6.793-24.275,7.928-32.668c0.52-3.851-0.486-9.651-2.107-15.838l0,0
						c3.976-0.505,4.523,15.005,5.523,28.505C324.369,315.336,318.013,322.714,312.455,327.63z"/>
				</g>
				<g>
					<g>
						<path fill="#E6E7E8" d="M395.382,302.294c0.661,0.184,1.349,0.183,2.068,0.027c-1.174,2.526-1.973,0.748-7.068-3.089
							c-7.167-5.396-1.834-30.938-0.834-36.104s11.07-15.44,11.07-15.44s0.008,0.188,0.023,0.533
							c-0.605,1.812-5.704,7.563-9.26,18.741C386.715,281.628,389.382,300.628,395.382,302.294z"/>
						<path fill="#E6E7E8" d="M334.257,333.82c-1.208,0.612-2.428,0.55-2.875-1.692c-1-5-0.168-29-0.834-34.833
							s-3.426-29.903-18.546-47.285c3.354,2.148,8.745,8.3,14.976,24.285c10.264,26.333,1.736,54.333,6.404,59
							C333.615,333.527,333.917,333.691,334.257,333.82z"/>
						<path fill="#E6E7E8" d="M377.048,334.628c-1.334,2,21.666,13.667,29.334,13.667c4.945,0,11.413-4.436,15.563-6.96
							c-3.827,3.175-9.108,7.096-12.063,7.293c-5,0.333-11.834,0.965-21.168-4.518C379.382,338.628,375.384,336.091,377.048,334.628
							z"/>
						<path fill="#E6E7E8" d="M406.337,295.309c-0.001,0,0-0.001-0.002-0.001c4.936-5.535,11.297-14.044,20.047-24.68
							c7.262-8.829,10.439-18.508,11.24-27.896c0.002,0.012,2.086,11.571-9.574,27.563
							C416.382,286.294,407.792,295.657,406.337,295.309z"/>
						<path fill="#E6E7E8" d="M481.048,247.688c-6.834,1.273-18.259,3.939-21.879-2.727c-0.002-0.002-0.002-0.004-0.003-0.006
							c3.036,3.712,7.962,3.735,21.216,1.673c15-2.333,22-33,23.666-33c0,0-4.833,13.833-7.166,18.333
							C494.548,236.461,487.882,246.415,481.048,247.688z"/>
						<path fill="#E6E7E8" d="M471.382,189.794c-9.834,14.167-13.211,16.341-19.82,12.951c-0.002,0-0.002-0.001-0.004-0.002
							c0.77,0.256,1.496,0.446,2.156,0.551c8.334,1.333,16.668-10.667,20-22.667c3.334-12-4.666-28-3-30.333
							C470.714,150.294,481.215,175.627,471.382,189.794z"/>
						<path fill="#E6E7E8" d="M429.495,181.717c0,0.001-0.001,0.008-0.001,0.008s-7.112-12.598-7.779-25.931
							c-0.666-13.333,0.5-26.666,2-30.333c1.01-2.468,2.273-6.744,3.668-8.109c0.597-0.024,0.683,0.661,0,1.942
							c-2.667,5-7.334,20-3.668,44.667C424.723,170.743,426.818,176.663,429.495,181.717z"/>
					</g>
					<g>
						<path fill="#E8C267" d="M395.382,302.294c0.661,0.184,1.349,0.183,2.068,0.027c-1.174,2.526-1.973,0.748-7.068-3.089
							c-7.167-5.396-1.834-30.938-0.834-36.104s11.07-15.44,11.07-15.44s0.008,0.188,0.023,0.533
							c-0.605,1.812-5.704,7.563-9.26,18.741C386.715,281.628,389.382,300.628,395.382,302.294z"/>
						<path fill="#E8C267" d="M334.257,333.82c-1.208,0.612-2.428,0.55-2.875-1.692c-1-5-0.168-29-0.834-34.833
							s-3.426-29.903-18.546-47.285c3.354,2.148,8.745,8.3,14.976,24.285c10.264,26.333,1.736,54.333,6.404,59
							C333.615,333.527,333.917,333.691,334.257,333.82z"/>
						<path fill="#E8C267" d="M377.048,334.628c-1.334,2,21.666,13.667,29.334,13.667c4.945,0,11.413-4.436,15.563-6.96
							c-3.827,3.175-9.108,7.096-12.063,7.293c-5,0.333-11.834,0.965-21.168-4.518C379.382,338.628,375.384,336.091,377.048,334.628
							z"/>
						<path fill="#E8C267" d="M406.337,295.309c-0.001,0,0-0.001-0.002-0.001c4.936-5.535,11.297-14.044,20.047-24.68
							c7.262-8.829,10.439-18.508,11.24-27.896c0.002,0.012,2.086,11.571-9.574,27.563
							C416.382,286.294,407.792,295.657,406.337,295.309z"/>
						<path fill="#E8C267" d="M481.048,247.688c-6.834,1.273-18.259,3.939-21.879-2.727c-0.002-0.002-0.002-0.004-0.003-0.006
							c3.036,3.712,7.962,3.735,21.216,1.673c15-2.333,22-33,23.666-33c0,0-4.833,13.833-7.166,18.333
							C494.548,236.461,487.882,246.415,481.048,247.688z"/>
						<path fill="#E8C267" d="M471.382,189.794c-9.834,14.167-13.211,16.341-19.82,12.951c-0.002,0-0.002-0.001-0.004-0.002
							c0.77,0.256,1.496,0.446,2.156,0.551c8.334,1.333,16.668-10.667,20-22.667c3.334-12-4.666-28-3-30.333
							C470.714,150.294,481.215,175.627,471.382,189.794z"/>
						<path fill="#E8C267" d="M429.495,181.717c0,0.001-0.001,0.008-0.001,0.008s-7.112-12.598-7.779-25.931
							c-0.666-13.333,0.5-26.666,2-30.333c1.01-2.468,2.273-6.744,3.668-8.109c0.597-0.024,0.683,0.661,0,1.942
							c-2.667,5-7.334,20-3.668,44.667C424.723,170.743,426.818,176.663,429.495,181.717z"/>
					</g>
				</g>
			</g>
		</g>
		<g>
			<path fill="#D4AC57" d="M220.589,359.294c0,0-4-9.333-17.666-10s-44.333,5-63.666,5c-7.17,0-13.011-1.65-17.488-3.846
				c-7.594-3.725-11.266-9.019-10.846-10.487c0.666-2.333,12,8.333,19.666,8.333c7.668,0,30.668-11.667,29.334-13.667
				s-39-27.667-53.334-44.667c-14.332-17-15.332-20.667-15.332-20.667s-37.667-6-51-27.333c-13.334-21.333-9-28.333-7.334-28.333
				s8.666,30.667,23.666,33s19.334,2,22.334-3.333s-2-22.667-13.334-32.667c-11.332-10-10.666-32.667-9.332-41.333
				c1.332-8.667,8.333-21.333,10-19c1.666,2.333-6.334,18.333-3,30.333c3.332,12,11.666,24,20,22.667
				c8.332-1.333,26.333-14.666,30-39.333c3.666-24.667-1.001-39.667-3.668-44.667c-2.666-5,6.334-1,12,19.333
				c5.668,20.333,2.668,21.667-1.332,35s-9.334,20.333-15.334,35.667s-11.334,40.667,5.666,61.333s25,33.333,31,31.667
				s8.667-20.666,4-35.333c-4.666-14.667-11.999-20-8.332-19.333c3.666,0.667,11,8.333,17.666,19.333s4,34.666,10.334,44.333
				c6.332,9.667,33.666,26.667,38.332,22c4.668-4.667-3.859-32.667,6.404-59s18.263-26,18.596-25c0.334,1-13.666,33.334-12,45.667
				c1.668,12.333,5,38,17,42s7,4.306,8,8.319S220.589,359.294,220.589,359.294z"/>
			<g>
				<g>
					<path fill="#6E5726" d="M197.173,344.128c-8.25-0.25-10.75,2.25-14.25,2.5s-8-2.5-8-2.5c-14.25,1.25-33,11.25-40.25,8.75
						c-2.645-0.912-5.984-1.056-8.727-0.717c3.754,1.283,8.186,2.134,13.311,2.134c19.333,0,50-5.667,63.666-5
						c9.162,0.447,13.965,4.781,16.146,7.595c1.224,0.517,2.427,1.016,3.553,1.452c1.176-0.563,2.775-1.344,4.546-2.253
						C218.423,345.128,205.423,344.378,197.173,344.128z"/>
					<path fill="#6E5726" d="M165.257,311.294c-3.996-6.099-4.41-17.767-5.846-28.313c-0.875,4.532-1.155,12.379-0.988,19.897
						c0.25,11.25,10.391,12.606,10.391,12.606l0,0C167.327,314.004,166.101,312.583,165.257,311.294z"/>
					<path fill="#6E5726" d="M90.193,269.105c-2.8-5.141-7.197-10.804-13.27-11.728c-11.5-1.75-19.341-3.079-26.75-7.5
						c-2.364-1.411-5.332-3.523-8.034-5.237C55.282,261.809,84.312,268.007,90.193,269.105z"/>
					<path fill="#6E5726" d="M104.923,209.294c5.734-14.653,10.855-21.71,14.791-33.943c-6.188,14.469-22.953,31.304-25.791,43.526
						c-2.096,9.026,2.146,18.357,5.426,23.853C98.277,230.142,101.487,218.077,104.923,209.294z"/>
					<path fill="#6E5726" d="M124.42,159.669c-1.055,2.524-2.025,5.718-2.752,9.54C122.918,165.481,123.939,162.718,124.42,159.669z
						"/>
					<path fill="#6E5726" d="M65.589,210.628c5.469,4.825,9.458,11.356,11.79,17.425c3.173-2.525,5.144-8.372-1.956-13.175
						c-4.893-3.31-12.516-12.332-18.107-19.396C58.791,201.372,61.35,206.887,65.589,210.628z"/>
					<path fill="#6E5726" d="M224.517,327.63c-4.884-9.712-6.793-24.275-7.928-32.668c-0.52-3.851,0.486-9.651,2.107-15.838l0,0
						c-3.976-0.505-4.523,15.005-5.523,28.505C212.603,315.336,218.958,322.714,224.517,327.63z"/>
				</g>
				<g>
					<g>
						<path fill="#E6E7E8" d="M141.589,302.294c-0.661,0.184-1.349,0.183-2.068,0.027c1.174,2.526,1.973,0.748,7.068-3.089
							c7.167-5.396,1.834-30.938,0.834-36.104s-11.07-15.44-11.07-15.44s-0.008,0.188-0.023,0.533
							c0.605,1.812,5.704,7.563,9.26,18.741C150.256,281.628,147.589,300.628,141.589,302.294z"/>
						<path fill="#E6E7E8" d="M202.714,333.82c1.208,0.612,2.428,0.55,2.875-1.692c1-5,0.168-29,0.834-34.833
							s3.426-29.903,18.546-47.285c-3.354,2.148-8.745,8.3-14.976,24.285c-10.264,26.333-1.736,54.333-6.404,59
							C203.357,333.527,203.054,333.691,202.714,333.82z"/>
						<path fill="#E6E7E8" d="M159.923,334.628c1.334,2-21.666,13.667-29.334,13.667c-4.945,0-11.413-4.436-15.563-6.96
							c3.827,3.175,9.108,7.096,12.063,7.293c5,0.333,11.834,0.965,21.168-4.518C157.589,338.628,161.587,336.091,159.923,334.628z"
							/>
						<path fill="#E6E7E8" d="M130.634,295.309c0.001,0,0-0.001,0.002-0.001c-4.936-5.535-11.297-14.044-20.047-24.68
							c-7.262-8.829-10.439-18.508-11.24-27.896c-0.002,0.012-2.086,11.571,9.574,27.563
							C120.589,286.294,129.179,295.657,130.634,295.309z"/>
						<path fill="#E6E7E8" d="M55.923,247.688c6.834,1.273,18.259,3.939,21.879-2.727c0.002-0.002,0.002-0.004,0.003-0.006
							c-3.036,3.712-7.962,3.735-21.216,1.673c-15-2.333-22-33-23.666-33c0,0,4.833,13.833,7.166,18.333
							C42.423,236.461,49.089,246.415,55.923,247.688z"/>
						<path fill="#E6E7E8" d="M65.589,189.794c9.834,14.167,13.211,16.341,19.82,12.951c0.002,0,0.002-0.001,0.004-0.002
							c-0.77,0.256-1.496,0.446-2.156,0.551c-8.334,1.333-16.668-10.667-20-22.667c-3.334-12,4.666-28,3-30.333
							C66.257,150.294,55.756,175.627,65.589,189.794z"/>
						<path fill="#E6E7E8" d="M107.477,181.717c0,0.001,0.001,0.008,0.001,0.008s7.112-12.598,7.779-25.931
							c0.666-13.333-0.5-26.666-2-30.333c-1.01-2.468-2.273-6.744-3.668-8.109c-0.597-0.024-0.683,0.661,0,1.942
							c2.667,5,7.334,20,3.668,44.667C112.249,170.743,110.154,176.663,107.477,181.717z"/>
					</g>
					<g>
						<path fill="#E8C267" d="M141.589,302.294c-0.661,0.184-1.349,0.183-2.068,0.027c1.174,2.526,1.973,0.748,7.068-3.089
							c7.167-5.396,1.834-30.938,0.834-36.104s-11.07-15.44-11.07-15.44s-0.008,0.188-0.023,0.533
							c0.605,1.812,5.704,7.563,9.26,18.741C150.256,281.628,147.589,300.628,141.589,302.294z"/>
						<path fill="#E8C267" d="M202.714,333.82c1.208,0.612,2.428,0.55,2.875-1.692c1-5,0.168-29,0.834-34.833
							s3.426-29.903,18.546-47.285c-3.354,2.148-8.745,8.3-14.976,24.285c-10.264,26.333-1.736,54.333-6.404,59
							C203.357,333.527,203.054,333.691,202.714,333.82z"/>
						<path fill="#E8C267" d="M159.923,334.628c1.334,2-21.666,13.667-29.334,13.667c-4.945,0-11.413-4.436-15.563-6.96
							c3.827,3.175,9.108,7.096,12.063,7.293c5,0.333,11.834,0.965,21.168-4.518C157.589,338.628,161.587,336.091,159.923,334.628z"
							/>
						<path fill="#E8C267" d="M130.634,295.309c0.001,0,0-0.001,0.002-0.001c-4.936-5.535-11.297-14.044-20.047-24.68
							c-7.262-8.829-10.439-18.508-11.24-27.896c-0.002,0.012-2.086,11.571,9.574,27.563
							C120.589,286.294,129.179,295.657,130.634,295.309z"/>
						<path fill="#E8C267" d="M55.923,247.688c6.834,1.273,18.259,3.939,21.879-2.727c0.002-0.002,0.002-0.004,0.003-0.006
							c-3.036,3.712-7.962,3.735-21.216,1.673c-15-2.333-22-33-23.666-33c0,0,4.833,13.833,7.166,18.333
							C42.423,236.461,49.089,246.415,55.923,247.688z"/>
						<path fill="#E8C267" d="M65.589,189.794c9.834,14.167,13.211,16.341,19.82,12.951c0.002,0,0.002-0.001,0.004-0.002
							c-0.77,0.256-1.496,0.446-2.156,0.551c-8.334,1.333-16.668-10.667-20-22.667c-3.334-12,4.666-28,3-30.333
							C66.257,150.294,55.756,175.627,65.589,189.794z"/>
						<path fill="#E8C267" d="M107.477,181.717c0,0.001,0.001,0.008,0.001,0.008s7.112-12.598,7.779-25.931
							c0.666-13.333-0.5-26.666-2-30.333c-1.01-2.468-2.273-6.744-3.668-8.109c-0.597-0.024-0.683,0.661,0,1.942
							c2.667,5,7.334,20,3.668,44.667C112.249,170.743,110.154,176.663,107.477,181.717z"/>
					</g>
				</g>
			</g>
		</g>
		<g>
			<path fill="#F1F2F2" d="M322.092,376.605c1.298,0,2.438-0.197,3.481-0.521c-1.942-13.656-19.697-26.602-20.484-29.123
				c-0.834-2.667-1.834-8-5.834-8s-8.21,7.237-16.236,7.237c-8.027,0-12.264,0.68-14.68,0.68s-6.652-0.68-14.68-0.68
				c-8.026,0-12.236-7.237-16.236-7.237s-5,5.333-5.834,8c-0.786,2.516-18.484,15.423-20.477,29.054
				c1.045,0.324,2.179,0.529,3.477,0.529c4.988,0,1.638,2.207-3.597,4.082c0.702,12.995,7.567,19.246,10.098,26.834
				c2.667,8,0.521,18.917,6.208,32.104s20.178,30.678,20.178,37.178s-4.428,7.322-4.428,15.635s13.208,19.625,15.75,19.625
				s7.489-2.041,9.703-2.041s6.837,2.041,9.379,2.041s15.75-11.313,15.75-19.625s-4.428-9.135-4.428-15.635
				s14.49-23.99,20.178-37.178s3.541-24.104,6.208-32.104c2.526-7.577,9.376-13.818,10.095-26.774
				C320.453,378.812,317.107,376.605,322.092,376.605z"/>
			<path fill="#E6E7E8" d="M239.048,416.753c8.875-2.375,10.75,20.875,11.625,9.625s-12.5-20.75-12.5-20.75
				c-1.428-1.115-2.5,6.75-4.875,8.625s-7.375-0.75-9.663-0.125s-0.212,4.75,5.288,6.875S230.173,419.128,239.048,416.753z"/>
			<path fill="#E6E7E8" d="M297.619,416.815c-8.875-2.375-10.75,20.875-11.625,9.625s12.5-20.75,12.5-20.75
				c1.428-1.115,2.5,6.75,4.875,8.625s7.375-0.75,9.663-0.125s0.212,4.75-5.288,6.875S306.494,419.19,297.619,416.815z"/>
			<path fill="#E6E7E8" d="M218.173,365.628c0,0-8-5-22-5s-29.25,9.25-41.25,9c-6.746,0-8.229,0.333-8.334,1.417
				c-0.104,1.083,0.084,1.417,8.334,1.667s21.5,18.833,42.083,18.833c20.584,0,16.251-8.5,23.834-10.167
				S218.173,365.628,218.173,365.628z M198.923,383.212c-7.833,0-23.25-8.084-30.167-8.5c-6.916-0.417,14.333-6.667,24.833-6.667
				s12.333,8.5,21,8.5S206.756,383.212,198.923,383.212z"/>
			<path fill="#58595B" d="M214.589,376.545c-8.667,0-10.5-8.5-21-8.5s-31.749,6.25-24.833,6.667c6.917,0.417,22.334,8.5,30.167,8.5
				S223.256,376.545,214.589,376.545z"/>
			<path fill="#939598" d="M193.589,368.045c10.5,0,12.333,8.5,21,8.5s-7.833,6.667-15.666,6.667c7.833,0,19.313-0.938,19.313-8.521
				S204.089,368.045,193.589,368.045z"/>
			<path fill="#939598" d="M233.298,414.253c1.621-1.28,2.636-5.349,3.57-7.449c-0.285-0.063-0.585-0.121-0.916-0.167
				c-4.223-0.588,1.804,5.158-5.029,5.158c-6.834,0-7.288-3.667-7.288-3.667c-1.975-0.948-2.069-0.229-2.041,1.127
				c0.358,1.485,0.602,3.056,0.788,4.716c0.203,0.163,0.427,0.321,0.68,0.476c0.146-0.139,0.33-0.252,0.573-0.318
				C225.923,413.503,230.923,416.128,233.298,414.253z"/>
			<path fill="#6D6E71" d="M236.716,407.16c0.001,0,0.001,0.001,0.002,0.001c0.489-1.189,0.95-1.928,1.455-1.533
				c0,0,0.121,0.087,0.339,0.251c-0.034-0.826-0.299-1.978-0.756-3.418c-1.191-3.756-4.333-1.666-9.333-10
				s-9.252-6.207-13.667-5.666c-1.438,0.176-2.235,0.656-2.576,1.334c0.517,1.891,1.162,3.614,1.872,5.225
				c2.335,3.065,5.962,6.282,7.204,7.441c2.5,2.334,2.333,0,6.5-0.667S234.589,406.295,236.716,407.16z"/>
			<path fill="#D1D3D4" d="M223.635,379.295c-1.965-0.048-8.701,3.94-11.869,7.109c0.293,1.338,0.645,2.604,1.051,3.796
				c0.336-0.01,0.698-0.03,1.106-0.072c11.531-1.184,19,8.5,29.333,15.5c10.334,7,15.667,89.667,15.667,34
				S223.635,379.295,223.635,379.295z"/>
			<path fill="#FFFFFF" d="M223.239,401.792c2.622-0.477,4.247-1.602,6.185-0.352s2.625,4.434,0.688,5.154s-5.688,0.783-6.188-0.279
				s-1.727-3.872-0.685-4.313"/>
			<path fill="#E6E7E8" d="M229.229,431.628c-2.058,5.004,10.944,27.25,18.944,29s6.25-15.75,0-23.5
				S231.286,426.628,229.229,431.628z"/>
			<path fill="#E6E7E8" d="M315.842,381.438c7.583,1.667,3.25,10.167,23.834,10.167c20.583,0,33.833-18.583,42.083-18.833
				s8.438-0.583,8.333-1.667c-0.104-1.083-1.587-1.417-8.333-1.417c-12,0.25-27.25-9-41.25-9s-22,5-22,5
				S308.259,379.771,315.842,381.438z M322.092,376.605c8.668,0,10.5-8.5,21-8.5s31.75,6.25,24.834,6.667
				c-6.917,0.417-22.334,8.5-30.167,8.5S313.426,376.605,322.092,376.605z"/>
			<path fill="#58595B" d="M343.092,368.105c-10.5,0-12.332,8.5-21,8.5c-8.666,0,7.834,6.667,15.667,6.667s23.25-8.084,30.167-8.5
				C374.842,374.355,353.592,368.105,343.092,368.105z"/>
			<path fill="#939598" d="M343.092,368.105c-10.5,0-12.332,8.5-21,8.5c-8.666,0,7.834,6.667,15.667,6.667
				c-7.833,0-19.313-0.938-19.313-8.521S332.592,368.105,343.092,368.105z"/>
			<path fill="#939598" d="M303.384,414.313c-1.622-1.28-2.636-5.349-3.57-7.449c0.285-0.063,0.585-0.121,0.916-0.167
				c4.222-0.588-1.804,5.158,5.029,5.158s7.288-3.667,7.288-3.667c1.975-0.948,2.069-0.229,2.041,1.127
				c-0.359,1.485-0.602,3.056-0.788,4.716c-0.203,0.163-0.427,0.321-0.681,0.476c-0.146-0.139-0.329-0.252-0.572-0.318
				C310.759,413.563,305.759,416.188,303.384,414.313z"/>
			<path fill="#6D6E71" d="M299.966,407.221c-0.001,0-0.001,0.001-0.003,0.001c-0.488-1.189-0.949-1.928-1.454-1.533
				c0,0-0.122,0.087-0.339,0.251c0.034-0.826,0.299-1.978,0.756-3.418c1.191-3.756,4.333-1.666,9.333-10s9.252-6.207,13.667-5.666
				c1.438,0.176,2.235,0.656,2.576,1.334c-0.517,1.891-1.162,3.614-1.873,5.225c-2.334,3.065-5.961,6.282-7.203,7.441
				c-2.5,2.334-2.334,0-6.5-0.667C304.758,399.521,302.092,406.355,299.966,407.221z"/>
			<path fill="#D1D3D4" d="M313.047,379.355c1.965-0.048,8.701,3.94,11.869,7.109c-0.293,1.338-0.645,2.604-1.051,3.796
				c-0.336-0.01-0.698-0.03-1.106-0.072c-11.531-1.184-19,8.5-29.333,15.5c-10.334,7-15.667,89.667-15.667,34
				S313.047,379.355,313.047,379.355z"/>
			<path fill="#FFFFFF" d="M313.444,401.853c-2.622-0.477-4.247-1.602-6.185-0.352s-2.625,4.434-0.688,5.154
				s5.688,0.783,6.188-0.279s1.727-3.872,0.685-4.313"/>
			<path fill="#E6E7E8" d="M307.454,431.688c2.057,5.004-10.944,27.25-18.944,29s-6.25-15.75,0-23.5
				S305.397,426.688,307.454,431.688z"/>
			<path fill="#D1D3D4" d="M297.494,345.846c-5.499,6.784-28.979,3.678-29.098,3.696c-0.119-0.018-23.641,3.088-29.141-3.696
				c-5.945-7.333,2.812,13.333-13.233,16c0,0,40.622,26.946,41.955,48.807c0.161,2.645,0.292,3.742,0.398,3.65
				c0.104,0.092,0.235-1.006,0.396-3.65c1.333-21.861,41.955-48.807,41.955-48.807C294.681,359.18,303.439,338.513,297.494,345.846z
				"/>
			<ellipse fill="#6D6E71" cx="257.069" cy="502.295" rx="6.354" ry="3"/>
			<ellipse fill="#6D6E71" cx="278.792" cy="502.295" rx="6.354" ry="3"/>
		</g>
		<radialGradient id="SVGID_9_" cx="268.3374" cy="149.5381" r="99.6138" gradientUnits="userSpaceOnUse">
			<stop  offset="0" style="stop-color:#FFFAC6"/>
			<stop  offset="1" style="stop-color:#D4AC57"/>
		</radialGradient>
		<polygon fill="url(#SVGID_9_)" stroke="#000000" stroke-width="2" stroke-miterlimit="10" points="288.06,86.674 313.122,30.797 
			268.19,30.797 223.256,30.797 248.243,86.507 192.533,61.521 192.533,106.453 192.533,151.385 248.614,126.233 223.552,182.11 
			250.642,182.11 268.337,268.279 286.076,182.11 313.418,182.11 288.432,126.4 344.142,151.386 344.142,106.454 344.142,61.521 		
			"/>
	</g>
	<use xlink:href="#SVGID_2_"  overflow="visible" fill="none" stroke="#000000" stroke-width="7" stroke-miterlimit="10"/>
</g>
<radialGradient id="SVGID_10_" cx="261.8062" cy="575.5225" r="180.5935" gradientUnits="userSpaceOnUse">
	<stop  offset="0.6316" style="stop-color:#FFFFFF"/>
	<stop  offset="0.7049" style="stop-color:#F4F5F5"/>
	<stop  offset="0.8549" style="stop-color:#EAEBEB"/>
	<stop  offset="1" style="stop-color:#E6E7E8"/>
</radialGradient>
<path fill="url(#SVGID_10_)" stroke="#000000" stroke-width="3" stroke-miterlimit="10" d="M474.52,493.628c0,0-35,101-212.714,101
	s-212.714-101-212.714-101s-32,43-29,61S84.52,657.416,261.806,657.416S500.52,572.628,503.52,554.628
	S474.52,493.628,474.52,493.628z"/>
<g>
	<path fill="none" d="M20.092,554.628c3,18,64.428,102.788,241.714,102.788S500.52,572.628,503.52,554.628"/>
	<path d="M39.284,556.269l3.249-0.894c-1.308,2.046-1.672,3.493-1.096,4.343c0.401,0.59,1.209,0.746,2.423,0.469
		c1.214-0.276,2.577-0.929,4.089-1.955c1.486-1.01,2.887-2.479,4.204-4.404l1.704-2.489c1.25-1.838,2.167-3.072,2.75-3.705
		s1.458-1.345,2.622-2.136c2.316-1.573,4.545-2.59,6.686-3.049c2.141-0.46,3.532-0.218,4.173,0.726
		c0.407,0.599,0.37,1.65-0.111,3.154l-4.883,2.845l-0.276-0.407c0.39-0.252,0.659-0.429,0.808-0.529
		c1.177-0.8,2.013-1.606,2.509-2.422s0.562-1.493,0.195-2.031c-0.377-0.556-1.169-0.701-2.374-0.437
		c-1.205,0.264-2.507,0.872-3.907,1.822c-0.942,0.64-1.737,1.32-2.387,2.042c-0.65,0.722-1.512,1.892-2.586,3.509l-1.377,2.05
		c-1.517,2.271-3.186,4.024-5.007,5.261c-2.391,1.624-4.711,2.618-6.962,2.982c-2.25,0.364-3.75-0.006-4.5-1.108
		C38.655,559.06,38.673,557.848,39.284,556.269z"/>
	<path d="M43.029,563.883l3.309-1.215l0.333,0.403c0.378,0.457,1.087,0.44,2.128-0.052c1.04-0.492,2.896-1.697,5.566-3.614
		l14.937-10.697l-1.349-1.632l3.284-1.245l3.241,3.92l-3.319,1.203l-0.812-0.981l-12.958,9.284
		c-3.966,2.84-7.357,4.509-10.172,5.004l1.764,2.485l-3.279,1.252L43.029,563.883z"/>
	<path d="M56.113,575.36c-2.529,0.139-4.228-0.241-5.096-1.141c-0.933-0.967-0.875-2.471,0.174-4.511
		c1.049-2.039,2.99-4.427,5.825-7.161c4.493-4.336,8.809-7.514,12.946-9.533c4.137-2.02,6.906-2.305,8.305-0.854
		c0.835,0.865,1.298,1.972,1.389,3.316l-4.909,3.813l-0.342-0.354c0.543-0.452,0.976-0.834,1.3-1.146
		c0.938-0.905,1.526-1.817,1.765-2.735s0.083-1.661-0.466-2.231c-0.828-0.858-2.653-0.549-5.475,0.93
		c-1.868,0.978-4.011,2.372-6.428,4.183c-2.417,1.812-4.591,3.647-6.521,5.511c-2.329,2.247-3.958,4.229-4.884,5.944
		c-0.927,1.715-1.032,2.944-0.316,3.687c0.803,0.832,2.26,1.134,4.371,0.906L56.113,575.36z"/>
	<path d="M63.39,585.576l4.867-4.94c-3.874,2.755-6.313,3.702-7.318,2.842c-0.7-0.6-0.657-1.779,0.131-3.54
		c0.787-1.761,2.189-3.817,4.205-6.172c1.256-1.468,3.426-3.76,6.509-6.876c3.083-3.116,6.039-6.007,8.868-8.67
		c-0.124-0.264-0.226-0.43-0.305-0.497c-0.653-0.56-1.769-0.356-3.348,0.607c-1.58,0.964-3.222,2.441-4.926,4.432l-2.539,0.635
		c5.91-6.55,10.384-8.524,13.423-5.924l0.427,0.366c-3.146,2.945-6.366,6.082-9.661,9.41c-3.296,3.329-5.669,5.841-7.12,7.535
		c-1.578,1.843-2.686,3.393-3.323,4.65c-0.638,1.258-0.729,2.081-0.274,2.471c0.479,0.41,1.458,0.224,2.938-0.561
		c1.479-0.783,3.292-2.079,5.438-3.889l15.961-16.229l1.712,0.728l-5.14,5.091l-11.308,11.489c-2.073,2.108-3.392,3.493-3.957,4.152
		c-1.052,1.229-1.314,2.068-0.789,2.519c0.186,0.159,0.472,0.306,0.858,0.439l-1.012,1.025L63.39,585.576z"/>
	<path d="M69.392,589.212l2.895-2.002l0.042,0.142c0.033,0.062,0.146,0.162,0.339,0.304c0.467,0.341,1.162,0.116,2.085-0.674
		c0.922-0.791,2.497-2.506,4.723-5.146l11.632-13.811l-1.596-1.166c-1.619-1.184-3.771,0.063-6.458,3.738
		c-0.318,0.435-0.692,0.987-1.123,1.655l-2.598,0.8c2.774-3.425,5.369-5.85,7.784-7.274c2.416-1.425,4.302-1.642,5.661-0.648
		l2.674,1.954c1.207,0.882,2.173,1.236,2.9,1.063c0.727-0.173,1.738-1.001,3.035-2.483l1.754-0.415
		c-1.938,2.034-3.835,3.438-5.692,4.214c-1.857,0.776-3.32,0.773-4.388-0.007l-0.63-0.461l-10.114,11.998
		c-1.817,2.159-3.357,3.783-4.62,4.872c-1.264,1.089-2.659,1.994-4.185,2.715l2.329,1.924l-2.838,2.043L69.392,589.212z"/>
	<path d="M95.605,603.588c-2.389,0.842-4.126,0.952-5.211,0.331c-1.167-0.667-1.532-2.127-1.096-4.379
		c0.436-2.251,1.632-5.086,3.587-8.505c3.1-5.42,6.354-9.679,9.76-12.776c3.407-3.097,5.985-4.145,7.734-3.144
		c1.044,0.597,1.798,1.529,2.262,2.795l-3.645,5.035l-0.427-0.244c0.395-0.585,0.704-1.073,0.927-1.464
		c0.647-1.131,0.957-2.171,0.929-3.119c-0.028-0.948-0.385-1.619-1.072-2.012c-1.036-0.593-2.701,0.216-4.996,2.424
		c-1.52,1.462-3.187,3.4-5,5.815c-1.814,2.415-3.387,4.787-4.718,7.115c-1.607,2.81-2.616,5.168-3.025,7.074
		c-0.41,1.906-0.167,3.115,0.729,3.627c1.004,0.574,2.487,0.457,4.45-0.353L95.605,603.588z"/>
	<path d="M96.687,606.467l2.542-2.463l0.118,0.06c0.707,0.357,1.406,0.184,2.099-0.522c0.693-0.706,1.86-2.438,3.501-5.196
		l10.532-17.66c-0.958-0.485-2.105-0.139-3.442,1.039c-1.338,1.178-2.608,2.956-3.812,5.334l-0.223,0.44l-2.306,1.199
		c2.165-3.989,4.232-6.702,6.203-8.138c1.97-1.437,3.927-1.663,5.869-0.68l4.099,2.074l-3.491,5.357l-0.439-0.223
		c0.301-0.502,0.556-0.96,0.766-1.374c0.534-1.056,0.692-1.891,0.475-2.504c-0.218-0.614-0.882-1.202-1.992-1.764l-0.216-0.109
		l-6.813,11.454l3.109,1.574l-1.755,1.703c-0.859-0.921-1.479-1.478-1.86-1.671l-0.348-0.176l-1.24,2.087
		c-1.392,2.345-2.613,4.145-3.664,5.396c-1.051,1.253-2.298,2.394-3.741,3.422l3.153,2.074l0.702,0.43
		c0.757,0.384,1.841,0.001,3.251-1.148l-0.923,1.547c-2.033,1.976-3.412,2.779-4.137,2.413l-0.311-0.183L96.687,606.467z"/>
	<path d="M107.247,611.742l2.4-2.574l0.093,0.041c0.024,0.011,0.065,0.053,0.123,0.128c0.063,0.077,0.145,0.138,0.245,0.182
		c0.486,0.214,1.088-0.129,1.808-1.031c0.72-0.901,1.709-2.548,2.969-4.938l9.765-18.548c-0.982-0.433-2.109-0.024-3.384,1.225
		s-2.45,3.094-3.528,5.536l-0.2,0.453l-2.24,1.322c1.993-4.168,3.927-7.006,5.802-8.515c1.875-1.508,3.842-1.808,5.901-0.899
		c1.605,0.709,2.535,1.647,2.788,2.815c0.253,1.169-0.108,2.856-1.082,5.064c-1.609,3.647-3.91,6.352-6.901,8.111l-1.935,9.028
		c-0.688,3.212-0.885,4.882-0.589,5.013c0.324,0.143,1.44-0.813,3.349-2.868l-0.997,1.893c-2.404,2.622-3.854,3.823-4.349,3.604
		c-0.643-0.283-0.443-2.658,0.6-7.125l2.155-9.237l-1.351-0.597l-0.945,1.793c-2.077,3.944-4.289,6.815-6.635,8.611l2.722,1.397
		l-2.328,2.605L107.247,611.742z M119.327,598.611l1.894,0.835c2.112-1.264,4.007-3.796,5.684-7.597
		c1.543-3.498,1.444-5.633-0.3-6.402l-0.279-0.123L119.327,598.611z"/>
	<path d="M125.64,620.015l2.125-5.464c4.119-10.849,6.636-18.511,7.549-22.985c0.959-4.713,0.913-7.269-0.139-7.668
		c-0.949-0.36-2.451,1.063-4.505,4.271l-0.157-0.708c2.915-4.42,5.012-6.386,6.293-5.899c3.058,1.161,0.757,11.828-6.903,32
		l6.334-9.632c3.837-5.831,6.059-9.544,6.665-11.14c0.202-0.532,0.084-0.882-0.355-1.048l-0.585-0.223l0.574-1.247l3.144,1.193
		l-0.582,1.245l-0.607-0.23l-17.886,27.301L125.64,620.015z"/>
	<path d="M142.455,626.055l2.573-6.439c-2.504,4.04-4.386,5.858-5.646,5.455c-0.878-0.281-1.295-1.386-1.251-3.314
		c0.044-1.928,0.539-4.367,1.485-7.319c0.589-1.84,1.701-4.793,3.336-8.86s3.24-7.877,4.816-11.429
		c-0.216-0.195-0.374-0.31-0.473-0.341c-0.818-0.263-1.769,0.356-2.852,1.857s-2.024,3.499-2.824,5.994l-2.094,1.569
		c2.91-8.329,6.27-11.883,10.079-10.662l0.536,0.172c-1.758,3.934-3.512,8.073-5.26,12.419c-1.748,4.346-2.963,7.58-3.644,9.705
		c-0.74,2.31-1.161,4.168-1.262,5.575c-0.101,1.406,0.134,2.2,0.705,2.384c0.6,0.192,1.43-0.359,2.491-1.655
		c1.061-1.295,2.229-3.192,3.506-5.692l8.426-21.145l1.86,0.006l-2.766,6.685l-5.973,14.974c-1.094,2.748-1.773,4.535-2.038,5.361
		c-0.494,1.54-0.411,2.416,0.249,2.627c0.233,0.075,0.553,0.1,0.961,0.072l-0.536,1.339L142.455,626.055z"/>
	<path d="M148.275,625.611l1.894-2.786c0.331,2.405,0.991,3.744,1.98,4.017c0.688,0.189,1.404-0.215,2.149-1.213
		s1.36-2.378,1.846-4.14c0.477-1.732,0.592-3.758,0.346-6.078l-0.316-3c-0.239-2.209-0.342-3.744-0.307-4.604
		s0.239-1.969,0.613-3.325c0.744-2.699,1.782-4.918,3.114-6.656c1.333-1.737,2.548-2.454,3.648-2.151
		c0.698,0.192,1.352,1.018,1.96,2.475l-1.875,5.331l-0.475-0.131c0.133-0.444,0.224-0.754,0.271-0.927
		c0.378-1.371,0.492-2.528,0.341-3.471s-0.54-1.501-1.168-1.674c-0.647-0.178-1.345,0.224-2.091,1.206
		c-0.746,0.983-1.344,2.29-1.793,3.921c-0.302,1.098-0.467,2.132-0.494,3.103c-0.027,0.971,0.074,2.42,0.305,4.348l0.28,2.453
		c0.317,2.713,0.183,5.13-0.402,7.252c-0.768,2.786-1.891,5.047-3.369,6.783s-2.86,2.427-4.145,2.073
		C149.605,628.145,148.833,627.21,148.275,625.611z"/>
	<path d="M167.665,629.964l1.641-2.784c0.05,2.241,0.468,3.441,1.254,3.601c0.75,0.152,1.638-0.603,2.664-2.267
		c1.025-1.663,2.462-4.691,4.31-9.084l6.626-15.727c-0.518-0.304-0.976-0.496-1.374-0.577c-1.067-0.217-2.045,0.385-2.936,1.802
		c-0.891,1.418-1.625,3.551-2.203,6.401l-1.935,1.833c0.657-2.742,1.389-4.972,2.194-6.689c0.894-1.914,1.755-3.23,2.587-3.949
		c0.831-0.719,1.897-1.076,3.199-1.072c0.259,0.007,0.653,0.003,1.183-0.013l1.727-0.498l-1.388,7.355l-2.644,15.312
		c-0.616,3.561-0.944,5.921-0.986,7.082s0.18,1.791,0.665,1.89c0.086,0.018,0.394,0.034,0.922,0.049l-0.394,1.433l-3.854,0.961
		l1.888-10.916l-4.173-0.847c-1.622,3.857-2.956,6.517-4.002,7.978c-1.045,1.461-2.066,2.09-3.062,1.889
		C168.63,632.934,167.994,631.88,167.665,629.964z M177.297,621.696l3.79,0.77l2.867-16.648L177.297,621.696z"/>
	<path d="M183.783,632.96l1.609-3.068c0.142,2.538,0.671,3.878,1.587,4.021c0.612,0.096,1.267-0.557,1.965-1.955
		c0.698-1.399,1.324-3.313,1.876-5.743l4.746-20.833c-0.244-0.159-0.42-0.247-0.528-0.264c-0.844-0.132-1.685,0.627-2.522,2.277
		s-1.458,3.77-1.862,6.358l-1.827,1.875c0.715-3.904,1.766-6.977,3.154-9.215s2.858-3.236,4.413-2.994l0.741,0.115
		c-0.08,3.989-0.032,8.263,0.142,12.821l0.198,5.168c0.146,3.555,0.213,6.421,0.2,8.602l2.889-12.688
		c0.994-4.376,2.058-7.715,3.192-10.016c1.134-2.302,2.236-3.368,3.307-3.201c0.381,0.06,0.721,0.325,1.022,0.796l-1.023,2.909
		c-0.296-1.106-0.656-1.693-1.078-1.76c-1.112-0.173-2.292,2.492-3.541,7.995l-3.766,16.53l-1.388,6.513l-1.141,0.822
		c0.076-1.7,0.022-4.907-0.16-9.618l-0.388-9.927c-0.103-2.653-0.161-5.019-0.173-7.097l-1.92,8.452
		c-1.218,5.342-2.493,9.395-3.822,12.157c-1.33,2.763-2.625,4.046-3.886,3.849C184.915,635.705,184.242,634.744,183.783,632.96z"/>
	<path d="M206.837,621.778l0.732-1.726l0.947,0.108l2.348-12.708c-0.25-0.149-0.427-0.229-0.53-0.241
		c-0.828-0.095-1.632,0.688-2.411,2.347s-1.309,3.709-1.587,6.148l-0.036,0.313l-1.748,1.948c1.239-8.735,3.872-12.873,7.898-12.413
		l0.419,0.048l-2.723,14.745l4.789,0.547l1.22-6.62c0.802-4.354,1.792-7.76,2.973-10.218c1.18-2.457,2.375-3.617,3.586-3.479
		c0.476,0.055,0.879,0.289,1.209,0.703l-1.047,3.249c-0.383-1.37-0.792-2.08-1.227-2.13c-0.548-0.063-1.063,0.55-1.542,1.836
		c-0.48,1.287-1.019,3.509-1.615,6.666l-3.149,16.55c-0.674,3.556-1.077,5.913-1.209,7.073c-0.175,1.532,0.027,2.332,0.607,2.398
		c0.253,0.028,0.625-0.012,1.114-0.122l-0.261,1.395l-4.147,1.538l3.162-17.068l-4.789-0.548l-0.49,2.635
		c-0.776,4.177-1.815,7.535-3.118,10.077c-1.302,2.541-2.6,3.738-3.894,3.59c-0.958-0.109-1.665-1.049-2.123-2.819l1.454-3.09
		c0.216,2.512,0.8,3.822,1.752,3.931c1.372,0.157,2.639-2.908,3.803-9.196l0.984-5.313L206.837,621.778z"/>
	<path d="M217.132,639.459l1.426-3.239l0.132,0.011c0.789,0.064,1.371-0.36,1.747-1.275c0.375-0.915,0.804-2.959,1.284-6.133
		l3.097-20.328c-1.069-0.088-2.001,0.666-2.796,2.261c-0.795,1.595-1.302,3.721-1.52,6.377l-0.041,0.492l-1.683,1.979
		c0.501-4.511,1.394-7.803,2.677-9.876c1.283-2.073,3.01-3.021,5.18-2.842l4.579,0.376l-1.214,6.278l-0.49-0.04
		c0.089-0.579,0.153-1.1,0.191-1.563c0.097-1.179-0.071-2.012-0.504-2.498c-0.433-0.486-1.27-0.78-2.51-0.882l-0.241-0.021
		l-1.992,13.179l3.473,0.285l-0.984,2.239c-1.143-0.528-1.927-0.811-2.353-0.846l-0.389-0.032l-0.362,2.4
		c-0.404,2.697-0.857,4.823-1.359,6.38c-0.502,1.557-1.227,3.083-2.175,4.58l3.702,0.731l0.812,0.135
		c0.846,0.069,1.706-0.693,2.579-2.29l-0.271,1.781c-1.139,2.596-2.113,3.86-2.922,3.794l-0.356-0.052L217.132,639.459z"/>
	<path d="M227.536,640.3l1.298-3.255l0.453,0.026c0.619,0.035,1.101-0.455,1.446-1.47s0.707-2.996,1.085-5.944l1.455-11.436
		c0.429-3.38,1.128-6.148,2.097-8.305c0.969-2.157,1.989-3.205,3.061-3.144c0.478,0.028,1.004,0.553,1.576,1.576l-0.71,5.561
		l-0.5-0.028c0.038-0.388,0.064-0.709,0.079-0.963c0.16-2.78-0.26-4.199-1.258-4.257c-0.982-0.057-1.779,2.32-2.389,7.13
		l-1.31,10.273c-0.391,3.082-0.825,5.442-1.303,7.079c-0.478,1.638-1.156,3.076-2.036,4.315l4.349,0.452
		c1.253,0.072,2.403-0.701,3.451-2.321l-0.213,1.675c-0.834,1.813-1.45,2.966-1.846,3.46c-0.396,0.495-0.896,0.725-1.499,0.69
		L227.536,640.3z"/>
	<path d="M239.072,639.083l1.146-3.021c0.429,2.2,1.044,3.312,1.846,3.336c0.765,0.023,1.513-0.872,2.242-2.686
		c0.729-1.813,1.633-5.04,2.711-9.682l3.869-16.621c-0.562-0.212-1.045-0.324-1.451-0.337c-1.088-0.032-1.951,0.726-2.589,2.273
		s-1,3.774-1.088,6.682l-1.596,2.134c0.184-2.813,0.527-5.135,1.03-6.965c0.556-2.037,1.183-3.48,1.881-4.329
		c0.698-0.85,1.688-1.382,2.971-1.598c0.256-0.038,0.645-0.108,1.164-0.213l1.618-0.783l-0.124,7.484l-0.015,15.538
		c-0.004,3.612,0.071,5.995,0.227,7.146c0.156,1.151,0.48,1.734,0.976,1.749c0.089,0.003,0.394-0.033,0.917-0.107l-0.146,1.479
		l-3.636,1.598l0.013-11.077l-4.256-0.128c-0.946,4.076-1.811,6.922-2.594,8.539s-1.683,2.41-2.698,2.38
		C240.526,641.846,239.72,640.915,239.072,639.083z M247.167,629.305l3.865,0.116l0.008-16.893L247.167,629.305z"/>
	<path d="M256.514,641.384l1.188-3.313l0.116,0.091c0.063,0.031,0.213,0.047,0.453,0.05c0.578,0.006,1.012-0.582,1.302-1.762
		c0.29-1.181,0.571-3.491,0.844-6.933l1.415-18.001l-1.977-0.02c-2.005-0.02-3.029,2.247-3.073,6.799
		c-0.005,0.539,0.012,1.206,0.052,2l-1.646,2.163c0.262-4.4,0.959-7.883,2.093-10.447s2.542-3.839,4.225-3.823l3.313,0.032
		c1.494,0.014,2.486-0.261,2.977-0.825s0.83-1.826,1.021-3.786l1.186-1.359c-0.392,2.782-1.116,5.029-2.175,6.74
		c-1.058,1.713-2.248,2.562-3.571,2.549l-0.781-0.007l-1.236,15.644c-0.22,2.813-0.526,5.03-0.919,6.651
		c-0.394,1.621-1.001,3.169-1.822,4.644l3.014,0.209l-1.117,3.313L256.514,641.384z"/>
	<path d="M276.342,639.379l0.925-3.097c0.587,2.164,1.28,3.229,2.082,3.194c0.765-0.032,1.445-0.979,2.042-2.84
		c0.597-1.86,1.266-5.145,2.005-9.853l2.66-16.856c-0.575-0.171-1.066-0.248-1.472-0.23c-1.088,0.046-1.895,0.863-2.419,2.453
		s-0.726,3.837-0.604,6.743l-1.438,2.243c-0.02-2.819,0.155-5.159,0.525-7.021c0.407-2.072,0.929-3.557,1.563-4.454
		s1.584-1.5,2.849-1.808c0.253-0.056,0.635-0.154,1.145-0.296l1.558-0.898l0.416,7.474l1.107,15.499
		c0.256,3.604,0.503,5.974,0.741,7.111c0.238,1.137,0.604,1.695,1.099,1.675c0.089-0.004,0.391-0.062,0.907-0.174l-0.039,1.485
		l-3.511,1.856l-0.786-11.05l-4.254,0.18c-0.649,4.134-1.307,7.035-1.972,8.704c-0.664,1.67-1.504,2.525-2.519,2.568
		C277.992,642.029,277.121,641.16,276.342,639.379z M283.71,629.042l3.863-0.163l-1.21-16.849L283.71,629.042z"/>
	<path d="M293.298,640.494l0.894-3.401l0.113-0.054c0.03-0.017,0.099-0.015,0.205,0.007c0.053,0.012,0.11,0.015,0.173,0.01
		c0.565-0.043,0.955-0.571,1.168-1.587c0.213-1.015,0.311-2.813,0.292-5.395l-0.14-21.365c-1.07,0.081-1.872,0.972-2.406,2.671
		c-0.535,1.7-0.701,3.879-0.499,6.537l0.037,0.492l-1.352,2.22c-0.402-8.874,1.479-13.47,5.646-13.785l2.251-0.171
		c1.734-0.132,3.057,0.702,3.966,2.503c0.91,1.801,1.524,4.807,1.844,9.017c0.518,6.824,0.104,12.228-1.241,16.212
		c-1.347,3.984-3.463,6.085-6.351,6.305c-0.119,0.009-0.362,0.005-0.729-0.013L293.298,640.494z M295.897,637.459l1.438,0.566
		c0.781,0.316,1.562,0.445,2.341,0.386c1.069-0.081,1.871-0.565,2.404-1.455c0.533-0.889,0.969-2.473,1.309-4.751
		c0.599-4.01,0.716-8.426,0.35-13.249c-0.563-7.436-2.274-11.045-5.131-10.828l-0.974,0.074l0.111,17.269
		c0.024,3.137-0.09,5.518-0.343,7.144C297.149,634.241,296.647,635.855,295.897,637.459z"/>
	<path d="M321.542,622.275l0.312-1.854l0.82-0.11l-0.922-14.312c-1.059,0.142-1.807,1.077-2.245,2.805
		c-0.439,1.729-0.481,3.913-0.128,6.555l0.073,0.488l-1.23,2.295c-0.476-4.574-0.307-7.995,0.507-10.265
		c0.813-2.27,2.326-3.553,4.541-3.849l4.468-0.598l0.146,6.394l-0.495,0.066c-0.013-0.603-0.058-1.193-0.135-1.772
		c-0.259-1.93-1.443-2.753-3.555-2.471l-0.333,0.045l0.927,14.401l3.376-0.451l-0.463,2.373c-0.87-0.216-1.677-0.274-2.42-0.175
		l-0.379,0.051l0.424,6.583c0.357,5.542,0.215,10.025-0.427,13.45c-0.643,3.425-1.682,5.233-3.117,5.425
		c-0.774,0.104-1.578-0.643-2.411-2.237l0.691-3.492c0.733,2.38,1.552,3.509,2.455,3.388c0.826-0.11,1.331-1.27,1.517-3.478
		s0.103-6.061-0.25-11.558l-0.501-7.864L321.542,622.275z"/>
	<path d="M335.887,636.539c-1.265,0.209-2.452-0.756-3.563-2.895s-1.985-5.143-2.625-9.014c-0.959-5.807-1.105-11.018-0.44-15.636
		c0.665-4.617,1.918-7.078,3.758-7.382c1.253-0.207,2.43,0.741,3.529,2.844s1.965,5.06,2.594,8.871
		c1.001,6.058,1.182,11.362,0.542,15.914C339.043,633.795,337.778,636.228,335.887,636.539z M335.939,634.982
		c1.336-0.221,2.146-2.44,2.43-6.661s-0.043-9.175-0.98-14.863c-1.192-7.209-2.659-10.67-4.399-10.383
		c-1.336,0.221-2.152,2.42-2.449,6.597c-0.296,4.177,0.019,9.072,0.944,14.687C332.703,631.73,334.188,635.272,335.939,634.982z"/>
	<path d="M342.225,632.534l0.436-3.438c1.02,2.329,1.983,3.399,2.892,3.214c0.607-0.125,0.993-0.964,1.158-2.52
		c0.165-1.555,0.083-3.566-0.248-6.036l-2.834-21.178c-0.285-0.063-0.48-0.085-0.588-0.063c-0.837,0.172-1.358,1.177-1.566,3.016
		s-0.049,4.042,0.478,6.608l-1.057,2.395c-0.694-3.907-0.783-7.153-0.266-9.735c0.519-2.583,1.548-4.031,3.089-4.348l0.734-0.15
		c1.319,3.765,2.857,7.752,4.614,11.963l1.991,4.773c1.379,3.278,2.443,5.941,3.192,7.989l-1.727-12.898
		c-0.599-4.448-0.769-7.948-0.51-10.5c0.258-2.552,0.918-3.937,1.979-4.154c0.377-0.077,0.789,0.052,1.236,0.389l0.058,3.083
		c-0.665-0.934-1.206-1.357-1.625-1.271c-1.102,0.226-1.276,3.136-0.523,8.728l2.249,16.805l0.976,6.586l-0.781,1.169
		c-0.523-1.619-1.693-4.604-3.511-8.955l-3.833-9.165c-1.023-2.45-1.904-4.646-2.643-6.589l1.155,8.59
		c0.725,5.431,0.947,9.673,0.667,12.727c-0.28,3.053-1.046,4.708-2.296,4.964C344.245,634.711,343.279,634.045,342.225,632.534z"/>
	<path d="M361.735,630.494l0.317-3.506l0.136,0.06c0.067,0.014,0.218-0.009,0.45-0.066c0.561-0.14,0.833-0.817,0.817-2.033
		c-0.016-1.215-0.324-3.522-0.926-6.922l-3.154-17.778l-1.918,0.478c-1.945,0.485-2.367,2.938-1.266,7.354
		c0.13,0.523,0.314,1.164,0.552,1.923l-1.049,2.507c-0.854-4.324-1.054-7.87-0.601-10.638s1.495-4.354,3.128-4.762l3.214-0.802
		c1.45-0.362,2.342-0.877,2.674-1.547c0.332-0.669,0.345-1.977,0.036-3.921l0.806-1.613c0.32,2.791,0.184,5.147-0.41,7.07
		s-1.533,3.044-2.816,3.364l-0.758,0.189l2.735,15.452c0.494,2.778,0.755,5.002,0.782,6.669c0.026,1.668-0.173,3.318-0.597,4.952
		l2.97-0.556l-0.25,3.488L361.735,630.494z"/>
	<path d="M371.606,627.973l0.185-3.534l0.127-0.037c0.761-0.219,1.154-0.823,1.181-1.812c0.027-0.989-0.298-3.052-0.976-6.189
		l-4.318-20.104c-1.03,0.297-1.635,1.333-1.812,3.105c-0.177,1.773,0.104,3.94,0.842,6.501l0.138,0.476l-0.872,2.448
		c-1.132-4.396-1.466-7.79-1.001-10.184c0.464-2.394,1.742-3.893,3.834-4.495l4.414-1.273l1.093,6.301l-0.473,0.136
		c-0.122-0.572-0.247-1.082-0.376-1.528c-0.327-1.136-0.78-1.854-1.357-2.156c-0.577-0.301-1.464-0.278-2.66,0.066l-0.232,0.066
		l2.813,13.027l3.348-0.965l-0.125,2.442c-1.256-0.089-2.089-0.074-2.499,0.044l-0.376,0.108l0.514,2.373
		c0.579,2.664,0.91,4.813,0.993,6.446c0.084,1.634-0.053,3.318-0.408,5.054l3.721-0.629l0.808-0.163
		c0.815-0.235,1.349-1.254,1.599-3.056l0.378,1.761c-0.144,2.831-0.605,4.359-1.386,4.584l-0.352,0.078L371.606,627.973z"/>
	<path d="M381.81,623.669l0.043-3.369c1.604,1.824,2.893,2.576,3.868,2.259c0.678-0.222,1.053-0.954,1.123-2.198
		c0.071-1.243-0.177-2.733-0.743-4.471c-0.558-1.708-1.579-3.462-3.064-5.261l-1.918-2.328c-1.418-1.711-2.35-2.935-2.796-3.671
		c-0.445-0.736-0.887-1.774-1.323-3.112c-0.868-2.662-1.227-5.085-1.073-7.27c0.153-2.184,0.771-3.453,1.856-3.807
		c0.688-0.225,1.688,0.103,2.999,0.982l1.377,5.48l-0.468,0.153c-0.134-0.444-0.229-0.753-0.284-0.924
		c-0.441-1.352-0.985-2.38-1.631-3.082c-0.646-0.703-1.277-0.954-1.896-0.752c-0.639,0.208-0.999,0.929-1.079,2.159
		c-0.08,1.231,0.142,2.651,0.667,4.26c0.353,1.082,0.785,2.035,1.299,2.86c0.513,0.825,1.396,1.978,2.652,3.458l1.587,1.893
		c1.76,2.088,2.981,4.178,3.664,6.271c0.896,2.747,1.207,5.253,0.932,7.516c-0.274,2.264-1.046,3.602-2.313,4.016
		C384.317,625.048,383.158,624.693,381.81,623.669z"/>
	<path d="M400.431,616.552l-0.217-3.225c1.307,1.822,2.329,2.576,3.067,2.265c0.705-0.299,1.012-1.423,0.92-3.376
		c-0.093-1.951-0.616-5.262-1.57-9.931l-3.408-16.722c-0.599,0.041-1.085,0.141-1.459,0.299c-1.003,0.424-1.472,1.472-1.407,3.145
		s0.663,3.849,1.795,6.527l-0.563,2.605c-1.005-2.634-1.66-4.888-1.965-6.761c-0.343-2.084-0.374-3.657-0.094-4.72
		s0.959-1.959,2.035-2.69c0.218-0.141,0.541-0.366,0.969-0.678l1.145-1.387l3.006,6.855l6.461,14.132
		c1.501,3.286,2.563,5.42,3.184,6.402c0.621,0.981,1.159,1.376,1.615,1.184c0.082-0.034,0.345-0.194,0.79-0.479l0.483,1.405
		l-2.64,2.968l-4.604-10.076l-3.922,1.656c0.838,4.101,1.238,7.048,1.199,8.845c-0.038,1.796-0.525,2.892-1.461,3.287
		C402.904,618.457,401.784,617.947,400.431,616.552z M403.715,604.29l3.563-1.505l-7.03-15.36L403.715,604.29z"/>
	<path d="M415.751,610.079l-0.316-2.725l1.758,0.737c1.525-1.203,2.203-3.25,2.032-6.14c-0.109-1.917-0.608-4.314-1.497-7.191
		c-0.889-2.878-1.976-5.62-3.26-8.228c-1.175-2.377-2.361-4.256-3.561-5.636c-1.199-1.379-2.114-1.914-2.745-1.603
		c-0.977,0.481-1.13,2.315-0.46,5.502s1.935,6.668,3.796,10.444c1.812,3.668,3.146,5.29,4.004,4.867
		c0.514-0.254,0.78-1.062,0.8-2.423l0.725,1.771c0.046,1.965-0.288,3.123-1.003,3.476c-0.607,0.3-1.418-0.119-2.432-1.256
		c-1.014-1.138-2.062-2.801-3.142-4.991c-2.027-4.111-3.304-8.101-3.826-11.969c-0.523-3.868-0.096-6.143,1.282-6.822
		c0.962-0.475,2.245,0.078,3.85,1.659s3.09,3.755,4.455,6.522c2.207,4.475,3.543,8.685,4.009,12.631s0.021,7.307-1.335,10.08
		l6.868,2.955c1.226,0.531,2.103,0.666,2.63,0.406c0.598-0.295,0.942-1.25,1.035-2.865l0.67,1.623
		c0.183,2.548-0.063,3.988-0.735,4.32c-0.374,0.184-1.112,0.047-2.215-0.411L415.751,610.079z"/>
	<path d="M436.764,601.891l-3.013-6.246c1.29,4.576,1.36,7.191,0.212,7.848c-0.8,0.458-1.896,0.02-3.289-1.314
		s-2.858-3.347-4.396-6.037c-0.959-1.677-2.387-4.491-4.283-8.443s-3.623-7.709-5.179-11.27c-0.29,0.027-0.48,0.067-0.57,0.119
		c-0.746,0.427-0.932,1.546-0.556,3.357c0.376,1.813,1.214,3.855,2.515,6.13l-0.257,2.604c-4.178-7.77-4.531-12.647-1.059-14.633
		l0.488-0.279c1.714,3.953,3.583,8.041,5.608,12.265c2.024,4.225,3.591,7.305,4.698,9.241c1.204,2.106,2.291,3.671,3.261,4.695
		c0.969,1.023,1.714,1.388,2.233,1.09c0.547-0.313,0.701-1.297,0.462-2.954s-0.85-3.801-1.831-6.431l-9.908-20.493l1.261-1.367
		l3.063,6.554l7.012,14.516c1.288,2.662,2.147,4.37,2.579,5.124c0.803,1.403,1.504,1.934,2.105,1.59
		c0.213-0.121,0.447-0.342,0.702-0.66l0.626,1.298L436.764,601.891z"/>
	<path d="M440.071,596.802l-0.85-3.119c1.641,1.528,2.792,2.066,3.455,1.615c0.633-0.432,0.711-1.595,0.235-3.49
		s-1.642-5.038-3.498-9.427l-6.639-15.722c-0.579,0.159-1.037,0.353-1.372,0.582c-0.899,0.612-1.152,1.732-0.759,3.36
		c0.394,1.627,1.409,3.642,3.047,6.045l-0.037,2.665c-1.506-2.385-2.592-4.465-3.261-6.24c-0.747-1.976-1.088-3.512-1.022-4.608
		s0.554-2.11,1.465-3.039c0.186-0.181,0.458-0.467,0.816-0.855l0.849-1.585l4.299,6.128l9.121,12.579
		c2.119,2.926,3.581,4.809,4.384,5.648c0.802,0.84,1.408,1.121,1.816,0.843c0.073-0.051,0.3-0.259,0.68-0.627l0.751,1.282
		l-2.002,3.431l-6.501-8.971l-3.518,2.398c1.63,3.854,2.604,6.665,2.92,8.434s0.056,2.938-0.784,3.511
		C442.871,598.182,441.671,597.902,440.071,596.802z M440.872,584.133l3.196-2.179l-9.923-13.671L440.872,584.133z"/>
	<path d="M455.18,588.564l-1.204-3.308l0.079-0.064c0.021-0.017,0.077-0.033,0.17-0.051c0.097-0.021,0.188-0.066,0.272-0.136
		c0.412-0.336,0.38-1.028-0.098-2.079c-0.477-1.051-1.493-2.68-3.051-4.888l-12.091-17.122c-0.832,0.679-0.98,1.868-0.446,3.571
		c0.534,1.702,1.645,3.588,3.331,5.656l0.313,0.384l0.161,2.597c-2.809-3.668-4.459-6.681-4.951-9.036s0.134-4.244,1.878-5.665
		c1.36-1.109,2.619-1.511,3.774-1.206c1.156,0.306,2.496,1.394,4.021,3.264c2.52,3.09,3.884,6.368,4.094,9.832l7.165,5.823
		c2.549,2.071,3.948,3.005,4.198,2.802c0.274-0.225-0.07-1.652-1.034-4.286l1.233,1.747c1.244,3.333,1.656,5.17,1.236,5.512
		c-0.545,0.444-2.57-0.812-6.076-3.77l-7.251-6.114l-1.145,0.933l1.168,1.655c2.571,3.642,4.125,6.916,4.659,9.822l2.481-1.791
		l1.265,3.258L455.18,588.564z M448.966,571.839l1.604-1.309c-0.167-2.456-1.563-5.294-4.188-8.514
		c-2.416-2.964-4.363-3.844-5.841-2.64l-0.236,0.192L448.966,571.839z"/>
	<path d="M473.418,573.431l-4.525-5.255c2.429,4.087,3.173,6.595,2.233,7.526c-0.654,0.648-1.827,0.509-3.518-0.42
		c-1.689-0.929-3.626-2.493-5.808-4.695c-1.359-1.372-3.467-3.722-6.32-7.049c-2.854-3.328-5.493-6.511-7.916-9.548
		c-0.273,0.103-0.446,0.189-0.521,0.263c-0.61,0.605-0.5,1.734,0.331,3.387c0.832,1.653,2.17,3.411,4.015,5.271l0.426,2.583
		c-6.046-6.426-7.647-11.047-4.807-13.862l0.399-0.396c2.678,3.376,5.541,6.842,8.589,10.398s5.357,6.128,6.928,7.713
		c1.708,1.723,3.162,2.953,4.363,3.692c1.201,0.738,2.015,0.896,2.439,0.476c0.448-0.444,0.342-1.436-0.317-2.974
		c-0.66-1.539-1.804-3.451-3.432-5.738l-14.869-17.235l0.864-1.646l4.653,5.539l10.527,12.209c1.932,2.238,3.204,3.666,3.814,4.283
		c1.139,1.148,1.954,1.479,2.446,0.991c0.174-0.172,0.343-0.445,0.508-0.819l0.939,1.093L473.418,573.431z"/>
	<path d="M475.455,567.459l-2.032-2.833c2.326,1.021,3.763,1.151,4.31,0.39c0.357-0.499,0.066-1.378-0.874-2.636
		s-2.364-2.677-4.271-4.257l-16.479-13.636c-0.252,0.146-0.408,0.261-0.47,0.346c-0.501,0.698-0.203,1.793,0.893,3.284
		s2.709,3,4.838,4.527l0.851,2.476c-3.331-2.524-5.633-4.89-6.906-7.098c-1.272-2.207-1.392-4.033-0.356-5.477l0.369-0.514
		c6.828,3.712,13.681,7.762,20.558,12.149l-16.341-18.028l0.518-1.686l5.513,4.685l14.17,11.73c1.263,1.04,2.289,1.844,3.08,2.411
		c1.07,0.768,1.769,0.926,2.093,0.473c0.161-0.225,0.31-0.572,0.446-1.046l1.108,0.921l-0.461,4.419l-22.584-18.689l16.89,18.69
		l-0.177,0.863l-0.529-0.38c-4.758-3.412-10.955-7.245-18.593-11.498l7.073,5.861c8.731,7.225,12.332,11.902,10.803,14.035
		C478.357,567.688,477.211,567.86,475.455,567.459z"/>
</g>
</svg>
